<?xml version="1.0" encoding="UTF-8"?>
<svg id="Layer_1" xmlns="http://www.w3.org/2000/svg" version="1.1" viewBox="0 0 110 110">
  <!-- Generator: Adobe Illustrator 29.6.1, SVG Export Plug-In . SVG Version: 2.1.1 Build 9)  -->
  <defs>
    <style>
      .st0 {
        fill: none;
        stroke: #3a3a3a;
        stroke-dasharray: 6;
        stroke-linecap: round;
        stroke-linejoin: round;
      }
    </style>
  </defs>
  <path class="st0" d="M18.58,31.09c.17-1.86,1.39-3.51,2.7-4.78-.71-1.46-1.3-2.68-.68-4.33.54-1.43,1.91-2.67,3.06-3.61-.46-1-.94-2.01-1.43-3.03-1.18-2.28-.3-3.82,1.67-5.19,2.24-1.56,5.11-2.48,7.83-2.22,1.78.17,2.65,2.08,3.11,3.63l.75,1.53.31.04c3.06-.8,6.26.26,7.16,3.5,2.74-.09,5.66.51,7.3,2.91l.62-.21c3.17-2.01,7.7-2.74,8.62,2.07.04.63.29,3.47.87,3.71,1.41.15,1.69,1.32,1.61,2.55.03.34.17.65.38.92.85.9,1.54,1.71,1.13,3.01.08.54.71,1.39,1.05,1.84,3.01,3.96,6.5,7.44,10.66,10.31,4.21,2.83,8.22,5.87,12.01,9.1,1.21,1.19,2.76,2.85,1.91,4.6-.28.56-1.89,2.69-2.39,2.96-1.31.7-4.55-1.22-5.6-1.85-5.13-3.05-9.73-7.18-13.72-11.6-3.44-3.8-6.56-7.99-8.8-12.62l-.42.05,1.56,3.6c2.68,5.57,5.13,11.23,7.37,16.98.02.71-.03,1.42-.16,2.12,3.72,8.19,7.36,16.41,10.93,24.66,2.45,4.11-.64,7.86-3.72,10.39-5.06,4.15-12.66,7.66-19.25,7.92-3.29.13-6.55.08-8.24-3.29l-11.38-25.51c-1.68-.79-2.55-2.51-3.28-4.15-3.41-7.58-6.82-15.27-10.06-22.87-.08-.44-.15-1.3.34-1.45q.15.02,0,0c-.26-.08-.29-.27-.05-.44-.71-2.12-1.61-4.19-2.69-6.2-.56-1.12-.97-2.26-1.08-3.48v-1.55ZM55.96,20.96c-.58-.04-1.19.04-1.72.29-.47.22-.67.35-.39.84.15.27.13-.06.23-.1.41-.15,1.4-.41,1.71-.62.11-.08.19-.28.17-.42ZM54.82,28.49s.03-.26.09-.37c.1-.17.32-.31.34-.5.02-.15-.2-.65-.31-.73-.24-.15-1.13.28-1.45.27-.05.05.5,1.21.56,1.25.14.11.69.15.77.08Z"/>
</svg>