<?xml version="1.0" encoding="UTF-8"?>
<svg id="Layer_1" xmlns="http://www.w3.org/2000/svg" version="1.1" viewBox="0 0 250 250">
  <!-- Generator: Adobe Illustrator 29.6.1, SVG Export Plug-In . SVG Version: 2.1.1 Build 9)  -->
  <defs>
    <style>
      .st0 {
        fill: none;
        stroke: #000;
        stroke-linecap: round;
        stroke-linejoin: round;
        stroke-width: 7px;
      }
    </style>
  </defs>
  <path class="st0" d="M53.78,76.95c0-5.52,4.47-9.99,9.99-9.99.28,0,.55.01.82.03,6.62.54,10.25,8.05,6.98,13.83l-7.18,12.71c-6.36,11.25,1.03,25.68,13.93,26.43.37.02.75.03,1.13.03,1.08,0,2.14-.09,3.17-.26"/>
  <path class="st0" d="M112.72,133.05c-13.82-5.74-23.54-19.37-23.54-35.26,0-10.51,4.25-20.02,11.12-26.92"/>
  <path class="st0" d="M162.55,112.57c-4.57,10.88-14.05,19.2-25.66,22.19"/>
  <path class="st0" d="M154.75,90.1h13.21c15.6,0,28.25-15.9,28.25-21.27s-5.98-8.59-21.58-8.59c0-10.28-10.08-18.82-23.35-20.53-2.47-.32-4.97-.31-7.45-.13l-3,.22c-1.56-10.32-10.68-18.16-21.53-17.69-10.45.45-19.11,8.85-19.86,19.28-.84,11.63,7.86,21.4,19.09,22.31.56.05,1.13.07,1.7.07"/>
  <line class="st0" x1="154.75" y1="101.27" x2="186.01" y2="101.27"/>
  <line class="st0" x1="91.29" y1="194.36" x2="99.38" y2="164.16"/>
  <line class="st0" x1="107.3" y1="199.06" x2="115.39" y2="168.87"/>
  <line class="st0" x1="119.26" y1="156.76" x2="127.35" y2="126.56"/>
  <line class="st0" x1="123.3" y1="203.77" x2="131.39" y2="173.57"/>
  <circle class="st0" cx="159.27" cy="65.73" r="1.23"/>
  <path class="st0" d="M139.25,203.77c1.75,2.49,2.78,5.53,2.78,8.8,0,8.47-6.87,15.34-15.34,15.34-5.19,0-9.77-2.57-12.55-6.51-2.77,3.94-7.36,6.51-12.55,6.51-7.79,0-14.22-5.8-15.2-13.33-2.28,1.35-4.96,2.14-7.8,2.14-8.47,0-15.35-6.87-15.35-15.34s6.88-15.34,15.35-15.34"/>
</svg>