<?xml version="1.0" encoding="UTF-8"?>
<svg id="Layer_1" xmlns="http://www.w3.org/2000/svg" version="1.1" viewBox="0 0 250 250">
  <!-- Generator: Adobe Illustrator 29.6.1, SVG Export Plug-In . SVG Version: 2.1.1 Build 9)  -->
  <defs>
    <style>
      .st0 {
        fill: none;
        stroke: #000;
        stroke-linecap: round;
        stroke-linejoin: round;
        stroke-width: 5px;
      }
    </style>
  </defs>
  <path class="st0" d="M122.77,181.09c15.77,1.19,31.96-4.25,44.02-16.31,21.97-21.97,21.97-57.58,0-79.55s-57.58-21.97-79.55,0c-21.97,21.97-21.97,57.59,0,79.55"/>
  <polyline class="st0" points="88.64 148.62 87.23 164.77 71.08 163.36"/>
  <path class="st0" d="M146.23,121.61c1.77,1.88,3.29,15.01-.46,22.51s-11.52,9.02-15.1,10.39c.07.28.11,4.61.11,4.61,0,2.06-1.69,3.75-3.75,3.75s-3.75-1.69-3.75-3.75c0,0,.04-4.33.11-4.61-3.58-1.37-11.36-2.89-15.11-10.39s-2.24-20.63-.46-22.52c-8.06-.24-14.54-6.85-14.54-14.98s6.72-15,15-15,15,6.71,15,15c1.23-.31,2.49-.47,3.75-.47s2.52.16,3.75.47c0-8.29,6.73-15,15.01-15,.27,0,.55,0,.83.02,7.84.42,14.14,7.06,14.17,14.92.03,8.16-6.44,14.8-14.54,15.04h0Z"/>
  <circle cx="118.01" cy="135.12" r="3.5"/>
  <ellipse cx="136.09" cy="135.12" rx="3.52" ry="3.5"/>
</svg>