<?xml version="1.0" encoding="UTF-8"?>
<svg id="Layer_1" xmlns="http://www.w3.org/2000/svg" version="1.1" viewBox="0 0 1000 1000">
  <!-- Generator: Adobe Illustrator 29.7.1, SVG Export Plug-In . SVG Version: 2.1.1 Build 8)  -->
  <defs>
    <style>
      .st0 {
        fill: none;
        stroke: #262626;
        stroke-dasharray: 24 24;
        stroke-linecap: round;
        stroke-linejoin: round;
        stroke-width: 6px;
      }
    </style>
  </defs>
  <path class="st0" d="M198.82,477.07c-1.36,26.63-7.99,123.81-7.99,131.79s4.66,10.65,21.97,12.65c17.31,2,296.32,52.72,296.32,52.72,0,0,7.66-19.36,30.66-13.72,22.99,5.65,23.8,22.59,23.8,22.59,0,0,213.41,39.94,223.49,39.13,0,0,3.23-6.45-2.02-19.77-5.24-13.31-2.42-26.22.81-23.4,3.23,2.82,6.45,8.07,8.07-4.03,1.61-12.1,15.33-94.4,15.33-94.4,0,0-41.82-82.5-47-92.29-5.18-9.79-12.48-5.18-18.05-6.34-5.57-1.15,1.15-22.08.96-25.92-.19-3.84-58.64-108.89-58.64-108.89,0,0-8.7,1.15-12.76-5.49-4.06-6.64.49-19.43-2.34-25.94-2.83-6.52-14.63-30.74-17.21-32.09s-98.43,5.98-112.32,8.51c-13.9,2.53-3.93,11.64-18.94,13.92-10.78,1.64-20.37-1.88-26.8-5.09-6.43-3.22-226.78,32.07-297.35,176.07Z"/>
</svg>