<?xml version="1.0" encoding="UTF-8"?>
<svg id="Layer_1" xmlns="http://www.w3.org/2000/svg" version="1.1" viewBox="0 0 110 110">
  <!-- Generator: Adobe Illustrator 29.6.1, SVG Export Plug-In . SVG Version: 2.1.1 Build 9)  -->
  <defs>
    <style>
      .st0 {
        fill: none;
        stroke: #3a3a3a;
        stroke-dasharray: 6;
        stroke-linecap: round;
        stroke-linejoin: round;
      }
    </style>
  </defs>
  <path class="st0" d="M12.13,69.71l.08-5.29c-.26-3.27,1.1-5.08,3.18-7.33.98-1.06,2-2.13,3-3.17,2.46-2.31,4.82-4.73,7.07-7.26,1.97-2.15,4.04-3.92,6.88-4.49.5-1.55,1.21-2.99,2.12-4.31,5.32-5.44,10.78-10.96,16.4-16.07,1.72-1.57,5.59-1.04,7.62-.36,11.08,3.73,22.73,10.57,30.76,19.2,3.68,3.95,8.06,10.06,8.55,15.48.21,7.78.23,15.57.07,23.38.13,3.31-2.57,6.07-5.83,6.28-3.68.25-7.4.49-11.11.68-17.43.91-34.88,1.82-52.33,2.57-4.15.18-8.21.19-12.14.06-2.32-.18-4.21-1.99-4.18-4.41-.09-2.1-.14-4.2-.14-6.3-.06-2.84-.06-5.83,0-8.67Z"/>
</svg>