<?xml version="1.0" encoding="UTF-8"?>
<svg id="Layer_1" xmlns="http://www.w3.org/2000/svg" version="1.1" viewBox="0 0 250 250">
  <!-- Generator: Adobe Illustrator 29.6.1, SVG Export Plug-In . SVG Version: 2.1.1 Build 9)  -->
  <defs>
    <style>
      .st0 {
        fill: none;
        stroke: #000;
        stroke-linecap: round;
        stroke-linejoin: round;
        stroke-width: 5px;
      }
    </style>
  </defs>
  <path class="st0" d="M179.01,136.79c-.44,2.92-1.34,5.8-2.71,8.5"/>
  <line class="st0" x1="73.54" y1="133.67" x2="96.04" y2="133.67"/>
  <line class="st0" x1="73.54" y1="143.05" x2="96.04" y2="143.05"/>
  <line class="st0" x1="73.54" y1="124.3" x2="96.04" y2="124.3"/>
  <path class="st0" d="M73.54,152.42c0,6.22-5.04,11.25-11.25,11.25s-11.25-5.03-11.25-11.25c0-3.24,1.37-6.16,3.57-8.21-4.27-1.59-7.32-5.71-7.32-10.54s3.05-8.95,7.31-10.54c-2.2-2.05-3.56-4.97-3.56-8.21,0-6.21,5.04-11.25,11.25-11.25s11.25,5.04,11.25,11.25"/>
  <path class="st0" d="M134.17,110.2c-1.63,1.25-3.15,2.68-4.52,4.32-6.94,8.27-8.3,19.36-4.5,28.7"/>
  <path class="st0" d="M148.59,108.33c-8.29,0-15-6.71-15-15s6.71-15,15-15,15,6.71,15,15h7.5c7.5,0,18.75,7.5,18.75,15,0,0,16.88,0,16.88,7.5s-13.12,13.13-20.62,13.13h-13.17"/>
  <line class="st0" x1="118.07" y1="160.09" x2="136.5" y2="147.19"/>
  <line class="st0" x1="182.76" y1="160.09" x2="164.33" y2="147.19"/>
  <path class="st0" d="M101.3,99.08c0-4.22,3.48-7.63,7.73-7.5,3.99.12,7.27,3.5,7.27,7.5,0,1.36-.37,2.65-1,3.75l-8.32,12.46c-1.55,2.29-2.28,5.2-1.75,8.27.8,4.7,4.64,8.44,9.36,9.13"/>
  <path class="st0" d="M163.56,157.86c-3.73,1.83-7.94,2.86-12.37,2.86-5.05,0-9.79-1.33-13.88-3.66"/>
  <circle cx="178.54" cy="112.08" r="3.5"/>
</svg>