<?xml version="1.0" encoding="UTF-8"?>
<svg id="Layer_1" xmlns="http://www.w3.org/2000/svg" version="1.1" viewBox="0 0 110 110">
  <!-- Generator: Adobe Illustrator 29.6.1, SVG Export Plug-In . SVG Version: 2.1.1 Build 9)  -->
  <defs>
    <style>
      .st0 {
        stroke-dasharray: 3;
      }

      .st0, .st1 {
        fill: none;
        stroke: #3a3a3a;
        stroke-linecap: round;
        stroke-linejoin: round;
      }

      .st1 {
        stroke-dasharray: 6;
      }
    </style>
  </defs>
  <rect class="st1" x="10.68" y="17.47" width="75" height="75" rx="15" ry="15"/>
  <path class="st0" d="M53.78,46.04c0-3-2.31-4.92-5.64-4.94-3.64.03-5.85,2.31-5.85,6.06h-6.75c.03-7.34,5.34-12.07,12.87-12.07,6.94,0,12.39,3.96,12.39,10.69,0,8.75-9.25,7.63-9.25,15.63v.96h-6.75v-.74c.03-11.06,8.98-9.67,8.98-15.58ZM43.9,70.7c-.03-2.39,1.78-4.15,4.31-4.15s4.28,1.75,4.31,4.15c-.03,2.39-1.83,4.15-4.31,4.15s-4.33-1.75-4.31-4.15Z"/>
</svg>