<?xml version="1.0" encoding="UTF-8"?>
<svg id="Layer_1" xmlns="http://www.w3.org/2000/svg" version="1.1" viewBox="0 0 110 110">
  <!-- Generator: Adobe Illustrator 29.6.1, SVG Export Plug-In . SVG Version: 2.1.1 Build 9)  -->
  <defs>
    <style>
      .st0 {
        fill: none;
        stroke: #3a3a3a;
        stroke-dasharray: 6;
        stroke-linecap: round;
        stroke-linejoin: round;
      }
    </style>
  </defs>
  <path class="st0" d="M18.28,41.93c-.39-6.45,5.23-9.18,10.8-9.54-1.78-3.12-2.18-8.37,1.55-10.25-1.48.18-2.76.22-2.54-1.56.36-.67,3.33-1.01,3.93-1.05,4.01-.27,7.9-.17,11.8.11.79.06,1.53-.04,2.23-.3,1.98-1.62,4.25-2.05,6.76-2.21.76-.1,1.41-.5,2.03-.93,2.27-1.63,4.56-3.26,7.05-4.5,2.71-1.35,6.41-2.23,9-.17,4.73,3.74,6.04,14.35-1.73,15.26l-4.67.8c2.15.93,4.29,1.09,6.62,1.23,3.12.42,4.36,1.11,6.25,3.56,1.62,2.1,3.12,4.6,4.26,6.99s1,3.05-.92,4.82l-1.36,1.05c1.21,2.93,2.02,5.91,2.38,9.06,2.03,1.27,3.34,3.15,4.64,5.1.53.79,2.52,4.2,2.56,5,.02.34-.03.64-.26.92-.87.85-1.78,1.64-2.73,2.38,1.63,4.56,3.31,9.11,5.23,13.55.47,2.86-2.13,4.51-4.51,5.08.21,1.54.65,4.95-1.37,5.54-8.97,2.59-18.09,5.14-27.09,7.31-.51.02-.98.1-1.41.23-3.32.23-6.74.26-10.11.27h-.83c-2.92-.06-5.87-.16-8.69-1.05-1.42-.31-1.66-1.34-1.91-2.54-2.37-.1-4.94-.5-6.88-1.97-4.22-3.19-5.21-8.66-5.48-13.64,0-8.81-1.56-17.59-3.5-26.24-.71-3.09-.98-6.08-1.11-9.11.06-1.05-.08-2.17,0-3.2ZM33.14,71.67c.03-.32.03-.65.02-.96-.43-8.53-1.54-16.99-1.86-25.51-.03-.84-.02-1.75.08-2.58-.48-.54-1.07-.75-1.28-1.51-.04-.16.03-.31,0-.42-.04-.16-1.89-2.12-2.16-2.37-.09-.08-.58-.51-.62-.51-.31,0-.18.58-.2.72-.67,4.53.18,8.99,1.01,13.45,1.28,6.89,3.11,13.7,3.38,20.75.52-.4.98-.86,1.63-1.05Z"/>
</svg>