<?xml version="1.0" encoding="UTF-8"?>
<svg id="Layer_1" xmlns="http://www.w3.org/2000/svg" version="1.1" viewBox="0 0 110 110">
  <!-- Generator: Adobe Illustrator 29.6.1, SVG Export Plug-In . SVG Version: 2.1.1 Build 9)  -->
  <defs>
    <style>
      .st0 {
        fill: none;
        stroke: #3a3a3a;
        stroke-dasharray: 6;
        stroke-linecap: round;
        stroke-linejoin: round;
      }
    </style>
  </defs>
  <path class="st0" d="M74.59,54.75c.11,0,.33.03.26-.15-3.29-2.86-2.49-8.08.11-11.15,3.09-3.66,9.77-3.82,11.33,1.47,1.08,3.65-.95,7.57-3.86,9.71-.18.13-.8.41-.83.46-.06.07-.35,1.37-.32,1.46.07.23,3.63,2.04,4.15,2.36,13.39,8.24,2.91,32.4-12.27,31.17-.43-.03-1.34-.34-1.65-.31-.18.02-.61.45-.88.57-1.38.61-5.12-.15-6.74-.39-6.42-.97-12.66-2.52-19.22-2.53-6.58.76-12.84,2.85-19.27,4.28-1.85.41-4.83,1.35-6.52.48-2.71-1.39-3.75-5.6-4.13-8.37-.05-.35-.32-2.51-.27-2.63.16-.36,1.21-.21,1.38-.32.09-.05.32-1.67.42-2.01.26-.84.76-1.52,1.15-2.27-5-12.97-6.24-26.93-6.83-40.75-.74.08-1.51-.31-2.07-.77-.27-.22-.82-1.01-1-1.06-.49-.15-1.4.23-1.69.03-.24-.16-1-4.86-1.03-5.47-.17-2.81.44-8.51,3.62-9.61,1.68-.58,6.15.3,8.08.6,3.43.53,6.96,1.39,10.37,1.82,2.06.26,5.42.67,7.43.64s5.57-.6,7.61-.97c3.88-.69,7.88-1.96,11.75-2.81,1.78-.39,4.76-1.37,6.37-.48,2.46,1.35,3.6,5.4,3.75,8.03.19,3.21-.55,8.93-4.8,8.83l-5.73-.62c.19.69.07,1.41.1,2.12.42,10.38,1.56,21.83,4.31,31.84.03.12.25.59.32.71.25.44.28-.26.36-.51,1.8-5.13,5.41-10.01,10.52-12.2.86-.37,3.32-1.2,4.17-1.2.51,0,1.05.03,1.55,0ZM82.33,52.01c3.07-2.83,3.22-10.04-2.25-9.43-3.35.38-6.32,5.5-5.2,8.58.05.13.46.76.54.8.33.14.27-.29.4-.52.24-.41.78-.62,1.25-.62,1.5.25,3.02.53,4.4,1.19.18.09.3.23.46.34.22-.03.28-.23.41-.35Z"/>
</svg>