<?xml version="1.0" encoding="UTF-8"?>
<svg id="Layer_1" xmlns="http://www.w3.org/2000/svg" version="1.1" viewBox="0 0 110 110">
  <!-- Generator: Adobe Illustrator 29.6.1, SVG Export Plug-In . SVG Version: 2.1.1 Build 9)  -->
  <defs>
    <style>
      .st0 {
        fill: #b48b7b;
      }

      .st1 {
        fill: #3b598e;
      }

      .st2 {
        fill: #040f48;
      }

      .st3 {
        fill: #0055b8;
      }

      .st4 {
        fill: #9a8d89;
      }

      .st5 {
        fill: #416297;
      }

      .st6 {
        fill: #2b9eeb;
      }

      .st7 {
        fill: #2e558d;
      }

      .st8 {
        fill: #efb168;
      }

      .st9 {
        fill: #6d6d6d;
      }

      .st10 {
        fill: #788cc0;
      }

      .st11 {
        fill: #1e77ce;
      }

      .st12 {
        fill: #0063c7;
      }

      .st13 {
        fill: #e69b15;
      }

      .st14 {
        fill: #e39712;
      }

      .st15 {
        fill: #006ecf;
      }

      .st16 {
        fill: #cecdcd;
      }

      .st17 {
        fill: #2c8ee1;
      }

      .st18 {
        fill: #6c6c6c;
      }

      .st19 {
        fill: #d67508;
      }

      .st20 {
        fill: #eeb47a;
      }

      .st21 {
        fill: #008be4;
      }

      .st22 {
        fill: #134b8c;
      }

      .st23 {
        fill: #5f5f5f;
      }

      .st24 {
        fill: #093772;
      }

      .st25 {
        fill: #1a4682;
      }

      .st26 {
        fill: #ea9a17;
      }

      .st27 {
        fill: #6b707b;
      }

      .st28 {
        fill: #aaa9a8;
      }

      .st29 {
        fill: #6b738c;
      }

      .st30 {
        fill: #6477a0;
      }

      .st31 {
        fill: #2d61b6;
      }

      .st32 {
        fill: #e2961c;
      }

      .st33 {
        fill: #2c5bac;
      }

      .st34 {
        fill: #906557;
      }

      .st35 {
        fill: #777279;
      }

      .st36 {
        fill: #a6aab6;
      }

      .st37 {
        fill: #7c7f8a;
      }

      .st38 {
        fill: #2d4b90;
      }

      .st39 {
        fill: #c1c1c1;
      }

      .st40 {
        fill: #376dc2;
      }

      .st41 {
        fill: #5a5a5a;
      }

      .st42 {
        fill: #4f6898;
      }

      .st43 {
        fill: #8e827e;
      }

      .st44 {
        fill: #e9a11a;
      }

      .st45 {
        fill: #22518f;
      }

      .st46 {
        fill: #0047a9;
      }

      .st47 {
        fill: #0041a1;
      }

      .st48 {
        fill: #d8d8d8;
      }

      .st49 {
        fill: #c3c3c3;
      }

      .st50 {
        fill: #373737;
      }

      .st51 {
        fill: #847673;
      }

      .st52 {
        fill: #a9a9a8;
      }

      .st53 {
        fill: #9ea7c2;
      }

      .st54 {
        fill: #5877ba;
      }

      .st55 {
        fill: #0097eb;
      }

      .st56 {
        fill: #694d4f;
      }

      .st57 {
        fill: #10407d;
      }

      .st58 {
        fill: #a8806d;
      }

      .st59 {
        fill: #eca933;
      }

      .st60 {
        fill: #518cd8;
      }

      .st61 {
        fill: #efae4d;
      }

      .st62 {
        fill: #007edd;
      }

      .st63 {
        fill: #bbbab9;
      }

      .st64 {
        fill: #64677a;
      }

      .st65 {
        fill: #9a9ca3;
      }

      .st66 {
        fill: #b0b0b0;
      }

      .st67 {
        fill: #ba8469;
      }

      .st68 {
        fill: #b87a5f;
      }

      .st69 {
        fill: #2b3267;
      }

      .st70 {
        fill: #a49894;
      }

      .st71 {
        fill: #797988;
      }

      .st72 {
        fill: #9b9b9b;
      }

      .st73 {
        fill: #269be9;
      }

      .st74 {
        fill: #cb7400;
      }

      .st75 {
        fill: #efad4a;
      }

      .st76 {
        fill: #081b42;
      }

      .st77 {
        fill: #102e5d;
      }

      .st78 {
        fill: #31558c;
      }

      .st79 {
        fill: #0b256e;
      }

      .st80 {
        fill: #0072d3;
      }

      .st81 {
        fill: #c47d45;
      }

      .st82 {
        fill: #db8903;
      }

      .st83 {
        fill: #a55e2a;
      }

      .st84 {
        fill: #1f98e7;
      }

      .st85 {
        fill: #886860;
      }

      .st86 {
        fill: #9c8e89;
      }

      .st87 {
        fill: #005ec1;
      }

      .st88 {
        fill: #b0b1b2;
      }

      .st89 {
        fill: #8ea2d3;
      }

      .st90 {
        fill: #0071d2;
      }

      .st91 {
        fill: #757d90;
      }

      .st92 {
        fill: #eead4e;
      }

      .st93 {
        fill: #1a3569;
      }

      .st94 {
        fill: #6483c7;
      }

      .st95 {
        fill: #736665;
      }

      .st96 {
        fill: #0b4084;
      }

      .st97 {
        fill: #56709b;
      }

      .st98 {
        fill: #8c8c8b;
      }

      .st99 {
        fill: #7184a6;
      }

      .st100 {
        fill: #e9e9e9;
      }

      .st101 {
        fill: #726b71;
      }

      .st102 {
        fill: #300904;
      }

      .st103 {
        fill: #cf7b06;
      }

      .st104 {
        fill: #3d9feb;
      }

      .st105 {
        fill: #b8b8b8;
      }

      .st106 {
        fill: #676767;
      }

      .st107 {
        fill: #0085e1;
      }

      .st108 {
        fill: #0098eb;
      }

      .st109 {
        fill: #858585;
      }

      .st110 {
        fill: #e79e28;
      }

      .st111 {
        fill: #bd6601;
      }

      .st112 {
        fill: #3d4f76;
      }

      .st113 {
        fill: #747474;
      }

      .st114 {
        fill: #aa7664;
      }

      .st115 {
        fill: #0050b5;
      }

      .st116 {
        fill: #656a77;
      }

      .st117 {
        fill: #070b16;
      }

      .st118 {
        fill: #969492;
      }

      .st119 {
        fill: #a2a2a2;
      }

      .st120 {
        fill: #259eeb;
      }

      .st121 {
        fill: #a18278;
      }

      .st122 {
        fill: #452823;
      }

      .st123 {
        fill: #ecac55;
      }

      .st124 {
        fill: #7e818a;
      }

      .st125 {
        fill: #008fe5;
      }

      .st126 {
        fill: #1e99e9;
      }

      .st127 {
        fill: #cccdce;
      }

      .st128 {
        fill: #0056bb;
      }

      .st129 {
        fill: #456295;
      }

      .st130 {
        fill: #643226;
      }

      .st131 {
        fill: #003a95;
      }

      .st132 {
        fill: #d6d7d8;
      }

      .st133 {
        fill: #352b4a;
      }

      .st134 {
        fill: #484d62;
      }

      .st135 {
        fill: #a85100;
      }

      .st136 {
        fill: #a4674f;
      }

      .st137 {
        fill: #007bdb;
      }

      .st138 {
        fill: #616161;
      }

      .st139 {
        fill: #006cce;
      }

      .st140 {
        fill: #edaf5e;
      }

      .st141 {
        fill: #eee;
      }

      .st142 {
        fill: #9e776a;
      }

      .st143 {
        fill: #2d558e;
      }

      .st144 {
        fill: #c69379;
      }

      .st145 {
        fill: #4c4c4c;
      }

      .st146 {
        fill: #4f4f5d;
      }

      .st147 {
        fill: #213361;
      }

      .st148 {
        fill: #7992c9;
      }

      .st149 {
        fill: #573042;
      }

      .st150 {
        fill: #3e65aa;
      }
    </style>
  </defs>
  <path class="st55" d="M78.35,85.47l-.17.22c-.01.35-.15.55-.42.62-.26.82-.79,1.48-1.58,1.97-.98,1.45-2.81,2.67-4.34,3.53-.97.55-1.65.67-2.77.66-.8.39-1.01.23-1.13-.59l-.17-.42c-.53-.54-.71-1.08-.55-1.63-.41-.25-.7-.61-.89-1.09-.59-.39-.83-1.03-.74-1.91-.61.1-.98-.24-.91-.87-.7-.56-.95-.96-.68-1.87.01-.18-.05-.36-.21-.45-.65-.05-1.35-.23-.7-.93-.11-.67-.49-1.19-1.16-1.57-.15-1.22-.69-2.32-1.64-3.31l-.07-.36c.33-.67.19-1.09-.43-1.27.01-.26-.05-.46-.19-.61l-.44-.83c-.58-.16-.9-.65-.95-1.45-.49-.42-.73-1.06-.93-1.66.31-.37.34-.66.08-.88-.66-.38-.69-.54-.47-1.24-.89.28-1.06-.31-.5-1.77-.05-.35.02-.56.21-.63.35.02.55.33.58.94l.48.54c.4.95.81,1.89,1.22,2.83.38.17.54.52.47,1.06.41.4.62.82.63,1.27.37.11.6.42.7.9.61.61.87,1.17.96,2.03.66.8,1.13,1.49,1.07,2.57.62.26.78.41.83,1.16.41,0,.41.34.28.65.39.09.6.37.62.77-.04.99.02,1.75,1.27,1.58.36.12.29.61.18.92.14.37.16.77.08,1.19l.75,1.16c.58.26,1.13,1.11,1.29,1.71-.13.81.34,1.71,1.15,1.8-.13.91.86.73,1.21.2-.63-.73-.73-1.34-.29-1.82-.62-.72-.96-1.6-1.04-2.66-.48-.43-.54-.83-.51-1.46-.28-.31-.39-.75-.34-1.3-.85-.94-1.74-2.22-1.61-3.54-.29-.15-.45-.45-.46-.88-.51-.7-.82-1.19-.66-2.06-.21-.21-.31-.52-.29-.93l-.18-.29c-.34-.22-.62-.43-.31-.84-.43-.36-.63-.92-.59-1.66-.49-.48-.74-1.13-.73-1.95-.46-.31-.57-.7-.63-1.24-.3-.3-.57-.57-.62-1.01l-.29-1.54c-.42-.3-.64-.73-.66-1.29-.46-.49-.71-1.01-.74-1.57.21-.38.29-.54.28-.95l.05-.21c.69-.57,1.39-1.12,2.11-1.65v-.17c1.41-1.24,2.57-2.65,3.45-4.24l.26-.12,11.43,25.49c.39,1.07.51,1.82.31,2.94Z"/>
  <path class="st131" d="M41.38,71.26l.13.07c-.44,1.22-.45,1.78.28,2.95,3.13,7.21,6.52,14.67,9.97,21.65.65,1.32,1.4,2.77,3.02,2.95l2.29.25.18.25c-2.74.47-6.23.78-8.6-.92-1.05-.76-1.58-1.88-2.13-3.02-3.65-7.56-6.96-15.59-10.4-23.28-.18-.41-.42-.87-.5-1.31l.2-.15,1.71.45.1.21c.02-.08.05-.2.12-.21.36-.05,2.05-.06,2.41,0l.15.21c0-.32.97-.39,1.08-.1Z"/>
  <path class="st125" d="M55.59,66.52c.6-.34.88-.27.84.2.23.11.29.25.19.42-.02.21.04.45,0,.66-.06.32-.24.83-.3,1.15-.17.92.46.35.55.36.54.08.06.81.07.86.04.24,1.44.57.55,1.51.17.34.35.8.53,1.12.1.17.31.25.4.43.14.27.17.96.36,1.16.11.11.32.04.48.16.26.18.5,1,.66,1.09.09.05.72.06.34.26-.09.05-.32,0-.34.2.25-.03.63.27.7.49.17.56-.52.78.12,1.53.58.66,1.13,1.38,1.34,2.27.05.21-.06.47.06.66.13.22.85.64.88.68.03.04.31.96.31,1.01-.02.29-.61.44-.01.63.27.08.51-.02.73.2.47.46-.09,1.14.15,1.6.03.06.64.6.75.74-.18,1.06.8.65.85.7.06.06.08,1.22.15,1.45.09.27.4.35.58.56s.23.52.41.73c.14.16.47.3.51.43.07.21-.14.44-.08.68.03.12.51.69.62.93.14.31.3.77.29,1.1.3.07.52-.16.78-.2.47-.07,1.16-.01,1.62-.13,1.11-.29,4.16-2.51,4.97-3.37.18-.19.23-.44.4-.63.31-.34.91-.66,1.19-1.08.16-.23.26-.75.4-.91.1-.11.3-.07.37-.17.11-.16-.07-.47.36-.52-.41,2.2-1.96,4.04-3.6,5.46l-.15-.08c-1.82,1.57-6.63,4.42-8.96,3.79-.74-.2-1.39-.54-.89-1.35-.68-.15-1.24-.45-.56-1.09l-.35-.43c-.64.1-.93-.42-.33-.79-.34-.28-.48-.72-.43-1.32-.23-.05-.45-.13-.65-.22l-.48-1.5c-.58-.51-.94-.9-1.08-1.69-.41-.28-.73-.57-.44-1.1-.26-.34-.37-.78-.34-1.31-.46-.32-.68-.7-.67-1.15-.35-.02-.43-.1-.61-.38-.32-.49-.56-1.28-.52-1.86-.54-.28-.74-.82-.62-1.62-.67-.97-1.09-1.99-1.26-3.07-.91-.6-1.37-.93-1.29-2.09l-.08-.34c-.58-.31-.77-.73-.57-1.26-.45-.19-.6-.57-.45-1.13-.92-.72-1.04-1.38-.88-2.5-.32-.42-.17-.74.46-.95l.16-.17c.04-.28.55-.4.82-.41.21-.2.78-.54,1.03-.41Z"/>
  <path class="st50" d="M43.85,70.74c.13.15.07.21-.1.1-.72.34-1.46.52-2.21.53l-.16-.12c-.25.03-.9.1-1.08.1h-2.68c-.33,0-1.65-.37-2.01-.52-1.39-.55-1.96-1.4-2.63-2.68-3.05-7.73-7.48-15.38-10.24-23.18h.15c.49.62,1.23.94,1.96,1.17,2.09.42,3.21,1.4,4.14,3.26,2.36,4.71,4.64,9.57,6.82,14.42l1.54,3.22c.46.97.97,1.78,1.61,2.64.74,1,2.65.89,3.76.73.56-.1.94,0,1.14.32Z"/>
  <path class="st62" d="M51.78,68.27c.13.22-.02.45-.43.71-.28.57-.47,1.35-.02,1.88l.03.57c.44.23.61.69.52,1.4.52.15.75.6.68,1.34.51.75.78,1.46.97,2.34,1.08,1.04,1.33,2.08,1.66,3.48.57.45.79.7.88,1.44.56.29.81.59.47,1.2-.01.22.18.39.34.51.76.42.86.67.68,1.5.49.71.81,1.45.96,2.22.42.3.48.68.47,1.16.65.57,1.13,1.33,1.41,2.28.56,1.57,1.26,3.23,2.1,4.67.7,1.22,4.85.28,5.78-.38l4.45-2.31c.08-.02.17.02.27.1-.84.73-1.84,1.42-2.79,2-.55.33-1.13.7-1.74.89-2.06.99-4.43,2-6.74,2.08-.88.03-2.33-.34-2.72-1.19-.28-1.01-.75-1.95-1.4-2.82-.33-.56-.49-1.18-.48-1.86-.46-.27-.67-.72-.85-1.21-.23-1.04-.67-1.93-1.32-2.67-1.6-3.2-3.04-6.5-4.33-9.9-1.28-2.18-2.43-4.47-3.14-6.91.2-.92,1.13-1.3,1.94-1.59.1-.44.74-.64,1.13-.52.11-.36.89-.63,1.24-.41Z"/>
  <path class="st107" d="M53.74,67.34c.06.29-.62.47-.62.57,0,.12.18.33.21.52.07.52-.21.92.08,1.56.13.29.71.72.78.88.13.29-.09.52-.03.73.05.18.44.23.49.45s-.2.48,0,.79c.1.14.35.09.5.35.26.43.11,1.29.28,1.58.15.26,1.05.74,1.13.93.09.22.01.44.07.65.18.61.72,1.62,1.05,2.14.4.62.09,1.01.18,1.36.07.27.52.37.59.55s-.02.46.04.68c.05.19.51,1.31.6,1.36.13.07.38.03.46.15.09.13.03.46.14.66.09.15.47.22.58.58.12.38-.06.81.21,1.14.08.1.24.1.25.11.03.03-.19.21-.21.36-.08.5.32.46.51.73.17.25.14.63.28.86s.69.64.81.84c.19.31.42,1.48.49,1.52.13.08.51-.08.65.22.12.25,0,.63.1.93.09.29.4.32.47.46.11.2-.66.19-.41.56.04.07.42,0,.51.05.07.05.5.54.49.62-.02.11-.35.33-.36.52.12.32.73.24.86.46.11.17-.14.36-.15.57-.03.56,1.08.75,1.5.76,2.07.05,5.4-1.77,7.14-2.93.38-.25.96-.87,1.4-1.07.04-.02.17-.03.15.05-.15.08-.15.27-.21.36-.31.48-1.25,1.18-1.75,1.44-.28.14-.75.26-1,.39-1.46.8-4.09,2.47-5.69,2.75-.48.09-1.99.3-2.43.25-.53-.05-1.48-.37-1.67-.9-.39-1.11-1.06-1.85-1.42-2.91s-.92-2.65-1.59-3.56c-.1-.13-.34-.15-.4-.32s0-.43-.06-.66c-.07-.24-.35-.36-.42-.51-.1-.22-.02-.47-.11-.72-.12-.34-.75-1.1-.85-1.52-.08-.32.16-.62.07-.88-.05-.15-.86-.48-1.05-.92s.18-.55.12-.82c-.06-.26-.5-.37-.61-.53-.16-.23-.04-.55-.21-.82-.13-.21-.52-.31-.69-.65-.27-.53-.27-1.42-.55-2.03-.26-.56-.94-1.03-1.14-1.53-.13-.32-.14-.71-.27-1.07-.15-.41-.61-.93-.69-1.26-.07-.27,0-.81-.09-.94-.13-.18-.55.12-.62-.59-.02-.21.1-.43.03-.66s-.42-.26-.48-.45c-.05-.17.02-.39-.04-.58-.07-.22-.29-.3-.29-.64,0-.21.12-.96.19-1.16.15-.44.53-.48.74-.85.41-.52,1.32-.89,1.96-.93Z"/>
  <path class="st44" d="M63.52,34.48c.31.06,1.19,1.58,1.18,1.77,0,.06-.02.13-.04.19.18.12.36.32.41.52.09-.01.16,0,.21.07,4.3,6.43,9.91,12.25,16.46,16.75,1.42.98,3.02,2.02,4.65,2.45l.27-.1c.5.25,1.02.48,1.59.52.64-.17.84-.04.62.4-.25.43-2.06,2.98-2.34,3.07-.98.3-2.3-.35-3.19-.79-.78-.38-1.48-.92-2.2-1.36-.24-.36-.31-.7-.22-1.03-.82.22-1.34,0-1.57-.65-.73-.11-1.52-.78-1.55-1.54-.77-.75-1.6-1.45-2.5-2.09-.08-.54-.42-.9-1.01-1.09-.03-.46-.27-.76-.72-.92-.3-.46-.59-.94-.87-1.44-1.57-1.22-2.58-2.61-3.57-4.34-.34-.32-.71-.6-1.12-.85-.53-1.27-.97-2.04-2.13-2.83-.3-.9-.87-1.65-1.48-2.37-.62.07-.87-.28-.74-1.04-1.12-1.04-1.54-2.4-1.71-3.9-.23-.43-.26-.74-.08-.95.04-.24.53-.61.77-.47l.87,2.02Z"/>
  <path class="st139" d="M49.41,69.19c-.2.11-.69.39-.88.51-.16.11-.78.76-.83.93-.11.34.17.5.25.8.37,1.5,1,2.67,1.68,4.08.32.66,1.07,1.72,1.27,2.34.74,2.28,1.9,4.9,3.03,7.07.5.95.54.94.89,2,.21.63.84,1.08,1.01,1.46.27.62.65,2.09,1.02,2.59.14.19.44.32.48.44.1.3,0,.75.15,1.19.23.66,1.03,1.67,1.38,2.43.17.37.3,1.12.49,1.36.15.19,1.29.65,1.57.69,2.32.33,5.32-1.14,7.54-1.83-.07.18-.23.22-.38.29-1.15.62-2.52,1.32-3.74,1.77-1.21.24-2.43.5-3.67.77-2.62.39-3.39-.04-4.59-2.36-3.01-6.74-6.07-13.56-9.2-20.44l-1.03-1.91c-.92-2.01-.63-2.66,1.3-3.46.5-.52,1.56-.89,2.27-.72Z"/>
  <path class="st47" d="M22.95,33.76c1.42-.29,2.07.21,2.49,1.54,1.6,2.87,3.24,5.89,4.28,8.97.22.65.63,1.24,1.39,1.15l.17.19-.28.25c-2.88.44-6.08.36-7.65-2.41-.48-.03-.6-.7-.62-1.13-1.1-2.36-3.25-6.7-3.81-9.07-.08-.22-.06-.38.06-.45,1.21.74,2.39.82,3.77.76l.19.21Z"/>
  <path class="st13" d="M61.67,32.93c.12-.11.18-.11.21,0,.05.3.22.63.28.9.16.65.26,1.88.6,2.39.3.45.47.67.76,1.17.06.1.26.14.34.31.17.34-.1.64.01.81.11.15.43.07.6.12s1.1,1.38,1.25,1.64c.13.23.2.65.33.81.2.25,1.16.9,1.33,1.15.31.46.49,1.36.88,1.77.21.22.48.23.67.39.8.66,1.36,2.23,2.16,3.1s1.52,1.07,2.16,2.17c.1.17.09.39.22.61.22.36.63.41.82.63.18.2,0,.42.15.56.18.18.64.22.83.51.13.21.1.47.23.65.39.5,2.15,1.32,2.49,2.09.08.17.01.38.08.49.03.05.7.72.74.75.23.16.59.02.79.35.27.44-.16.5.78.53.21,0,.56-.18.71.03.11.15-.05.33-.05.47,0,.19.39.44.09.66-6.4-3.9-11.5-8.5-16.17-14.37-2.36-2.97-4.5-6.12-6.18-9.53,0-.23.1-.28.32-.14l.61-.17.07-.24c.34-.12.71-.21,1.06-.18.06-.36.5-.59.82-.41Z"/>
  <path class="st46" d="M43.75,70.84l.06.13c-1.52.82-1.16,1.56-.43,2.81,3.43,7.68,6.87,15.29,10.32,22.82,1.01,1.9,2.04,2.06,4,2.19h1.35c.08,0,.12.09.14.18-.64.15-1.31.3-1.96.41-1.05-.26-2.25-.11-3.27-.49-1.74-.65-2.59-3.42-3.35-4.99-2.54-5.23-4.97-10.55-7.47-15.81-.57-1.2-1.05-2.39-1.52-3.63-.17-.46-.68-1.29-.72-1.74-.02-.23.4-1.15.47-1.45.81-.09,1.56-.34,2.37-.41Z"/>
  <path class="st12" d="M47.15,69.92c-.67.53-1.76.94-1.6,1.96.19,1.24,1.01,2.22,1.52,3.33,2.35,5.12,4.63,10.31,6.97,15.38.79,1.72,1.83,4.58,2.81,6.05.58.87,1.21,1.37,2.31,1.41,1.49.05,2.83-.44,4.25-.69.26-.05.73-.21.95-.03-.53.2-1.09.39-1.65.52-1.4.56-5.14,1.16-6.39.35-.57-.37-1.43-1.76-1.72-2.4-3.53-7.71-7.12-15.59-10.54-23.23-.38-.87.15-1.73,1.04-1.91.21-.17.49-.27.82-.31.34-.38.74-.51,1.24-.41Z"/>
  <path class="st144" d="M32.73,8.83c.18.27,0,.53-.31.41-.68.92-1.72,1.6-2.71,2.21-2.1,1.29-5.13,2.37-7.57,2.22l-.12-.32c.03-.87.89-1.88,1.54-2.42,1.86-1.54,5.81-3.35,8.25-2.79.47.11.62.4.92.68Z"/>
  <path class="st20" d="M88.85,57.04c.11-.49-.33-.17-.67-.2-.67-.06-1.21-.33-1.8-.62-2.94-1.05-5.68-3.12-8.13-5.07-2.61-2.08-5.03-4.38-7.29-6.83-.06-.07-.11-.16-.15-.26s-.07-.2-.09-.31c-.24-.39.03-.39.31-.1.1.03.19.06.28.11s.17.09.23.15c4.02,4.02,8,7.73,13.01,10.51l.17.25h.44c.17.15,1.84.97,1.92.81-.04-.3.03-.5.21-.6-.49-.93-1.19-1.74-2.09-2.43l.03-.25-.35-.13c-2.77-2.25-5.66-4.35-8.66-6.29-2.63-1.86-5.22-3.84-7.5-6.14-.09-.09-.14-.23-.18-.37-.14-.05-.27-.1-.36-.2-1.55-1.62-3.18-3.58-4.29-5.53-.07-.12-.09-.25-.1-.4-.39.14-.76-.46-.21-.52,4.45,7.31,11.73,11.31,18.32,16.24,1.9,1.42,5.86,4.37,6.85,6.44.38.8.49.99.06,1.74Z"/>
  <path class="st3" d="M44.68,70.64l-.03.15c-.48.33-1.21.86-1.05,1.51.57,1.85,1.42,3.6,2.38,5.32,2.82,6.43,5.7,12.8,8.63,19.1.9,1.76,2.84,1.9,4.57,1.79l1.4-.1c.09,0,.14.05.16.15-.51.15-1.03.29-1.54.41l-2.62-.1c-1.14-.14-2.02-.49-2.64-1.47-1.37-2.17-2.37-5.29-3.51-7.62-2.51-5.24-4.95-10.52-7.21-15.86-.34-.79-1.1-1.57-.39-2.48.03-.04.82-.53.93-.59.03-.02.06-.09.1-.1-.07-.34.7-.39.82-.1Z"/>
  <path class="st128" d="M45.09,70.64c-1.63,1.17-.82,1.73-.26,3.09,1.42,3.45,3,6.69,4.55,10.07,1.79,3.88,3.49,8,5.36,11.84.31.63,1.15,2.03,1.72,2.4.25.16.65.24.94.3,1.58.28,3.71-.14,5.29-.5-.57.34-1.32.54-1.96.72l-3.04.11c-1.94-.07-2.86-.8-3.63-2.55-.57-1.3-1.22-2.57-1.8-3.87-2.17-4.84-4.27-9.68-6.48-14.53-.35-.77-.89-1.56-1.24-2.37s-.95-2.25-1.17-3.06c-.1-.37.07-.58.26-.88.25-.37.6-.65,1.03-.77.03-.09.06-.09.1,0,.14-.08.25-.08.31,0Z"/>
  <path class="st76" d="M24.08,24.79l1.17-.23c.29.09.39.38.31.87l1.03,1.59c.11,1.12.56,1.73,1.24,2.6.56.45.55.69-.03.73l-.32.24c-.98.16-2.32.16-3.18-.35-.19.15-.43.05-.72-.31-.14.08-.27-.03-.41-.31l-.26-.11c-.44-.95-.91-1.88-1.39-2.81l.11-.28c-.13-.31-.34-.82-.41-1.13-.23-.53-.18-.79.14-.8.81.21,1.66.22,2.49.16l.25.12Z"/>
  <path class="st135" d="M23.98,13.88c.52-.12.75.25.71,1.12.32,1.24,1.5,3.71,2.2,4.8.54.82,1.23,1.24,2.03,1.71l-.26.26c-.9.22-2.24.34-3.04-.16-.09-.02-.2-.09-.31-.21-.08-.04-.15-.14-.21-.31l-.27-.17c-.28-.68-.6-1.34-.95-1.99l.08-.31c-.15.08-.19-.02-.1-.31-.54-1.25-1.24-2.64-1.65-3.91-.19-.56.01-.77.61-.64l1.01-.09.13.22Z"/>
  <path class="st10" d="M23.15,29.64c.42.38.54,1.5.17,1.91-.43.48-3.04,1.15-3.59.88s-.86-.85-.8-1.46c0-.01.08.2-.1.01.32-1.79,1.57-3.25,2.78-4.53.4.97,1.24,2.26,1.54,3.19Z"/>
  <path class="st124" d="M42.41,16.14c-.19.21-.64.3-.83.05-.07-.5-.31-.83-.71-.98l-.08.21c-.32.06-.56.29-.79.51-1.6,2.27-2.67,2.38-3.22.35l-.13-.04c-.19.21-.24.18-.21-.1-.3-.04-.27-.23,0-.31-.42-.54-.84-1.47-1.04-2.13l.12-.24c1.01-.1,1.99-.32,3.04-.21,2.13.22,2.95,1.14,3.86,2.89Z"/>
  <path class="st37" d="M25.11,21.09c.85,1.59.61,2.77-1.45,2.66h-1.36c-.75.33-1.07.12-1.62-.29,0-.6,0-.78.21-1.34.78-1.38,1.86-2.62,3.09-3.5.35.82.89,1.59,1.13,2.47Z"/>
  <path class="st61" d="M63.62,32.62c-.2.41.03.24.21.52.13.29.09.43-.1.41-.18.11-.21-.29-.2-.27,1.78,3.64,4.43,6.94,7.05,10.08l.15.38c4.15,4.65,10.05,9.68,15.65,12.46-.62.12-1.47-.3-2.03-.6-5.18-2.85-10.72-7.82-14.61-12.38-.82-.96-4.5-5.45-4.68-6.29-.1-.18-.21-.37-.41-.52-.45-.69-.74-1.26-1.13-1.96-.34-.75-.65-1.5-.93-2.27-.18-.25.23-.74.51-.62.23.31.32.71.51,1.03Z"/>
  <path class="st133" d="M37.26,19.23l.14.19c-.59.51-1.21.99-1.87,1.44l-.23-.08c-3.41,2.13-7.29,3.4-11.23,4.02-1,.02-2,0-2.99-.1.15.2.06.45.1.62-.13-.3-.46-.85-.51-1.13.02-.1.05-.16.1-.21l.15-.04c.63,1.09,6.1,0,6.3-.54-.66-.55-1.2-1.15-1.61-1.79,1.1.22,2.21.12,3.3-.1.2-.35.89-.52,1.24-.31.31-.14.41.05.3.57-.21.47,1.17.04,1.44-.05,1.45-.51,2.62-1.2,3.88-2.08.4-.34.79-.47,1.17-.4.1-.3.19-.27.31,0Z"/>
  <path class="st51" d="M58.06,34.07l-.18.33c2.96,6.78,6.22,13.45,8.93,20.32-.06.54.13,1.2-.1,1.7l-.2-.17c.08-.12-.03-.13-.32-.04-.23.22-.4.02-.47-.23-.82-2.74-1.57-5.52-2.32-8.28-1.97-4.55-3.95-9.09-5.95-13.62l.1-.12h.1c.09-.31.43-.21.41.1Z"/>
  <path class="st31" d="M24.29,30.25c.82.38,1.64.79,2.4,1.28.37.21.46.4.27.58.55.4-.44.96-.86,1.12-1.05.4-2.05.5-3.15.53-1.76-.08-2.14.23-3.86-.72-.34-.19-.11.04-.16.21-.15-.62-.22-.86-.21-1.55h.24c.95,1.65,2.86,1.39,4.49,1.07.35-.07,1.89-.38,1.38-.99-.54-.4-1.28-1.16-1.28-1.84.18.11.49.16.72.31Z"/>
  <path class="st54" d="M23.56,29.95c.31.49.7,1,1.08,1.45.11.13.33.17.4.33.2.46.02.71-.39.91-.9.44-3.14.66-4.12.5-.74-.12-1.43-.83-1.81-1.44,0-.34.05-.45.1-.72.34-.22.14-.01.2.16.17.45.4,1.05.93,1.14.21.04,1.86-.26,2.15-.34s1.05-.4,1.18-.68c.12-.26-.03-1.32-.13-1.62.2,0,.33.26.41.31Z"/>
  <path class="st91" d="M56.21,18.3c.04-.07.08-.12.11-.12.81.14,1.48.8,1.99,1.41.04.05-.17.06.07-.06.54.73.77,1.13.93,2.06-.24.32-.55-.05-.74-.32-.27-.53-.61-.99-1.06-1.37-.74-.87-1.79-1.21-2.93-.78l-.09.16c-1.39.64-2.81,1.16-4.28,1.57l-.27-.18c-.26-.02-.12-.23,0-.41-.28-.01-.26-.11,0-.21,1.13-.35,2.21-.82,3.25-1.39.92-.42,2.05-.68,3.03-.36Z"/>
  <path class="st89" d="M50.34,19.85c-.04.11-.18.18-.41.21-.02.04,0,.14,0,.21-.05.18-.12.25-.21.21l-.23.07-1.6-1.53c-1.4-.64-2.9-1.04-4.51-1.18l-.26-.25c-.35.06-1.08-1.07-.62-1.24.57,1.02,1.19.52,2.21.62,2.56.24,3.46.96,5.16,2.67.15.15.21.25.46.21Z"/>
  <path class="st143" d="M61.87,28.4c.22.67.46,1.37.87,1.96.36.2.56.38.47.82-.03.11-.06.33-.1.41-.02.04-.46.57-.51.62.13.27-.02.37-.28.27-.21.17-.42.33-.65.45-.28.13-.55.29-.82.41-.23.03-.37,0-.41-.1-.83-1.32-1.79-3.79.88-3.48.07-.57.08-1.15.05-1.72l.2-.15c.03-.09.06-.09.1,0,0,.05.17.43.21.52Z"/>
  <path class="st140" d="M35.51,13.46c.3.64.73,1.69.93,2.37-.5.05-1.17-.2-1.44-.68-.9-1.82-1.73-3.72-2.48-5.6-.34.01-.31-.07-.1-.31.13-.1.22-.27.31-.41,1.32,1.21,1.77,2.8,2.53,4.42.06.13.24.19.25.21Z"/>
  <path class="st147" d="M56.83,29.95c.57-.49,1.25.57,1.41,1.13.17.91.46,1.76.87,2.55.37-.12.57-.08.61.13-.26.08-.62.28-.93.31-.22.02-.49,0-.72,0-.02,0-.21-.09-.41-.1-.26-.02-.43-.09-.51-.21-.22-.06-.62-1.58-.58-1.77.02-.08.1-.14.17-.19-.12-.45-.25-.9-.39-1.36-.13-.39.21-.91.49-.49Z"/>
  <path class="st127" d="M23.36,43.44l1.06,1.31-.03.24c1.15.93,2.62,1.13,4.05,1.25-.02.05-.05.1-.08.13-.14.13-2.62-.04-3.04-.14-.91-.06-2.48-.78-2.69-1.8-.01-.06,0-.37.01-.36.02.02.04.46-.1.41-.07-.25-.23-.45-.21-.77s.43-.97.42-1.39c.16.34.43.78.62,1.13Z"/>
  <path class="st92" d="M58.37,23.04c.29.08.49.37.6.85.02-.26.13-.41.33-.44.37.52.46,1.46.82,1.96.09,0,.13.04.1.1.21.24.23.36.06.37l-.06.56c.26.06.24.21,0,.31.27.42.23.66-.1.72l-.23.02-.69-1.1c-1.01-.77-1.33-2.11-1.25-3.32-.11-.29-.17-.57-.19-.85.36-.34.88.48.62.82Z"/>
  <path class="st7" d="M59.3,21.6c.12.69.14,1.16,0,1.85-.06.28-.16.78-.41.93-.1-.42-.32-.95-.52-1.34.51-1.01-.88-2.52-1.76-2.97-.77-.11-1.02-.38-.76-.8l-.05-.15-1.15.12-.09-.12c.14-.24.93-.32,1.18-.32.92,0,1.96.93,2.52,1.6.31.37.46,1.07,1.03,1.18Z"/>
  <path class="st30" d="M40.87,15.21c.76-.01.74.78.94.92.09.07.45-.17.61,0,.04.07.06.13.1.21,0,.46.39.78.62,1.24.42.22,1.09,1.5,1.17,1.94l-.14.22c.09.03.09.06,0,.1-.75.52-1.12.19-1.47-.57-.21-.57-.49-1.1-.82-1.59-.39-.3-.88-1.05-.49-1.44-.23-.22-.53-.73-.51-1.03Z"/>
  <path class="st81" d="M32.52,9.55c-.03.09-.06.09-.1,0-.02.36-.58,1-.93.93-.65.82-1.95,1.6-2.93,2.07h-.36c-1.22.59-2.5,1.07-3.83,1.42-.12-.09-.26-.11-.4-.09-.61-.06-1.15.19-1.7,0l-.05.52c-.13-.41-.22-.55-.21-1.03.18.16.32.22.56.21,1.42-.02,3.79-.72,5.13-1.26,1.87-.76,3.16-1.88,4.71-3.07.02.11.04.22.1.31Z"/>
  <path class="st116" d="M25.32,21.4s.08.03.1.06c.29.35,1.1,1.35,1.1,1.76,0,.23-.07.39-.22.55-.42.47-4.8,1.08-5.39.15l-.12.06c-.01.09,0,.18-.1.21-.03-.19,0-.5,0-.72.32-.18.4.29.77.3.23,0,.55-.18.83-.19.66-.04,2.6.11,2.98-.42.25-.35-.02-1.6-.15-2.06.11.08.15.2.21.31Z"/>
  <path class="st95" d="M66.71,56.42c-.01.17-.05.47-.1.62-.51,1.6-2.47,3.43-3.71,4.53-.28.24-.56.41-.82.52-.19-.05-.19-.15,0-.21.15-.44.47-.84.97-1.21.1-.28.26-.43.47-.44.06-.22.16-.35.31-.41,1.16-.98,1.87-2.13,2.15-3.47l.22-.14c.03-.11.36-.56.51-.62-.01.27.02.55,0,.82Z"/>
  <path class="st65" d="M54.77,18.1c.35-.05,1.22-.16,1.48.05.02.01,0,.08-.04.15-.38-.05-1.21-.04-1.6,0-1.53.15-3.06,1.81-4.69,1.75.04-.08.29-.15.41-.21,1.18-.55,3.21-1.64,4.43-1.75Z"/>
  <path class="st99" d="M63.21,31.18c.07-.42-.42-.43-.66-.73-.19-.23-.45-.81-.54-1.1-.06-.19-.22-.75-.13-.95.51,1.05,1.68,1.43,1.34,2.78Z"/>
  <path class="st63" d="M23.98,18.61c-.25.65-1.11.83-1.49,1.44l-1.59,2.06c.25-.69,1.03-1.78,1.54-2.32.46-.49,1.18-.84,1.44-1.49.05.12.07.24.1.31Z"/>
  <path class="st71" d="M61.67,27.89h-.1c-.26-.15-.26-.26,0-.41-.19-.42-.46-.56-.82-.41-.08.08-.16.08-.24.02.27-.45.44-1.16-.2-1.31l-.08-.25s-.07-.06-.1-.1c.63-.13,1.48.72,1.55,1.29.04.37-.05.82,0,1.19Z"/>
  <path class="st36" d="M58.37,19.54c.02.34-.05.19-.21.05-.66-.6-.96-1.16-1.96-1.29-.21-.32-1.06-.24-1.44-.21,1.56-.39,2.71.22,3.6,1.44Z"/>
  <path class="st145" d="M25.32,46.22c.49.06.98.13,1.44.21.31.05.62.08.93.1.64.44,1.3.86,2,1.24.78.72,1.33,1.65,1.78,2.6,2.63,5.74,5.52,11.68,8.47,17.29.94,1.79,1.9,2.26,3.87,1.79,1.23-.47,2.47-.8,3.71-.97.81.16,1.55.09,2.35-.14.44-.08,1.31-.09.68.34-.39.15-.76.31-1.13.52-.77.19-1.52.47-2.27.72-.41.14-.83.28-1.24.41l-1.13.31s-.07,0-.1,0c-.21.04-.65.04-.82.1-1.03-.31-2.08.11-3.13-.01-.53-.06-1.47-.36-1.81-.76-.82-.96-1.36-2.01-1.91-3.14-2.63-5.39-4.91-10.93-7.65-16.24-.92-1.79-1.28-2.93-3.24-3.87-1.17-.56-2.47-.67-3.37-1.73-.05-.14-.12-.21-.21-.52l.1-.41c.2,1.36,1.52,1.87,2.68,2.16Z"/>
  <path class="st126" d="M60.74,63.43c.31.47-.18.78-.08,1.26.08.43.49.75.68,1.08.2.37.12.69.19.85s.46.35.54.58c.15.48.2,1.37.38,1.87.09.24.44.47.51.63.1.23.03.48.17.76.09.18.4.35.45.48.08.21.1,1.13.28,1.47.08.17.27.2.37.35.42.56-.22,1.5.84,1.79-.59.61-.16.47.15.83.34.4.18.68.27,1.05.02.08.18.06.2.14.08.31-.08.77.02,1.09.03.1.52.74.64,1.01.09.2.05.47.16.64.06.09.25.1.3.24.1.31-.08.75.07,1.07.26.55.56,1.08.83,1.65.11.24.65.53.74.9.07.27-.02.55.03.8.04.22.24.29.29.43.08.26-.03.56.07.86.08.25.38.38.45.58.18.54.24,1.32.39,1.78.08.25.61.73.65.9.08.28-.32.35-.3.69.02.28.56.93.6,1.16.11.6-1.92,1.17-1.52-.07-.13-.02-.32.11-.42.05-.05-.03-.74-.93-.76-.98-.15-.38.03-.81-.13-1.21-.03-.06-.7-1.04-.78-1.13s-.26-.07-.39-.21c-.05-.05-.78-1.16-.8-1.24-.13-.43.37-1.03-.33-1.11.38-.14.31-.52.31-.88-.45,0-.98.11-1.28-.32-.42-.61-.12-1.29-.32-1.74-.14-.3-.54-.29-.56-.31-.07-.07.17-.55.1-.61-.02-.02-.24.05-.32-.06-.13-.18-.05-.69-.24-.87-.15-.14-.41-.05-.56-.26-.19-.26-.05-.65-.11-.92-.21-.84-.41-.94-.86-1.51-.33-.42-.2-.77-.34-1.2-.13-.38-.56-.75-.75-1.03-.12-.18-.15-.49-.26-.64-.13-.17-.41-.18-.44-.23-.06-.1.03-.39-.07-.6-.1-.24-.49-.36-.6-.85-.05-.23.04-.5,0-.6-.07-.14-.32-.18-.41-.32-.52-.77-.71-1.93-1.17-2.75-.15-.26-.47-.44-.56-.67-.19-.46.05-.53-.39-1-.11-.12-.33-.26-.36-.31-.12-.21.07-.53-.31-.41-.04.01-.04.21-.11.22-.13.02-.23-.11-.25-.11.14-.3.8-.62,1.13-.62,1.04-.15,1.2.98,1.3,1.8.86.3,1.11.51.87,1.46.16.17.36.31.58.42-.03.84.31,1.65,1.22,1.73.22.44.22.94,0,1.51.58.41.72.73.85,1.41,1.08.95,1.73,2.17,1.78,3.62.56.12.89.51.98,1.18.2.11.35.23.45.37-.08-.01-.2-.03-.21-.09-.03-.15-.03-1.64,0-1.78l.21-.14s-.09,0-.14-.02c-.11-.04-1.08-1.72-1.11-1.94.09-.71-.15-1.37-.73-1.97.09-.51-.02-.91-.33-1.2-.03-.84-.38-1.6-1.07-2.29-.43-.79-.41-.87-.13-1.68-.57-.46-.77-.78-.79-1.54-.43-.72-1.46-2.56-.24-2.82.19-.04.29-.14.31-.31-.05-.03-.05-.07,0-.1-.06-.21.07-.28.21-.1Z"/>
  <path class="st27" d="M62.9,61.57c-.69.61-1.41,1.32-2.16,1.85-.04.03-.13.05-.21.1-1.06.99-2.38,2.02-3.81,2.37-.37.22-.78.36-1.13.62-.16,0-.8.31-1.03.41-.14.04-.17.04-.1-.1l.21-.25c2.51-1.23,4.87-2.73,7.1-4.4l.31-.08c.26-.18.53-.42.82-.52Z"/>
  <path class="st41" d="M27.68,46.53c.48-.1.9.09,1.28.57.77.31,1.41.7,1.96,1.36.79.95,1.37,2.05,1.94,3.13,1.95,3.94,4,7.9,6.04,11.82.68,1.3,1.47,2.72,2.22,3.95.39.64.93,1.4,1.78,1.26,1.27-.22,1.36-1.4.78-2.34-.01-1.36-.24-2.33-1.07-3.42l-3.02-9.72c-.52-.7-.82-1.24-.81-2.14-.44-.5-.72-2.45.18-2.52.62-.05.7.78.68,1.23.59.1.89.56.9,1.38.55.45.81,1.01.78,1.67l.48,1.17c1.4,2.39,2.65,4.87,3.74,7.44.36.26.55.64.55,1.14.89,1.45,1.7,2.93,2.43,4.46.58,1,1.76,1.28,2.85.99.19-.14.46-.25.82-.31l.1-.1c.34-.15.72-.28,1.13-.41.06-.21.82-.47,1.03-.31l.1.1c-.28.12-.55.28-.82.41-.63.3-1.26.64-1.96.93-.39.16-.87.27-1.24.41.18-.25.1-.22-.16-.21-.57.03-1.19.28-1.75.31-.51.03-.99-.14-1.43-.09-1.36.14-2.83,1.05-4.44,1.13-1,.05-1.53-.16-2.22-.88s-1.06-1.81-1.52-2.7c-2.24-4.27-4.38-8.7-6.52-13.05-1.03-2.09-1.65-4.55-3.72-5.86-.4-.25-.95-.21-1.1-.8Z"/>
  <path class="st75" d="M63.52,34.48c-.11-.19-.33-.4-.45-.63-.13-.24-.45-1.39-.72-1.32-.1.02-.34.34-.47.41-.04.02-.16-.02-.21,0,.21-.32.67-.48.93-.72.3-.02.25.16.32.35.24.62.49,1.26.6,1.92Z"/>
  <path class="st75" d="M65.07,36.95c-.3-.09-.31-.35-.41-.52.17,0,.33.12.42.26.12.16-.02.23-.01.26Z"/>
  <path class="st87" d="M44.06,23.76c.15.08.16.1.13.23-.19.67-3.13,2.95-3.84,3.37-3.62,2.17-7.19,4.09-10.99,5.76-1.67.93-1.5,1.46-.52,2.91,1.27,2.53,2.42,5.1,3.46,7.73.34.77.67,1.18,1.53,1.11l.14.21c-.16.42-.74.45-1.13.31-.26.38-1.18.48-1.54.21-1.67.26-1.74-1.52-2.25-2.65-1.14-2.52-2.3-5.05-3.71-7.42-.38-.64-.36-1.4-1.25-1.63-.21-.05-.91-.14-1.14-.15.23-.24.56-.09.82-.15.49-.11.98-.21,1.45-.31.49-.11,1.88-.56,1.75-1.19l.3-.22c4.06-.4,7.95-2.62,11.34-4.82,1.82-1.19,4-2.61,5.09-4.49l.26-.06c.26-.07.35,1.03.32,1.08l-.21.16Z"/>
  <path class="st38" d="M31.29,45.6c.53-.08,1-.1,1.54-.21.42-.04.59.07.51.31,0,.29-.28.38-.41.1-1.96.56-3.84.7-5.8.28-.99-.14-1.96-.48-2.75-1.1-.65-.63-.64-.81-1.03-1.55,1.04.64,1.31,1.79,2.56,2.13,1.98.54,3.41.32,5.37.03Z"/>
  <path class="st57" d="M59.3,28.5c.16.3-.12.41-.41.41v.2c1.03.11,1.08.84.67,1.63.07.89.36,1.72.88,2.49.13.02.34-.06.41.1-.44.19-.68.27-1.13.41-.19-.06-.58.16-.7.09-.04-.02-.39-.66-.43-.76-.41-1.01-.41-3.04-1.75-3.14-.25-.3.06-.58.41-.62,0-.07-.01-.13,0-.14.42-.2,1.48-.63,1.92-.77.03-.01.08.03.14.09Z"/>
  <path class="st3" d="M45.91,70.33c-.25.08-.54.22-.82.31-.08.03-.23-.02-.31,0,.3-.22.76-.28,1.13-.31Z"/>
  <path class="st26" d="M66.3,37.57c-.16-.29-.07-.46.25-.3l1.41,1.58c.46.24.72.53.8.87,2.13,1.94,4.36,3.8,6.74,5.53l7.43,5.25c.74.66,1.51,1.23,2.31,1.7.73.68,1.96,1.65,2.06,2.68l-.25-.03c-.44-.69-.75-1.09-1.4-.34-.3.25-.55.29-.93.16-4.79-2.54-10.1-6.95-13.7-11.02-.23-.05-.38-.2-.53-.37-1.39-1.67-2.73-3.32-4-5.08-.13-.18-.18-.4-.21-.62Z"/>
  <path class="st75" d="M63.83,33.14c2.04,3.14,4.5,6.01,7.31,8.5,4.38,3.89,9.81,6.54,14.11,10.56-.53.17-.95-.47-1.29-.72-1.72-1.23-3.41-2.41-5.13-3.62-3.4-2.41-6.16-4.29-9.18-7.19-.15-.14-1.03-.79-1.06-.85-.08-.14.02-.44-.03-.49-.02-.02-.29,0-.46-.1-.36-.21-1.22-1.34-1.59-1.71-.15-.15-.23-.28-.21.05-.17-.05-.32-.14-.42-.28-.76-1.05-1.51-2.32-2.14-3.46-.04-.07-.03-.17-.01-.27l.1-.41Z"/>
  <path class="st8" d="M70.73,43.75c-2.76-3.09-5.31-6.43-7.25-10.1l-.06-.4c.26-.06.2.14.31.31.9,1.36,1.6,2.65,2.57,4.02,1.46,2.04,3.1,4.22,4.74,6.08-.16-.14-.24-.09-.31.1Z"/>
  <path class="st19" d="M87.31,54.88c.02.23,0,.48-.01.71-.27.45-2.2-.72-2.56-.91.73-.12.98-.49,1.5-.9.54.32.79.54,1.08,1.11Z"/>
  <path class="st115" d="M44.06,21.81c.29.1.2.71-.1.72-.1.14-.11.32-.2.46-1.79,2.72-9.01,6.83-12.13,8.06-1.41.56-3.15,1.03-4.66,1.05-.09-.4-1.67-1.1-2.09-1.36-.21-.13-.38-.36-.58-.5,1.18.26,2.31.25,3.5.1.17,0,.29-.09.36-.26.49-.16,2.73-.67,3.13-.65.08,0,.15.04.22.08.06-.07.13-.14.21-.2.31-.25,2.58-1.05,3.15-1.22.18-.05.37-.05.55-.02l.21-.33c.61-.39,1.27-.65,1.95-.9l.14-.31c.86-.48,1.71-.96,2.5-1.54h.35c.89-.88,1.77-1.79,2.64-2.71.53-.88.82-1.04.86-.49Z"/>
  <path class="st77" d="M35.3,20.78l-.2.39c-1.78,1.13-3.65,2.1-5.6,2.91-.94.39-1.21.88-.82,1.49-.19.64,0,1.2.59,1.69.17,1.54.69,1.98,2.21,1.89.24.14.26.31,0,.39-1.17.34-2.5.68-3.71.82.59-.15.07-.32-.15-.63-.2-.29-.93-1.24-1.01-1.46-.12-.33-.06-.62-.16-.97-.15-.52-1.03-1.42-1.14-1.86-.05-.21.07-.44.03-.55-.16-.39-.96-.11-1.29-.1,1.19-.45,2.46-.64,3.69-1s2.58-.78,3.73-1.22c1.32-.5,2.53-1.23,3.81-1.8Z"/>
  <path class="st74" d="M28.2,12.54c.04.08.04.15-.01.21l-1.86,1.06c-.3.17-.42.33-.51.65-.11.41,1.92,4.4,2.3,5.09.22.4.83.7,1.27.76l1.6.23.1.24c-.02.41-.64.57-.93.41-.39.13-.83.23-1.24.31-.71.12-1.77-.96-2.15-1.51-.54-.78-1.96-3.91-2.26-4.85-.2-.63.1-1.2-.54-1.26l4.22-1.34Z"/>
  <path class="st134" d="M25.62,21.6c.4.45,1.56,1.31,1.74,1.61.05.08.11.14.07.24-.17.38-1.48.67-1.91.77-1.49.34-3.44.74-4.74-.26.01-.09-.05-.28.05-.31.64.77,1.85.6,2.77.5.38-.04,2.2-.33,2.43-.46.19-.11.32-.35.27-.56s-.8-1.4-.99-1.75c.21-.02.22.11.31.21Z"/>
  <path class="st59" d="M36.44,15.83c.02.08-.03.25,0,.31.04.08.03.16-.01.23l-1.07.48c-.26,1.78-2.92,3.74-4.16,1.71l-1.82-4.15c-1.17-1.15.19-2.09,1.19-2.63.08-.04.15-.01.21.04l.06.21c-1.21,1.04-1.26,1.1-.29,2.34.53,1.47,1.17,2.86,1.93,4.18,1.89.55,1.4-1.68.75-2.7-.68-1.24-1.2-2.57-1.7-3.86-.34.02-.6-.04-.75-.18l-.03-.14c.71-.38,1.25-.86,1.6-1.45-.05-.28-.03-.51.08-.67h.1c1.02,1.44,1.71,3.79,2.59,5.39.45.81.72.38,1.32.89Z"/>
  <path class="st110" d="M30.77,11.81c-.57.39-1.73.97-1.65,1.79.03.33.32.46.43.71.61,1.34,1.17,2.77,1.79,4.08.4.85.81.84,1.74.73.67-.08,1.57-1.06,1.85-1.65.11-.23.11-.61.26-.77.16-.17.97-.46,1.24-.57,0,.01.16.09.21.1.16.02.19.19,0,.21.11,1.26-2.45,3.28-3.5,3.57l-.31-.07c-.32.13-.28-.04,0-.21-1.18.25-2.48-.16-2.7-1.74l-.39-.46c-.33-1.33-.88-2.56-1.64-3.7.15-.59.53-1.06,1.12-1.42l.04-.25c.3-.16,2.41-1.53,2.3-1.61-.03-.02-.05-.06-.07-.09.29-.24.55-.74.93-.93.57,1.26-.83,1.7-1.65,2.27Z"/>
  <path class="st64" d="M40.87,15.21c.43.28.44.59.51,1.03-.15.19-.36.15-.62-.1l-.07.22c-1.01.81-2.02,1.62-3.03,2.45-.28.22-.48.23-.61,0l-.22-.15c-.17-.75-.24-1.49-.19-2.21-.02-.05.01-.14,0-.21,0,0,.05-.11.08-.09.2.15.7,1.23.95,1.38.27.17.71-.14.92-.32.63-.55,1.42-1.99,2.28-2Z"/>
  <path class="st24" d="M39.84,17.58c.89-.31.12.94-.3,1.22-1.14.84-2.31,1.63-3.51,2.38-1.28.76-2.57,1.52-3.88,2.28l-.12.51c.39.75.8,1.5,1.21,2.25.1,1.05.57,1.64,1.71,1.44.29.03.53.09.46.42-1.24.57-2.6,1.06-3.91,1.44.06-.31-.16-.2-.36-.21-1.06-.04-1.48-.04-1.86-1.13-.09-.27-.04-.56-.18-.85-.2-.42-.68-.47-.7-1.16,0-.21.11-.4.09-.59-.06-.46-.55-.47.07-1.11.72-.75,3.66-1.81,4.78-2.43.7-.39,1.33-.84,1.97-1.28.19-.13.34-.32.52-.46.44-.32,1.25-.56,1.43-1.09.01-.07.03-.13.07-.19.07-.11,1.87-1.32,2.15-1.48l.36.02Z"/>
  <path class="st149" d="M37.06,18.82c.32.11.22.37-.1.41-1.71.78-2.91,2.07-5,2.67-.19.05-1.45.33-1.52.31-.26-.08-.16-.54-.16-.76,0-.17.26-.3-.11-.26.28-.09.65-.3.93-.41.26-.51,1.2-.77,1.75-.82,1.51-.81,3.19-1.81,3.81-3.5.13.43.37,1.89.41,2.37Z"/>
  <path class="st112" d="M40.76,16.14c.56.02.55.92.1,1.03-.31.22-.65.36-1.03.41-.88.53-1.66,1.21-2.57,1.65-.06.03-.24-.03-.31,0,.07-.12.11-.27.1-.41.33.02.57-.2.81-.37.86-.59,1.71-1.65,2.49-2.15.14-.09.24-.14.41-.16Z"/>
  <path class="st85" d="M57.55,33.96l6.05,13.68c.74,2.72,1.45,5.52,2.3,8.21.06.19.11.29.3.37-.04.13.04.36-.02.54-.42,1.18-1.18,2.52-2.34,3.07.05-.66.4-1.26,1.05-1.82.64-.86.47-2.04.24-3.03-.38-1.32-.74-2.62-1.09-3.91-1.93-5.74-4.44-11.5-6.95-16.87l.15-.23c0-.15.2-.08.31,0Z"/>
  <path class="st146" d="M56.31,31.28c-.09.29-.2.27-.31,0-.16.24-.02.5.1.72.3.15.52.47.66.95.04.37.17.63.37.8.16.04.39.1.51.21-.03,0-.07,0-.1,0-.1,0-.22-.02-.31,0,0,.36-.9.53-1.13.41l-.29.06-.63-.77c-.45.13-.71.05-.41-.43-.24-.12-.15-.32.1-.31-.12-.11.02-.42.21-.41.17-.87.55-1.42,1.13-1.65.32-.08.41.29.1.41Z"/>
  <path class="st60" d="M49.72,20.47c.06-.06.09-.18.21-.21-.01.12,0,.28,0,.41.09.01.09.05,0,.1-.23.33-.47.68-.74,1.07-.45-.04-.92-.12-1.4-.24l-1.11.8-.25-.09c-.23.51-1.29.81-1.24.1.8-.81,1.62-1.62,2.47-2.44l.41-.13c.11-.26.4-.16.63-.06.34.55.68.77,1.02.68Z"/>
  <path class="st93" d="M55.8,19.13l-.09.24c-1.52.38-2.99.97-4.42,1.78-.34.12-1.03.33-1.26.04-.15.13-.21.08-.1-.1-.21-.09-.15-.16,0-.31,0-.03,0-.07,0-.1,1.61-.11,3.12-1.25,4.63-1.55.55-.11.72-.08,1.24,0Z"/>
  <path class="st148" d="M43.13,17.58c1.68.35,4.28.42,5.52,1.79.37.4.47,1.19,1.07,1.1-.48.46-.56-.2-.89-.4-.16-.09-.57-.2-.76-.22-.33.17-.7.24-1.11.22-1.05.58-2.02.67-2.8-.33-.17-.5-.76-1.63-1.03-2.16Z"/>
  <path class="st22" d="M61.56,27.47c0,.14,0,.27,0,.41,0,.33.06,1.93-.12,2.05-.33.21-1.09-.35-1.63.48-.61.93.58,1.92.62,2.83-.09-.01-.12.05-.21-.06-.12-.15-.73-1.65-.77-1.89-.11-.67.16-.84.16-1.29,0-.8-.93-.63-1.03-.77-.16-.21.26-.27.31-.31.28-.08,1.07-.45,1.17-.68.02-.04,0-.09-.03-.14-.15-.2-.01-.41.41-.62-.13-.15-.07-.21.1-.1.22-.26.93-.25,1.03.1Z"/>
  <path class="st97" d="M61.84,32.49s-.52.41-.55.42c-.62.19-.48-.29-.66-.64s-.85-1.22-.62-1.56c.42-.62.87-.35,1.23.13.22.29.86,1.36.6,1.65Z"/>
  <path class="st79" d="M55.08,29.02c.64.22,1.34.28,2.1.18l.06.13c-.26.12-.24.44-.41.62-.03.03-.26,0-.3.17-.11.39.53,1.25.2,1.69-.34.15-.62-.21-.41-.52-.03-.06.03-.19-.1-.41-.19.07-.23.03-.1-.1h-.24c-.43-.41-1.69-1.66-1.1-2.16.28-.26.56.17.31.41Z"/>
  <path class="st117" d="M56.31,31.28c.09.18.24.4.41.52l.41,1.96s-.21.18-.29-.06c-.15-.55-.56-1.19-.74-1.69-.19-.26-.23-.5-.1-.72.08-.02.21.02.31,0Z"/>
  <path class="st9" d="M32.94,45.81c.1.42-1.11.68-1.34.41l-.68.19c-.26.18-.74.4-.97.12-.08.14-.23.23-.47.28,1.64.5,3.1,1.29,4.39,2.38.33.1.52-.19.65-.46.3-.97.99-2.78,2.08-3.09.04-.01.09.02.15.06l.11.1c-1.74,1.31-1.5,3.29-.89,5.17.19,1.41-.82,1.88-1.57.59-.84-1.54-1.95-2.81-3.32-3.8-.43.07-1.03-.26-1.44-.52-.25.17-1.02-.2-.91-.62-.64-.09-1.3-.16-1.97-.2-.64-.03-.83-.05-1.44-.21.88.07,1.74.14,2.63.1.12,0,.38.08.36-.1-1.48-.03-2.82-.18-3.91-1.24,2.51,1.56,5.75,1.37,8.55.82Z"/>
  <path class="st96" d="M55.8,19.13c.19.03.94.12,1.03.21.41.41-1.08-.12-.93.25.22.22.55.18.82.31.75.36,1.6,1.35,1.87,2.14.12.34.31.94-.23,1-.19-.38-.21-.67-.62-.82-.13.02-.27.02-.41,0-.33-.15-.73-.44-.62-.82-.21.19-.45-.07-.41-.31l-.32.1c-.74-.23-1.74.02-2.22.63h-.25s.09.23.09.23c-.23.54-.19,1.15.12,1.82l.07.27c-.39.87-.51,1.82-.37,2.85l-.21.18c.21.28-.11.54-.31.21-.1-.08-.19-.15-.27-.24s-.16-.17-.21-.27c-.89-1.78-1.75-3.56-2.52-5.36l.12-.31c.36-.07.74-.09,1.09-.2.99-.32,2.13-1.13,3.24-1.5.4-.13,1.01-.22,1.44-.36Z"/>
  <path class="st32" d="M57.75,22.22c.61.61.33,1.25.42,1.9s.57,1.78,1.17,2.13l.78,1.23c.09.03.08.06,0,.1,0,.27-.2.41-.41.21l-1.96.69c-.56.25-1.11.33-1.65.24-.31.09-.55-.43-.51-.72-.25.11-.36-.06-.31-.52-.33,0-.56-.4-.31-.62-.26-.67-.49-1.36-.68-2.06-.02-.06.02-.13.06-.21,0-.13,0-.29.08-.4.4-.49,1.89-1.15,2.51-1.42.53-.02.52-.19.29-.56.03-.06.07-.06.1,0,.21-.11.25-.06.41,0Z"/>
  <path class="st56" d="M60.74,27.06c.14.24.06.28-.21.31-.03.04-.07.07-.1.1-.13.14-.23.17-.31.1v-.1c.16-.23.08-.48.1-.72.24-.14.31-.41,0-.31v-.93c.33.33.7.26.63.98-.02.22-.31.45-.11.56Z"/>
  <path class="st102" d="M60.23,26.44c.02-.11.21-.37.1-.62.5.31.27.8.1,1.24l-.2-.31s-.03-.1,0-.31Z"/>
  <path class="st94" d="M48.07,19.85c-.26.31-.59.52-.88.82-.54.57-.88,1.02-1.54,1.55-.15.12-.23.24-.47.2-.61.11-.91-1.12-.93-1.65-.11-.24-.2-.5-.27-.76l.17-.16s0-.07,0-.1c.45.07.99.6,1.4.61.36.01,1.04-.44,1.44-.51.26-.04.8-.04,1.08,0Z"/>
  <path class="st129" d="M41.38,16.24c.25,1.36.31.75.89,1.63.27.41.75,2.02,1.24,2.06.17.01.38-.35.65-.09.09.37.12.54.1.93.11.29.08.42-.1.41-.15-.06-.23-.18-.24-.39-.79.66-1.47.16-1.83-.64-.35-.79-.76-1.52-1.3-2.21-.12-.24-.25-.7.08-.78.02-.3.3-.68-.1-1.03.21-.02.43,0,.62.1Z"/>
  <path class="st82" d="M31.49,10.48c.36-.02.16.05.05.2-.48.64-1.59,1.37-2.31,1.75-.4.43-.89.7-1.45.86l-.72.53.27.3c.1.51.4.9.89,1.19.05.68.14.93.56,1.47-.08.46.08.8.46,1,.58,1.77.95,2.06,2.78,2.01.28-.04.55-.06.8-.05,0,.03-.14.2,0,.21-.62.34-1.09.56-1.75.82-1.22-.38-2.27.05-3.14-1.13-.61-1.55-1.75-3.19-2.26-4.75-.4-1.2,1.04-1.44,1.83-1.87.25-.13.46-.34.69-.5,1.04-.7,2.31-1.24,3.3-2.06Z"/>
  <path class="st113" d="M40.04,43.85c.27-.14,1.29.76,1.4.96,1.15,2.08,2.22,4.2,3.21,6.37,2.05,4.68,4.17,9.28,6.35,13.81.5.96,1.08,2.02,2.27,1.72l1.59-.4c-.06-.21.11-.32.51-.31-.03-.17.11-.24.41-.21.09-.19.29-.29.62-.31-.02-.27.2-.33.41-.21.89-.55,1.78-1.1,2.68-1.65l1.1-.97.24.04c.31-.27.61-.55.88-.85l.15.03c.15-.15.21-.15.21,0-.02.05.01.14,0,.21-2.45,1.72-4.88,3.49-7.62,4.74-.17.08-.76.21-1.03.31-1.48.66-2.56.33-3.33-1.1-2.89-6.12-5.75-12.31-8.57-18.56-1.09-2.36-2.18-3.5-4.62-1.71l-.16-.06c-.34.23-1.17,1.01-1.39,1.34-.35.55-.56,2.74-1.6,2.31-1.09-.99-2.2-1.57-3.55-2.11-.15-.06-1.38-.24-.84-.62.24-.16.4-.05.57-.1.08-.02.18-.02.22.05.19.36,1.08.58,1.54.67,1.81.36,2.77-.42,4.09-1.51.49-.25.98-.5,1.46-.75.66-.66,1.86-1.03,2.78-1.13Z"/>
  <path class="st142" d="M61.15,49.62c0-.4.38-.35.58-.05.22.95.57,1.74,1.26,2.42.47,1.36,1.02,2.67,1.65,3.92.44-.16-.79-4.29-.96-4.84l.15-.21c.05-.07.12,0,.21.21.56,1.91,2.08,4.76,1.26,6.66-.2.47-.85,1.02-1.17,1.5-.14.21-.21.47-.29.59-.1.16-.24.31-.31.41-.17-.14-.17-.38,0-.7-.34-1.79-.86-3.59-1.54-5.28l.11-.2-.24-.38c-.15-.52-.83-3.58-.78-3.81.02-.08.05-.16.09-.23Z"/>
  <path class="st4" d="M62.08,54.05c.33.28,1.67,4.95,1.64,5.5-.01.22-.18.45-.2.68-.11.18-.16.39-.31.57-.23.28-1.08.89-1.13,1.08h-.21l-.05-.17c.72-1.14.59-2.53.16-3.75-.59-1.72-1.17-3.46-1.73-5.21-.08-.28-.05-.59.29-.45.26.1.48.33.66.69.39.31.69.66.88,1.06Z"/>
  <path class="st143" d="M60.74,27.06c.12-.14.2-.31.36-.41l.31.31.15-.21c0,.24,0,.48,0,.72l-1.03-.1c.08-.1.13-.22.21-.31Z"/>
  <path class="st73" d="M60.53,63.53v.1c.07.16-.13.37-.31.31-.16.13-.32,0-.36.4,0,.07.1.99.11,1.05.11.39.58.96.7,1.35.08.27.02.58.12.81.09.21.58.46.65.69.13.43-.27.63-.26.8,0,.04.29.68.34.76.19.37.97,1.24,1.05,1.52.07.26-.01.57.07.87.05.21.31.19.35.47.03.25-.08.46-.04.65.07.31.68.83.76,1.2.08.35-.05.78.04,1.09s1.01,1.25,1.01,1.77v2.01c-.86.07-.69-.79-.92-1.09-.14-.18-.58-.18-.68-.35-.11-.18-.02-.52-.07-.75-.02-.1-.53-1.49-.58-1.59-.21-.42-.95-.95-1.16-1.31-.15-.26-.09-.57-.22-.81s-.57-.33-.66-.69c-.06-.22.13-.37.16-.57.15-1.14-.15-.63-.56-.86-.13-.07-.61-.63-.68-.77-.14-.32-.06-.92-.11-.97-.03-.03-.24-.03-.35-.11-.46-.35-.16-.58-.16-.98,0-.58-.69-.38-.93-.72-.2-.28-.02-.91-.31-1.33-.12-.17-.59-.51-.81-.58,1.27-.74,2.61-1.53,3.81-2.37Z"/>
  <path class="st55" d="M60.23,63.94c.08-.07.14-.28.31-.31.26.25-.03.54-.31.31Z"/>
  <path class="st23" d="M30.36,47.77l.44.27c1.36,1.51,2.47,3.21,3.32,5.12,1.76,3.83,3.83,7.59,5.9,11.25.21.36,2.03,3.37,2.29,3.35.76-.07.7-1.18.64-1.76-.12-1.19-.56-2.08-1.16-3.1.02-1.17-.25-1.76-.9-2.73-.03-.82-.25-1.5-.68-2.04-.24-.81-.43-1.64-.56-2.49l-.4-.31c-.42-.69-.96-2.33-.84-3.11-.74-.96-1.98-4.3-1.44-5.34.3-.58,1.36-1.16,1.96-.79.2.12,2.02,3.75,2.18,4.08,1.17,2.75,2.47,5.44,3.89,8.06l4.02,8.45c.46.97,1.37,1.24,2.37,1.29-2.62.69-2.94-.67-3.93-2.61-.32-.63-.62-1.29-.96-1.92-.15-.28-.51-.65-.59-.85-.1-.24-.04-.48-.13-.69-.07-.15-.34-.26-.41-.42-.45-1.02-.85-2.08-1.35-3.08-.72-1.43-2.59-4.34-2.9-5.65-.06-.26.02-.56-.09-.83-.06-.14-.54-.41-.68-.77-.11-.3-.06-.77-.24-1-.16-.2-.53-.17-.62-.31-.13-.19.09-1.14-.51-1.14-.48,0-.4,1.08-.36,1.4.05.38.28.54.37.87s.04.84.17,1.17c.1.26.55.66.65,1,.91,3.21,2.04,6.39,2.98,9.59.11.37.7.99.88,1.59.24.77.09,1.29.22,1.94.06.31.36.65.39,1.07.02.3-.31,1.09-.59,1.25-1.95,1.09-2.71-1.13-3.45-2.38-2.61-4.38-4.72-9.08-7.1-13.6-.73-1.39-1.71-3.79-2.98-4.75-.44-.33-1.29-.57-1.64-.83-.41-.31-.04-.42-.82-.46-.3-.02-.72.09-.93-.1.79.03,1.58-.02,2.37,0-.5.59.04.64.51.82.22.16.46.28.72.37v.14Z"/>
  <path class="st106" d="M52.3,67.55s-.06.07-.1.1c-.59.19-1.43.42-2.01.1-.9-.49-2.19-3.23-2.66-4.24-2.38-5.52-4.9-10.93-7.54-16.24-1.31-3.14-4.37-.51-3.22,1.96,1.12,2.84,2.12,5.77,3.01,8.8l.36.41c.18,1.43.47,2.7,1.12,4.06,1.02,3.4-.67,3.16-1.53.52-2.37-3.64-4.4-7.51-6.37-11.33-.73-1.6-1.73-2.9-2.99-3.91-.22-.19-.56-.23-.72-.52.44.18,1,.34,1.44.52,1.46.91,2.43,2.39,3.33,3.82.18.39,2.43,4.35,2.68,4.16.47-.36-.91-4.58-1.18-5.27-.56-2.02-.74-3.3.94-4.68,1.49-1.22,3.01-1.36,3.89.67,3.07,6.27,6.04,12.6,8.92,18.99.56,1.11,1.14,2.06,2.52,1.99l.11.1Z"/>
  <path class="st138" d="M52.19,67.65c-.14.11-.63.26-.82.31-2.14.38-2.51-1.13-3.25-2.67-1.12-2.32-2.19-4.68-3.31-6.99-.71-1.46-1.9-3.26-2.31-4.69-.04-.14-.34-.45-.43-.7-.72-1.94-1.63-3.68-2.68-5.46-.1-.17-.53-1.18-.59-1.21-.5-.31-1.66.38-1.74.96-.15,1.15.6,3.19,1.09,4.28.1.22.43.62.45.69.03.15-.09.35-.07.57s.8,2.37.91,2.5c.1.13.35.16.4.32.17.52.28,1.68.47,2.31.07.24.35.39.48.66.24.53.08,1.04.33,1.63.12.29.73,1.13.78,1.28.1.34-.03.85.06,1.27.11.48.69,1.1.83,1.64.1.35.26.9.34,1.21.07.29.06,1.72-.05,1.97-.03.07-.66.41-.73.42-.46.07-1.1-1.32-1.37-1.69-1.06-1.48-1.3-2.1-2.12-3.65s-1.76-3.01-2.57-4.54c-1.47-2.79-3.68-8.37-5.92-10.3.28-.01.53.18.72.36,1.77,1.66,3.26,5.13,4.45,7.29,1.39,2.53,2.7,4.96,4.29,7.35.29.44.39,1.03.69,1.47.33.47.89,1.03.88.06-.02-1.63-.86-2.78-1.22-4.14-.12-.46-.04-1.14-.15-1.5-.06-.19-.37-.33-.45-.58-.7-2.23-1.43-4.52-2.2-6.76-.5-1.44-1.65-3.19-.67-4.68.67-1.01,2.11-1.52,2.91-.35.99,1.45,1.89,3.55,2.66,5.16,1.86,3.9,3.59,8.02,5.44,11.97.43.93,1.8,3.76,2.62,4.18.77.4,1.08.11,1.86.05Z"/>
  <path class="st18" d="M53.43,67.13c-.41.16-.54.36-1.13.41-1.66.14-1.95-.5-2.7-1.79-.84-1.45-1.41-3.07-2.13-4.57-1.43-3.04-2.83-6.09-4.26-9.14-.93-1.97-1.88-4.4-3.09-6.18-.59-.86-1.22-1-2.14-.63-.6.24-1.93,1.29-2.14,1.88-.16.46-.16,1.11-.1,1.59.24,2.13,1.49,4.2,1.61,6.33.1,1.82-.82.5-1.31-.24-1.21-1.85-2.13-4.06-3.62-5.75-.4-.45-.9-.88-1.34-1.28,1.49.61,2.48,2.31,3.4,3.55.38.51.86,1.3,1.24.42.25-.58-.1-1.01-.21-1.56-.19-1.07-.39-2.26.21-3.27.25-.42.88-.7,1.01-1.2.51-.36,1.79-1,2.42-1.03,1.11-.07,2.12,1.83,2.54,2.71,1.94,4.11,3.77,8.28,5.72,12.41.89,1.88,1.69,4.05,2.69,5.86.82,1.48,1.56,2.03,3.31,1.47Z"/>
  <path class="st15" d="M44.47,23.97c.08.05.12.11.06.17l-.68.76c-.02.34-.48.77-.82.72l-.62.52-.17.29c-3.16,2.23-6.68,4.3-10.21,5.88-.09.04-.21.04-.33.02l-1.33.81c-.91.54-.92,1.14-.52,2.04,1.18,2.53,2.38,5.05,3.62,7.58l.38,1.61c.21.08.42.19.62.32l.13-.2c.66-.02,1.3-.06,1.93-.11,0,.32-.94.56-1.3.65-.5.19-.92.21-1.28.08-.34,0-.91-.02-1.19-.2-.07-.04-.64-.95-.69-1.06-1.09-2.58-2.11-5.21-3.44-7.69-.47-.88-1.37-1.65-.24-2.63,1.03-.89,4.01-1.96,5.38-2.65,2.4-1.2,5.03-2.57,7.21-4.12.52-.37,2.99-2.51,3.06-2.97.15-.27.48-.08.41.21Z"/>
  <path class="st40" d="M45.19,22.43c.52.42.75.16,1.24-.1.28.2.08.47-.59.79l-.23.24c.13.14.08.19-.1.1-.37.39-.71.56-1.03.52l-.41-.21c.05-.36-.12-.92-.1-1.24.01-.2.08-.48.1-.72-.22-.22-.25-.56.1-.62,0-.07.09-.19.1-.41.32.51.44,1.25.93,1.65Z"/>
  <path class="st33" d="M38.08,44.06c.22-.12.36-.12.41,0-.05.08-.11.15-.18.21-.38.36-4.2,1.61-4.7,1.52-.09-.02-.18-.05-.27-.08l-.51-.31c.37-.08.77-.22,1.13-.31.41-.1.81-.22,1.24-.25l1.34-.47c.49-.12.98-.26,1.47-.43l.08.12Z"/>
  <path class="st88" d="M40.87,43.23c.44-.11.45-.04.21.33-.06.1-.91.53-1.04.29-.9.41-1.87.74-2.78,1.13-1.3.71-2.63,1.38-3.99,2.02l-.19-.17c-.02.08-.06.2-.12.21-.24.03-1.77.03-1.87-.07-.03-.03-.05-.08-.07-.14-.07.06-.17.13-.23.08-.48-.4.44-.65.8-.7.42-.16.96-.14,1.34-.41.16-.03.28-.07.41-.1,1.83-.4,3.41-1.01,5.15-1.65.05-.09.1-.16.17-.19.68-.27,1.5-.47,2.19-.63Z"/>
  <path class="st69" d="M60.43,27.47c-.13.16-.34.54-.41.62.11.28-.48.68-.72.41-.45.2-1.64.77-2.06.82-.31.04-1.73-.02-1.99-.13-.15-.06-.12-.12-.17-.18.15-.21.44-.2.87.05l.16-.05c1.17.13,2.46-.51,3.5-1.13-.03-.04,0-.07.1-.1.13-.04.28-.14.41-.21.1-.05.2-.09.31-.1Z"/>
  <path class="st5" d="M60.02,28.09l.31.05c-.23.37-.98,1.03-1.44.77.15-.11.32-.24.41-.41.29-.13.47-.14.72-.41Z"/>
  <path class="st45" d="M40.87,17.17c-.05.87.48,1.08.79,1.63.25.44.83,1.99,1.33,2.08.13.02.27,0,.4,0,.52-.06.84-1.12.78.32-.02.23-.09.46-.1.62l-.16-.21c-.84,1.46-2.02,2.42-3.35,3.4-.23-.19-.14-.5.26-.95.09-.21-.28-1.34-.41-1.65-.33-.56-.56-.94-.7-1.58.2-1.69-.7-1.66-2.69.07-.38.33-.71.43-.99.29.83-.61,3.7-2.48,3.97-3.29.07-.2.14-.36-.16-.31.04-.02.1-.19.28-.29s.57-.24.75-.13Z"/>
  <path class="st78" d="M40.56,25c-1.07.8-1.85,1.21-2.99,1.85-.51.29-1.78.72-2.19.1l-.97-2.24c-.48-.58-.75-1.19-.81-1.83.67-.71,1.48-1.27,2.42-1.69.99-.35,2.03-1.43,2.91-1.77,1.21-.46.8.98,1.05,1.77.12.39.47.79.61,1.14.17.41.2.97.47,1.39.08.53-.5.79-.51,1.28Z"/>
  <path class="st25" d="M36.03,21.19c-.45.34-2.1,1.33-2.22,1.75-.14.46.49,1.08.73,1.55.39.75.62,1.59,1.01,2.34.59.46,1.38.2,2.03.03-.71.4-1.39.88-2.16,1.24-.37-.39-.97-.1-1.45-.25-.56-.17-.88-.94-.9-1.47-.11-.57-1.23-1.92-1.24-2.34,0-.13.1-.64.19-.73.62-.34,1.28-.64,1.89-.99.89-.52,1.1-.76,2.13-1.11Z"/>
  <path class="st123" d="M30.77,11.81s.59-.09.65-.08c.59.08.61,1.09.77,1.49.47,1.15,1.69,3.18,1.85,4.33.14,1.02-1.24,1.87-1.88.95-.3-.44-.82-1.73-1.09-2.31-.32-.67-.53-1.51-.94-2.15-.27-.44-.81-.59-.33-1.3.04-.06.91-.91.97-.94Z"/>
  <path class="st14" d="M29.23,12.43c-.15.39-1.03,1.04-.91,1.47.03.12.22.22.28.35.31.62.83,1.54,1.07,2.13.14.33.11.75.27,1.07.1.21.35.33.41.52.22.65.06.8.74,1.32.58.45.99.38,1.7.36.06.01.05.06.05.1-.75.29-2.34.41-2.94-.2-.45-.45-.59-1.2-.82-1.65-.09-.17-.39-.2-.45-.38-.06-.19.02-.45-.04-.68-.06-.24-.42-.48-.47-.66-.07-.24.04-.52-.07-.75-.08-.16-.55-.33-.68-.56-.28-.49-.04-1.09-1.02-.78l1.35-.97c.52-.18,1.07-.43,1.53-.68Z"/>
  <path class="st34" d="M57.24,33.96c.14.62.53,1.09.77,1.65,2.21,5.14,4.45,10.05,6.03,15.45l-.21-.21c-.12-.09-.25-.18-.32-.32-.25-.57-.58-1.51-.75-2.12-.04-.15,0-.3.03-.45-1.55-3.6-3.18-7.2-4.91-10.79l-.83-2.13c-.15-.28-.43-.4-.86-.37,0,.31-.3.44-.51.21-.13.18-.28.35-.41.1-.06-.03-.06-.07,0-.1-.08-.35.52-.71.82-.52.21-.09.94-.38,1.13-.41Z"/>
  <path class="st101" d="M54.77,33.24c-.09.58.24.11.51.25.18.1.5.77.83.88-.34.15-.56.36-.82.52-.27.73-1,.47-1.43.03l-.13.16c.09.34-.05.58-.39.52.19.3-.23.6-.51.52.16.14.06.25-.31.31-.21.22-.45.43-.72.62.05.18-.12.32-.51.41.03.1,0,.13-.1.1.02.29-.07.4-.31.21-.46.36-.38-.06,0-.31v-.35c1.07-1.02,2.08-2.1,3.03-3.22l.37-.14c.09-.36.26-.53.51-.52Z"/>
  <path class="st132" d="M54.77,28.61c-.08.96.87,1.38,1.34,2.16-.52.43-.86,1.01-1.03,1.75-.07.14-.15.31-.21.41-.13.28-.27.28-.29-.02.42-.89.35-1.84.09-2.76-.4-.26-.74-.98-.62-1.44.15-.19.49-.24.72-.21.09.03.09.07,0,.1Z"/>
  <path class="st53" d="M54.66,30.15c.39,1.02.43,1.47.11,2.53-.06.19-.24.28.1.25-.04.06-.04.2-.1.31-.12.22-.42.38-.51.52-.05-.02-.1-.04-.14-.06-.16-.1.39-1.14.55-1.28.11-.73.06-1.45-.13-2.16l.13-.1Z"/>
  <path class="st53" d="M56.21,30.87c-.66.28-.82,1.05-1.13,1.65.17-.63.34-1.59,1.03-1.75.02.04.08.06.1.1Z"/>
  <path class="st147" d="M56.11,32.01c-.19-.18-.48-.61-.1-.72.02.21.04.53.1.72Z"/>
  <path class="st17" d="M49.93,20.78c0,.1-.02.22,0,.31-.28.28-.11-.01-.09,0,.26.15-.45,1.32-.67,1.47-.31.21-.87.58-.99.08-.15.29-.38.07-.49-.16-.27.16-.48.18-.64.06-.34.37-.96,1.02-1.44.82.07-.54.84-.44.82-1.03.35-.19,1.06-.85,1.31-.91.55-.12,1.04.34,1.29.28.42-.11.48-.82.9-.91Z"/>
  <path class="st108" d="M49.93,21.09s.09.07.1.1c.26.94.85,1.91,1.25,2.81.52,1.16,1.07,2.26,1.63,3.37l.28.09c.75,1.11,1.7,3.21,1.47,4.54-.21,1.02-.75,1.85-1.4,2.64-.69.83-2.23,2.43-3.12,2.96-.13.07-.28.07-.42.06-.26.16-.43-.03-.5-.56-.42-.51-.67-1.15-.77-1.92-.51-.37-.63-.77-.71-1.38-.85-1.33-1.37-2.72-1.55-4.17-.46-.39-.59-.69-.39-.88l-.21-.12v-1.79l.21-.15c-.51.05-.99.17-1.44.36v.11c-.27.03-.46.19-.62.4-.04.32-.32.27-.41,0-.27-.15-.06-.46.12-.63,1.68-1.13,3.43-2.44,4.51-4.2l.21-.11c.86.21,1.27-.77,1.53-1.4.07-.17-.11-.36.22-.14Z"/>
  <path class="st35" d="M55.59,27.99c.07.38.24.72.51,1.03.09.44-.75,0-1.03,0-.09-.11-.1-.35-.31-.41,0-.03,0-.07,0-.1-.33-.23.24-.87.51-1.03.08.15.22.38.31.52Z"/>
  <path class="st98" d="M37.26,44.99c-.15.4-.5.35-.78.51-1.13.65-1.67,1.58-3.01,1.93s-2.24-.11-3.46-.5l-.06-.4c.54-.13,1.08-.33,1.65-.31-.16.06-.44.27-.67.31-.14.08.05.31.1.31h2.06c.34,0,2.63-1.31,3.19-1.55.33-.14.7-.19.98-.31Z"/>
  <path class="st2" d="M54.05,24.38l.16.14c.24.74.46,1.49.66,2.23-.2.39-1.16.59-1.54.41-.02.09-.06.09-.1,0,.04-1.17-.23-2.29.51-3.3.03-.09.06-.09.1,0,.09.15.16.33.21.52Z"/>
  <path class="st83" d="M57.34,22.22h-.1l-.21.16c-.63-.26-2.43.64-2.8,1.04.18.45.22.84.13,1.18.21.76.47,1.5.62,2.27-.14.13-.2.08-.1-.1-.34-.74-.59-1.59-.82-2.37-.23-.61-.23-1.34-.1-1.96.7-.16,1.39-.39,2.08-.7.24-.24.47-.35.7-.33.25.25.43.52.62.82Z"/>
  <path class="st150" d="M54.05,28.71c.21.46.44.97.62,1.44.08.72.24,1.56,0,2.27-.08-.06-.08-.2,0-.41,0-.3.04-.65-.05-.93-.32-1.09-1.19-2.68-1.7-3.7.19.05.26-.18.31-.21.03-.01.07.01.1,0,.4.22.87,1.1.72,1.55Z"/>
  <path class="st58" d="M56.72,21.4c-.6.75-1.84,1.05-2.78,1.03-.06.07-.09.04-.1-.1-.09-.02-.08-.05,0-.1.63.06,1.14-.36,1.72-.49l.75-.64c.3.14.21.11.41.31Z"/>
  <path class="st1" d="M53.84,22.22s0,.07,0,.1c.06.52.06,1.03,0,1.55h-.1c-.5-.74-.75-1.29-.21-2.06.06.08.29.35.31.41Z"/>
  <path class="st103" d="M57.24,22.22c.13.04.4.09.41.1.03.03-.11.51-.2.57-.12.08-.36.04-.52.1-.63.24-1.7.85-2.26,1.25-.13.09-.16.29-.32.35-.06-.22-.47-1.14-.3-1.33,1.09-.49,1.84-1.44,3.18-1.04Z"/>
  <path class="st111" d="M59.71,27.78c-.01.06-.08.07-.1.1-.46.39-3.28,1.67-3.58.95-.01-.03.03-.07.08-.13,1.07-.25,2.12-.6,3.17-.9.15-.04.34,0,.43-.02Z"/>
  <path class="st130" d="M59.61,27.89c-.61.67-2.65,1.45-3.5,1.13-.35-.13-.81-.68-.51-1.03.17.25.3.49.51.72.08.09.11.26.28.29,1.18-.04,2.15-.74,3.23-1.12Z"/>
  <path class="st109" d="M44.68,41.69c.09.03.09.06,0,.1.11.24.04.27-.21.21-.13.23-.24.26-.31.1-.22.27-.42.38-.62.31-.12.26-.23.33-.31.21-.11.23-.22.27-.31.1-.16.23-.29.3-.41.21l-.2.17c-.62.35-.53.83.29,1.45,1.29,2.16,2.44,4.45,3.46,6.85,1.52,3.54,3.12,7.05,4.73,10.55.51,1.11,1.13,2.35,1.76,3.35.5.78,1.18.95,2.09.84l.24.18c-1.3.61-2.51,1.22-3.48-.28-.84-1.28-1.63-3.18-2.3-4.6-2.62-5.49-4.84-11.2-7.8-16.51l-1.24-1.08c.25-.11.62-.3.86-.43.19-.1.28-.23-.04-.19.3-.27,1.74-1.11,2.05-1.09.07,0,.14.03.21.06l1.42-.61.12.09Z"/>
  <path class="st72" d="M42.51,42.93l-.02.66c.8.73,1.27,1.54,1.74,2.54,2.08,4.4,4.11,8.81,6.07,13.27.89,1.93,1.83,3.95,2.95,5.66.39.69,1.08.95,2.07.79l.06.16c-.12.06-.3.21-.51.31-1.99.28-2.34-.54-3.14-2.06-3.03-5.69-5.25-12.02-8.23-17.72-.28-.54-.66-1.29-1-1.78-.27-.4-.89-.7-.81-1.25.06-.4.55-.44.83-.57Z"/>
  <path class="st70" d="M57.55,47.05l.29.15c.88,1.36,1.55,2.82,2.16,4.28l.33.41c.3-.05.41.18.21.41-.19.1-.1.36-.05.52.34,1.28.87,2.54,1.27,3.78.61,1.92,1.37,3.41.12,5.28-.29.43-.69.56-1.03.82-.17-.12-.11-.21.1-.21,1.22-1.31,1.01-2.31.47-3.92s-1.26-3.39-1.99-5.08c-1.99-4.36-3.91-8.73-5.77-13.12-.56-1.33-.76-2.51-.91-3.88l-.25-.06c.09-.08.2-.21.31-.31.21-.18.35-.18.44,0l.36,1.83c1.15,3.08,2.46,6.11,3.94,9.08Z"/>
  <path class="st28" d="M60.95,62.5c-.03.07-.07.14-.1.21-.52.41-.78.59-1.34.93l-.06-.22c.48-.48.95-1.01,1.29-1.61.18-.33.31-.59.28-.97-.07-.76-.4-1.63-.67-2.34-2.6-6.1-5.18-12.17-7.76-18.23-.45-1.25-.5-1.98-.51-3.23l.13-.19c-.07-.28.79-.61.51-.15.2,0,.25,1.34.21,1.4-.05.07-.12.12-.21.14l.22.09c2.46,6.18,5.07,12.35,7.85,18.51.18.47.36.94.53,1.42s.33.99.44,1.5c.28,1.24-.02,1.8-.8,2.75Z"/>
  <path class="st66" d="M43.23,42.62c.04.56.3.79.74,1.16.64.85,1.16,1.82,1.62,2.79,2.66,5.71,5.34,11.41,8.04,17.1.43.91,1.49,2.08,2.54,1.39.33-.09.58-.08.76.02.05.06.02.12-.1.21-.13.07-.28.13-.41.21-1.76.38-2.32.38-3.3-1.26-.44-.75-.82-1.53-1.2-2.31-2.64-5.95-5.42-11.83-8.33-17.62-.69-.45-.94-.91-.76-1.36-.05-.06-.02-.13.1-.21.13-.07.25-.08.31-.1Z"/>
  <path class="st52" d="M56.42,65.49c-.21.11-.41.2-.62.31-.63.06-1.3.07-1.94-.05-.66-.38-1.9-2.92-2.24-3.66-1.89-4.02-3.77-8.12-5.57-12.21-.83-1.89-1.74-3.7-2.72-5.41-.9-.72-1.07-1.23-.5-1.55-.15.66.45.77.77,1.14s.92,1.55,1.16,2.03c2.13,4.15,3.9,8.53,5.91,12.73.73,1.52,2.37,5.45,3.43,6.46.65.62,1.53.15,2.32.2Z"/>
  <path class="st119" d="M42.93,42.72c-.04.06-.06.15-.1.21-.62.79.19.88.56,1.34.45.56,1.03,1.93,1.38,2.64,2.21,4.44,4.12,9.03,6.28,13.5.63,1.3,1.31,2.93,2.06,4.12.12.2.71,1.05.85,1.11.43.19,1.34-.07,1.85.16-.13.06-.27.14-.41.21-.42-.13-1.32,0-1.65-.16-.35-.16-1.03-1.34-1.26-1.73-3.23-5.68-5.51-12.46-8.58-18.31-.24-.46-.59-1.05-.9-1.47-.35-.48-1.07-.75-.5-1.41.12-.06.29-.14.41-.21Z"/>
  <path class="st52" d="M59.51,63.63c-.81.71-1.75,1.14-2.68,1.65.04-.05.06-.17.1-.21l-.04-.13.76-.28c.41-.51,1.18-1.02,1.85-1.03Z"/>
  <path class="st0" d="M61.05,49.31c.29-.03.33.14.1.31.32,1.48.77,2.92.93,4.43-.75-.64-1.1-.8-1.54-1.75-.06-.14-.16-.31-.21-.41-1.09-1.72-1.83-3.83-2.41-5.8l.15-.28c-.56-1.49-.93-3.28-1.19-4.87-.03-.2,0-.4.06-.59.25-.13.46.02.62.45l.5,1.35c1.28,2.31,2.28,4.69,3,7.15Z"/>
  <path class="st114" d="M61.77,46.12c.17-.12.23,0,.3.15l.73,1.7c.4.91.74,1.94,1.03,2.88s1.23,4.09,1.09,4.84c-.12.7-.46.43-.7-.04-.56-1.11-.97-2.76-1.53-3.8-.07-.14-.32-.18-.46-.4s-.42-.92-.54-1.21c-.1-.23-.03-.95-.55-.64-.02-.09-.08-.19-.1-.31-.25-.63-.48-1.55,0-2.06l.24-.03c.28.57.61,1.08,1,1.53.23-.12-.52-2.17-.66-2.43l.14-.21Z"/>
  <path class="st80" d="M44.88,24.07s.09.09.12.14c.2.34-1.38,1.62-1.67,1.85-3.39,2.72-7.29,4.69-11.11,6.56-.58.36-1.43,1.06-.93,1.76-.07.66.13.93.59,1.38,1.18,2.22,2.24,4.48,3.08,6.81.19,1.7.35,1.83,2.05,1.33.67-.24,1.31-.41,2.01-.48,1-.78,2.43-1.23,3.65-1.6l.27.06c-.03.15-.12.26-.25.32-1.53.78-2.96,1.41-4.59,1.84-.56.03-.75.27-.9.31-.2.05-.45-.03-.65,0-.62.1-1.51.37-2.06.31-.51-.09-.53-.3-.52-.75-.62-1.27-1.15-2.57-1.59-3.9-.74-1.09-1.29-2.23-1.64-3.43-.37-.56-.63-1.04-.84-1.67-.63-.96-.21-1.28.52-1.83l1.28-.78c3.9-2.04,7.08-3.58,10.71-6.18l.62-.52c.29-.23.54-.49.82-.72.28-.47.63-.75,1.03-.82Z"/>
  <path class="st90" d="M31.7,32.32c-.45.47-2.02,1.11-1.92,1.86.03.24.25.49.32.72.3.9.22.63.69,1.37.31.5.28.93.47,1.38.29.7,1,1.6,1.3,2.31.21.49.31,1.22.55,1.71.39.8.73,1.24,1.03,2.16.1.31-.11.64.33.85-.27-.03-.55-.02-.78-.2l-.4-1.66c-1.25-2.3-2.19-4.64-3.34-6.96-.31-.63-.67-1.21-.53-1.94.12-.64,1.71-1.31,2.26-1.6Z"/>
  <path class="st90" d="M45.5,23.46c.18.26-.34.84-.62.62-.33.26-.68.54-1.03.82.09-.2.49-.83.62-.93.18-.14.79-.32,1.03-.52Z"/>
  <path class="st90" d="M43.03,25.62c-.11.33-.44.39-.62.52.1-.32.46-.39.62-.52Z"/>
  <path class="st137" d="M47.04,22.53l.04.36c-1.32,2.22-3.51,3.72-5.6,5.15l-5.92,3.67c-1.46.81-1.3,2.11-.35,3.27.57.31.65.63.21,1.13.71.25.91.88,1,1.59.25.22.34.55.27,1,.42.29.62.55.68,1.09.41.31.41.67,0,1.08l.36.84c.58.31.84.89.75,1.53.29-.06.47.01.53.21-1,.36-2.28.89-3.35.93-.91.03-.67-1.09-.92-1.76-.32-.86-.61-1.4-.93-2.37-.48-1.47-1.51-2.87-2.09-4.3-.1-.23-.5-.49-.59-.75-.1-.29-.02-.51-.06-.76-.04-.22-.22-.38-.19-.6.02-.09.42-.75.51-.84.79-.8,2.85-1.54,3.88-2.1,3.09-1.69,6.55-3.54,9.09-6.05.23-.22.49-.43.51-.77.32-.25.41-.41.62-.62.03-.03.05-.07.1-.1.38-.24,1.02-.59,1.44-.82Z"/>
  <path class="st11" d="M54.66,32.42c-.07.47-.44.86-.41,1.34-1.07,1.44-2.51,2.5-3.4,3.71-.25.34-.5.59-.91.77-2.12,1.54-4.35,3.02-6.82,3.97-.8.32-1.53.74-2.27,1.03-.78.3-1.58.54-2.37.82-.14,0-.28,0-.41,0,.6-.5,1.68-.51,2.29-.83.8-.42,1.74-.9,2.55-1.34.15-.56,1.05-.87,1.54-.93.12-.37.34-.49.72-.41l.22-.36,2.55-1.55.43-.04c-.1-.28.31-.53.51-.31.1-.42.39-.64.82-.62,2.02-1.54,3.93-3.28,4.94-5.67,0,.13.02.29,0,.41Z"/>
  <path class="st42" d="M39.59,25.27c-.44.47-1.8,1.22-2.44.91-.2-.1-1.01-2-1.23-2.37-.55-.92-1.46-1.14-.2-2.15.34-.27,2.15-1.44,2.48-1.54.82-.23.52.61.62,1.09.06.29.28.98.38,1.27.38,1.04,1.36,1.74.38,2.79Z"/>
  <path class="st68" d="M61.77,46.12c.21.58.61,1.48.7,2.03.05.32.02.64.02.95-.75-.24-.96-1.27-1.44-1.85-.21-.17-.36-.44-.45-.81-.89-1.2-1.51-2.48-1.91-3.98-.59-2.07-1.22-4.13-1.99-6.11-.17-.44-.49-.89-.99-.94l-.11-.21c-.28-.1-.1-.2.1-.31.17-.06.34-.14.51-.21.45-.05.79.25,1.02.89.65,1.79,1.33,3.58,2.05,5.35,1.14,1.52,1.83,3.12,2.54,4.86.05.12.03.23-.05.33Z"/>
  <path class="st43" d="M53.33,35.61c.1-.1.17-.27.31-.36-.45-.04.23-.62.42-.83.08-.08.09-.24.1-.25.06-.06.27-.03.2.15-.05.14-.36.32-.31.57.71.31.57.4,1.24,0v.1l.1.14c-.22.92.03,1.95.26,2.85.48,1.29.77,2.6.89,3.94l-.21.28h-.26c-.6-1.01-1.1-2.07-1.49-3.19l-.28-.12c-.44-1.06-.76-2.15-.96-3.28Z"/>
  <path class="st121" d="M55.69,34.89c-.07.08-.06.24-.1.31.3,1.57.78,3.13,1.42,4.69.02.16-.01.31-.08.46.5,1.8.74,3.64,1.13,5.46h-.28c-.58-1.08-1.1-2.2-1.55-3.36l.07-.25c.03-.56-.04-1.11-.15-1.65-.37-1.75-1.46-3.85-.88-5.56.13-.04.28-.06.41-.1Z"/>
  <path class="st136" d="M62.8,47.97c-.09-.2-.31-.51-.43-.75-.18-.36-.22-.78-.6-1.1-.74-2.08-1.32-3.05-2.51-4.85-.92-1.39-1.24-3.41-1.93-4.97-.24-.54-.56-1.39-1.12-1.61.08-.03.16-.13.3-.16.78-.18.93,1.05,1.14,1.56,1.33,3.19,2.99,6.13,4.22,9.38.32.83.74,1.65.93,2.52Z"/>
  <path class="st48" d="M58.78,63.22c.03.08.04.15.02.17-.5.42-1.85,1.22-2.51,1.11-.87-.14-2.05-2.2-2.43-2.98-1.79-3.72-3.57-7.44-5.2-11.24-1.09-2.34-2.23-4.77-3.67-6.81-.87-.52-1.04-1.01-.52-1.47.04-.02.09-.19.21-.21.09-.11.29-.17.31,0,.13.11.22.29.27.54,1.05.77,1.74,1.96,2.37,3.1,2.57,5.29,5.26,10.68,7.93,15.91,1.39,2.74,3.42,1.77,2.61-1.11-2.35-6.03-4.77-12.02-7.25-17.98-.46-1.23-.62-2.37-.26-3.6-.05-.27-.02-.5.1-.66-.19-.15-.16-.22.1-.21.1-.07.21-.13.31-.21.15.02.21.15.18.41-.42,1.38-.07,2.54.42,3.9,2.61,5.99,5.1,12.01,7.48,18.06.29,1.08.65,2.56-.46,3.28Z"/>
  <path class="st39" d="M59.51,63.63c-.6.36-1.25.68-1.85,1.03-.93.43-1.86.59-2.77.48-.72-.61-1.29-1.4-1.69-2.36-2.03-4.19-4.02-8.47-5.97-12.82-.93-2.17-2.01-4.24-3.25-6.19-.69-.46-.83-.91-.42-1.36.2-.1.42-.21.62-.31.14.21.06.38-.21.31-.41.5.11.83.51,1.09.53.65.98,1.35,1.34,2.12,2.71,6,5.54,11.94,8.47,17.8.96,1.67,1.85,1.69,3.48.83l-.03-.14c.7-.42,2.25-1.4,2.4-2.23.17-.91-.46-2.69-.82-3.57-1.74-4.33-3.53-8.62-5.5-12.85l-1.79-4.35c-.5-1.15-.67-2.19-.42-3.4l-.23-.24c-.03.09-.06.09-.1,0,.17-.12.32-.27.51-.41.13-.18.27-.25.41-.21.32.52.01,1.17.11,1.8.18,1.17,1.39,3.76,1.9,5,1.77,4.32,3.83,8.53,5.56,12.88.44,1.11,1.48,3.4,1.46,4.5-.01.75-1.15,2.11-1.72,2.61Z"/>
  <path class="st28" d="M60.95,62.5c.22-.51.69-1.09.73-1.59.12-1.78-2.38-6.98-3.18-8.88-1.27-3-2.69-6-3.95-9.03-.32-.78-1.84-4.21-1.84-4.76v-1.55c0-.45-.49.13-.51.15-.15.11-.33.15-.41.21.12-.34.53-.45.72-.62.45-.27.49.37.51.67.14,1.55.57,2.54,1.16,3.99,2.1,5.19,4.69,10.22,6.72,15.43.37.96,1.29,3.32,1.17,4.25-.07.5-.69,1.44-1.11,1.73Z"/>
  <path class="st48" d="M51.37,37.47c.22-.02.25.06.23.25-.45,1.74.06,3.15.81,4.83,2.15,4.92,4.3,9.99,6.33,14.93.2.48.38.95.56,1.44.34.93.96,2.75.4,3.67-.15.25-.67.81-.92.64.64-.61.59-1.36.51-2.21-.15-1.57-2.13-5.86-2.83-7.57s-1.44-3.39-2.13-5.08c-.9-2.2-3.38-7.05-3.27-9.19.03-.52.31-1.09.1-1.6.04-.03.06-.07.1-.1h.1Z"/>
  <path class="st118" d="M54.56,39.01c.02.16.06.31.12.46.99,2.2,1.91,4.42,2.75,6.74.05.13.07.27.09.41s.03.29.03.43c-.3-.2-.31-.63-.47-.92-.66-1.16-1.23-2.36-1.79-3.57-.99-2.12-1.88-3.7-2.16-6.08-.03-.23-.03-.36-.31-.36.15-.14.37-.36.51-.52.3,0,.27.13.31.36.24,1.3.39,1.82.92,3.04Z"/>
  <path class="st29" d="M50.85,37.47c-.16.21-.35.35,0,.31-.04.03-.06.18-.1.21.04.28-.01.3-.21.1-.22.19-.47.36-.72.52l-.04.26c-1.11.62-2.18,1.3-3.2,2.06l-.25-.05-.78.58-.14-.07c-.25.22-.49.32-.72.31-.44.18-1.09.33-1.54.52,1.48-.8,3-1.53,4.42-2.43,1.13-.72,2.17-1.59,3.31-2.31Z"/>
  <path class="st21" d="M48.18,22.63c.02.2-.08.33-.18.49-.88,1.32-2.13,2.29-3.33,3.26-.5.4-1.12.46-1.33,1.19v.23c-.77.5-1.51,1.04-2.23,1.6l-.25-.08c-.91.54-1.49,1.25-1.76,2.11.91.37,1.42,1.13,1.53,2.26.71.25.69.67.62,1.34.7.53,1.15,1.57,1.19,2.45.54.23.59.57.65,1.12.33.35.51.73.55,1.13.2-.03.41-.03.5.19-.07.53.04.88.33,1.05-.4.23-1.05.66-1.54.93-1.33.43-2.59,1.07-3.91,1.55h-.82c.17-.49.13-.89-.2-1.29-.13-.15-.34-.21-.42-.33-.03-.04-.39-.88-.39-.93-.05-.34.4-.51.4-.59,0-.04-.29-.24-.35-.37-.11-.21-.09-.51-.22-.71-.12-.18-.39-.22-.49-.44s.02-.44-.03-.68c-.05-.23-.22-.22-.24-.3-.13-.49-.06-.88-.53-1.31-.13-.11-.47-.17-.5-.33-.05-.19.37-.45.3-.7-.04-.13-.34-.22-.46-.38-.08-.11-.44-.64-.5-.75-.34-.61-.4-1.51.03-2.08.38-.51,1.98-1.43,2.61-1.82,2.07-1.29,4.24-2.48,6.2-4,1.36-1.05,2.9-2.37,3.66-3.92,1.04-.58.63-.02,1.13.1Z"/>
  <path class="st104" d="M48.38,38.6c-1.1.75-2.06,1.29-3.19,1.96-.39.14-.3-.25-.22-.53-.8-2.15-1.76-4.27-2.9-6.38-.52-.43-.83-.96-.95-1.59-.74-.29-1.62-.89-1.38-1.79l1.13-.94c.44-.32,2.14-1.65,2.47-1.75.1-.03.32.03.41,0,1.18-1.17,1.76.23,1.24,1.41-.07.9-.08,1.48.56,2.22.37,1.23.78,2.45,1.25,3.64.63.91,1.07,1.92,1.32,3.03.37.29.46.53.28.72Z"/>
  <path class="st120" d="M44.37,27.06c.11-.31,1.44-.73,1.44-.36v2.06c0,.43.63.49.61,1.02-.05,1.41.98,2.64,1.52,3.96.1.24.06.58.19.84.1.2.43.36.5.53.15.35.24,1.16.42,1.54.06.13.27.23.34.38.13.24.03.52.32.66-.27.21-.55.42-.82.62-.16-.06-.27-.22-.32-.48-.56-.69-.9-1.52-1.03-2.49-.86-1.37-1.44-2.88-1.96-4.4-.27-.3-.33-.54-.19-.72-.08,0-.2-.03-.21-.09-.03-.35-.06-2.65,0-2.85l.21-.15c-.3.1-.81.16-1.03-.05Z"/>
  <path class="st6" d="M44.37,27.06c.18-.05,1.03-.19,1.03.05v3.09c0,.07.33.49.39.64.5,1.34.96,2.81,1.72,3.94.49.72.42,1.48.67,2.12.16.41.79.73.73,1.38-.18.13-.37.21-.51.31-.04-.27-.37-.44-.46-.62-.23-.49-.42-1.5-.65-2.03-.09-.21-.38-.42-.53-.71-.49-.93-1.04-2.91-1.4-3.96-.1-.29-.48-.59-.55-.89s-.05-1.07-.02-1.42c.04-.48.49-1.24-.07-1.58-.51-.31-.63.07-.96.19,0-.33.36-.44.62-.52Z"/>
  <path class="st122" d="M53.94,22.43c.1.57-.09,1.34.1,1.96-.04-.14-.15-.28-.21-.52-.15-.69-.05-.93,0-1.55.02.04.1.08.1.1Z"/>
  <path class="st16" d="M51.37,37.47l.41-.1c0,.63-.2,1.27-.1,1.9.17,1.06.86,2.62,1.28,3.66,2.14,5.3,4.99,10.79,6.82,16.15.28.83.67,1.99.53,2.85-.12.73-1.92,1.94-2.57,2.32-1.71.86-2.4.88-3.48-.83-2.93-5.8-5.74-11.71-8.44-17.73-.45-.91-.98-1.98-1.84-2.52-.23-.21-.27-.53-.05-.75.07-.1.14-.21.21-.31.11-.05.25-.07.31-.1-.41.87.36.93.72,1.39.23.3.79,1.21,1,1.57,3.06,5.33,5.25,11.75,8.24,17.2.33.6,1.16,1.87,1.8,2.11.68.26,2.04-.57,2.55-1.05,1.16-.48,1.01-1.77.77-2.78-.42-1.79-1.65-4.3-2.37-6.08-1.23-3.01-2.52-6-3.75-9.02-.6-1.48-1.41-2.96-1.89-4.5-.05-.17-.38-1.39-.38-1.47,0-.53.46-1.32.21-1.91Z"/>
  <path class="st105" d="M57.65,64.66c-.18.1-.62.33-.72.41-.2.09-.62-.03-.75,0-.08.02-.06.18-.15.2-1.62.38-1.72-.39-2.58-1.51-2.78-5.59-5.17-11.39-7.96-16.96-.46-.92-.97-1.94-1.55-2.78-.31-.45-1.02-.75-.7-1.41.08-.04.18-.14.31-.21-.32.88.18.79.56,1.24.89,1.06,1.79,3.1,2.41,4.39,1.57,3.26,3,6.6,4.56,9.86.67,1.4,2.79,6.29,3.79,7.02.75.55,1.94-.23,2.78-.26Z"/>
  <path class="st49" d="M45.4,41.38c.17.22-.16.61-.41.41-.06.03-.22-.02-.31,0v-.1c.24-.1.45-.28.72-.31Z"/>
  <path class="st86" d="M56.31,42.2c.71.88.87,2.73,1.75,3.61.36,1.7,1.56,4.42,2.27,6.08-.9-.44-.79-1.28-1.18-2.07-.48-.97-1.12-1.62-1.6-2.78-.96-2.29-1.69-4.6-2.63-6.9-.15-.38-.5-.61-.36-1.13.16.36.46.77.64,1.16.51,1.18.27.97,1.11,2.03Z"/>
  <path class="st67" d="M61.05,47.25c.03.49-.1.86-.11,1.29,0,.24.07.53.11.77-.48-.93-.79-1.98-1.22-2.96-.65-1.49-1.44-2.9-2.1-4.39-.24-.54-.28-1.27-.81-1.62-.37-1.33-.98-2.68-1.33-3.97-.06-.23-.19-.74-.19-.95s.16-.19.18-.23c.88.02,1.17.76,1.46,1.48,1.04,2.54,1.59,5.56,2.68,8.03.42.94,1.25,1.49,1.31,2.55Z"/>
  <path class="st84" d="M40.87,29.33c-.19.42-1.14.88-.99,1.34.03.09.36.66.42.72.22.22.83.33.99.55.12.17.1.47.21.71.17.36.65.67.75.9.75,1.59,1.49,3.14,2.29,4.71.08.16.61,1.65.63,1.74.03.18-.19.43.02.55-.24.14-.48.27-.72.41-.68.38-.47-.98-.51-1.03-.04-.04-.48.04-.52,0-.02-.02,0-.36-.05-.52-.08-.24-.39-.45-.49-.74-.09-.24-.04-.52-.13-.69s-.44-.24-.52-.41c-.11-.23-.01-.55-.1-.83-.02-.07-.66-1.23-.73-1.33-.11-.15-.31-.18-.33-.23-.11-.17.05-.68-.04-.94-.07-.22-.47-.27-.57-.41-.24-.32-.22-1.28-.6-1.72-.11-.12-.94-.41-.98-.59-.04-.17.24-.91.36-1.07.29-.4,1.19-.83,1.6-1.13Z"/>
  <path class="st100" d="M50.75,37.98c.33.64-.14,1.35-.11,2.11.08,2.1,2.57,7.05,3.45,9.22.96,2.37,1.86,4.73,2.79,7.1.51,1.31,1.88,3.96,1.67,5.28-.31,1.95-1.74,1.86-2.74.42-1.19-1.72-2.12-4.09-3.08-5.98-1.14-2.24-2.31-4.5-3.44-6.76s-1.95-4.59-3.59-6.41c-.35-.38-.9-.43-.72-1.19.05-.02.33-.35.41-.41.28-.19.6-.41.93-.52v.27c-.32.23-.51.5-.56.79,1.54.79,2.47,2.11,3.25,3.67.87,1.81,1.74,3.62,2.91,5.23.21.88.63,1.6,1.27,2.15.97,2.55.83-.53.08-1.23-.79-2.7-1.72-5.34-2.8-7.91-.71-1.82-1.08-3.68-.14-5.43-.08-.07-.01-.17.21-.31.06-.04.15-.06.21-.1Z"/>
  <path class="st49" d="M43.95,42.41c-.3.68.38.76.69,1.06.72.71,1.79,3.14,2.29,4.15,1.69,3.45,3.2,7.02,4.87,10.48.64,1.32,2.61,5.71,3.59,6.41.77.55,1.58-.09,2.37-.26-.09.06-.15.18-.38.29-.33.16-1.39.45-1.72.43s-1.18-.91-1.38-1.2c-1.14-1.67-2.21-4.56-3.12-6.46-.98-2.04-1.98-4.07-2.96-6.11-1.09-2.27-2.25-5.63-3.78-7.55-.26-.32-.75-.37-.67-.98.03-.22.17-.2.21-.26Z"/>
  <path class="st141" d="M50.34,38.39c.24.42-.19.91-.28,1.32-.48,2.03.97,4.83,1.65,6.74.16.46.33.76.46,1.09.51,1.36.94,2.7,1.28,4.07.06.25.51.83.57,1.08.06.22.08,1.32-.07,1.43-.53.38-.68-.64-.85-.92-.2-.32-.6-.54-.79-.86-.25-.4-.36-1.09-.59-1.47-.36-.6-.98-1.39-1.3-1.99-.83-1.56-1.44-3.14-2.45-4.66-.3-.45-.71-1-1.13-1.34-.99-.81-2.07-.65-.52-2.01.78-.68,2.55-1.71,3.5-2.27.13-.14.34-.31.51-.21Z"/>
  <path class="st48" d="M50.55,38.08c-.07.07-.14.26-.21.31-.11.07-.39.13-.51.21.11-.32.52-.38.72-.52Z"/>
</svg>