<?xml version="1.0" encoding="UTF-8"?>
<svg id="Layer_1" xmlns="http://www.w3.org/2000/svg" version="1.1" viewBox="0 0 110 110">
  <!-- Generator: Adobe Illustrator 29.6.1, SVG Export Plug-In . SVG Version: 2.1.1 Build 9)  -->
  <defs>
    <style>
      .st0 {
        fill: #6c4d49;
      }

      .st1 {
        fill: #f1f1f1;
      }

      .st2 {
        fill: #8c8f98;
      }

      .st3 {
        fill: #e4e5e7;
      }

      .st4 {
        fill: #1e5393;
      }

      .st5 {
        fill: #909090;
      }

      .st6 {
        fill: #802e24;
      }

      .st7 {
        fill: #616f8e;
      }

      .st8 {
        fill: #838484;
      }

      .st9 {
        fill: #046fcd;
      }

      .st10 {
        fill: #89aae4;
      }

      .st11 {
        fill: #008de6;
      }

      .st12 {
        fill: #8b4c40;
      }

      .st13 {
        fill: #0080dd;
      }

      .st14 {
        fill: #939393;
      }

      .st15 {
        fill: #d8d7d7;
      }

      .st16 {
        fill: #bf8074;
      }

      .st17 {
        fill: #3e5886;
      }

      .st18 {
        fill: #cbada6;
      }

      .st19 {
        fill: #0093e9;
      }

      .st20 {
        fill: #6d90ce;
      }

      .st21 {
        fill: #c05711;
      }

      .st22 {
        fill: #ce6e18;
      }

      .st23 {
        fill: #c25913;
      }

      .st24 {
        fill: #7a7a7a;
      }

      .st25 {
        fill: #c8836a;
      }

      .st26 {
        fill: #2174ce;
      }

      .st27 {
        fill: #a7a8aa;
      }

      .st28 {
        fill: #d9d9d9;
      }

      .st29 {
        fill: #a1a1a1;
      }

      .st30 {
        fill: #f4f4f4;
      }

      .st31 {
        fill: #87706e;
      }

      .st32 {
        fill: #797b7b;
      }

      .st33 {
        fill: #bc877d;
      }

      .st34 {
        fill: #c26d43;
      }

      .st35 {
        fill: #cf9a88;
      }

      .st36 {
        fill: #d9cbc9;
      }

      .st37 {
        fill: #40a2eb;
      }

      .st38 {
        fill: #4e6aa8;
      }

      .st39 {
        fill: #838382;
      }

      .st40 {
        fill: #8d8d8e;
      }

      .st41 {
        fill: #ce8866;
      }

      .st42 {
        fill: #bdbdbe;
      }

      .st43 {
        fill: #848a9c;
      }

      .st44 {
        fill: #6177b1;
      }

      .st45 {
        fill: #bdb9b9;
      }

      .st46 {
        fill: #5a6ba0;
      }

      .st47 {
        fill: #0860bc;
      }

      .st48 {
        fill: #497ac9;
      }

      .st49 {
        fill: #4184d6;
      }

      .st50 {
        fill: #a09392;
      }

      .st51 {
        fill: #38a6f0;
      }

      .st52 {
        fill: #dcc6c3;
      }

      .st53 {
        fill: #bfc4d1;
      }

      .st54 {
        fill: #575858;
      }

      .st55 {
        fill: #255696;
      }

      .st56 {
        fill: #e1a46d;
      }

      .st57 {
        fill: #a3807a;
      }

      .st58 {
        fill: #0c66c3;
      }

      .st59 {
        fill: #5691da;
      }

      .st60 {
        fill: #757575;
      }

      .st61 {
        fill: #114786;
      }

      .st62 {
        fill: #759ad8;
      }

      .st63 {
        fill: #375386;
      }

      .st64 {
        fill: #9b807c;
      }

      .st65 {
        fill: #616368;
      }

      .st66 {
        fill: #636c85;
      }

      .st67 {
        fill: #989999;
      }

      .st68 {
        fill: #b6400f;
      }

      .st69 {
        fill: #888889;
      }

      .st70 {
        fill: #797979;
      }

      .st71 {
        fill: #0b4b8e;
      }

      .st72 {
        fill: #cda49b;
      }

      .st73 {
        fill: #ddd;
      }

      .st74 {
        fill: #0097ea;
      }

      .st75 {
        fill: #85868b;
      }

      .st76 {
        fill: #c9c9c9;
      }

      .st77 {
        fill: #b0b0b0;
      }

      .st78 {
        fill: #d7d7d7;
      }

      .st79 {
        fill: #1a4b8c;
      }

      .st80 {
        fill: #999392;
      }

      .st81 {
        fill: #b1360e;
      }

      .st82 {
        fill: #6f6f6f;
      }

      .st83 {
        fill: #cfafab;
      }

      .st84 {
        fill: #d58a24;
      }

      .st85 {
        fill: #bc5012;
      }

      .st86 {
        fill: #c1c2c4;
      }

      .st87 {
        fill: #929495;
      }

      .st88 {
        fill: #646674;
      }

      .st89 {
        fill: #c5cdd5;
      }

      .st90 {
        fill: #2996e6;
      }

      .st91 {
        fill: #c5c5c5;
      }

      .st92 {
        fill: #3d5e98;
      }

      .st93 {
        fill: #af657d;
      }

      .st94 {
        fill: #3f79cc;
      }

      .st95 {
        fill: #cdcdcd;
      }

      .st96 {
        fill: #9f9f9f;
      }

      .st97 {
        fill: #c88f81;
      }

      .st98 {
        fill: #bababa;
      }

      .st99 {
        fill: #00a1ee;
      }

      .st100 {
        fill: #4480d1;
      }

      .st101 {
        fill: #626364;
      }

      .st102 {
        fill: #0c4686;
      }

      .st103 {
        fill: #bbb;
      }

      .st104 {
        fill: #4065b1;
      }

      .st105 {
        fill: silver;
      }

      .st106 {
        fill: #4fa0ea;
      }

      .st107 {
        fill: #e6a24b;
      }

      .st108 {
        fill: #678dd1;
      }

      .st109 {
        fill: #acabac;
      }

      .st110 {
        fill: #5d6380;
      }

      .st111 {
        fill: #c9a6a4;
      }

      .st112 {
        fill: #a3a3a3;
      }

      .st113 {
        fill: #858585;
      }

      .st114 {
        fill: #254e88;
      }

      .st115 {
        fill: #25a2ec;
      }

      .st116 {
        fill: #c46a82;
      }

      .st117 {
        fill: #65676f;
      }

      .st118 {
        fill: #009fed;
      }

      .st119 {
        fill: #b94f1b;
      }

      .st120 {
        fill: #ac4836;
      }

      .st121 {
        fill: #c4918c;
      }

      .st122 {
        fill: #777981;
      }

      .st123 {
        fill: #b55b43;
      }

      .st124 {
        fill: #ababab;
      }

      .st125 {
        fill: #826460;
      }

      .st126 {
        fill: #d4dbdf;
      }

      .st127 {
        fill: #008fe7;
      }

      .st128 {
        fill: #9b5e50;
      }

      .st129 {
        fill: #76797f;
      }

      .st130 {
        fill: #a1a8bd;
      }

      .st131 {
        fill: #949494;
      }

      .st132 {
        fill: #838383;
      }

      .st133 {
        fill: #963f1c;
      }

      .st134 {
        fill: #7f7f7f;
      }

      .st135 {
        fill: #786764;
      }

      .st136 {
        fill: #4f97e2;
      }

      .st137 {
        fill: #7e8392;
      }

      .st138 {
        fill: #56a3e9;
      }

      .st139 {
        fill: #a1a3aa;
      }

      .st140 {
        fill: #284b82;
      }

      .st141 {
        fill: #dadcdd;
      }

      .st142 {
        fill: #fcfcfc;
      }

      .st143 {
        fill: #b9babc;
      }

      .st144 {
        fill: #b4a5a3;
      }

      .st145 {
        fill: #c25c14;
      }

      .st146 {
        fill: #707790;
      }

      .st147 {
        fill: #71a5e8;
      }

      .st148 {
        fill: #224381;
      }

      .st149 {
        fill: #6a6a6a;
      }

      .st150 {
        fill: #989898;
      }

      .st151 {
        fill: #cc892d;
      }

      .st152 {
        fill: #b75132;
      }

      .st153 {
        fill: #adadad;
      }

      .st154 {
        fill: #bc6a56;
      }

      .st155 {
        fill: #c47251;
      }

      .st156 {
        fill: #d3d3d3;
      }

      .st157 {
        fill: #afafaf;
      }

      .st158 {
        fill: #006cce;
      }

      .st159 {
        fill: #eba62c;
      }

      .st160 {
        fill: #555;
      }

      .st161 {
        fill: #7ca6e3;
      }

      .st162 {
        fill: #c87383;
      }

      .st163 {
        fill: #104c90;
      }

      .st164 {
        fill: #0066c9;
      }

      .st165 {
        fill: #338dde;
      }

      .st166 {
        fill: #989190;
      }

      .st167 {
        fill: #616e8c;
      }

      .st168 {
        fill: #018ee4;
      }
    </style>
  </defs>
  <path class="st164" d="M11.77,76.42c.09-.48.05-1.01-.15-1.59-.17-.6-.07-1.05.33-1.36-.44-.43-.41-1.37-.04-1.83-.76-.74-.47-1.51.58-1,.51-.28,1.08-.44,1.69-.47-1.04-.86-.38-1.52.74-1.65.79-1.15,1.89-1.7,3.18-2.18,2.84-1.06,5.16-1.23,8.15-.74,1.03-.21,2.39.17,3.11.93.37-.14.72-.2.93.21.97-.56,1.53-.23,1.77.83l.36.31c.22.48.37.77.9.42.19,0,.35.17.5.5.68.14,1,.24,1.54.67l1.32,1.26c.78.25,1.27.71,1.47,1.38.42.27.71.68.88,1.24.21.07.38.16.53.33,1.34,1.54,2.78,4.14,2.82,6.2.65,1.04.74,2.54.75,3.77.04,2.79-.71,5-2.33,7.23l.02.16c0,.57-.75.85-1.24,1.03l-.05.27c-.4.22-.83.37-1.29.45-4.41,1.83-9.81.72-13.94-1.35-4.65-2.33-8.38-6.51-10.88-11.01l-.11-.38c.49-.29.55-.59.17-.91-.1.39-.32.71-.58.26-.6-1.24-.81-1.61-1.13-2.99Z"/>
  <path class="st158" d="M20.73,62.52c3.61-.08,7.34,1.26,10.5,3.09.09-.03.17-.05.23-.02,1.34.55,3.46,2.39,4.57,3.41,3.94,3.58,6.63,7.64,7.3,13.01.1.76.23,1.91.2,2.65-.04,1.04-.36,2.4-.68,3.4-.17.5-.34,1-.6,1.46-.05.19-.19.39-.41.62-.08.48-.55.92-1.03.93-.32.04-.21-.08-.13-.28.33-.75.96-1.54,1.32-2.29,1.11-2.35,1.12-5.37.54-7.86-.06-.25-.31-.41-.37-.66-.09-.42.02-.82-.12-1.32-.33-1.17-1.89-4.05-2.74-4.88-.15-.15-.35-.16-.43-.24-.23-.24-.36-1.38-1.16-1.21-.07-.18.18-.27.18-.36,0-.03-.34-.47-.39-.52-.27-.25-.54-.24-.82-.42-.58-.37-1.45-1.49-1.97-1.74-.44-.22-1.37-.08-1.23-.78-.1-.11-.48.41-.93.05-.2-.16-.18-.36-.31-.52-.1-.12-.26-.13-.38-.34-.38-.65.02-1.17-1.2-.92-.35.07-.26.27-.28.28-.22.13-.3-.34-.48-.4-.21-.07-.48.14-.68.1-.08-.02-.15-.34-.4-.45-.17-.07-1.5-.56-1.6-.57-.28-.04-.63.1-1,.08-2.56-.14-3.69-.66-6.31.18-1.62.52-2.58.67-4.03,1.73-.32.24-.66.9-.94,1.02-.32.14-.61-.03-.93.31-.58.63.41.7.41,1.29-.41.07-.98.13-1.37.23-.2.05-.39.24-.56.27-.23.04-.75-.4-.85-.03-.09.32.62.79.51.97,0,0-.15,0-.2.07-.13.19-.15.97-.08,1.2.08.25.36.23.39.33.06.19-.53.33-.5.64-.14.7.19,1.41.24,2.03.01.14-.01.44-.26.36-.49-2.08-.77-4.25-.31-6.39l.15-.99.16-.04c-.04-.23.04-.87.31-.82l.27-1.02h.25c0-.45.37-1.25.82-1.15.69-.95,1.5-1.68,2.5-2.28.58-.35,2.11-1.13,2.73-1.15.12,0,.23.06.33.13l1.21-.27c.2-.18.46-.25.54.06Z"/>
  <path class="st43" d="M56.87,27.71c2.51-1.05,2.05,1.47.73,2.61l-5.13,5.73c.04.19,0,.33-.13.41-.11.19-.31.36-.6.51-2.88,3.16-5.74,6.32-8.57,9.48-.04.13-.09.19-.21.1-.23.37-.53.71-.91,1.03-.92,1.13-1.88,2.24-2.88,3.32-.35.18-.86.72-.27.9.65.02.97.2.97.52-.09.3-.74.2-.77-.1,0,.08-.03.2-.09.21-.33.04-1.28.04-1.61,0l-.15-.21c.04.16,0,.25-.15.27-.22.12-1.97.18-1.96-.27.3-.24.59-.83.87-1.13,5.64-6.17,11.12-12.49,16.68-18.75.26-.29.77-.57.85-.9.05-.18-.01-.42.02-.54,0-.39.11-.67.31-.82.15.02.22.13.22.33l2.53-2.75.23.05Z"/>
  <path class="st99" d="M43.49,57.57l.33.09c1.4,1.13,2.72,2.38,3.92,3.7.3.33.77.86.8,1.26.67.7,1.3,1.42,1.91,2.18l.16-1.44c-.48-.15-.43-.68-.09-.96-.41-.32-.45-.97-.08-1.34-.31-.35-.09-.93.25-.5.15-.13.2-.07.1.1.43.05.65.84.51,1.24.73,1.23,1.08,2.87.82,4.33.33.28.39.9.1,1.24.22,2.68.63,6.16.06,8.76-.1.46-.26.97-.57,1.34l-.21-.33c-.17-1.51-.37-3.02-.61-4.51l-.25-.14-.68-2.12c-.3-.09-.35-.32-.1-.51-.33-.2-.88-1.02-.72-1.44-.32-.42-.56-.87-.72-1.34-.42-.54-.83-1.09-1.24-1.66v-.2s-.22-.14-.22-.14c-1.12-1.54-2.44-2.91-3.81-4.23l-.08-.27c-.67-.67-1.38-1.3-2.12-1.89.11-1.15,1.54-1.67,2.54-1.2Z"/>
  <path class="st102" d="M73.87,39.96c.24.13.12.25-.05.39.31.22.44.46.46.85l.2.15c-.06.54-.15,1.08-.3,1.6.18.27,0,.49-.31.41-.28.78-1,1.57-1.59,2.19-.2.27-.47.46-.78.59.09.28-.12.49-.62.62-5.98,6.72-11.88,13.56-17.97,20.19-.18.2-.39.47-.67.51-.03-.4-.07-.83-.1-1.24-.06-.5.2-.9.77-1.19.21-.56.57-.96,1.06-1.2l.32-.79c.37-.32.43-.49.52-.95.75-.19,1.17-.61,1.26-1.26l1.69-1.83c.61-1.08,1.41-1.85,2.36-2.64.4-.89.96-1.52,1.69-1.89.02-.54.1-.93.68-1.11,1.13-1.01,2.1-2.11,2.91-3.31.45-.17.72-.54.79-1.09.64-.4,1.12-1.01,1.52-1.66.13-.69.45-.91,1.07-1.14.25-.71.7-1.33,1.35-1.87.78-.48,1.08-.88,1.18-1.8.13-.16.32-.22.56-.17.14-.4.36-.6.72-.8l.22-1.01c.11-.42.75-.99,1.05-.56Z"/>
  <path class="st74" d="M73.76,19.47c-.36-.29-.2-.57.48-.83.16-.61.32-.64.88-.71,2.41-.32,5.28,2.53,6.5,4.41.8.42,1.3,1.3,1.72,2.08.42,1.91.32,4.07-.72,5.77-.08-.46-.26-.8-.54-1.04l.12-.2c-.38-.64-.69-1.29-.93-1.96-1.93-2.96-4.28-5.57-7.4-7.3l-.12-.22Z"/>
  <path class="st160" d="M82.72,31.11c.46,2.45.26,4.9-1.19,7-1.08,1.57-3.64,4.22-5.04,5.67-1.55,1.62-3.32,2.75-5.61,2.99.21-.23.44-.42.62-.62.3-.28.57-.35.82-.21.94-.26,1.71-.91,2.37-1.6.67-.25,1.13-.76,1.39-1.53.12.04.21.03.26-.07-.15-.22.09-.75.41-.72.45-1.2.76-2.44.92-3.72l.11-.72c1.13-2.14,2.42-4.18,3.86-6.12.47-.53.83-.65,1.08-.37Z"/>
  <path class="st73" d="M68.61,17.61l.13.09c.66-.07,1.72.12,2.14.63.03-.09.06-.09.1,0,.16.08.19.15.1.21l-.25.16c-.95-.18-1.89.15-2.71.59-2.39,1.27-4.67,2.58-6.81,4.21l-.52.08c-1.78.56-3.54,1.25-4.98,2.53-.24.06-.33-.02-.27-.27,1.3-1.64,2.53-2.83,4.02-4.27,1.79-1.73,3.03-3.45,5.74-3.84,1.07-.15,2.27.14,3.32-.13Z"/>
  <path class="st54" d="M48.53,82.71c.21-1.62.6-2.89,2.03-3.8.16-.58,1.1-1.67,1.06-.53-.24,4.3-1.8,6.79-4.68,9.89-2.23,2.39-5.34,4.42-8.7,4.53.32-.13,1.04-.53,1.34-.72,2.62-.87,4.66-2.59,6.28-4.84l.03-.46c1.25-1.96,1.85-4.21,1.73-6.53l.1-.22c.02-.34.11-.56.31-.21.31,1.38.14,2.88-.12,4.27.07.07.12.15.12.21-.11.81-.64,2-1.13,2.63-.03.4.18.14.31-.1l-.03-.2c.6-1.28,1.06-2.58,1.37-3.92Z"/>
  <path class="st28" d="M25.46,53.97c.85-.07,1.71-.07,2.57,0,.3-.27.69-.22.93.1.5-.26,1.24-.18,1.65.21.12.08.08.11-.1.1-.26.15-1.19.25-1.34-.1-1.26-.19-2.36.05-3.3.72-1.07,1.15-2.31,1.9-3.71,2.26l-.11.14c-1.85.28-3.67.89-5.28,1.83l-.17-.02c-.05-.06-.12-.17-.08-.21,1.1-1.3,2.55-2.65,3.89-3.7,1.44-.65,3.02-.99,4.53-1.44.24-.02.42.01.51.1Z"/>
  <path class="st149" d="M82.62,30.69c.03.14.07.25.1.41-.2-.01-.35.05-.51.16-1.09.77-1.85,2.41-2.54,3.54-.54.9-1.55,2.21-1.83,3.22-.18.64-.09,1.57-.33,2.15-.08.21-.3.33-.34.48-.11.37-.03,1.07-.43,1.37-.22-.17-.11-.69.14-.71.05-.34.14-.66.27-.94.04-.96.14-1.91.3-2.87-.2-1.51-.09-2.6.64-3.94.13-1.09,2.84-5.07,4.02-4.51.35.17.48,1.26.5,1.64Z"/>
  <path class="st101" d="M51.72,77.56c0,.27-.09.62-.1.82.1-.66-.49-.11-.62.07-.1.15-.09.36-.25.55-.29.35-.92.67-1.24,1.13-.53.77-.56,1.76-.99,2.57-.1-.12-.08-.38,0-.51l.13-3.73c.41-1.34,1.05-2.64,2-3.65l.11-1.09c-.3-.65-.25-.99.13-1.01.41,1.52.83,3.27.82,4.84Z"/>
  <path class="st10" d="M39.88,52.32c.09-.3.59-.21.62.1-.1.24-.02.46.23.65l-.13.22c.34.15.32,1.42,0,1.6-.06.23-.26.23-.62,0-.02.09-.05.09-.1,0l-1.34-.62-.24.04c-.85-.3-1.7-.62-2.54-.97-.88-.15-1.74-.32-2.57-.51-.94-.18-1.91-.22-2.85-.07l-.13-.13c.11-.17.39-.1.56-.1,1.12-.01,2.54.12,3.61,0,.29-.03.55-.13.77-.31.49.17,1.18.13,1.71.11.18,0,.36-.11.4-.11h1.85c.07,0,.64.08.77.1Z"/>
  <path class="st161" d="M81.9,21.22c-.18.16-.39.12-.64-.12-1.67-1.97-3.89-3.53-6.47-4.1l-.17.18c-1.14-.34-2.98-.08-3.52,1.09l-.22.07c-.66-.19-1.22-.39-1.91-.51-.19-.03-.41.12-.35-.21.73-.19,1.56-.72,2.39-.95,4.27-1.22,8.51,1.06,10.89,4.56Z"/>
  <path class="st90" d="M77.06,18.02c.03-.09.07-.09.1,0,1.61.79,2.84,1.97,4.02,3.3h.25c.41.59.87,1.14,1.4,1.65.23.55.38.83.51,1.44-.33-.29-.58-.66-.86-.99-.25-.29-.39-.61-.5-.73-.09-.1-.34-.05-.5-.2-.19-.18-.59-.95-.86-1.27-.81-.93-2.62-2.57-3.81-2.9-.31-.09-1.56-.21-1.86-.18-.54.05-.36.39-.57.64-.1.12-.87.29-.62.69-.19.14-.93-.25-1.17-.41-.06-.04-.06-.13-.07-.21-.64-.33.53-.97.94-1.2,1.26-.68,2.42-.32,3.59.37Z"/>
  <path class="st62" d="M30.2,52.63c.97-.04,2.06-.07,2.99.21l-.09.11h-1.79c-.82.04-1.67.3-2.08,1.07l-.26.06c-.31-.03-.62-.08-.93-.1-.88-.08-1.73-.08-2.57,0-.17,0-.43.06-.51-.1,1.96-.59,3.1-1.15,5.25-1.24Z"/>
  <path class="st105" d="M20.42,55.31l-3.81,3.91c.08.13-.08.25-.21.21-.53.47-1.15,1-1.75,1.34.08-.26.34-.56.52-.77,1.44-1.64,3.24-3.78,5.25-4.69Z"/>
  <path class="st138" d="M81.9,21.22c.48.7.61.98.93,1.75-.78-.24-1.18-1.05-1.65-1.65-1.17-1.33-2.41-2.51-4.02-3.3-.03-.01-.07.01-.1,0-.65-.45-1.43-.62-2.2-.78l-.07-.25c1.97.3,3.62,1.25,5.14,2.53.65.55,1.18,1.4,1.97,1.69Z"/>
  <path class="st40" d="M16.5,59.53c-.35.48-.8.92-1.34,1.31-2.3,2.14-3.15,5.16-3.39,8.16-.09.27-.26.78-.31,1.03-.09-3.22.83-6.97,3.19-9.27.52-.51,1.15-.93,1.75-1.34.14-.14.2-.08.1.1Z"/>
  <path class="st157" d="M60.79,23.59c.15-.04.29-.04.41,0,.14.14.08.2-.1.1l-.06.12c-.38.02-.67.11-.87.29l-.3.26c-1.74.32-3.22,1.3-4.38,2.61l-.37.11c-.1-.06-.21-.13-.31-.21.28-.47.39-.62.72-1.03.21.17.25.06.41-.05,1.44-.95,3.05-2.04,4.84-2.22Z"/>
  <path class="st132" d="M54.81,26.88c.3-.21.35-.13.31.21l.03.29c-.51.76-.85,1.6-1.01,2.54l-.25.15c-.08.27-.26.65-.31.82-.05-1.53.49-2.75,1.24-4.02Z"/>
  <path class="st158" d="M13.41,80.44c-.2-.35-.34-.67-.51-1.03.28.26.41-.34.41-.48,0-.29-.24-.47-.2-.76.58-.23.33.26.44.65.09.32.58.53.34,1-.1.2-.57.22-.47.62Z"/>
  <path class="st24" d="M81.49,27.91c.1-.04.17-.03.21.06l.52.97c.19.32.38.86.41,1.24.01.17-.01.34,0,.51-.07-.3-.2-1.18-.36-1.34-.45-.46-1.62.59-1.96.93-.41.41-1.04,1.26-1.3,1.78s-1.43,3.21-1.5,3.65c-.14.8.18,1.63.08,2.45-.05.38-.26.57-.3.83-.08.43.13.99-.11,1.38-.07-.13-.07-.3,0-.51-.05-.02-.1-.05-.13-.08-.06-.06-.11-1.61.13-1.67.05-.9.05-1.8,0-2.68-.32-.71-.63-1.52-.29-2.31.35-1.07.7-2.12.75-3.25.09-.42.29-.82.63-1.1.51-.42,2.32-.86,3.04-1l.21.13Z"/>
  <path class="st23" d="M37.1,73.54c.96,1.27,1.51,2.12,2.16,3.6.3.72.52,1.45.66,2.18-.35.27-.68.56-.99.87-.12.33-.29.49-.5.49.08,0,.19.03.2.09,0,.08-.05,1.28-.07,1.39,0,.03-.06.05-.13.07.32.13.25,1.1-.1,1.18-.11.33-.37.81-.72.72-2.04.08-4.05-.44-6-1.33-.83-.38-5.39-3.01-5.39-3.6,0-.09.08-.16.16-.22.48.04,1.19.41,1.44.82.56.07,1.12.19,1.67.37l.18.25c3.32.51,5.77-1.5,5.55-4.9,0-.29,1.39-2.2,1.52-2.2.13,0,.24.07.34.2Z"/>
  <path class="st145" d="M25.46,66.02s.07,0,.1,0c1.51.23,2.98.73,4.33,1.44.34.15.49.29.72.41.04.07.11.18.07.23-.15.18-1.22,1.3-1.33,1.34-.97.11-1.92.31-2.86.59l-.1.31c-1.66,1.17-2.01,3.25-1.96,5.14l.19.1c.06.76.32,1.5.72,2.15l-.09.12c-.11.13-.17.12-.3.09-.64-.17-2.6-3.65-3-4.41l-.35-.29c-.36-.78-1.45-3.77-1.21-4.43.03-.08.07-.15.11-.22-.11-.26.18-.37.41-.31-.01-.06-.02-.12,0-.17.07-.26,2.8-1.8,3.23-1.97s.85-.2,1.31-.13Z"/>
  <path class="st133" d="M37.1,73.54c-.23-.19-.22-.02-.33.14-.26.35-1.16,1.39-1.27,1.62-.14.3-.02.81-.07,1.17-.46,3.31-2.54,4.55-5.75,3.98l.11-.22,1.54-.07c2.22-.12,2.81-3.67,1.89-5.29l.06-.28c.21-.53.79-.07.92.4-.01-1.91-1.89-3.49-3.53-4.16-1.52-.62-2.52-.76-4.11-.53l-.09-.23c.95-.59,1.65-.68,2.78-.77l1.34-1.39c2.7,1.41,4.68,3.26,6.49,5.66Z"/>
  <path class="st158" d="M14.65,72.1l.15.41c-.6,5.43,2.81,10.49,6.75,13.9,1.48,1.17,2.91,1.99,4.67,2.67.09.04.15.11.17.21.96.28,1.96.57,2.97.71.29.23.66.3,1.1.22,1.64.23,3.35.24,4.91-.37l.39.06c.36-.08.11.25.05.3-.45.38-2.29.9-2.89.92-6.24.27-12.41-3.79-16.15-8.54-.23-.29-.53-1.04-.7-1.21-.09-.09-.27-.07-.36-.15-.16-.15.04-.59-.08-.9-.22-.6-.83-1.09-1.1-1.58-.24-.43-.22-.94-.4-1.25-.11-.19-.38-.25-.41-.34-.06-.26.1-.54.1-.79-.04-1.31-.39-2.69-.19-4.02.12-.8.53-.82,1.02-.26Z"/>
  <path class="st116" d="M35.76,89.92c-1.72.75-3.44.76-5.21.52-.32-.04-.74.06-1.01,0-.08-.02-.06-.2-.14-.21-1.16-.19-1.35-.18-2.51-.67-.16-.07-.29.13-.51-.25.3-.13.68-.09,1.13.1l.22-.1c1.46.35,3.03.69,4.51.51l.31-.22c2.39-.1,4.3-1.31,6.18-2.66l-.05-.24c.49-.45.87-1.02,1.13-1.71h.16c.03-.09.06-.09.1,0-.46,2.2-2.29,4.05-4.33,4.94Z"/>
  <path class="st162" d="M15.68,71.17c.25.5.05,1.43-.31,1.85.13,2.51.41,4.72,1.48,7.03s2.62,4.26,4.53,5.86l.17.4v.1c-4.05-3.35-7.86-8.69-6.9-14.32.09-.55.48-1.72.82-2.16.88-1.21.47.66.21,1.24Z"/>
  <path class="st83" d="M40.19,79.92c.04.19.17.38.1.62-1.84.2,0,3.91-.09.97l.2-.15c.25.66.06,1.4,0,2.06l-.13.31c-.74.68-1.49,1.33-2.24,1.96-.48.77-2.33.95-1.15-.27l1.47-1.26c.39-.38.8-.93.67-1.5-.5-.75-.24-2.03.43-2.6.19-.16.7-.52.73-.15Z"/>
  <path class="st18" d="M22.37,65.71c.22-.03,1.16-.11,1.27,0,.15.16-.09.43-.26.5-1.01.48-1.92,1.08-2.75,1.8l-.11-.04c-3.05,2.92-2.59,7.1-1.54,10.81.1.07.13.27,0,.31l-.26-.03c-2.37-4.88-1.26-9.99,3.37-13.03.05-.07-1.62.16-1.75.24l-.23-.16c.76-.36,1.43-.41,2.27-.41Z"/>
  <path class="st65" d="M39.57,92.08c.44-.29.84-.7,1.24-1.03.35-.29.68-.63,1.03-.93,1.35-.54,2.72-1.71,3.76-2.92l.25.04c-.93,1.55-1.97,2.75-3.51,3.75-.79.51-1.85,1.02-2.77,1.09Z"/>
  <path class="st93" d="M18.97,66.54v.29c-.53.99-1.08,1.96-1.65,2.91-.11.37-.25.72-.41,1.03-.03.09-.06.09-.1,0-.01-.57.15-1.14.47-1.7l-.06-.21c1.71-2.74-.72.23-1,1.23l-.13.17c.22.23-.06,1.01-.41.93.03-.21.2-1.31.19-1.38-.06-.33-.28,0-.39.15.57-1.64,1.96-2.74,3.5-3.4Z"/>
  <path class="st97" d="M40.19,79.92c-.93-.06-1.35,1.3-1.33,2.01.02.61.75.49.11,1.66-.38.7-2.16,1.85-2.27,2.26-.2.74,1.1,0,1.32-.17.12-.08.18-.08.21,0-.09.79-2.67,1.48-2.13.19.68-.71,1.42-1.32,2.24-1.84.11-.33.22-.68.33-1.02-.17-1.33-.37-2.83,1.11-3.48.1-.12.17-.27.21-.44.09.32.14.48.21.82Z"/>
  <path class="st154" d="M38.34,84.04c-.41.46-2.16,1.58-2.16,2.11,0,.59,1.02.24,1.33.09.23-.11.52-.4.73-.56.52-.59,1.08-1.16,1.68-1.7.47-.26.41.23.28.57-.01.24-.08.28-.1.41h-.1c-.68.51-1.37,1.03-2.08,1.55-.39.3-.69.37-.91.2-.63.23-1.52.04-1.25-.8.1-.31,1.97-1.78,2.34-2.01.03-.02.08,0,.14.03.14-.14.2-.08.1.1Z"/>
  <path class="st52" d="M40.29,80.54c.1.31.09.52.1.82.03.54.22,1.77-.62,1.39-.9-.41-.54-2.2.36-2.52.02,0,.13.25.15.31Z"/>
  <path class="st111" d="M20.11,66.12c-.04.22-.22.42-.54.58-1.86,2.43-2.89,5.17-2.47,8.34l-.19.35c-.58-1.78-.22-3.9.41-5.66.46-1.1,1.02-2.18,1.65-3.19.45-.19.64-.29,1.13-.41Z"/>
  <path class="st155" d="M39.98,79.1c.14.72-.45.64-.83,1.08-.35.4-.54,1.24-.52,1.75,0,.25.17.41.21.62.11.68-.08,1.02-.51,1.49l-.1-.1c-.11-.09-.07-.26.1-.51.05-.31.1-.89.1-1.18v-1.54c0-.06.55-.87.62-.93.19-.17.75-.32.82-.53.1-.36-.65-1.63-.61-2.09.33.74.5,1.17.72,1.96Z"/>
  <path class="st25" d="M25.46,65.92c-.34.09-.71.13-1.1.11l-2.22,1.23c-.49.36-1,.67-1.52.93-.02.09-.06.09-.1,0-.12.02-.12-.05,0-.21.3-.27.83-.75,1.14-.97.25-.18,1.84-1.03,1.84-1.14,0-.23-.92-.15-1.13-.15.96-.23,2.16-.06,3.09.21Z"/>
  <path class="st34" d="M25.46,65.92v.1c-1.45.12-3.39,1.36-4.53,2.27-.13.06-.29.06-.31-.1.79-.81,1.83-1.25,2.81-1.77.22-.11.74-.55.87-.58.31-.09.8.19,1.16.09Z"/>
  <path class="st121" d="M40.4,83.43c-.04.37.05.81-.21,1.13,0-.14.04-.41-.05-.51-.66.54-1.21,1.14-1.91,1.65h-.21c.77-.61,1.45-1.8,2.37-2.27Z"/>
  <path class="st34" d="M29.89,67.46c-.74-.33-1.58-.65-2.35-.9-.65-.21-1.33-.34-1.98-.54,1.14-.03,2.53.55,3.57,1.01.25.11.59.2.75.43Z"/>
  <path class="st13" d="M27.52,60.15c.63-.02,1.4.19,2.02.38.91.29,2,.69,2.72,1.26l-.1.11-2.06-.57c-.38-.09-.82-.14-1.07.22-.37.77-.65,1.35-1.43,1.77,1.26.66,2.48,1.38,3.67,2.14l-.04.14c-1.96-1.06-4.49-1.97-6.67-2.45-.98-.22-2.89-.62-3.84-.64-.19-.39.57-.47.62-.1l1.13-.1c.02-.09.05-.09.1,0,.18-.18.49-.25.93-.21-.19-.3-.22-.54-.1-.71-.22-.24-.11-.42.34-.57.21-.46.34-.66.88-.79.88-.22,2.03-.09,2.9.13Z"/>
  <path class="st168" d="M32.26,61.8c.72.1,1.49.57,2.06,1.03.21-.04.61.08.41.31l-.25.11c-1.09-.58-2.23-.99-3.42-1.23.07.87,0,1.85-.49,2.55,2.74,1.75,5.4,3.89,7.67,6.29.09.02.17.04.25.08.92.42,2.69,3.67,3.27,4.78.05.1.04.19-.02.29l.17.31c.66.44,1.06,1.93,1.2,2.76l-.14.32c.45,1.45.7,2.93.73,4.45.21.71.27,1.22-.11,1.91.11.68-.02,1.37-.38,2.07.21-.03.34.05.38.22l-.06.39c-.31.38-.86.85-1.28,1.06.09-1.03.7-2.04.91-3.05,1.71-8.13-5.12-17.17-11.93-20.84-.42-.52-3.91-1.9-3.91-2.32.23-.34.62-.36.88-.66.53-.63.48-1.56,1.44-1.56.57,0,2.04.5,2.63.73Z"/>
  <path class="st91" d="M25.15,57.47c.27-.15.84-.15,1.03.1,1.46-.17,3.04.34,4.44.83.95.33,4.28,1.63,4.78,2.23.06.07.11.15.16.24.31-.02.65.05.62.41.42.09.7.26.82.51l1.57.86.07.27c.06.03.06.07,0,.1-.16.16-.39.08-.68-.25l-.14.04c-.21-.04-.43-.08-.61-.2-3.12-2.02-5.29-3.4-9.02-4.21-1.65-.36-3.26-.43-4.95-.44-.27-.19-.59-.21-.87-.1l-.31.22c-4.87.35-9.3,4.18-9.73,9.13l-.26.95c-.09.23-.23.59-.31.82-.21-.11-.07-.36-.05-.51.39-3.73,1.52-6.84,4.79-8.96,1.64-1.27,4.1-2.09,6.18-2.06l.1-.12c.8-.05,1.59-.01,2.37.12Z"/>
  <path class="st129" d="M21.86,58.71l-.08.23c-3.36.75-5.89,2.9-7.54,5.95l.04.13-.86,1c-.26.3-.62.79-.82,1.13l-.22-.08c.18-3.41,3.23-7.11,6.46-8.19.95-.05,1.88-.19,2.83-.37l.21.2Z"/>
  <path class="st75" d="M22.37,57.88c.4-.09,1.15-.18.83.29.8.03,1.6.1,2.39.21l.28.22c-.04-.41,1.01-.3.82.1h-.1c-.63.16-1.3.2-2.01.11-.71.09-1.38.05-2-.11-.12.32-.56.26-.72,0-.61,0-1.25.22-1.81.3-.39.06-.77-.05-1.18.06-2.08.53-4.4,2.74-5.34,4.65-.21.43-.95,2.1-1.02,2.48-.06.36.03.61.08.95-.17.29-.39.72-.51,1.03.03-5.41,4.96-10.12,10.3-10.3Z"/>
  <path class="st38" d="M47.4,78.38c.61,3.41.03,6.88-2.45,9.37-.87.87-2.02,1.86-3.11,2.37-.02-.17.28-.47.41-.62.43-.49.92-.93,1.34-1.44-.03-.29.12-.59.43-.9.18-.42.42-.67.7-.75.03-.29.14-.39.31-.31.03-.07.06-.07.1,0,2.31-2.6,2.23-6.39,1.54-9.68-.32-.14-.6-1-.31-1.24-.06-.1-.06-.17,0-.21.1-.03.2-.04.3,0,.25.12.8,2.59.88,3.06l-.14.33Z"/>
  <path class="st108" d="M18.97,62.72c-2,.43-4.21,1.77-5.56,3.3.2-.37.55-.81.82-1.13.19-.44.43-.72.72-.82l.81-.86.12.04c.84-.83,2.93-1.85,4.1-1.52.94.43.6.77-1.01,1.01Z"/>
  <path class="st100" d="M22.58,62.31s-.07,0-.1,0l-1.13.1c-.19,0-.51-.07-.62.1-.46,0-1.3.11-1.75.21.19-.19,1.42-.19,1.34-.56s-1.09-.28-1.38-.25c-1.03.11-2.22.77-3.05,1.33,0-.27.55-.95.82-.82.45-.38.95-.66,1.51-.83.14-.31.38-.37.67-.29.89-.29,3.32-.64,3.87.33.15.27.21.7-.17.69Z"/>
  <path class="st7" d="M59.24,26.26l.32.38c2.09.7,1.16,2.3.24,3.59-1.61,1.98-3.31,3.88-5.11,5.68-.17.46-.41.71-.71.75-.22.07-.48.07-.78,0-.4.07-.69,0-.86-.21l-.15-.41,5.25-5.87c.41-.53,1.69-1.86.76-2.41-.58-.35-.85,0-1.33-.06-.09-.03-.09-.06,0-.1.08-.41,1.27-1.23,1.66-1.33l.3.09c0-.31.21-.34.41-.1Z"/>
  <path class="st156" d="M72.01,27.91c.1-.03.13,0,.1.1.86.48,1.6.98,2.12,1.85l-.06.31-.2.08c-.58-.64-1.21-1.22-1.88-1.76.57.49,1.06,1.03,1.48,1.64l-.11.24c-.08-.01-.16-.02-.23-.05-.12-.05-1.6-1.52-1.86-1.79-.05-.05-.06-.13-.07-.22l-.21-.04c-2.79-2.45-6.48-3.88-10.19-3.77-1.23.29-2.58.77-3.61,1.53-.59.43-.61.74-.26,1.38l-.14.18v.1l-3.04,3.3.05-.93c.33-1.17.42-2.04,1.24-2.99,1.39-1.62,2.87-2.64,5.05-2.99.26-.27.77-.35,1.09-.14,3.87-.06,7.75,1.65,10.75,3.95Z"/>
  <path class="st167" d="M42.97,46.55c.06.11.04.36,0,.51.3,0,.4.5.1.62.36.23.08.88-.15,1.29-.55.79-1.15,1.54-1.81,2.24-.53.55-.34.91.57,1.08l.05.24c.35.14.56.32.62.51-.18.23-.3.19-.31-.1l-.18.15-1.31-.44-.05-.23c-.15-.03-.44-.08-.62-.1-.35-.4-1.44-.1-1.43-.77.01-.57.37-.55.61-.82.39-.44.79-.85,1.18-1.29.79-.89,1.8-2.42,2.73-2.89Z"/>
  <path class="st56" d="M52.34,36.46c.35-.03,1.29.12,1.65.21.3-.25,1.45.17,1.8.38l.05.24.24-.09c.25-.06,2.78,1.23,2.98,1.73.48.18.64.38.49.62l-.22.11c-.88-.67-1.81-1.21-2.8-1.64l-.07-.22c-.64-.09-1.24-.31-1.85-.54-1.19-.36-1.92-.44-2.79.48-2.56,2.85-5.17,5.65-7.81,8.39-.26.13-.56.28-.83.32.16-.36.51-.73.77-1.03,2.34-2.7,4.84-5.69,7.31-8.24.34-.35.56-.68,1.08-.72Z"/>
  <path class="st107" d="M56.46,37.8l-.19.19c-.94.05-1.93.2-2.78.64-1.22,1.48-2.61,2.76-4.15,3.84-.33.88-.81,1.39-1.59,1.89-.2.67-.52.84-1.14,1.06-.69.84-1.69,1.23-3,1.18-.2.09-.38.21-.54.36.13.15.07.21-.1.1-.01-.12-.17-.28,0-.51.07-.03.14-.07.21-.1.82-.42.65-.53,1.17-.99,2.5-2.26,4.71-5.23,7.07-7.61.22-.22.75-.73.99-.86,1.04-.56,3.05.32,4.05.81Z"/>
  <path class="st4" d="M66.86,27.19l.29-.09c.69.34,1.37.71,2.01,1.13l.07.29c1.46.69,2.64,1.95,3.57,3.26.25.21.37.43.35.66.76.8,1.32,1.87,1.75,2.88.34.8.78,2.17.51,2.99.06.05.11.11.15.17.36.54-.18,3.37-.87,3.85.18.24-.24.77-.51.62-.18-.59.08-1.17.1-1.75-.2-.69-.3-1.43-.29-2.19-.04-.89-.19-1.53-.88-2.13.08-.36-.06-.39-.4-.1-1.06-.33-1.31-.12-1.62.94-.5.12-.74.44-.72.96-.33.39-.52.86-.56,1.43-.94.83-1.78,1.78-2.5,2.81-.07.61-.46.98-1.18,1.1l-.83,1.07c-.09.45-.26.62-.71.68.43.48.25.81-.38.81-.59.48-1.09,1.14-1.54,1.76-.14.6-.55.87-1.11,1.01.12.63-.26,1.03-1.16,1.22.04.22.05.44-.09.63l-1.1,1.3c-.27.84-.75,1.36-1.59,1.7,0,.55-.24.76-.65,1.07-.27.79-.69,1.28-1.32,1.81-.53.93-.92,1.36-1.96,1.67-.24.75-.46,1.11-1.18,1.47-.25.68-.49,1.26-1.09,1.68-.03.09-.06.09-.1,0-.14-.38-.34-.88-.51-1.24-.1-.57-.1-1.12-.01-1.66l.3-.31c.05-.51.37-.71.84-.83.06-.45.3-.81.72-1.09.32-.68.71-1.3,1.16-1.87.45.05.68-.26.7-.95.84-.34,1.01-.84,1.17-1.69.2-.34.55-.58,1.03-.74.24-.45.54-.75.92-.92-.1-.95.1-1.74,1.22-1.5.23-.53.82-1.27,1.44-1.16-.3.05-.25-1.51-.19-1.66.03-.08.11-.12.19-.14-.25.24-.33.57-.23.98-.33.86-2.37.65-1.97-.58.08.73-.27,1.21-1.05,1.45-.12.55-.36.79-.73.73-.32.37-1.25.56-1.55.13-.33-.49.23-.75.69-.59.06-.43.25-.62.68-.67.24-.16.14-.95-.06-.97-.35-.05-2.91,3.02-3.14,3.45-.02.05.91.03.75-.48.75-.94,2.1.86,1.01,1.18-.05.5-.43.67-1.14.52,0,.4-.22.66-.67.77-.04.77-.52,1.03-1.44.8.22.68.21.75-.46,1.11-.05.56-.25.75-.81.81-.38.27-.61.61-.7,1.01-.82.57-1.72.42-2.47-.25-.21.12-.45-.09-.31-.31-.39-.27-.85-.58-1.13-.93l.1-.24c1-.02,1.69-.47,2.48-1.03l.75-.23c.06-.54.17-.84.54-1.25-.07-.47.01-.71.26-.75.18-.11.41-.07.69.09-.1-.23.05-.4.45-.51l.23-.47c2.55-2.91,5.11-5.81,7.67-8.71l.68-1.02h.27c.18-.48.01-1.01-.5-1.17-1.07-.62.08-1.36.78-.79l.42-.51c.57-.23,1.05-.54,1.44-.92-.01-.67.07-.93.79-1l.57-1.08c.36-.24.58-.6.66-1.09.57-.31.9-.67,1.14-1.3l.26-.07c-.3-.55.74-.71,1.07-.3.26.49.44.44.8.07l.89-.27c.85-.18.87-1.72.13-2.03-.55-.76-1.12-1.44-2-1.84l-.05-.26c-.36-.58.39-.57.82-.41Z"/>
  <path class="st55" d="M46.99,55.51c.34.02.68.39.98.41.1,0,1.13-.12,1.18-.15.24-.12.15-.4.23-.54.02-.04.62-.63.66-.65.16-.09.43-.06.55-.15.15-.11.1-.43.2-.6.09-.16.6-.35.62-.38.02-.03-.42-.57-.11-.78s.9.17,1.18-.04c.12-.09.01-.5.22-.73.18-.2.52-.18.55-.22.07-.08-.04-.56.01-.61.06-.06,1.03.07,1.12-.01.04-.04.03-.33.1-.44s.4-.08.42-.22c.02-.15-.29-.85-.57-.88-.67-.09-.47.28-.61.51-.17.28-.79.2-1.08.21.49.56,0,.48-.15.72-.19.29-.12.86-.87.35-.65-.44.14-.53.33-.66.8-.52,1.5-1.82,2.18-2.59.23-.26.67-.57.93-.82.32-.3.51-.85,1.08-.88.34.26.41,1.08.1,1.34-.13.1-.39.08-.49.18-.11.11-.09.46-.22.55-.11.08-1-.31-.57.36.09.14.74.03.91-.03.15-.05.21-.21.36-.26.13-.05.39.01.43-.03.02-.02,0-.29.05-.41.23-.58.92-.53,1.04-.71.11-.16.03-.9.17-1.02.08-.06.33.03.5-.17.27-.3.1-1.15.82-.99-.33.37-.25.74,0,1.13-.2.11-.78.05-.88.2-.09.13-.09.69.05.79.13.09,1.07.08,1.24,0,.54-.26-.33-1.1.62-1.18v1.8c0,.14-.47.27-.57.36-.07.06-.4.39-.46.46-.13.14-.2.46-.31.53-.25.15-.98-.4-1.13.62-.03.22.05.74-.02.85-.02.03-.32.1-.45.22-.19.18-.23.44-.47.67s-.83.38-.93.51c-.17.23-.17,1.05-.61,1.53-.19.2-.61.28-.67.38-.12.18.02.54-.2.83-.25.32-.49.13-.65.23-.09.05-.84,1.57-1.02,1.81-.16.21-.42.31-.53.5s-.08.44-.17.56c-.12.16-.54.11-.71.42-.06.11-.05.28-.12.4-.09.15-.3.24-.34.39-.11.38.26,1.13-.12,1.47-.02-.03-.08-.06-.1-.1-.45-.22-.75-.73-.72-1.24-.32,0-.39-.16-.21-.41-.69-1.21-1.62-2.28-2.78-3.21v-.19Z"/>
  <path class="st71" d="M73.87,39.96c-1.14.13-.8,1.08-1.08,1.65-.08.16-.39.25-.52.4-.12.14-.16.42-.25.48-.15.1-.4,0-.5.06-.09.05-.13.72-.23.95-.24.52-.71.64-1.01.95-.22.23-.96.99-1.09,1.18-.15.21-.12.51-.25.68-.16.2-.63.18-.84.5-.12.19-.1.43-.21.61-.15.23-.81,1.12-.97,1.3s-.42.17-.55.37c-.15.23-.09.57-.32.82-.15.17-.38.19-.51.31-.19.17-.31.59-.52.82-.75.84-1.61,1.68-2.4,2.49-.1.1-.31.1-.43.24-.23.26-.09.62-.21.82-.07.12-.51.22-.73.4-.32.28-.6,1.09-1.02,1.55s-1.11.87-1.49,1.39c-.61.82-.52.98-1.34,1.75-.13.12-1.1,1.2-1.17,1.3-.16.22-.09.58-.27.76s-.93.38-.98.46c-.07.11-.03.35-.1.52-.07.15-.31.25-.4.42-.13.25-.17.63-.36.85-.13.14-.36.17-.53.33-.25.24-.26.52-.45.78-.34.46-1.06.54-.98,1.13-.13-1.52-.28-2.86-.82-4.33h.1c.2-.24.35-.03.45.21.32-.28.69-.5,1.11-.67.25-.57.67-1.03,1.26-1.36.53-.74,1.17-1.42,1.91-2.03-.16-.82.29-1.02,1.02-.81.66.19.6.61.18.07-.82-1.04.86-2,1.53-.99.12-.24.27-.42.47-.55-.83-.13-1.32-.64-.38-1.14l1.17-1.18c.46-1.05.89-1.25,2.01-1.13.21.06.58-.59.55-.62-1.39.06-1.08-1.23.15-1.17.11-.6.66-.64,1.19-.66-.42-.45-.41-1.18.32-1.19.96.32,1.13,0,1.47-.89l.27-.24c-1.56-.62,0-1.73.94-.96.17.03,1.61-2.09,1.79-2.43l1.2-.78c.06-.83.37-1.37,1.03-1.88.13-.39.32-.63.77-.61-.17-.82,1.23-2.05,1.91-1.58.23.16.49.55.14.66Z"/>
  <path class="st19" d="M36.69,53.87c.08-.04.16-.07.23-.05,1.54.38,3.71,1.59,5.03,2.51.06.04.08.12.1.22.52.11,1.21.55,1.44,1.03-.28.25-.63-.05-.97,0-.04,0-.74.28-.8.31-.07.03-.57.59-.58.69-.04.44.58.58.86.85.35.32.76.91,1.08,1.24l-.11.09c-2.58-2.23-5.62-4.21-8.93-5.45l-.22-.2c-.85-.25-.97-.55-.35-.91l1.24-.8c.65,0,1.38.22,1.99.47Z"/>
  <path class="st37" d="M44.52,54.18c.73.17,1.54.78,2.17,1.28,1.16.92,2.42,2.16,3.08,3.46.08.12.13.29.21.41-.27.24-.36.52-.28.85.17.73.28,1.64.15,2.38-.24,1.38-.67.86-1.32.07-.56-.52-.9-1.13-1.39-1.65-1.11-1.2-2.33-2.36-3.66-3.39-.48-.37-.94-.7-1.44-1.03-.09-.18.02-.22.31-.1.13-.27,1.29.58,1.34.67v.26s.64.26.64.26l2.49,2.21c.73.9,1.35,1.43.43-.03l-.05-.68c-.58-.06-.86-.52-.86-1.39-.37-.47-.43-.87-.47-1.44-.46-.33-.81-.72-1.05-1.19-.49-.18-1.29-1.06-.3-.94Z"/>
  <path class="st60" d="M50.9,72.72c-.31.29.06.72.07.99,0,.19-.06,1.01-.12,1.18-.09.29-.46.48-.62.72-.66,1.01-1.19,2.1-1.48,3.26l-.23,3.32c-.05-.67-.07-1.39,0-2.06-.11-.91-.21-1.88-.22-2.81-.02-1.77.21-2.77,1.2-4.25.45-.77.39-1.59.28-2.42l.18-.2c.53.67.72,1.48.93,2.27Z"/>
  <path class="st115" d="M49.97,59.33c.26.4.5.81.72,1.24-.5-.04.01.42,0,.55-.02.12-.28.19-.29.42-.01.25.07.84.4.68.1.39-.24.26-.31.56-.12.55.29.28.32.42.04.2-.1,1.67-.21,1.75s-.21.08-.31,0c-.64-.72-1.22-1.51-1.75-2.32.17.16.8.81.98.52s.18-1.62.16-2.01c-.04-.59-.6-1.79.3-1.8Z"/>
  <path class="st132" d="M49.87,69.93c.05.17.08.34.1.51.05.32.12,1.08.11,1.39-.04,1.12-.9,2.06-1.29,3.04-.62,1.56-.27,3.55-.26,5.25-.03.09-.06.09-.1,0-.17-.34-.33-1.03-.1-1.34l-.12-.77c-.27-.51-.39-1.4-.08-1.91-.34-1.27.11-2.23.74-3.27.42-.75.41-1.54.39-2.37-.02-.48.25-1.19.62-.54Z"/>
  <path class="st8" d="M49.15,68.49c.24.48.59.94.72,1.44-.36-.32-.39.21-.41.46-.05.65.08,1.17-.13,1.82-.53,1.63-1.27,1.66-1.21,3.89-.21-.08-.36-.16-.21-.34-.53-1.64,0-3.15.64-4.65.29-.77.42-1.55.11-2.34-.05-.28-.05-.51.28-.51.07.03.14.1.21.21Z"/>
  <path class="st89" d="M31.33,54.38c.34-.24,1.42.09,1.81.29.11.19.33.34.66.44,2.48.87,4.79,2.24,6.93,3.73l2.34,1.83c1.48,1.55,2.84,2.88,4.12,4.63.1.15.05.21-.1.1-.24.23-.66-.51-.62-.72l-.36-.14-1.31-1.54-.08-.38c-.19-.05-.38-.13-.54-.25-.75-.61-1.63-1.44-2.14-2.22l-.38-.05c-.66-.51-1.28-1.06-1.89-1.6-.1.03-.13,0-.1-.1-.29-.15-.56-.32-.82-.51l-.38-.02c-.88-.65-1.87-1.14-2.89-1.53l-.23-.3c-.77-.34-1.57-.6-2.39-.77l-.08-.16c-.46-.11-.93-.2-1.4-.27l-.04-.15-.89-.18-.04-.13.1-.1c.18-.28.64-.22.72.1Z"/>
  <path class="st112" d="M48.43,67.15c.07.17.06.2-.1.1l-.3-.09-.93-1.56c-.21-.06-.21-.15,0-.21,0-.02.08-.06.1-.1.46.63.84,1.18,1.24,1.85Z"/>
  <path class="st87" d="M49.15,68.49c-.11-.04-.15-.12-.21-.21-.42-.1-.71-.61-.62-1.03l.1-.1c.28.49.47.84.72,1.34Z"/>
  <path class="st163" d="M51.42,61.9c.01-.52.32-.5.5-.78.17-.27.22-.76.42-1.02.21-.27.63-.29.83-.61.16-.25.14-.63.36-.87.32-.35.89-.29,1.03-.41.31-.25.67-.95.92-1.25s.69-.58.88-.87.25-.7.47-.98c.14-.18.4-.24.49-.44.09-.19.05-.53.09-.58s.82-.36,1.12-.71.33-.71.51-.98c.21-.31,1.03-1.05,1.17-1.44.06-.17-.07-.37.02-.49.23-.33,1.69-.26.99-1.23.31-.08.82-.22,1.03-.46.16-.18.15-.42.26-.56.28-.37,1.25-1.66,1.59-1.81.28-.13.63.09.52-.31,0-.03-.2-.05-.21-.11-.12-.57.4-.36.57-.56.08-.09.08-.32.17-.45.1-.14.78-1.03.86-1.1.25-.24.74-.16.93-.41.12-.16.13-.49.24-.69.2-.36,1.3-1.6,1.67-2.04.15-.17.69-.53.81-.73.17-.29.07-.58.16-.87.07-.21.31-.35.39-.54.1-.22.07-.56.17-.73s.46-.11.58-.27c.14-.2.12-.69.47-.97.57-.46.83-.05,1.29-.05.19,0,.13-.19.22-.21.19-.05.45.02.65,0,.11.27-.31.25-.31.36,0,.05.58.63.66.78.3.56.4,2.98.37,3.7-.01-.3-.71-.72-.72-.78-.04-.17.29-.3.31-.46.04-.25-.27-.62-.55-.59-.17.01-.92.55-1.05.7-.33.36-.22.99-.26,1.03-.02.02-.36-.03-.52.05-.17.09-.18.37-.31.51-.34.37-.62.43-.82,1.03-.09.26-.06.61-.15.78-.14.24-1.06.62-1.23.83-.12.15-.34.59-.55.89-.2.27-1.18,1.69-1.4,1.68-.03,0-.19-.28-.51-.31-1.14-.13-1.16.79-.06.83.04.29-.32.3-.46.52-.23.35-.21.95-.86,1.11-.31.07-1.3-.53-1.16.37.04.25.55.5.31.63s-.75.04-1.03.21c-.22.13-.16.39-.27.47-.23.16-.74-.02-.91.3-.35.67.65.47,1.03.51.22.23-.14.21-.26.35s-.14.36-.23.44c-.5.51-1.19.04-1.68.33-.27.16-.45.77-.66.99-.42.44-.65.55-1.13,1.13-.11.13-.41.23-.47.36-.18.37.77.44.98.52.04.28-.26.32-.42.49-.06.06-.04.24-.12.31-.4.34-.47-.23-.75-.29-1.15-.23-1.43,1.16-.36,1.24-.28,1.03-.92-.52-1.65.15-.15.14.11.41-.04.67l-1.6,1.49c-.16.66-.89.9-1.19,1.18-.19.18-.17.51-.4.73-.28.26-.97.28-1.04.71-.02.14.16.24.16.37,0,.22-.33.38-.41.19-.11-.25-.03-.81-.41-.97Z"/>
  <path class="st67" d="M73.87,43.36c.56-.4,1.09.56.62,1.03-.38.75-1.36,1.28-2.16,1.54-.26.11-.55.12-.77.31l-.05-.1c.77-.87,1.57-1.87,2.37-2.78Z"/>
  <path class="st69" d="M74.48,44.39c.05-.54-.04-.92-.62-1.03.11-.13.2-.29.31-.41.18-.2.35-.46.51-.62.17-.33,1.01-1.25,1.38-.94.43.35-.7,3.19-1.59,3Z"/>
  <path class="st96" d="M80.66,26.37l.13-.03.49.64c.43.33.69,1.44.93,1.96-.17-.28-.5-.64-.72-1.03l-.14.02c-.39-.78-.58-.91-1.43-1.06-2.08.06-2.79-.42-3.9-2.19-1.9-4.99-6.63-3.39-10.48-1.79-.6.47-1.22.7-1.86.68,0-.16.06-.25.19-.33,3.21-2.03,9.46-4.62,12.22-.67.93,1.95,1.82,3.36,4.17,3.46l.42.31Z"/>
  <path class="st126" d="M72.53,18.85c.31.13.92.45,1.24.62,3.08,1.64,5.93,4.41,7.52,7.52-.26-.2-.36-.26-.62-.62-.4-.15-.54-.36-.41-.62l-.45-.29c-1.89-2.44-4.18-4.6-7.01-5.91l-.37-.4c-.45-.03-1.2-.17-1.34-.62l-.1-.21c.46-.2,1.31.06,1.54.51Z"/>
  <path class="st117" d="M76.34,36.77c.31.78.38,1.75.38,2.6s-.17,2.7-.49,3.37c0,0-.05-.16.1,0-.19.37-.6,1.3-.95,1.52-.14.09-.45.05-.69.19s-.31.44-.53.61c-.14.11-1.03.63-1.23.73s-.39.18-.62.15c.85-.38,1.51-.92,2.16-1.54.25-.24.57-.44.76-.73.15-.23.77-1.57.78-1.8,0-.12-.04-.35-.15-.35-.07,0-1.06.71-1.18.82.58-1.26.84-2.62.72-4.02.09-.36.21-.72.34-1.07.06-.38.27-1.03.58-.48Z"/>
  <path class="st40" d="M76.23,35.84c.12.06.23.15.29.27.44.78.47,2.84.48,3.77l.16-.02c0,.17.02.35,0,.51-.04.36-.29,1.29-.41,1.65-.08.24-.3.5-.41.72-.24.17-.24.11-.2-.15.46-2.61.66-3.1.2-5.83-.3-.06-.38-.36-.1-.51-.11-.21-.11-.35,0-.41Z"/>
  <path class="st76" d="M71.09,18.54c.43.1.94.44,1.34.62l-.5.29c-3.25.56-6.26,2-8.95,3.86l-.54.17c-.33.03-.68.06-1.03.1-.03.2-.11.18-.21,0-.14,0-.28-.01-.41,0,.6-.08.7-.43,1.08-.72,1.79-1.34,3.78-2.58,5.79-3.58,1.15-.57,2.08-1.06,3.42-.75Z"/>
  <path class="st136" d="M74.79,16.99c.75.32,1.7.38,2.27,1.03-1.85-.72-2.75-.89-4.38.41-.13.11-.32.22-.15.41-.5-.21-1.02-.36-1.54-.51-.03,0-.07,0-.1,0,.16-1.1,1.92-1.51,2.83-1.52.33,0,.75.13,1.08.18Z"/>
  <path class="st110" d="M47.71,80.03c.18,2.7-.49,4.94-1.85,7.21l-1.54,1.6c-.33.28-1.79,1.22-2.16,1.34-.12.04-.29.13-.31-.06,2.44-2.09,4.41-3.15,5.33-6.57.47-1.77.36-3.37.24-5.17.43.26.55,1.22.31,1.65Z"/>
  <path class="st88" d="M46.88,74.88c.09.02.17.05.2.11.52.99.88,2.34.83,3.39.23.13.34.55.1.72.06.22.13.55,0,.72-.17-.04-.23.08-.31.21-.04-.53-.21-1.13-.31-1.65-.19-.95-.45-2.1-.75-3.01-.05-.16-.16-.28-.28-.39-.14-.04-.17-.18,0-.21-.09-.23-.4-1.08.04-.96.06.02.44.89.48,1.06Z"/>
  <path class="st14" d="M48.02,79.1c.1-.12.19-.11.2.04l.11,1.36s-.06-.32.1-.37h.1c0,.67.03,1.39,0,2.06,0,.17.01.35,0,.51-.13,1.52-.67,2.8-1.34,4.12-.18.34-.43.67-.31.1,1.13-2.36,1.35-4.52,1.13-7.11-.02-.24.01-.48,0-.72Z"/>
  <path class="st32" d="M47.19,86.83c-.15.3-.31.78-.51,1.08-.11.16-.42.6-.57.67-.41.17.11-.43.14-.48.2-.34.47-.83.63-1.17l.05.21.26-.31Z"/>
  <path class="st103" d="M29.17,54.28c.38,0,.97.04,1.34.1.22.04.68.24.93.31l-.13.12c-1.82-.2-3.05.63-4.4,1.71-.85.46-1.81.67-2.89.64-.39.24-1,.23-1.44.1l.06-.14c1.61-.4,3.01-1.25,4.24-2.34.68-.56,1.44-.57,2.29-.51Z"/>
  <path class="st59" d="M33.19,52.84c.96.09,1.66.27,2.57.51.09.03.09.06,0,.1-.23.05-.73,0-1.02-.03-1.1-.23-2.68-.44-3.16.87l-.24.09c-.24-.05-.48-.06-.72-.1-.55-.09-1.1-.14-1.65-.21.74-1.62,2.76-1.38,4.22-1.24Z"/>
  <path class="st89" d="M29.17,54.28c-2.08.04-2.53,1.18-4.05,2.08-.91.54-1.61.59-2.54.91-.17.07-.3.07-.41,0,.22-.31.64-.24.92-.37,1.4-.64,2.85-2.82,4.49-2.82l1.6.21Z"/>
  <path class="st124" d="M22.17,57.27c.13-.02.28.01.41,0,.14.18-.47.17-.44.16.13-.04.52-.09.54.04-2.02.15-4.48.96-6.18,2.06l-.1-.1c.07-.05.13-.16.21-.21,1.46-.94,3.84-1.74,5.56-1.96Z"/>
  <path class="st89" d="M28.04,53.97c-.86-.01-1.72.01-2.57,0,.11-.17.39-.1.56-.1.7,0,1.34.05,2.01.1Z"/>
  <path class="st147" d="M42.04,52.94l.13.41c.9.96,1.85,2.23,2.5,3.39.38.67-.38,1.26-.98.63-.3-.24-.97-.67-1.34-.93-.39-.1-2.23-1.12-2.34-1.34-.03-.06-.03-.13-.03-.2.22.03.4.08.62,0v-1.6c0-.25-.75-.58-.1-.88.39.09,1.13.37,1.54.51Z"/>
  <path class="st106" d="M38.54,54.28l1.34.62s.07,0,.1,0c.73.6,1.59,1.01,2.37,1.54l-.31.1c-1.63-1.08-3.44-2.13-5.36-2.68-.37-.12-.68-.25-.93-.41v-.1c.97.26,1.84.58,2.78.93Z"/>
  <path class="st147" d="M39.88,54.9c-.42-.1-.96-.36-1.34-.62.45.17.99.2,1.34.62Z"/>
  <path class="st136" d="M81.18,21.32c-.66-.51-1.17-1.2-1.81-1.75-.71-.61-1.49-.98-2.21-1.55,1.67.64,2.95,1.94,4.02,3.3Z"/>
  <path class="st5" d="M81.49,27.91c-.9.44-2.62.45-3.26,1.17-.6.68-.4,1.42-.57,2.15-.2.83-.77,2.22-.79,3.02,0,.27.23.82.3,1.17v.21c-.2.07-.28-.05-.23-.35l-.39-1.29c-.25-.26-.47-.86-.51-1.24-.24-.43-.24-.79-.2-1.27-.23-1.98-.59-2.76-2.79-2.91l-.92-.56s-.07-.07-.1-.1c-.17-.08-.42-.23-.31-.41l.14-.21c.58-.16,2.46-.79,2.79-1.17.5-.58-.33-2.36-.71-2.87-1.91-2.54-6.77-.56-9.1.42-.28.09-.57.08-.85.02l-.16.18c-.35-.08-.53-.04-.56.12-.02.03-.04.05-.05.05-.28,0-2.07-.05-2.16-.1-.24-.11-.2-.18.05-.26l.1-.1c.07,0,.14,0,.21,0,.72-.02,1.44-.06,2.15-.13l.11.13c.62-.07,1.26-.64,1.83-.9,2.22-1,5.68-2.21,8.02-1.18,2.09.92,2.04,2.42,3.24,3.97,1.39,1.79,2.54.76,4.02,1.43.5.23.49.65.7,1Z"/>
  <path class="st96" d="M61.1,23.69s-.02.19,0,.21c.09.06,1.82.07,2.16.1.06-.05.13-.1.2-.12.63-.13,4.18.9,4.53,1.36.05.06.08.13.11.2.78.3,1.57.61,2.32.96l.05.27.85.3c.31.14.44.31.39.52.09.07.21.32.31.41-.4,0-.56-.39-.83-.56-3.14-1.93-7.21-3.86-11.01-3.25l-.21-.15c.17-.12,1.02-.34,1.13-.26Z"/>
  <path class="st68" d="M25.26,77.86c.07-.02.14-.02.17,0,.29.23.84.83.96,1.13,0,.19.12.3.26.42,2.66,2.12,5.87,4.06,9.4,4.5.43.05,1.18-.18,1.56.23l.05.14c-.73.46-1.37,1-1.91,1.62-.01.23-.08.37-.2.41.23,1.02-.54,1.29-1.41,1.29-1.32-.21-2.66-.36-4.01-.44-.48-.07-3.46-.96-3.75-1.18-2.2-1.65-4.13-3.69-5.67-5.94-.75-.58-1.26-1.27-1.53-2.07-.07,0-.13-.02-.18-.06-.21-.15-.69-3.18-.57-3.43.02-.05.07-.09.12-.12l.27.19c.16,1.69.86,2.89,2.1,3.6l.71,1.01c.65.33,1,.77,1.03,1.32.72.05,1.19.46,1.43,1.24.73.4,1.31.91,1.75,1.52.62.11.85.33,1.21.81.87.07,1.7.27,2.52.6l.28-.4c.83-.33.48-.88-.25-1-.33-.68-.66-.84-1.37-.99.13-.51-.12-.84-.76-1.02l-.66-1c-2.3-1.4-3.76-4.03-4.94-6.4l.08-.33c.42.37.55,1.01.84,1.48.21.33.53.6.75.9.47.67.92,1.66,1.71,1.95Z"/>
  <path class="st12" d="M33.29,74.57c1,1.45.52,3.56-.34,4.96-.67,1.08-2.19.77-3.26.91-.7-.12-1.22-.33-1.85-.62-.1-.2.05-.3.44-.29.39.13.66.09.79-.12l.19-.18c.74.24,1.45.24,2.12,0l.17.19.2-.09c.32.23.77.03,1.03-.22l-.1-.23c.32-.65.57-1.36.63-2.09l.2-.15c-.24-.2-.44-.41-.62-.62l-.2-.2c0-1.03-.68-1.81-1.36-2.51l.02-.28c.06-.07.16-.14.23-.09.31.2,1.81,1.2,1.77,1.48,0,.05-.03.11-.05.16Z"/>
  <path class="st128" d="M26.08,71.99c.15-.07.26-.07.31,0,.04.12-.1.22-.41.31.06.3-.55.91-.82,1.03-.77,2.56.12,4.95,2.67,5.89.25-.08.42-.05.53.09.21-.33.5-.15.72.1.06.14.14.24.1.41-.11.1-1.13-.26-1.34,0-.51-.23-.99-.49-1.44-.82-.42-.31-.84-.69-1.13-1.13-.35-.53-.85-1.74-.82-2.37-.06-1.03.03-3.32,1.37-3.59l.28.09Z"/>
  <path class="st152" d="M38.23,83.94c-.29.49-2.17,1.41-2.35,2.03-.21.69.58.83,1.11.75.17.33-.35.39-.64.38-.57-.01-.98-.17-.81-.79.03-.09-.01-.26.05-.41.19-.47,1.54-1.35,2.01-1.75.26-.23.52-.43.72-.72-.02.14-.04.41-.1.51Z"/>
  <path class="st81" d="M21.96,73.54c.81,1.92,2.5,4.58,4.07,5.97.26.23.75.44.93.62.19.19.45.86.71,1.04.4.29,1.03.12.68,1.02.5-.03.82.1,1.13.46.09.11.1.31.21.41.27.26.81-.02.83.72.02.56-.25.38-.52.62-.13.11-.22.41-.38.44-.14.03-1.31-.42-1.55-.48-.35-.08-.67.04-1.03-.1-.32-.13-.43-.51-.57-.61-.18-.13-.57-.1-.79-.29-.15-.13-.16-.36-.32-.51-.33-.31-1.14-.7-1.44-1.03-.27-.29-.24-.7-.45-.89s-.91-.22-.97-.32c-.07-.11.04-.42-.18-.7-.15-.2-.61-.4-.82-.62-.28-.28-.49-.82-.7-1-.14-.12-.43-.18-.64-.34-.67-.52-1.01-1.45-1.26-2.24-.14-.45-.2-.91-.34-1.36-.07-.04-.13-.08-.13-.13-.07-1.29.2-2.96.78-4.11.27-.53.76-1.42,1.3-1.53.18,1.77.76,3.33,1.44,4.94Z"/>
  <path class="st6" d="M26.49,70.04c.54.17,1.14-.12,1.7-.11,1.02,0,3.12.81,3.96,1.41.38.27,1.84,1.76,1.97,2.15.21.61.39,1.7.3,2.32l-.66-1.24h-.47c-.3-.42-1.49-1.23-1.96-1.54l-.34.02c-1.48-.93-3.19-1.63-4.91-1.05-1.53.75-1.52,1.82-1.55,3.35,0,.16-.1.14-.1.15-.31-2.12.17-4.28,2.06-5.46Z"/>
  <path class="st123" d="M20.62,68.18c.11,0,.26-.02.31.1-.14.11-.28.19-.41.31-1.58,1.4-1.99,3.74-1.96,5.77.02,1.13.14,2.58.62,3.6,1.06,3.17,3,5.88,5.99,7.46v.27s-.1.08-.1.08l-.84-.49c-2.41-1.3-4.55-3.79-5.15-6.49-1.22-3.37-1.6-8.25,1.44-10.61.03,0,.07,0,.1,0Z"/>
  <path class="st16" d="M27.52,89.4c-.34-.06-.74-.04-1.13-.1-1.6-.28-3.58-1.84-4.84-2.88v-.1l.44.08c1.61,1.25,3.46,2.08,5.37,2.71l.16.3Z"/>
  <path class="st22" d="M15.37,73.02c.24-.07.36.11.35.55l.49,1.16c.09.52.22.98.39,1.38l.16.12c1.08,4.44,4.06,8.46,8.08,10.59.31.02.55.09.72.21.18.18.35.4.52.68.72.4,1.38.85,2.01,1.38,1.26.36,2.58.52,3.89.52l.28.2c-.23.17-.7.12-.98.11-1.32-.08-2.47-.31-3.75-.52-.68-.34-1.44-.51-2.13-.8-1.35-.58-2.69-1.38-3.84-2.29-3.89-3.08-6.72-8.24-6.18-13.29Z"/>
  <path class="st85" d="M19.18,77.97c.39.84,1.18,1.32,1.75,2.01.36.43.65.98,1.03,1.44,1.4,1.64,2.74,3.08,4.45,4.35.19.14,3.4,1.13,3.81,1.2.69.12,1.59.09,2.3.17.77.09,2.04.57,2.73-.06.16-.15.23-.53.31-.77-.07.65,1.09.72,1.44.41.31-.05,1.15-.58,1.43-.78.36-.26,1.03-1.01,1.35-1.13.13-.05.16.08.2.16-.23.44-.37,1.04-.68,1.43-.14.18-.37.32-.56.52-1.68,1.26-3.66,1.38-5.72,1.45-1.59.05-4.15.03-5.3-1.11l-.92-.19c-.38-.07-.59-.25-.63-.56l-.13.07c-.23-.3-.49-.56-.8-.79-.09.04-.12,0-.1-.1-.54-.51-.96-.59-1.48-.94-1.49-1.03-2.65-2.43-3.5-4.01-.44-.82-.96-1.83-.99-2.77Z"/>
  <path class="st21" d="M38.75,86.93c-1.61,1.75-4.1,2.81-6.49,2.88-1.3.04-3.02-.16-4.25-.54-.07-.02-.9-.71-1.11-.85-.54-.36-1.33-.51-1.33-1.4.31-.06.51-.23.62-.51.8.59,1.05.3,1.65.57.14.06.29.34.48.45,1.18.66,3.03.53,4.32.62s2.74-.07,4.08-.43c.61-.16,1.38-.67,2.03-.8Z"/>
  <path class="st119" d="M16.09,70.24c.22-.37.43-.77.62-1.18.15-.3.33-.55.65-.27-.71,1.72-1.19,3.72-.96,5.57.19.45.33,1.29.21,1.75l-.11.06c-.19-.91-.65-1.73-.96-2.54-.08-.21,0-.47-.16-.61.07-.63.22-1.23.31-1.85.19-.29.23-.6.41-.93Z"/>
  <path class="st36" d="M20.11,66.12c.69-.17,1.62-.35,2.32-.31.12,0,.28-.07.25.1-.35-.07-.37.24-.52.35-4.21,3.17-5.33,6.21-3.77,11.51.12.42.36.95.59,1.32l.14.11c.96,2.91,3.17,4.97,5.63,6.56,1.49,1.33-.28.7-1.03.23-.9-.29-1.74-1.11-2.44-1.79-.79-.79-1.65-1.74-2.1-2.74-1.04-1.89-2.07-3.91-2.27-6.08-.11-1.85-.18-3.57.48-5.33.24-.66,1.59-3.05,2.04-3.52.14-.15.48-.33.67-.42Z"/>
  <path class="st35" d="M24.23,85.28c.86.19,2.42,1.99.59,1.43-.33-.1-1.05-.42-1.11-.71.45.08.85.4,1.3.5.15.03.17,0,.14-.15-.08-.42-2.14-1.6-2.62-2.01-1.52-1.28-2.95-3.35-3.56-5.25-.03-.08.02-.23,0-.31.03-.09.06-.09.1,0,1,3.09,2.66,4.63,5.15,6.49Z"/>
  <path class="st33" d="M20.52,68.18c-.34.1-1.3,1.59-1.48,1.97-1.17,2.48-.79,6.08.04,8.64h-.1c-1.17-3.89-1.76-7.81,1.54-10.81v.21Z"/>
  <path class="st41" d="M16.92,70.76c-.83,3.76.37,7.46,2.27,10.71,1.25,1.84,2.65,3.33,4.53,4.53.24.15,1.7,1.1,1.85.56.1-.35-1.04-1.06-1.34-1.29l.93.41s.07.07.1.1c1.13.83,1.03,1.4-.41,1.03-3.91-1.52-7.38-6.72-8.24-10.71-.11-.52-.18-1.22-.21-1.75-.11-1.16-.07-2.56.41-3.6h.1Z"/>
  <path class="st120" d="M16.09,70.24c.28-.97.91-2.14,1.7-2.78.12-.1.17-.25.36-.21.21.24-.63,1.42-.74,1.68-.26.59-.43,1.21-.6,1.82-.35,1.29-.47,2.26-.41,3.6-.17-.11-.1-.39-.1-.56-.01-1.4.19-2.97.65-4.3.05-.14.37-.51.28-.6-.1-.09-.24-.02-.33.13-.24.37-.39.72-.59,1.06-.05.08-.2.12-.21.15Z"/>
  <path class="st72" d="M16.92,75.39c.27,1.06.57,2.18.96,3.21s.93,1.89,1.31,2.87c-2.07-3.04-3.2-7.05-2.27-10.71.11-.44.26-.67.41-1.03-.52,1.85-.91,3.76-.41,5.66Z"/>
  <path class="st9" d="M27.52,60.05c.09.03.09.06,0,.1-1.03-.17-2.09-.2-3.09.15-.43.15-.32.39-.51.62s-.55.14-.52.46c-.18.04-.38-.04-.59-.24-.59,0-1.14-.11-1.63-.35l-2.51.53c-.27-.1-.22-.19,0-.36.55-.71,1.77-.98,2.65-1.17,1.92-.42,3.91-.3,5.84-.02l.36.26Z"/>
  <path class="st26" d="M23.4,61.39c.1.15.42.81.31.93-.38.07-.75,0-1.13,0,.48-1.06-1.43-1.17-2.12-1.14-.33.02-1.66.21-1.93.31-.12.04-.1.22-.25.28-.49.2-1.11.34-1.58.64-.03-.04-.06-.08-.07-.13-.03-.17,1.59-1.41,1.84-1.37.06,0,.12.03.18.06-.05.3.14.23.33.18.25-.07,2.08-.55,2.19-.55.13,0,.43.21.64.25.67.11,1.11-.12,1.57.54Z"/>
  <path class="st58" d="M29.38,60.36l.44-.05c1.5.57,2.97,1.23,4.36,2.04l.24.38c.14.13.08.15-.1.1-.66-.4-1.34-.75-2.06-1.03-1.42-.75-3.15-1.38-4.74-1.65v-.1l.04-.13c.59.09,1.2.23,1.81.44Z"/>
  <path class="st26" d="M22.48,62.31c-.27.19-.78.1-1.13.1.27-.19.78-.11,1.13-.1Z"/>
  <path class="st118" d="M39.47,66.84c.09-.02.17-.02.22.02,2.92,2.44,5.74,8.01,6.36,11.75.2,1.2.34,2.65.01,3.79l-.3.89c-.1.1-1.35.31-1.52.24-.52-.2-.55-.85-.56-1.32l-.7-2.8c-.18-.81-.46-1.78-.8-2.55-.12-.26-.46-.47-.43-.85.07-.03.13-.07.12-.11-1.07-2.5-3.16-5.18-5.27-6.89-.12,0-.22-.03-.3-.08-.86-.67-1.93-1.53-2.73-2.25s-.09-.77.58-.57c.28.03.38-.19.3-.64l-.13-1.46c.06-.5.85-.42,1.22-.25,1.36.95,2.72,1.94,3.94,3.09Z"/>
  <path class="st127" d="M34.73,63.14c.07-.04.13-.07.19-.06.7.11,3.75,2.71,4.33,3.37.17.11.25.24.22.4-1.21-1.01-2.35-1.82-3.7-2.63-.12-.07-.21-.25-.32-.3-.27-.12-.64-.03-.93-.05-.08.08.24,1.75.09,2.2s-.75.2-1.04.14c-.14-.03-.2-.19-.18.08.26.41.76.59,1.08.88.7.63,1.43,1.23,2.11,1.85.62.42,1.17.93,1.65,1.53v.32c-.29-.11-.65-.49-.88-.72-1.57-1.59-3.28-2.98-5.12-4.25-.38-.26-1.72-.9-1.86-1.24-.13-.32.28-.44.34-.74s.17-1.15.19-1.44c0-.2-.14-.44-.08-.67.06-.06,1.07.18,1.26.23.75.22,1.91.77,2.66,1.1Z"/>
  <path class="st11" d="M42.97,79.41c.29.91.66,1.83.9,2.75.09.33-.07.63.18.95.39.49.55.18.93.11.2-.03.45.04.6,0,.05-.01.34-.73.48-.83.08.93-.24,2.08-.72,2.88-.34.27-.54.64-.62,1.13-.41.7-.59.99-1.13,1.65h-.62c-.09-.08.47-1.4.49-1.62s-.1-.42-.08-.69c.03-.3.28-.59.3-.84.02-.3-.18-.79-.2-1.13-.1-1.59-.16-2.8-.52-4.38Z"/>
  <path class="st47" d="M34.83,62.83c3.85,1.86,6.98,5.44,9.03,9.18.58,1.05,2.1,3.98,2.12,5,0,.11-.01.23-.03.34.65,1.99.8,4.1.34,6.16-.2.91-.48,1.97-1.16,2.59h-.1c-.26-.26.01-.69.31-.82.36-.94.6-1.89.72-2.88.61-5.21-2.6-12.22-6.59-15.55-1.33-1.27-3.05-2.95-4.74-3.71-.08-.19-.26-.22-.41-.31l.1-.1c.14-.26.4-.2.41.1Z"/>
  <path class="st51" d="M36.59,69.01c.24-.05.31.1.46.2,1.72,1.22,3.26,3.52,4.25,5.32.17.3.86,1.5.84,1.73s-.36-.18-.41-.26c-.45-.67-.81-1.62-1.29-2.36-.65-1-1.43-1.89-2.21-2.79-.49-.57-1.07-1.32-1.65-1.85Z"/>
  <path class="st82" d="M35.56,60.87c-2.92-1.56-6.03-2.94-9.37-3.3-.33-.06-.23-.27.1-.26,2.34.1,4.47.18,6.56-1.04,1.4-.56,2.85.04,4.11.67,1.45.72,2.1,1.26,1.26,2.89-.62,1.2-1.33,1.5-2.65,1.04Z"/>
  <path class="st134" d="M35.35,56.03c1.22.42,2.49,1.09,3.5,1.85l.82.51s.07.07.1.1c.46.28.94.83.82,1.41-.11.53-2.47,2.59-3.2,1.91l-1.22-.54c-.23-.13-.47-.34-.62-.41.38-.25.84.06,1.29,0,.83-.11,1.95-2.14,1.34-2.9-.53-.66-3.19-1.77-4.02-1.75-1.34.03-2.08.66-3.18,1.05-1.41.5-3.02.06-4.45.08-.2,0-.42-.1-.36.21-.34-.04-.69-.09-1.03-.1-.41-.05-.83-.09-1.25-.1l.11-.11c1.18-.06,2.39-.13,3.64-.21l.12.21.18-.21c.39-.03.76-.16,1.11-.33,2.15-1.5,3.85-2,6.28-.7Z"/>
  <path class="st131" d="M44.72,62.62c.22.31.21.51-.03.6-1.28.02-2.41.34-3.58.76-.9-.11-1.72-.46-2.46-1.05-.54-.28-1.17-.74-1.65-1.13l.1-.1c1.67.71,2.3.87,3.77-.29l1.17-1.26c.92.77,1.84,1.6,2.68,2.47Z"/>
  <path class="st150" d="M37.82,62.83c.62.2,1.16.64,1.66,1.07,1.64,1.58,3.12,3.39,4.52,5.21.75.53,1.37,1.57,1.54,2.47.05.09.05.16,0,.21l-.21.06-1.41-2.14-.13.12c-.29.3-.94-.57-.72-.82-.63-.92-1.34-1.8-2.13-2.65l-.03-.24c-.73-.49-1.42-1.05-2.08-1.69-.03-.23-.16-.42-.39-.57h-.19c-2.48-1.82-5.07-3.65-8.04-4.57l-.12-.17c-1.22-.2-2.48-.44-3.72-.74-.21-.04-.38.03-.51.23-.93-.05-1.87-.26-2.81-.22-.43-.29,0-.25.14-.5-.27,0-.55-.01-.82,0,.11-.17.39-.1.56-.1,5.66-.07,10.4,1.68,14.88,5.05Z"/>
  <path class="st39" d="M39.78,58.5c.27.07.53.27.75.43.5.37,1.03.82,1.51,1.22-.03.97-2.24,2.41-3.02,2.36-.48-.03-1.55-.49-2.02-.72-.36-.17-.55-.36-.82-.51.73-.01,1.34.68,2.03.44.35-.12,2.09-1.47,2.17-1.75.14-.47-.3-1.12-.6-1.47Z"/>
  <path class="st5" d="M32.88,55.1c.82.14,1.75.53,2.47.93-.84-.29-2.16-.69-3.03-.61-1.61.16-2.89,1.84-4.54,1.84h-3.76v.1c.22.1.92-.15,1.13.1-.74-.04-1.74-.06-2.47,0h-.62s0-.1,0-.1c.23.07.36-.05.51-.1.47-.05.97-.07,1.44-.1,1.39-.11,2.83-.23,4.09-.88,1.49-1.09,2.86-1.87,4.77-1.18Z"/>
  <path class="st78" d="M38.64,63.03c.24.07.76.27.72.51.62.35,1.19.82,1.73,1.27.07.06.05.18.02.27-.12.12.02.32.43.59.61.66,2.22,2.38,2.41,3.12.03.1.04.2.05.31-.87-.87-1.54-1.93-2.37-2.84-1.13-1.24-2.47-2.44-3.81-3.45-.01-.49.27-.03.48.09.12.07.28.08.34.11Z"/>
  <path class="st46" d="M22.58,58.71c.51.2,1.03.24,1.56.2l.19.21-.26.21c-3.75.16-6.87,1.75-9.11,4.73-.26.32-.49.55-.72.82.77-2.11,2.68-4.15,4.7-5.14.7-.34,2.18-.91,2.92-1.04.21-.04.5.02.72,0Z"/>
  <path class="st20" d="M34.94,61.8c.94.22,1.86.9,2.47,1.65.89.6,1.72,1.26,2.47,1.98l.1.28c1.23.88,2.27,2.02,3.09,3.3.24.28.38.64.72.82.12.02.24.06.31.16.97,1.46,1.89,3.05,2.26,4.78,0,.07,0,.14,0,.21s-.01.14,0,.21l-.33-.12c-2.19-4.48-5.45-8.81-9.63-11.49l-.03-.24c-.83-.43-1.65-.89-2.46-1.37-1.61-.86-3.3-1.64-5.08-2.09l-.19-.25c-.73-.24-1.42-.49-2.06-.77v-.15s.07,0,.11,0c.48-.17,1.02-.14,1.61.08,2.23.78,4.51,1.79,6.63,3.01Z"/>
  <path class="st44" d="M26.6,58.71c.64.37,1.56.33,2.06.93l-.14.11c-.59-.13-1.2-.23-1.82-.32l-.16.18c-.7-.13-1.4-.24-2.11-.28l-.11-.21c-.56-.03-1.41.15-1.75-.41,1.32-.14,2.68-.12,4.02,0Z"/>
  <path class="st86" d="M30.1,59.12c.07.21-.72,0-.68.02,2.06.49,3.41,1.15,5.26,2.25.06.04.1.1.15.17s.08.15.11.23c-2.57-1.21-5.36-2.8-8.24-3.09-.26-.35-.65-.09-.82-.1.13-.19-.41-.25-.21-.41.18-.14,3.96.59,4.43.93Z"/>
  <path class="st49" d="M36.38,63.34c.41.12,1.97,1.35,2.37,1.7,2.27,1.98,4.64,4.84,6.16,7.44.5.86.86,1.89,1.46,2.71.06.41.26.82.31,1.24.1.48.51,2.62.25,2.92-.21.24-.35.33-.51.02-.09-.69-.24-1.36-.46-2.01-2.09-6.22-5.47-11.03-11.12-14.52-.29-.09-.21-.28.03-.43.45.43.96.75,1.51.95Z"/>
  <path class="st94" d="M45.13,86.1c1.46-2.7,1.44-5.81.82-8.75.04.12.23.3.3.57.14.51,0,1.16.42,1.49.32-.68.06-1.4,0-2.11-.02-.29.03-.6,0-.87.24.07.18.28.21.46.58,2.87.79,5.97-.98,8.41-.17.24-.53,1.09-.78.82Z"/>
  <path class="st168" d="M45.03,86.1c-.06.12-.27.25-.31.31,0-.68-.18-1.02.62-1.13-.08.22-.22.64-.31.82Z"/>
  <path class="st104" d="M26.7,59.43c.85.07,1.69.3,2.47.63l.2.3c-.47.08-.89-.22-1.3-.3-.18-.04-.39.02-.56,0-3.13-.49-5.98-.56-8.86.93-.46.24-.86.54-1.31.79l-.64.65c-.31.2-.6.53-.82.82-.35.23-.58.59-.93.82,1.29-1.62,2.13-2.81,4.13-3.75,1.47-.68,3.66-1.18,5.24-1.2.56,0,1.78.19,2.37.31Z"/>
  <path class="st17" d="M62.43,25.96l-.18.2c-.64-.16-.46.46-.32.86.69,1.16,1.06,1.95.02,3.05-.76,1.36-1.59,2.78-2.86,3.71-.01.31-.14.45-.46.42l-.07.38c-.84.87-1.63,1.77-2.36,2.7h-.35c-.49-.18-1.36-.49-1.85-.61.24-.28.4-.7.62-.98.8-.99,2.08-2.09,2.95-3.07s1.89-2.07,2.56-3.26c.37-.65.86-1.43.2-2.06-.35-.34-1.28-.39-1.08-1.03.03-.33.53-.48.72-.21.77-.32,1.51-.52,2.35-.34l.12.24Z"/>
  <path class="st27" d="M64.19,25.23l-.22.16c-1.07-.24-2.08-.36-3,.32l-1,.34c-.24.05-.49.13-.72.21-.13.04-.29.05-.41.1-.52-.01,0-1.07.22-1.27.3-.29,1.42-.51,1.84-.48.48-.25,3.16-.1,3.34.36.03.08,0,.17-.04.25Z"/>
  <path class="st42" d="M60.89,24.51c.09.03.09.06,0,.1-.4.04-1.32.25-1.6.51-.15.14-.64,1-.46,1.24-.7.28-1.33.83-1.96,1.24-.26-.56-.51-.99,0-1.49,1-.95,2.67-1.44,4.01-1.6Z"/>
  <path class="st29" d="M72.12,28.02c.69.5,1.48.32,2.24.59.12.04.87.42.92.47.06.05.5.88.52.97.07.33.2,1.09.23,1.42.04.45-.13.85,0,1.29-.23-.22-.44-.5-.62-.82-.29-.1-.52-.36-.71-.77-.34-.33-.52-.65-.53-.98-.48-.89-1.31-1.51-2.06-2.16Z"/>
  <path class="st1" d="M74.17,30.18c.56.63.83,1,1.24,1.75.35.5.71,1.08.89,1.66.35,1.1-.06,1.16-.48.19l-.23-.08c-.37-.71-.77-1.41-1.21-2.08-.57-.33-.88-.74-.93-1.24-.12-.3-.45-.69-.67-.93-.13-.13-1.43-1.12-.82-1.23.27-.05,1.95,1.66,2.21,1.96Z"/>
  <path class="st143" d="M71.29,28.32c.12.27,0,.25-.21.1l-.19.02c-1.41-1.1-2.93-2.02-4.55-2.76l-.21.06s-.04.09-.08.12c-.08.07-1.87-.32-1.88-.63-.69-.8-2.31-.72-3.3-.62v-.1c3.83-.46,7.6,1.37,10.4,3.81Z"/>
  <path class="st139" d="M71.29,28.32c.73.64,1.51,1.33,2.16,2.06.34.38.63.83.93,1.24v.1c-.3-.04-.61-.15-.93-.31-.33.09-.97-.73-.82-1.03v-.18c-.44-.46-.89-.91-1.33-1.37v-.19c-.18.03-.33-.05-.22-.21l.21-.1Z"/>
  <path class="st106" d="M42.35,53.04c.7.08,1.77.54,2.16,1.13-.77.22.29.64.42.77s.17.37.3.52c.2.22.71.58.81.74.14.24.02.48.09.73.08.32.32.5.4.74.1.29.07,1,.36,1.19.12.08.39.03.47.15.09.13.02.51.09.74.06.19.26.29.34.48.09.23.16.69.23.95-.2.21-1.17-1.05-1.33-1.19-.93-.82-2.05-1.87-2.99-2.62.57.2.96.17.8-.54-.66-.89-1.22-1.86-1.89-2.75-.24-.32-1-.72-.56-1.14.1.04.21.06.31.1Z"/>
  <path class="st63" d="M43.79,47.89l-.13.14c.43.98.81,2.1.2,3.11-.74.69-.74,1.46.03,2.11.28.04.26.12,0,.21-.76-.14-1.48-.45-2.16-.93-.28-.11-1.04-.32-1.12-.59-.25-.89,2.57-2.55,2.46-4.25.04-.31.76-.1.72.21Z"/>
  <path class="st84" d="M50.18,50.47c-.43.15-.9-.11-.93-.51-.32-.24-.66-.44-1.03-.62l-.3.09c-1.25-.65-2.55-1.09-3.92-1.31l-.22-.22-.72-.21c0-.14-.08-.41-.1-.62.02-.04.1-.08.1-.1.09-.03.17-.06.26-.08s.17-.03.25,0c2.13.54,4.37,1.62,6.21,2.73.3.19.85.6.39.86Z"/>
  <path class="st92" d="M43.9,53.46c.37-.15.72.03.82.41.67.42,1.33.85,1.96,1.34.1.09.2.2.31.31.92.86,2.1,1.9,2.72,3,.08.14.19.24.06.4-1.34-1.91-3.26-3.56-5.25-4.74-.71-.42-1.37-.82-2.16-1.13l-.62-.51c.72.3,1.46.59,2.16.93Z"/>
  <path class="st159" d="M56.46,37.8c.84.12,2.33,1.3,3.09,1.75.18.04.38.5.1.62-.23.22-.56.86-.83,1.18-2.56,3.1-5.41,5.97-8.03,9.01-.32.32-.52.36-.62.1.03-.22-.05-.33-.2-.47s-1.09-.74-1.3-.86c-.17-.09-.38-.09-.54-.18-1.66-.89-3.21-1.55-5.06-2,.02-.09-.01-.2.05-.3.33-.54,2.07-.16,2.82-.78.2-.17.28-.45.59-.65.21-.14.57-.19.71-.32.18-.16.18-.47.35-.68.19-.23.67-.44.93-.72.33-.35.51-1.02.67-1.18.21-.22,1.27-.87,1.6-1.18.82-.76,1.3-1.47,2.21-2.22.14-.12.2-.34.36-.46.5-.38,2.47-.76,3.09-.67Z"/>
  <path class="st114" d="M58.62,34.19c.14-.08.24-.1.34.03-.05-.58.65-.85,1.15-1.03.35-.7.75-1.37,1.31-1.93l.95-.32c-1.13-.49-.2-.95.54-1.09.28-.35.64-.35,1.07,0h.14c.15.9.52,1.69,1.1,2.37-.18.38-.36.8-.67,1.13-.15.16-.44.19-.57.36-.15.2-.11.51-.22.71-.1.18-.32.22-.44.38-.19.26-.49.98-.59,1.11s-.55.08-.65.22c-.11.16.01.5-.09.73-.25.52-1.17.72-1.49.98-.24.19-.31.62-.67.57-.04,0-.02-.37-.68-.16-.43.14-.24.51.05.68.21.12.44.06.58.14.19.12-.02.33,0,.51.01.15.28.36.21.46,0,.01-.23.03-.31.1.06-.27-.02-.4-.1-.62-.2-.5-1.33-1.11-1.85-1.39s-1.29-.66-1.86-.87c.62-.42.98-1.16,1.44-1.7.42-.48.91-.92,1.34-1.39Z"/>
  <path class="st61" d="M66.04,27.6c1.36.74,1.3.81,2.21,1.96.1.13.35.19.42.3.2.33.21,1.38-.05,1.69-.37.44-1.05.44-1.43.62-.28.13-.3.55-.86.16-.17-.12-.12-.36-.44-.42s-.53.03-.66.31c-.24.03-.31-.05-.46-.21-.08-.08-.47-.8-.52-.93-.03-.06-.23-1.08-.26-1.23-.09-.04-.18-.1-.22-.2-.05-.16-.18-1.8-.14-1.91.23-.75.92-.6,1.52-.47.41-.27.96-.24.89.31Z"/>
  <path class="st79" d="M49.66,50.67c.09.03.09.06,0,.1-.16.3.01.44-.04.72-.07.35-.34.44-.42.62-.1.22-.02.64-.18.8-.1.1-.58.16-.81.27-.43.23-.81.63-1.42.85-.42.15-.84.11-1.26.24-.3-.01-.61-.19-.82-.41-.27-.14-.55-.28-.82-.41,0-.07,0-.14,0-.21-1.08-1.05-.66-1.77,1.27-2.14.44-1.15,2.25-1.87,3.22-1.05.58-.16,1.12.02,1.28.62Z"/>
  <path class="st140" d="M62.43,25.96l.3-.2c.62.02,1.22.15,1.81.31.75.2,1.89.52,2.31,1.13-.3.01-.82.02-.82.41-.13-.07-.28-.28-.38-.29-.14-.03-.32.17-.5.19-.23.02-.51-.14-.82-.11-.89.09-.43,1.27-.36,1.81.03.22-.03.47,0,.67-.39.31-.44-.1-.46-.11-.28-.03-.34.21-.54.29-.21.09-.82.21-.91.33-.18.24.39.36.42.41.37.46-.83.56-.96.65-.04.03-.54.66-.63.77-.14.19-.61,1.1-.66,1.14-.13.11-1.07.4-1.1.44-.07.09.47,1.37-.52.41,1.43-1.6,2.06-2.2,3.11-4.15.22-.41.81-.9.69-1.54-.08-.42-.8-1.4-.81-1.87-.02-.81.2-.67.83-.67Z"/>
  <path class="st137" d="M64.19,25.23c.45.1,1.59.38,1.96.51.06-.04.13-.07.19-.07.51.05,4,2.19,4.18,2.55.03.06.05.12.06.19l.46.34c.27.11.72.38.57.69-.4.2-1.16-.17-1.56-.42-.23-.27-.5-.43-.81-.5-.67-.47-1.63-.98-2.37-1.34-1.35-.65-2.9-1.25-4.43-1.24-.71-.2-1.74-.04-2.47.1.54-.24,1.46-.94,2.01-1.02.66-.1,1.56.05,2.21.2Z"/>
  <path class="st146" d="M71.6,29.46c.34-.17,1.03.61,1.03.93.24.26.58.72.82,1.03.09.03.18.07.27.12s.16.1.21.16c.77.95,1.41,2,1.89,3.12.33.04.69.81.41,1.03.01.13-.02.29,0,.41l-.29-.08c-.52-1.41-1.3-2.49-2.36-3.23l-.43-.5c-.52-.41-.85-1.07-1.29-1.55-.77-.84-1.7-1.72-2.63-2.37.53-.18.67.35.93.46.34.15,1.04.22,1.44.47Z"/>
  <path class="st66" d="M73.15,32.44c.33.27.92.49,1.23.78.88.83,1.21,2.05,1.86,3.03.03.16.07.33.1.51-.43-.04-.25,0-.31.25-.11.42-.27,1.02-.62,1.29-.08-.89-.43-2.25-.78-3.09-.4-.97-1.07-1.82-1.49-2.78Z"/>
  <path class="st55" d="M50.8,50.37c-.12.14-.28.2-.3.22-.02.03.15.37.09.5-.36.05-.62-.17-.93-.31.01-.03-.02-.09,0-.1-.13-.22.04-.29.51-.21.16-.05.43,0,.62-.1Z"/>
  <path class="st55" d="M45.54,54.28c.61.36.66.48,1.13.93-.48-.11-.78-.53-1.2-.81-.25-.16-.62-.16-.75-.53.27.14.55.25.82.41Z"/>
  <path class="st165" d="M35.76,53.46c.3.08.69.21.93.41-.57-.16-1.2-.23-1.77-.39-.19.24-1.89,1.06-1.68,1.32.11.14.46.1.57.31-.71-.25-1.74-.56-2.47-.72.53-1.94,2.98-1.3,4.43-.93Z"/>
  <path class="st14" d="M48.33,67.26c.22.34.41.69.62,1.03-.26.38.11.86.11,1.29,0,1.28-.57,2.11-.91,3.22s-.42,2.23-.03,3.32c.02.86.17,1.78.21,2.68-.18.05-.27-.11-.27-.48l-.14.07c-.32-1.16-.54-2.39-1.03-3.5l-.4-.92c-.24-.09-.55-.6-.32-.83.03-.09.06-.08.1,0,.43.47.79,1.01,1.08,1.61l.16-.17c-.04-.12-.04-.22,0-.31-.22-1.1-.35-1.99-.1-3.09,1.04-2.05.51-3.54-.42-5.46l.11-.1c.48.46.87,1.09,1.24,1.65Z"/>
  <path class="st109" d="M47.91,78.38c0-.26-.09-.48.21-.41l.21.82c.02.46.09.9.1,1.34.02,1.18.08,2.78-.28,3.9-.06.17.05.27-.23.22.38-1.61.42-3.35.2-4.99-.01-.09-.1-.15-.1-.16-.04-.27-.11-.39-.1-.72Z"/>
  <path class="st112" d="M46.47,64.68c-.05.2.11.48.46.82.79,1.69,1.27,3.4.38,5.17-.14,1.19-.06,2.41.19,3.59,0,.1,0,.21,0,.31l-.25-.08c-.19-.47-.32-.96-.37-1.46-.78-1.94-1.63-3.83-2.54-5.69-1.57-1.37-3.23-2.64-4.98-3.79-.22-.16-.5-.38-.72-.51v-.1c.32.17,1.61.74,1.93.8.92.18,1-.18,1.65-.36.83-.24,1.5-.28,2.35-.33.29-.02.11-.26.15-.41.66.68,1.18,1.3,1.75,2.06Z"/>
  <path class="st112" d="M31.44,54.69c.41.06,1.03.27,1.44.41-.76-.13-1.53-.14-2.29.03-.99.22-1.79,1.08-2.72,1.5-1.34.61-2.46.43-3.85.53.33-.21.77-.07,1.16-.13,1.69-.26,2.66-1.84,4.21-2.27.64-.18,1.39-.17,2.04-.07Z"/>
  <path class="st87" d="M46.47,64.68c.18.25.35.56.62.72,0,.05,0,.15,0,.21.14.91,1.11,2,1.14,3.04.04,1.27-.74,2.32-.83,3.6-.05.71.11,1.33.1,2.01-.36-1.06-.52-2.34-.42-3.46.04-.42.25-.5.31-.82.42-2.23.13-3.16-1-5.06-.11-.18-.24-.27.08-.24Z"/>
  <path class="st39" d="M39.67,58.4c-.47.03-.6-.34-.82-.51.35.04.59.28.82.51Z"/>
  <path class="st153" d="M75.82,33.78c.26.39.51.78.75,1.19-.15-.38-.16-.71-.03-.98l.62,1.65c.17.51.14.9-.08,1.19.09.42.15.85.08,1.28.05.49.03,1.25,0,1.75-.16.37-.17.81-.3,1.2-.05.17.08.29-.22.24.42-1.86.13-3.68-.41-5.46-.09-.31-.3-.68-.41-1.03-.43-.96-.92-1.88-1.47-2.77l.03-.32v-.1c.51.7.93,1.46,1.44,2.16Z"/>
  <path class="st40" d="M77.16,38.11c-.03-.29-.38-1.27-.26-1.44.05-.07.23-.07.26-.17.05-.18,0-.62,0-.86,0-.07,0-.14,0-.21.18.9.39,1.79,0,2.68Z"/>
  <path class="st29" d="M80.25,25.75c.15.2.27.42.41.62-.96-.27-2.08-.28-2.88-.88-1.16-.88-1.58-2.69-2.37-3.4-1.81-1.6-4.17-1.62-6.36-1-1.82.51-3.91,1.34-5.38,2.5-.69.08-1.55-.03-2.27,0,.24-.19.7-.1,1.03-.1l.9-.29c3.31-2.22,9.95-5.06,12.98-1.17.58,1.22,1.34,2.21,2.3,2.99.61.16,1.16.4,1.64.73Z"/>
  <path class="st77" d="M80.25,25.75c-.62-.22-1.4-.3-1.95-.68-1.61-1.1-1.59-3.17-3.62-4.2-3.02-1.54-7.81.41-10.53,2.01-.9.53-.42.57-1.72.6,2.95-2.2,6.32-3.78,9.99-4.33,3.34,1.48,5.68,3.69,7.83,6.59Z"/>
  <path class="st122" d="M43.79,69.83c-.06-.1-.09-.32-.18-.48-.18-.31-.53-.54-.63-.92-.05-.19.05-.15.19-.14l2.37,3.5c.1,0,.15.12.1.21.24.34.44.73.51,1.13.26.56.68,1.14.72,1.75-.14-.32-.38-.6-.52-.93-.2.08-.02.62,0,.82-.54-1.12-1.02-2.29-1.61-3.39-.29-.53-.67-1.04-.97-1.56Z"/>
  <path class="st113" d="M71.7,27.5c-.23-.18-.96-.66-1.24-.82l.23-.17c.55.46,2.17-1.32,2.32-1.66.12-.3-.45-1.3-.68-1.52-.85-.82-3.29-.7-4.38-.35-1.15.62-2.3.89-3.46.82-.11.27-.5.2-.51-.1.65.14,1.03-.31,1.58-.53,2.71-1.1,7.65-2.79,9.08.95.19.5.55,1.57.26,2.01-.36.55-.61.42-1.03.62-.66.3-1.43.79-2.16.77Z"/>
  <path class="st82" d="M68.1,25.44c-1.5-.68-3.19-1.27-4.84-1.44l-.41-.31c.36.03.78-.04,1.13,0,.11.01.31.08.51.1,1.19.09,2.39-.08,3.58-.49,2.23-.57,4.91,1.52,1.82,2.86-.6-.25-1.2-.48-1.8-.72Z"/>
  <path class="st76" d="M76.03,32.75c.2.36.4.84.51,1.24.09.28.26,1.01.3,1.3.02.12.04.34-.15.25-.12-.06-.89-1.48-.88-1.75.11.15.63.93.51.26-.1-.55-.64-1.59-.92-2.12.19.2.49.59.62.82Z"/>
  <path class="st0" d="M31.33,73.02c.85.9,1.6,1.63,1.54,2.99.07.18-.04.35-.34.51-.44.92-.77,1.88-1,2.89-.14-.03-.47.18-.68.2-.75.06-1.11-.1-1.79-.2-1.05-.77-1.29-2.08.32-2.29,4.26-1.78.39-5.36-2.59-5.13-.12.2-.27.18-.41,0h-.31c.33-.16.4-.27.88-.31,1.67-.15,3.03.45,4.38,1.34Z"/>
  <path class="st64" d="M33.5,76.63c.07.59-.4,1.96-.72,2.47-1.51,1.05-.87-.91-.54-1.67-.11-.76.77-1.73,1.26-.81Z"/>
  <path class="st125" d="M33.5,76.63c-.31-.4-.89-.12-1.01.28-.06.19,0,.44-.07.65-.19.63-1.03,2.2.35,1.54-.22.35-.52.59-.96.5-.15-.03-.26-.19-.28-.19-.14-.17-.07-.31-.04-.49.1-.52.41-1.59.6-2.08.07-.18.61-.79.77-.82.32-.06.58.33.62.62Z"/>
  <path class="st135" d="M29.07,79.41c-.23-.04-.49-.09-.72-.1-.14-.25-.21-.49-.21-.72-.59-.29-2.36-2.1-.76-1.88,1.14.39,1.79.45,2.76-.33,2.26-1.8-1.41-4.1-3.2-4.17l-.15-.21c.19-.18.62-.12.86-.09,2.03.26,5.03,2.15,3.3,4.41-.69.9-1.28.75-2.13,1.17-.96.46,0,1.38.23,1.93Z"/>
  <path class="st31" d="M26.8,71.99c1.57.02,3.91,1.28,4.2,2.96.19,1.1-1.31,2.16-2.3,2.17-.43,0-1.51-.51-1.69-.38-.48.34.91,1.6,1.12,1.85-.03.22-.17.19-.41-.1-.45-.1-1.81-1.7-1.38-2.04.08-.07.64-.04.55.19l.65-.04c.59.21,1.16.26,1.72.14.03-.17.36-.39.51-.31,1.2-.89,1.07-1.96-.22-2.63l-1.91-.7c-.54-.35-1.05-.67-1.68-.79.14-.11.29-.19.41-.31.14,0,.27,0,.41,0Z"/>
  <path class="st57" d="M25.05,74.26l.09.12c-.08,1.71.47,3.3,2.08,4.11l.1.3c.32.15.46.04.41-.31l.41.1c.24.27.43.22.21.72-.04,0-.24.12-.45.1-.34-.03-1.36-.69-1.66-.93-1.38-1.11-1.54-2.49-1.39-4.17.04-.45.15-.62.31-.98.03.27,0,.58-.1.93Z"/>
  <path class="st50" d="M25.98,72.3c.35-.04.5.14.66.42.32-.05.96.08.78.41l-.03.1c-.3-.06-.6-.06-.89,0-.02.09-.05.09-.1,0-.7.07-1.1.4-1.22.99l-.12.04c.01-.32.03-.61.1-.93.25-.55.34-.64.82-1.03Z"/>
  <path class="st123" d="M26.18,86.52c.06.55-.16.53-.62.51-.31-.01-.46-.1-.72-.21h1.03c.18-.17-.48-.89-.62-1.03.38.1.6.47.93.72Z"/>
  <path class="st48" d="M28.66,59.63c1.75.34,4.37,1.55,5.92,2.47.62.36,1.2.84,1.8,1.24-.15-.04-.35.03-.59-.08-.27-.11-.67-.54-.9-.75l-.05.31c-.09-.06-.32-.05-.41-.1-1.74-1.03-3.17-1.66-5.05-2.37-.88-.33-1.74-.74-2.68-.93.67-.06,1.31.08,1.96.21Z"/>
  <path class="st3" d="M30.1,59.12c2.77.61,6.18,2.94,8.34,4.74l.55.56-.11.14c-.5-.36-.99-.73-1.48-1.11-.83-.55-1.63-1.12-2.47-1.65-.93-.58-1.81-1.11-2.81-1.56-.87-.4-1.82-.84-2.75-1.01-.37-.29.64-.12.72-.1Z"/>
  <path class="st53" d="M37.41,63.45c.08.05.25.09.38.18.24.16.76.68.91.75.04.02.17.03.15-.05l-.41-.46c.87.72,1.68,1.42,2.47,2.27.15.48-.09.39-.73-.28l-.2-.13c-.83-.79-1.73-1.5-2.57-2.27Z"/>
  <path class="st130" d="M39.98,65.71c.36-.02.9,1.04.93.41.73.78,1.36,1.53,1.96,2.41.11.15.24.24.2.47-.97-1.12-2.02-2.27-3.09-3.3Z"/>
  <path class="st98" d="M46.88,73.02c-.03.09-.06.09-.1,0l-.17-.04c-1.41-2.91-3.12-5.38-5.43-7.63-.07-.07-.09-.16-.06-.26-.48-.52-1.17-1.13-1.75-1.54.19.01.32.1.46.21,1.32,1.01,4.23,2.48,4.97,3.89.79,1.52,1.5,3.73,2.09,5.38Z"/>
  <path class="st30" d="M41.12,65.09c2.01,1.37,4.75,5.67,5.66,7.93.2.24.49,1.11,0,.86-.38-.78-.79-1.55-1.23-2.3-.51-.82-1-1.67-1.54-2.47-1.05-1.54-2.22-3-3.6-4.27.14-.13.59.17.72.26Z"/>
  <path class="st141" d="M71.09,28.43c.06.05.13.13.21.21.26.55-.45.04-.72-.21-1.41-.81-2.9-2.11-4.43-2.68-.05-.3.12-.23.31-.16,1.56.52,3.37,1.77,4.63,2.84Z"/>
  <path class="st2" d="M73.45,31.41c.5-.09.62-.1.93.31.79,1.08,1.05,1.89,1.44,3.09-.74-1.14-1.52-2.34-2.37-3.4Z"/>
  <path class="st143" d="M71.29,28.63c.55.49,1.11.99,1.54,1.6.22.31-.07.11-.2.15-.2-.22-.79-.78-1.03-.93l-1.03-1.03c.21.12.45.29.66.31l.06-.1Z"/>
  <path class="st70" d="M70.47,26.68c-.65-.4-1.67-.92-2.37-1.24.72-.03,1.13.69,1.88.49.39-.1,1.25-.93,1.16-1.32-.05-.25-.7-.79-.94-.91-1.8-.84-3.11.45-4.93.3-.29-.02-.58-.18-.77-.2,1.43.04,2.93-1.06,4.28-1.23.82-.1,2.63-.06,3.37.32.49.26,1.22,1.52,1.06,2.04-.05.18-1.48,1.64-1.67,1.73-.4.21-.66.08-1.07.01Z"/>
  <path class="st148" d="M43.79,47.89c1.41.03,3.15.86,4.43,1.44.37.17.71.38,1.03.62.15.09.82.62.93.51-.05.01-.49.19-.51.21-.32.01-.36-.45-.58-.5-.17-.04-.44.13-.7.09s-.38-.36-.63-.39c-.24-.03-1.33.23-1.58.34-.64.29-.5.77-.83,1.02-.42.32-.87.27-1.27.38-.03,0-.55.38-.56.41-.25.44.34.85.39,1.22-.74-.34-.89-.85-.65-1.63.11-.36.44-.47.56-.78.4-1.03.05-2.06-.52-2.94.17,0,.34,0,.51,0Z"/>
  <path class="st151" d="M49.25,49.95c-.34-.2-.75-.31-1.03-.62.32.15.84.21,1.03.62Z"/>
  <path class="st4" d="M60.48,36.26c.26-.07.73-.18.62.26-.1.36-.78-.1-.62-.26Z"/>
  <path class="st4" d="M62.33,35.43c-.12.15-.57,0-.51-.26.08-.36.73-.04.51.26Z"/>
  <path class="st95" d="M45.54,71.58c.25.4.57.78.81,1.2.1.17.35.89.43.96.35.29.03-.64,0-.72h.1c.18.5.47,1.1.62,1.54.09.27.28.93.31,1.19.02.2-.06.2-.21.1-.33-.97-.88-1.83-1.34-2.73-.19-.38-.4-.76-.62-1.13-.02-.05-.08-.1-.1-.21-.01-.06,0-.14,0-.21Z"/>
  <path class="st150" d="M46.27,73.13h-.1c-.19-.39-.36-.72-.51-1.13.37.24.46.82.62,1.13Z"/>
  <path class="st166" d="M29.79,76.42l-.02-.13c.92-.77.83-1.73-.19-2.35-.71-.05-1.59-.38-2.16-.82-.02,0-.05-.15-.17-.19-.23-.07-.59.04-.74-.04-.04-.02-.32-.53-.54-.6.88-.31,1.07.34,1.68.64.94.46,2.69.56,3.03,1.91.22.86-.31,1.18-.9,1.57Z"/>
  <path class="st80" d="M29.79,76.42c-.17.11-.33.23-.51.31l-.64.09c-.59-.19-1.16-.25-1.73-.19-.15,0-.33-.25-.51.05.16.93.85,1.22,1.34,1.8.13.16.35.56.05.62-.15.03-.34-.24-.46-.31-.04-.28-.25-.54-.64-.78-.39-.42-1.38-2.16-.18-1.7.03-.09.07-.09.1,0,.76,0,1.51.08,2.25.23,1.28-.23,1.85-1.62.67-2.48l.06-.12c1.25.57,1.1,1.61.21,2.47Z"/>
  <path class="st166" d="M29.27,76.73c-.87.35-.91.07-1.73-.07-.23-.04-.42-.02-.64-.03.8-.37,1.54.28,2.37.1Z"/>
  <path class="st144" d="M26.39,73.23c.1.29-.12.49-.65.62-.65.71-.4,2.17.74,2.2l.02.27c-.14-.02-.48-.08-.41.15.03.09.46,1.06.51,1.14.18.3.8.67.98.97.17.28-.1.21-.26.21-2.07-1.21-2.35-2.18-2.27-4.53.31-1.09.29-1.02,1.34-1.03Z"/>
  <path class="st45" d="M26.6,76.32s-.07,0-.1,0c-.18-.2-.49-.15-.71-.27-.67-.34-.74-1.67-.32-2.23.23-.3.74-.24.93-.59.03,0,.07,0,.1,0,.11-.05.23-.05.35-.05.58,0,2.45.71,2.86,1.07,1.04.9.2,2.27-1,2.3-.69-.16-1.4-.24-2.11-.23Z"/>
  <path class="st144" d="M27.42,73.13c.75.37,1.48.51,2.16.82.45.57.92.7.7,1.57-.11.41-.95,1.07-1.36,1.11-.46.04-.68-.17-1.04-.2-.41-.04-.89-.08-1.28-.11.61-.2,2.07.27,2.53.11,1.16-.4,1.22-1.93.04-2.42-.21-.09-.46-.06-.67-.16-1-.47-.74-.58-2-.62.21-.21.64-.06.93-.1Z"/>
  <path class="st15" d="M26.57,73.36c.92-.24,1.18.38,1.84.78.19.12.45.08.6.22.21.19.42,1.2.34,1.47-.19.67-1.14.27-1.58.27-.58,0-.81.26-1.49-.04-.5-.22-.96-1.1-.8-1.63.08-.25.81-1.01,1.09-1.08Z"/>
  <path class="st142" d="M27.9,75.57c-.08.1-.5.31-.64.33-2.03.35-1.79-2.61,0-2.26.65.13,1.05,1.43.64,1.93Z"/>
</svg>