<?xml version="1.0" encoding="UTF-8"?>
<svg id="Layer_1" xmlns="http://www.w3.org/2000/svg" version="1.1" viewBox="0 0 110 110">
  <!-- Generator: Adobe Illustrator 29.6.1, SVG Export Plug-In . SVG Version: 2.1.1 Build 9)  -->
  <defs>
    <style>
      .st0 {
        fill: #f0af29;
      }

      .st1 {
        fill: #d98929;
      }

      .st2 {
        fill: #d78500;
      }

      .st3 {
        fill: #4d97e3;
      }

      .st4 {
        fill: #2788e7;
      }

      .st5 {
        fill: #073a83;
      }

      .st6 {
        fill: #09327c;
      }

      .st7 {
        fill: #8d9ccf;
      }

      .st8 {
        fill: #569ce5;
      }

      .st9 {
        fill: #0057bd;
      }

      .st10 {
        fill: #bbbabb;
      }

      .st11 {
        fill: #6a6f8b;
      }

      .st12 {
        fill: #1e4989;
      }

      .st13 {
        fill: #737588;
      }

      .st14 {
        fill: #4b8ce7;
      }

      .st15 {
        fill: #bdbdbd;
      }

      .st16 {
        fill: #0076d9;
      }

      .st17 {
        fill: #02277b;
      }

      .st18 {
        fill: #0061d1;
      }

      .st19 {
        fill: #e3a245;
      }

      .st20 {
        fill: #1393e7;
      }

      .st21 {
        fill: #908592;
      }

      .st22 {
        fill: #4b75cd;
      }

      .st23 {
        fill: #0055ba;
      }

      .st24 {
        fill: #2d92e4;
      }

      .st25 {
        fill: #0072dc;
      }

      .st26 {
        fill: #289ae9;
      }

      .st27 {
        fill: #008ae9;
      }

      .st28 {
        fill: #1a3a75;
      }

      .st29 {
        fill: #0079d9;
      }

      .st30 {
        fill: #bb805f;
      }

      .st31 {
        fill: #f2b345;
      }

      .st32 {
        fill: #d9d9d9;
      }

      .st33 {
        fill: #2594e6;
      }

      .st34 {
        fill: #1d447f;
      }

      .st35 {
        fill: #bb6b3b;
      }

      .st36 {
        fill: #d5d5d4;
      }

      .st37 {
        fill: #dd8d26;
      }

      .st38 {
        fill: #3470d2;
      }

      .st39 {
        fill: #3193e7;
      }

      .st40 {
        fill: #597ecd;
      }

      .st41 {
        fill: #2690e5;
      }

      .st42 {
        fill: #e69e41;
      }

      .st43 {
        fill: #c67e4e;
      }

      .st44 {
        fill: #2f5089;
      }

      .st45 {
        fill: #2994e7;
      }

      .st46 {
        fill: #1189e6;
      }

      .st47 {
        fill: #ba6d39;
      }

      .st48 {
        fill: #0a408f;
      }

      .st49 {
        fill: #9c7a6c;
      }

      .st50 {
        fill: #d1c8c4;
      }

      .st51 {
        fill: #0058bb;
      }

      .st52 {
        fill: #394a81;
      }

      .st53 {
        fill: #c7835e;
      }

      .st54 {
        fill: #002b9a;
      }

      .st55 {
        fill: #bd6f43;
      }

      .st56 {
        fill: #2e528c;
      }

      .st57 {
        fill: #6182d3;
      }

      .st58 {
        fill: #525252;
      }

      .st59 {
        fill: #a0abd8;
      }

      .st60 {
        fill: #bebfbf;
      }

      .st61 {
        fill: #007cda;
      }

      .st62 {
        fill: #0b327f;
      }

      .st63 {
        fill: #3773dd;
      }

      .st64 {
        fill: #3c66bb;
      }

      .st65 {
        fill: #b8b9ba;
      }

      .st66 {
        fill: #134798;
      }

      .st67 {
        fill: #0089e5;
      }

      .st68 {
        fill: #0084e1;
      }

      .st69 {
        fill: #9cb5de;
      }

      .st70 {
        fill: #d98c22;
      }

      .st71 {
        fill: #d58530;
      }

      .st72 {
        fill: #e29502;
      }

      .st73 {
        fill: #00279b;
      }

      .st74 {
        fill: #1898e8;
      }

      .st75 {
        fill: #0046a9;
      }

      .st76 {
        fill: #e7a665;
      }

      .st77 {
        fill: #0046ac;
      }

      .st78 {
        fill: #6a89cf;
      }

      .st79 {
        fill: #0157bb;
      }

      .st80 {
        fill: #cb8442;
      }

      .st81 {
        fill: #002a9b;
      }

      .st82 {
        fill: #006bcb;
      }

      .st83 {
        fill: #eceded;
      }

      .st84 {
        fill: #e0ad82;
      }

      .st85 {
        fill: #0095e9;
      }

      .st86 {
        fill: #e49d49;
      }

      .st87 {
        fill: #e99f12;
      }

      .st88 {
        fill: #6b88cd;
      }

      .st89 {
        fill: #0074dc;
      }

      .st90 {
        fill: #db9d71;
      }

      .st91 {
        fill: #204989;
      }

      .st92 {
        fill: #0064c8;
      }

      .st93 {
        fill: #3994e5;
      }

      .st94 {
        fill: #0355c5;
      }

      .st95 {
        fill: #b0b1b6;
      }

      .st96 {
        fill: #8a9dd3;
      }

      .st97 {
        fill: #bea69e;
      }

      .st98 {
        fill: #507dd2;
      }

      .st99 {
        fill: #818181;
      }

      .st100 {
        fill: #0d3e86;
      }

      .st101 {
        fill: #878787;
      }

      .st102 {
        fill: #0182de;
      }

      .st103 {
        fill: #0085e1;
      }

      .st104 {
        fill: #00399b;
      }

      .st105 {
        fill: #254e8a;
      }

      .st106 {
        fill: #0067cd;
      }

      .st107 {
        fill: #efae47;
      }

      .st108 {
        fill: #13366e;
      }

      .st109 {
        fill: #e59a1c;
      }

      .st110 {
        fill: #73a0e1;
      }

      .st111 {
        fill: #d58227;
      }

      .st112 {
        fill: #003097;
      }

      .st113 {
        fill: #eaa234;
      }

      .st114 {
        fill: #666cad;
      }

      .st115 {
        fill: #0068d5;
      }

      .st116 {
        fill: #6c625f;
      }

      .st117 {
        fill: #4e98e3;
      }

      .st118 {
        fill: #008fe7;
      }

      .st119 {
        fill: #acb4d5;
      }

      .st120 {
        fill: #007fe3;
      }

      .st121 {
        fill: #0073d4;
      }

      .st122 {
        fill: #5497e1;
      }

      .st123 {
        fill: #7491d9;
      }

      .st124 {
        fill: #de8e1e;
      }

      .st125 {
        fill: #bc6604;
      }

      .st126 {
        fill: #0094e9;
      }

      .st127 {
        fill: #626ab2;
      }

      .st128 {
        fill: #cc8c61;
      }

      .st129 {
        fill: #c17f53;
      }

      .st130 {
        fill: #1866cd;
      }

      .st131 {
        fill: #aeaeae;
      }

      .st132 {
        fill: #224989;
      }

      .st133 {
        fill: #3574d6;
      }

      .st134 {
        fill: #d58649;
      }

      .st135 {
        fill: #666464;
      }

      .st136 {
        fill: #3c8ae8;
      }

      .st137 {
        fill: #0083e2;
      }

      .st138 {
        fill: #555256;
      }

      .st139 {
        fill: #2a84e4;
      }

      .st140 {
        fill: #d8d5d3;
      }

      .st141 {
        fill: #c77f5e;
      }

      .st142 {
        fill: #0092e8;
      }

      .st143 {
        fill: #dcdcdc;
      }

      .st144 {
        fill: #073280;
      }

      .st145 {
        fill: #0052b9;
      }

      .st146 {
        fill: #0070d2;
      }

      .st147 {
        fill: #eda81c;
      }

      .st148 {
        fill: #a6a5a5;
      }

      .st149 {
        fill: #247edd;
      }

      .st150 {
        fill: #ececec;
      }
    </style>
  </defs>
  <path class="st68" d="M14.36,35.64c.16-.08.32-.16.49-.22s.33-.12.5-.15c11.08-2.06,22.54-2.96,33.64-1.54.86.11,1.81.24,2.61.5,1.03.34,1.64.92,1.7,2.03.05.17.09.44.1.62-.07.37-.09.76,0,1.13.04.3.07.61.1.93,0,2.18.19,4.62.41,6.8.03.45.06.89.1,1.34.04.35.07.68.1,1.03,0,.56.08,1.11.21,1.65.06.65.16,1.31.21,1.96-.18.22-.24.54-.18.95.12.77.2,1.66-.38,2.26-.09.5-.14.74-.66.91.02.61-.12.84-.75.86-.31.35-.57.6-1.03.73l-.18.57c-.72.81-1.11,1.53-1.33,2.59-.92.16-1.49.9-1.98,1.64l-.74.08c-2.17-.17-3.48,2.18-3.18,4.14.25.18.43.48.52.89.28.37.41.73.4,1.07l.08.29c1.5,1.62,2.33,4.18,1.64,6.35-.06.19-1.41,1.44-1.79,1.31-2.13.18-4.23.24-6.32.19-.3.3-1.15.31-1.44,0-.33-.09-.69-.08-1.03,0-.12.05-.24.09-.36.12s-.24.05-.36.05c-1.79-.09-3.59-.22-5.37-.35-.12,0-.23-.04-.35-.08s-.24-.09-.35-.15c-.82-.17-1.65-.24-2.47-.21-1.02.24-2.22.18-3.19-.21-.62-.25-1.37-.32-2.27-.21-.13.28-.38.29-.52,0-.61-.15-1.25-.17-1.89-.04-1.41-1.15-2.09-3.29-2.63-5.04-3.1-10.17-4.2-20.84-4.64-31.38-.07-.68.03-1.26.3-1.74l.11.02.1,3.07.15.43c.34,5.56.84,11.17,1.71,16.6l-.1.27c.28,1.1.49,2.21.64,3.33.28.46.3.99.19,1.51.37.79.59,1.67.64,2.56.39,1.13.72,2.28,1.06,3.44.23.78.6,1.87.93,2.63s.55.96,1.3,1.45c.09.88.27.82.97.39.35-.09.62.07.83.49.64.09,1.31.11,2.01.06.8.39,1.69.51,2.65.36l.73.34c.76-.14,1.38-.25,2.08.19,3,.1,6.04.28,9.11.56,1.49-.08,2.98-.15,4.48-.21l.65-.27c1.22.28,1.98-.37,2.3-1.52.22-.81.27-3.3,0-4.07-1.3-2.21-1.49-4.79.18-6.88.49-1.09.77-2.35.62-3.53.41-.29.59-.71.53-1.27l.19-.21c.48.13.39-2.19.05-1.75,0,.46-.29.64-.88.57-.63.42-1.05.45-1.25.09l.12-.19c3.71-1.7,5.31-5.49,5.14-9.39.1.03.21.06.27.15.21.28.31,2.2.05,2.56l.29.26c0-1.15.25-2.04,1.62-2,0-.63.29-.86.75-1.19l-.08-.53c-.72-.24-.66-.89.06-.99l.25-1.12c-.03-.94.02-1.85.16-2.75-.24-.95-.35-1.92-.34-2.92-.04-.79-.53-1.75-1.43-1.51-.52-.59-1.2-.78-2.03-.56-.52-.27-1-.4-1.61-.5-.45-.07-.89-.13-1.34-.18-9.53-1.03-19.33-.11-28.67,1.5l-1.26.02-.17-.23c-.07.15-.2.15-.4,0l-.64.1c-.4,0-.79-.61-.41-.82Z"/>
  <path class="st118" d="M54.22,20.81c.49.52-.16,1.41-.72.48l-.5.28c.33.85-.52,1.13-1.21,1.17-.87,0-1.58.03-2.35.52-.35-.23-.73-.17-1.12.2l-1.05.06c-.53.25-1.06.37-1.59.35-.8-.71-2.06.2-.25.03.35.18.32.64-.07.74-.86-.19-1.65-.1-2.39.28-.93-.09-1.79.02-2.6.33-1.07-.28-1.75-.1-2.67.51-.38.19-.58-.08-.66-.43l-.21.12c-.31.84-.85.56-1.14-.11-.17.51-.61.74-1.3.71-.12.21-.31.38-.56.26-.48-.75-.86-.69-1.43-.04-.61.1-1.25.07-1.93-.1-1.19.19-2.4.27-3.62.23-.59.24-.34.74.32.62l1.89-.03c.68.43,1.06.41,1.13-.08.82-.67,1.44.11,1.36,1l.79-.06c.47.28.55.3,1.13.18,1.54.28,3.08.41,4.62.4.69.34,1.45.38,2.3.11,5.02-.04,10.04.26,14.99.73,1.02-.16,1.75-.23,2.73.12,1.17-.07,2.31-.02,3.43.15.4.46.8.42,1.18-.13.32-.04.44-.25.38-.63.32-.73.41-1.54.26-2.41-.05-.46.06-.73.33-.82.11,1.64,0,3.17-.41,4.74l-.14.23c-.09.52-.29.79-.62.8-1.62-.18-3.25-.29-4.89-.34l-.58-.3c-2.14-.08-4.31-.24-6.52-.47-5.68-.03-11.36-.12-17.02-.25l-.44-.14c-.88.41-1.75.46-2.61.17l-4.39.25c-.51.16-.9.28-1.37-.04-.56.53-1.32.64-2.28.31-.52.15-.84.11-1.32-.1-.7.62-.94.76-1.83.23-.62-.16-1.8-.27-2.26.26-.88,0-1.57.15-2.41.44-.45-.06-.28-.7-.16-1.03-.19-.06-.19-.15,0-.21.19-.1.26-.31.22-.61.53-.76,1-1.73.06-2.39-.1-.43-.18-.87-.25-1.31l-.14-.02c-.08-.02-.14-.05-.16-.1-.17-.57-.91-3.46-.87-3.82.02-.23.05-.38.31-.41l.1-.2c4.25,1.04,8.76,1.78,13.14,2.28s8.74.47,12.83-.36c1.23.1,2.33-.07,3.31-.53,2.67-.36,5.31-.85,7.92-1.48l.73-.04c.3-.33,2-.52,2.38-.45l.17.16Z"/>
  <path class="st126" d="M62.46,20.91c.64,1.37,1.13,3.12,1.24,4.63-.27.76,0,1.75-.1,2.53-.04.28-.23.46-.29.74-.04.17.01.58-.03.64-.02.02-.31.04-.44.13-.27.17-.39.51-.74.51-.33,0-.44-.33-.74-.4-1.11-.25-2.41.01-3.48-.12-.33-.04-.61-.27-.94-.28-.5-.01-1.03.24-1.73.16-.82-.09-1.45-.13-2.27-.18-1.9-.11-3.82-.42-5.77-.43-2.23-.01-4.44-.07-6.7-.11-.53,0-1.16.24-1.54.22-.35-.01-.47-.26-.73-.31-.35-.07-.84.02-1.23,0-1.27-.08-2.16-.22-3.41-.41-.3-.04-.67.1-.81.08-.13-.03-.2-.24-.33-.26-.14-.03-.9.22-1.06-.04-.12-.19.15-1.01-.48-1.12-.68-.12-.46.33-.71.52-.41.33-.73-.15-1.04-.21-.61-.11-2.24.17-2.66-.1-.26-.16-.08-.69.08-.83.24-.21,2.17-.07,2.68-.1.41-.03.75-.21,1.24-.21s1.28.26,1.64.22c.34-.04.49-.63,1.04-.63s.73.61.82.62c.12.01.27-.28.34-.3.25-.09.74-.05.99-.2.15-.1.13-.43.33-.52.39-.16.29.71.81.61.1-.02.1-.54.52-.62s.22.46.51.49c.08,0,1.08-.61,1.45-.69.64-.13.97.12,1.43.1.33-.01.53-.26.83-.31.53-.08,1.22.08,1.74-.01.32-.06.72-.38,1.15-.4.4-.02.93.2,1.38.1v-.31c-.39-.03-1.33.19-1.12-.45.08-.26.61-.31.86-.27.26.04.38.24.55.28.5.13,1.03-.28,1.55-.36.33-.05.68.02.98-.05.24-.05.46-.35.66-.38.24-.03.35.21.48.18.11-.02.63-.41,1.18-.48.51-.06,2.32.11,2.29-.7-.01-.36-.53-.2-.62-.46.4.27,1.22-.4,1.29-.4.15,0,.28.58.56.51l.1-.72.06-.25c1.8-.5,3.64-.86,5.52-1.1,1.3-.08,1.98.38,2.66,1.45Z"/>
  <path class="st124" d="M74.62,55.1c.15.21.08.32-.14.41.97-.02,1.89.27,2.77.88,2.87.61,5.12,3.68,6.22,6.3,2.33,5.58.15,12.74-3.77,17.07-.83,1.27-2.17,2.74-3.61,3.25-1.5,1.45-3.48,2.02-5.51,2.38l-.08.09c.03.42-.07.67-.31.72l-.04.14c-.47-.04-.94-.02-1.4.07-.52.3-1.56.13-2.2,0-.68-.13-1.31-.27-1.92-.63-.04.04-.09.08-.14.1-.24.12-2.53-1.46-2.75-1.85-.07.02-.16.02-.21-.04-3-3.18-4.18-7.01-3.87-11.35.09-1.25.21-2.59.68-3.75.37-1.57.91-2.79,1.65-4.22,2.14-3.66,5.29-7.13,9.37-8.65.79-.4,1.68-.61,2.55-.77s1.87-.32,2.7-.16Z"/>
  <path class="st0" d="M80.18,56.75c.89.06,1.81,1.05,2.4,1.73.69.78,1.64,2,1.72,3.01.37.56.62,1.19.74,1.88-.09-.49.05-1.05.6-.75l.4-.02c1,.39,2.33,1.04,3.11,1.72.64-.13,1.05.23,1.23,1.07,1.43,2.75,1.05,7.9.14,10.8-.05.16-.02.37-.24.43l-.09-.09c-.06.5-.33,1.01-.8,1.51l-.5-.07c-.31.32-.63.52-.96.62-.07.71-.54.85-1.41.41-.68.25-.87.24-1.06-.5-.78,0-.87-.02-1.29-.59-.27.65-.6,1.31-1.4,1.3-1.01,1.08-2.14,2.29-3.31,3.17-.22.39-.6.7-1.13.92.04.29-.25.61-.52.41-.41.23-1.07.46-.62-.21.03-.1.06-.19.1-.29s.09-.17.15-.24c2.97-3.14,5-5.33,6.43-9.54,1.88-5.54,1.2-12.6-3.65-16.37l-.05-.35Z"/>
  <path class="st89" d="M11.78,19.88c.13-.03.33.06.31.21.22.14.32.28.31.41,2.35,3.54,2.25,8.72,1.45,12.71-.22.79,1.42.6,1.87.38,8.05-.88,16.12-1.5,24.21-1.86,7.3.04,14.77.65,21.92,1.3l.09.25c-1.45,1.67-2.4,1.41-4.48,1.24-1.39-.12-2.78-.4-4.17-.51v2.27s-.33-.75-.37-.82c-.46-.78-1.34-1.05-2.18-1.22-1.79-.36-4.31-.58-6.16-.74-10.13-.89-20.31.48-30.23,2.16-.07.4-.82.25-1.15.18-.51.02-.64.1-1.01.34-.29.55-.4,1.63-.39,2.33.15,7.79,1.1,15.8,2.46,23.56v.58c-.04.17-.11.13-.21-.1-.11-.21-.21-.42-.26-.64-1.87-8.42-2.31-17.44-2.55-25.9.89-.66,1.43-1.61,1.85-2.66,1.7-4.27,1.07-9.9-1.92-13.49l.21-.15c.14-.01.33.09.41.21Z"/>
  <path class="st77" d="M17.04,73.74l.3.19c.3.66.54,1.34.73,2.04.27-.12.48-.14.62-.07.35-.27,1.48-.42,1.75,0,1.13.43,1.89,1.85,2.4,2.92,1.74,3.66,1.73,9.27-.57,12.66-.1.37-.26.63-.49.79-1.14.17-1.68.32-2.78-.26-3.32-1.74-3.92-7.14-4.22-10.46-.13-.42.37-.68.51-.24.06,1.82.36,3.77.85,5.52.43,1.56,1.15,3.12,2.67,3.79-2.13-2.65-3.26-6.08-3.15-9.46l.15-.23c.07-.01.15,0,.21-.04.08-.07.4-1.67.51-2.02.19-.18.29-.42.31-.72.26-.56.59-.95.82-1.44l.03-.15c-.58-1.55-1.07-3.11-1.47-4.69l.13-.09c.29.61.52,1.26.69,1.94Z"/>
  <path class="st137" d="M13.64,21.42c-.05.18-.13.36-.1.56.14,1.17.64,2.64.82,3.77.13.05.18.14.19.26.15,1.27.15,2.5.11,3.77l-.2.29c0,.07,0,.14,0,.21-.36,1.81.09,2.35,1.37,1.64.7.19,1.31.12,1.85-.21.97.27,1.86.19,2.67-.24,5.74-.35,11.48-.66,17.24-.92,7.78-.02,15.54.55,23.13,1.21.78.06,1.48,0,2.16-.25-.05.71-.49,1.25-.93,1.75-.28-.11-.79-.19-1.08-.2-6.62-.36-13.18-1.12-19.77-1.14-8.49-.03-16.9,1.24-25.34,1.86-.19.01-.34.18-.53.2-.09,0-1.25-.1-1.31-.12-.65-.19.05-1.83.12-2.31.45-2.91.21-6.64-.9-9.38-.22-.55-.67-1.08-.74-1.68.28-.04.96.46,1.2.68l.03.24Z"/>
  <path class="st67" d="M14.46,30.28c0,.24-.09.86.15.83.34-.05.88-.33,1.26-.39.36-.06.78.04,1.09-.05.2-.06.31-.36.65-.39.19-.02,1.5.09,1.72.13.44.08.67.55,1.14.26.24-.14.26-.47.65-.49.25-.01.41.18.62.21.24.02.46-.12.71-.11.41.03,1.06.21,1.45.2s.57-.5.82-.5c.17,0,.35.2.62.21.25,0,.51-.16.74-.17,1.38-.06,3.14-.26,4.42-.25.37,0,.59.23,1.03.22.57,0,1.21-.36,1.56-.39.19-.02.4.16.61.17,1.32.09,2.65.05,3.91.11,2.79.13,5.56-.01,8.33,0,2.93.02,5.97.07,8.86.51.69.11,1.47-.06,2.05,0,.4.04.67.35.94.4.62.12,1.58-.04,2.26,0,.29.02.56.17.84.19.24.02,1.8.15,1.88.1.07-.05.22-.77.53-.81-.12.47-.09.81-.41,1.24-.16.22-.29.36-.57.41-1.19.19-3.45-.09-4.72-.21-1.38-.13-2.74-.17-4.13-.3-5.79-.56-11.47-.76-17.31-.62-1.67.04-3.29.26-4.94.31-2.15.07-4.22.22-6.39.3-1.35.05-2.75.09-4.11.21-.65.06-1.06.45-1.36.49-.38.06-1.21-.23-1.63-.2-.33.03-.37.27-.62.32-.4.08-.82-.14-1.23-.11-.47.04-.95.55-1.43.2-.28-.2-.32-1.74.04-2.05Z"/>
  <path class="st29" d="M54.53,51.7c0,.07,0,.14,0,.21,0,.44.08.85.21,1.24.06.65.11,1.11.21,1.75-.02.51.05,1,.21,1.44.62,3.82,1.49,7.71,2.39,11.46.1.42.43.9.59,1.31-.03.1-.11.21-.18.19-.53-.17-.85-1.42-.75-1.95-.4-1.32-.71-2.67-.99-4-.36.3-.79.35-1.27.31.02.98-.28,1.33-1.16,1.57-.26.45-.49.92-.71,1.4-.81,1.03-1.12.68-.9-.41l-.22-.3c-.22-.04-.38-.24-.48-.6-.31-.36-.42-.68-.34-.95l-.46-.27c-1.04-1.38-2.69-1.89-4.27-1.1l-.32-.07c-1.04.88-1.82,1.63-1.64,3.1,0,.31-.1.45-.32.4-.06-.25-.1-1.38-.08-1.67.07-.89,1.3-2.31,2.16-2.59.6-.2.94-.07,1.47-.08.45,0,.36-.34.57-.56.24-.26.48-.45.77-.77s.8-.27.87-.32c.06-.04.2-.93.28-1.11.21-.49.74-1.05,1.02-1.46.11-.16.06-.45.21-.61.12-.13.39-.14.56-.26s.37-.44.52-.51c.17-.08.49-.03.57-.15.09-.14,0-.44.09-.63.1-.2.39-.15.48-.27s.09-.44.17-.63c.07-.16.24-.25.3-.42.29-.74.01-1.79.13-2.55.03-.2.12-.32.31-.15Z"/>
  <path class="st104" d="M8.38,19.47c3.13-.54,4.61,3.27,5.15,5.77.09.03.09.06,0,.1.55,3.34.53,7.84-2.38,10.07-.18.28-.38.42-.6.44-.88-.18-1.03-.08-1.81-.72-.23-.19-.94-1.08-1.05-1.12-.42-.13-1.52.29-1.74-.02-.43-2.01-.81-3.92-.87-5.98-.1-.51-.1-1.03,0-1.54.09-2.39.71-5.24,2.68-6.8.23-.16.44-.23.62-.21Z"/>
  <path class="st92" d="M56.7,77.56l.17.18c.16,3.42,1.58,7.83,5.4,8.57.78-.21,1.39-.23,2.16,0,.04-.05.11-.05.21,0l.34-.03c1.96,1.18,3.96,2.37,6.16,3.05l.2.27c-.17.31-.53.51-.86.64-1.33.51-3.89-.03-5.36-.24-6.63-.95-13.42-2.77-20.16-2.66-.68-.3.22-.53.82-.5,1.91-.05,3.81-.02,5.72.1.81,0,5.41.03,5.75-.38.31-.37.27-1.43.08-1.86-.58-1.57-.87-3.21-.86-4.93l-.43-1.9c-.02-.16-.04-.29.15-.33.06-.28.45-.28.52,0Z"/>
  <path class="st110" d="M61.74,19.67c-.07.03-.14,0-.21-.1-.27.15-.51-.13-.41-.41-.28-.04-.39-.15-.31-.31-1.2-.43-2.4-.25-3.74,0-4.27.95-8.57,1.91-12.9,2.88-2.66.49-5.3.91-7.93,1.27-2.67-.13-5.36-.26-8.07-.38-5.03-.7-10.21-1.51-15.26-2.53-.26.2-.88-.1-1.13-.31-.41-.16-.82-.33-1.24-.51-.06.14-.23.14-.52,0-.35.28-.87.22-1.24,0,.97-.3,2.01-.3,3.13.02l1.61.08c1.14,0,2.76.36,3.94.54,3.26.5,6.58,1.3,9.83,1.71,1.92.24,5.04.64,6.9.62,2-.02,5.64-.59,7.68-.95,3.71-.65,7.58-1.89,11.29-2.72,1.47-.33,4.69-1.22,6.02-.93.91.2,2.2,1.15,2.55,2.04Z"/>
  <path class="st147" d="M78.33,83.32c0-.35.51-.29.78-.51.21-.18.45-.66.67-.88.85-.85,1.72-1.73,2.63-2.52.1-.09.15-.3.26-.36.19-.11.54-.03.7-.18.03-.03.38-.49.42-.55.14-.21.14-.82.63-.51.15.09.14.44.27.47.24.06.6-.09.86.05s.17.64.36.65c.09,0,.42-.18.62-.17.36,0,.92.51,1.13.09.39-.78-.94-.35-1.14-.61-.36-.49.96-.53,1.16-.29.11.14,0,.51.47.37.22-.07.27-.47.58-.56.28-.09.48.09.65.05.3-.07.81-1.5.79-1.84.37-.09.16.43.1.62-.1.34-.21.71-.31,1.03-.21.31-.35.66-.41,1.03-.77,1.84-1.81,3.42-3.09,4.94-.14,0-.24-.06-.21-.19-1.04.06-2.19-.12-3.09-.62-.03-.48-.33-.67-.91-.56-.63-.46-.79-.5-.68.34-.66.83-.95.14-1.15-.53-.18.37-.45.55-.8.53-.12.5-.87.98-1.31.72Z"/>
  <path class="st24" d="M61.13,19.16c.13.14.27.24.41.41.2.18.37.39.52.62.16.27.27.42.41.72-.39-.2-.56-.77-.94-.97-.26-.14-1.25-.26-1.58-.27-1.32-.04-2.46.41-3.72.67-.94.19-1.02.06-2,.47-.61.26-1.62-.01-2.3.31-.07.03-.05.2-.11.2-.88-.07-2.53.32-3.36.57-1.08.33-2.48.53-3.62.71-.56.09-1.19.09-1.67.18-.28.05-.57.36-1,.44-.77.15-1.87.03-2.61.12-.13.02-.32.2-.54.23-2.69.39-4.88.42-7.59.44-3.54.03-7.43-.73-10.92-1.24-2.19-.32-4.46-.62-6.52-1.32-.12-.04-.29,0-.33-.02-.42-.19-.9-.61-1.24-.93-.14-.13-.27-.19-.31-.41.15-.12.53,0,.52.21,1.02.43,2.11.65,3.19.86,2.06.4,4.36.72,6.48,1.02,1.14.16,2.28.31,3.42.46,4.16.55,8.39.96,12.58.4,6.3-.9,12.63-2.35,18.77-3.77,1.35-.33,2.8-.5,4.08-.1Z"/>
  <path class="st146" d="M56.18,77.56c-.07.66.29,1.29.4,1.92.16.9.12,1.88.24,2.75.15,1.04.7,2.17.85,3.05.05.31-.04,1.25-.3,1.46-.56.45-3.78.39-4.64.4-2.64.05-5.3-.31-7.93,0l.15.21c-3.4.06-8.14,1.4-11.54,2.16-3.21.86-6.44,1.61-9.69,2.25-.35.07-.98.08-1.18-.2-.15-.21.81-2.31.94-2.35.05-.02.1-.01.15,0-.01.5-.07,1.02-.16,1.58,1.16.02,2.34-.14,3.57-.49l11.72-2.69c3.97-.85,7.89-1.62,11.9-1.05,1.34.13,2.47-.14,3.73-.52.93-.28,1.35-.44,1.68-1.38.29-2.32.31-4.66-.39-6.89l.2-.19c-.14-.14-.07-.2.1-.1.19-.2.22-.17.21.1Z"/>
  <path class="st2" d="M68.75,86.41l.25-.08c1.85.17,3.66.07,5.46-.43.95.09,1.85.4,2.71.94l1.04.4c.81.54,1.57.95,2.56.78l.03.25c-1.57.81-3.38,1.46-5.15,1.65-1.71-.67-3.54-1.41-5.07-2.42-1.46-.23-2.92-.45-4.4-.66-.44-.1-1.61-.58-1.56-1.05,1.65.44,2.44.52,4.12.62Z"/>
  <path class="st107" d="M75.96,54.79c.46-.17.7-.13.72.1.32-.12.62-.2.72.21.17-.31.73-.11.82.21.16-.25.34-.19.31.1.24-.25,1.19.18,1.13.51.06.02.11.03.1.1l.17.04c.19-.21.38-.12.55.27.2-.26.69,0,.62.31,2.85,1.73,5.89,3.06,7.89,5.86.56.79,1.16,1.96,1.38,2.9-.07-.14-.23-.45-.3-.57-.33-.51-.75-.22-1.01-.32-.14-.05-.15-.23-.24-.28-.99-.6-2.19-1.05-3.19-1.61-.61.1-1.05-.62-1.34-1.13-.36-.29-.2-.43-.37-.71-1.03-1.73-1.97-2.97-3.75-4.03l-.37.02c-1.49-.92-3.1-1.53-4.87-1.47l-.32-.2c-1.86.06-3.55.29-5.25.93-.09-.03-.09-.06,0-.1,1.9-.74,3.08-.9,5.09-1.04.22-.01.44-.19.47-.2.09-.32,1.01-.22,1.03.1Z"/>
  <path class="st72" d="M75.96,84.97c.51-.24,1.01-.53,1.51-.86.51.27.95.26,1.32-.03.73.49,1.52.88,2.34,1.19.76-.17,1.13,0,1.11.52.32,0,.64.02.96.09.36-.16,1.27-.5.9.12-1.03.85-2.12,1.66-3.3,2.27-.16-.16-.43.02-.66,0-.37-.03-1.02-.2-1.32-.41-.78-.53-.61-.38-1.47-.72-1.22-.48-1.77-1.14-3.18-1.02-.97.08-1.84.48-2.89.5-.93.02-1.65-.16-2.53-.21.24-.35,1.02-.21,1.44-.21.57-.52,1.13-.74,1.68-.65.5.5.87.45,1.54.27.81-.22,1.58-.58,2.33-.97l.22.12Z"/>
  <path class="st87" d="M78.33,83.32c.34-.19.71-.16,1.04-.56.08-.1.08-.32.11-.35.07-.06.33.03.5-.07.13-.08.34-.76.67-.36.21.26,0,1.08.68.67.2-.12-.08-.41.04-.67.31-.63.75.02.95.08.24.07.53-.04.75.07.25.12.15.51.31.62.11.08,1.57.44,1.8.47s.93.04,1.12,0c.06-.01.11-.41.27-.21.03.04-.16.47-.1.62-.07.08-.2.19-.31.31-.19.1-.26.2-.31.41-.6.66-1.07,1.09-1.75,1.65.15-.37-.6-.01-.64,0-.1.05-.08.21-.13.2-.06-.01-.18-.16-.33-.19-.25-.04-.8.05-.91-.12-.08-.11.01-.33-.11-.43-.19-.15-.61.08-.89,0-.19-.06-1.13-.47-1.38-.58-.21-.1-.85-.62-.91-.62-.07,0-.27.29-.52.28-.22,0-.72-.34-1.02-.28-.33.06-.77.91-1.3.7-.04-.21-.03-.31.11-.16l.61-.36c.14-.38.52-.62,1.13-.72.12-.07.3-.3.52-.41Z"/>
  <path class="st125" d="M64.63,85.79c.34.32,1.2.74,1.66.86,1.34.36,3.23.27,4.31.63.33.11.49.36.75.49,1.31.64,2.61,1.23,3.94,1.83.17.07.29.13.35.31-1.36.15-2.99.03-4.33-.31-2.04-.51-4.88-2.16-6.7-3.3-.58-.27-2.96-1.76-3.14-2.23-.02-.05.16-.1.25-.04.89.57,1.88,1.49,2.88,1.75Z"/>
  <path class="st11" d="M81.62,41.2c3.54,1.04,4.26,4.9,3.22,8.09-.24.74-.67,1.78-1.26,2.21-.83,1.16-1.86,2.52-3.21,3.05l-.19-.06c-.03-.12-.03-.26,0-.41-.25-.15-.18-.26.1-.21l.22-.34c1.26-.48,2.13-1.48,2.89-2.56l.19-.09c1.21-2.58,1.81-6.06-.54-8.23-.53-.49-1.9-.89-2.59-.57-.14-.12-.33-.14-.58-.06l-.3.19c-1.9-.12-3.29.58-4.44,2.08.05.12.04.23-.02.33-1.11,1.94-1.96,3.64-1.43,5.96.27,1.17.82,2.08,1.66,2.87.49.26,0,.61-.53.3-.61-.37-1.34-1.69-1.54-2.35-.96-3.21.43-6.9,3.09-8.87.65-.59,1.3-1.01,2.16-1.24.97-.25,2.19-.47,3.09-.1Z"/>
  <path class="st127" d="M76.37,42.54c-2.54,2.3-4.2,6.33-2.56,9.62.15.31,1.12,1.81,1.53,1.51.02-.02-.02-.15,0-.21-.15-.13-.15-.19,0-.21-.14-.56-.04-.94.31-1.13-.32-.3.13-1.18.52-.93.26-.13.48.03.62.21l.2.19c.09.43-.2,3.02-.52,3.17l-.5.03c-.17-.02-.97-.11-1.03-.1-2.79-2.33-2.69-6.63-1.01-9.61.57-1.01,1.38-2.05,2.45-2.54Z"/>
  <path class="st145" d="M15.8,80.95c.23.76.04,1.62.12,2.41.19,1.95,1.64,5.71,3.01,7.08.46.46-.02.49-.42.32-.51-.21-1.42-1.2-1.71-1.68-.69-1.12-.96-2.49-1.21-3.74-.27-1.39-.56-2.75-.51-4.18l-.31.41s-.2-.31-.1-.51c.35-.02.8-.04,1.13-.1Z"/>
  <path class="st82" d="M21.16,75.91c.25.11.56.33.7.56,2.3,3.84,3.01,8.41,1.77,12.73l-.8,1.72-.13.65c.35-.02.73.04,1.08,0,3.24-.43,6.45-1.33,9.64-2.05-3.85.95-7.7,2.2-11.64,2.78.15-.96.92-1.74,1.32-2.64,1.24-2.74,1.07-7.33-.07-10.1-.58-1.4-1.46-2.64-2.59-3.64.05-.3.67-.31.72,0Z"/>
  <path class="st66" d="M11.17,39.14c.09.02.09.05,0,.1l.21,3.6c.09.02.09.05,0,.1l.1,1.24c.73,9.15,1.94,18.33,4.68,27.12l.06.58c.49,1.57,1.04,3.14,1.55,4.68.01.08-.09.12-.11.16-.44-1.49-1.04-2.93-1.52-4.41-3.24-10.03-4.41-20.57-5.08-31.07l-.21-5.3c.05-.1.12-.13.22-.09-.02,1.1,0,2.19.09,3.28Z"/>
  <path class="st55" d="M61.74,84.04s-.11.08-.09.14c.06.2,2.58,1.88,2.97,2.12-.07.01-.15-.02-.21,0-1.24-.26-2.45-1.33-3.35-2.23-1.66-1.66-2.69-3.63-3.24-5.88l.1-.33c-.2-.4-.36-.82-.48-1.25l.18-.19c-.33-.05-.39-.86-.1-1.03-.12-1.16-.09-2.35.1-3.5l-.18-.18c.08-.86.23-1.7.45-2.53l.24-.07c.03-.06.15-.14.21-.21-1.23,5.26-.84,10.11,2.82,14.33.16.19.52.6.58.81Z"/>
  <path class="st32" d="M82.96,41.3c.61.34,1.2.84,1.77,1.5l-.02.14c.91.71,1.19,2.02,1.32,3.15.11,1.02.13,2.38-.39,3.23-.15-.35-.16-.76-.03-1.25l-.33,1.25-.25.11-.13-.13c.9-3.14.34-7.07-3.27-8.1-.95-.18-2.16-.14-3.09.1,1.25-.47,3.2-.48,4.43,0Z"/>
  <path class="st75" d="M11.17,39.14s-.1-.11-.11-.25c-.05-.93,0-1.87-.1-2.8.01-.09-.03-.11-.11-.15-.01,0-.29-.1-.31-.1.49-.87,1.4-1.13,1.94-2.02,1.46-2.41,1.39-5.78,1.05-8.48.07,0,.14,0,.15.02.33.55.32,3.17.28,3.83-.14,2.38-.83,5.2-2.73,6.78.01,1,.03,2.01.05,3.02l-.12.16Z"/>
  <path class="st135" d="M82.76,54.18c-.22-.2.19-.46.41-.51.41-.64.92-1.27,1.44-1.85-.13-.13.05-.31.21-.31,1.26-2.09,1.55-4.43.97-6.76.07-.09.16-.13.27-.14.99,2.6.03,5.97-1.65,8.08-.45.56-1.01,1.15-1.65,1.5Z"/>
  <path class="st84" d="M69.37,55.93v.1c-3.02,1.12-6.41,4.33-8.24,6.95-.39.55-.62,1.27-1.13,1.7,1.99-3.84,5.31-7.17,9.37-8.75Z"/>
  <path class="st101" d="M86.05,44.6c-.23.45.07,1.11.1,1.6.13,2.15-.24,3.53-1.34,5.3-.12.02-.12-.04,0-.21l-.07-.24c.33-.48.52-1.04.66-1.61l.23-.11c.74-1.93.28-4.71-.93-6.39-.07-.17-.11-.27.1-.21.31.38,1.08,1.44,1.24,1.85Z"/>
  <path class="st129" d="M83.17,53.66c-.16.18-.31.4-.41.51-.39.41-.8.8-1.34,1.03-.1.35-.79.58-.93.21-.25.1-.23-.69-.15-.8.04-.06.68-.38.81-.44.72-.19,1.09-.31,1.74-.68.07-.04.12-.01.17.06.14-.14.2-.08.1.1Z"/>
  <path class="st116" d="M81.42,55.21l-.31,1.44c-.23-.14-.41-.2-.62-.31-.39-.19-.32-.73,0-.93.28,0,.67-.09.93-.21Z"/>
  <path class="st69" d="M13.54,19.37c-.56,0-1.17.18-1.71.11-1.22-.17-1.61-.67-3.03-.21-.02.14-.15.2-.41.21-.18.08-.43.14-.62.21,1.18-.93,2.41-.74,3.86-.62.62.05,1.3.17,1.91.31Z"/>
  <path class="st131" d="M84.82,42.74l-.1.21c-.39-.54-.98-1.05-1.55-1.39-.05-.03-.43-.18-.2-.26.86.33,1.28.74,1.85,1.44Z"/>
  <path class="st68" d="M55.15,56.34c-.41-.26-.13-1.01-.21-1.44.07.45.13.96.21,1.44Z"/>
  <path class="st142" d="M54.33,49.75c-.37-.4-.16-1.12-.21-1.65.12.48.15,1.11.21,1.65Z"/>
  <path class="st75" d="M5.09,28.02c-.17-.38-.17-1.14,0-1.54-.02.51-.02,1.04,0,1.54Z"/>
  <path class="st0" d="M89.56,78.69c-.04-.36.12-.8.41-1.03-.13.41-.26.67-.41,1.03Z"/>
  <path class="st68" d="M54.74,53.15c-.36-.2-.18-.85-.21-1.24.13.33.17.85.21,1.24Z"/>
  <path class="st142" d="M54.02,47.07s-.09-.11-.11-.25c-.04-.35.03-.74,0-1.09,0,.02.09.12.11.25.03.35-.03.74,0,1.09Z"/>
  <path class="st8" d="M61.74,19.67c.31.2.2.33.31.51-.32-.1-.39-.46-.52-.62.07.04.14.06.21.1Z"/>
  <path class="st145" d="M16.52,78.89c.08-.25.2-.48.31-.72,0,.3.11.72-.31.72Z"/>
  <path class="st89" d="M53.4,37.9v.1c-.17-.24-.18-.87,0-1.13.03.32,0,.7,0,1.03Z"/>
  <path class="st147" d="M86.16,83.94c-.08.09-.14.23-.31.41l-.1-.41h.41Z"/>
  <path class="st142" d="M53.5,38.93c-.19-.2-.1-.64-.1-.93,0-.03,0-.07,0-.1.19.24.1.71.1,1.03Z"/>
  <path class="st142" d="M15.8,36.36c1.58.22,4.77-.59,6.53-.83,6.79-.91,13.2-1.36,20.09-.92,1.85.12,4.15.19,5.93.67.15.04.26.21.47.25.44.09.9-.14,1.21-.08s.76.64.97.69.34-.17.69.03c.15.09.64.78.71.94.23.6.09,2.15.31,2.98.26.97.12.46.03,1.4-.06.66.01,1.48-.06,2.13-.05.48-.34.95-.21,1.49-.17.03-.12-.27-.26-.31-.11-.03-.34.19-.35.26-.06.26.44.29.49.37.02.03.12.67.11.73-.05.24-.51.36-.63.61-.13.28-.06.61-.08.9-.41-.45-1.31.05-1.55.46-.05.09.01,1.8-.4,1.5.05-.25-.52-.46-.52-.57,0-.05.26-.18.29-.33.03-.13-.07-.27-.07-.39.05-.69.03-1.33-.23-2.01-.25-1.56-.77-3.04-1.55-4.43-.29.13-.59-.39-.41-.62-5.21-6.12-13.01-2.07-15.85,4.34-.16.36-.05.5.29.5.67-1.16,1.76-2.31,2.75-3.25.18-.17.42-.27.65-.36,1.54-1.31,3.22-2.28,5.26-2.48,4.68-.47,6.89,4.16,6.24,8.23-.46,2.86-2.43,4.99-5.22,5.82-2.16.65-4.59.87-6.79.58-2.19-.13-4.38-.3-6.57-.52-2.83-.12-6.12.5-7.8,3.01-.2.02-.35.15-.46.39v.33c-2.39,4.25.64,9.84,4.33,12.34l.43.06c4.64,3.02,10.79,2.74,15.64.35l-.02-.14c.87-.48,1.73-1.02,2.57-1.6.27-.23.1-.49-.23-.42-4.72,2.75-10.61,3.68-15.63,1.15-.55-.28-1.88-.96-2.14-1.41-.05-.08-.08-.17-.11-.26-3.8-3.31-4.38-10.92,1.88-11.51,1.81-.19,3.62-.15,5.42.1,3.91.45,8.08.82,11.86-.69l.21.04c.52.24.79-.18,1.21-.29.19-.05.55.02.63-.04.15-.1-.09-.7.57-.49.14.04.15.12.17.24.05.25.04,1.64-.1,1.75-.08.07-.3.05-.36.15-.11.16,0,.58-.09.84-.09.28-.41.32-.46.47-.06.19.13.51.09.8-.06.49-.29,1.67-.44,2.14-.25.78-.86,1.37-1.16,2.14-.4,1.06-.37,2.19-.11,3.3.19.8.87,1.68.97,2.42.07.5,0,1.63.01,2.25.03,1.31-.36,2.95-1.92,3.14-.28.03-.51-.09-.7-.07-.18.02-.38.23-.64.27-.5.08-1.13-.07-1.64.01-.8.13-.34.23-1.36.13-.36-.04-1.06.11-1.54.08-2.36-.14-4.74-.37-7.1-.52-.59-.04-1.31.08-1.86,0-.36-.05-.71-.36-1.14-.38-.33-.02-.79.18-1.1.15s-.53-.33-.74-.34c-.49-.04-1.22.08-1.65.05-.29-.02-.61-.35-.94-.4-.58-.09-1.53.12-2.03-.03-.29-.09-.35-.58-.65-.58-.19,0-.32.22-.52.27-1.02.24-.6-.36-.8-.7-.08-.14-.85-.46-1.1-.96-.19-.37-.56-1.46-.73-1.94-.87-2.36-1.42-4.81-1.92-7.29.36-.24.57.06.64.88.18.27.29.44.35.77-.05.22-.11,1.2.08,1.3.02.01.42-.24.43-.26.14-.17.22-2.6-.39-2.72-.2-1.32-.33-2.7-.12-4.02-.12-.31-.21-.62-.26-.94l.13-2.14c-.48-.94-.5-1.97-.07-3.09l.05-.54c-.3-.71-.91-2.19.16-2.44.09-1.25.1-2.49.02-3.72-1.04-.12-1.06-.43-.39-1.15-.62-.63-.7-1.64.37-1.71.05-1.39.06-2.78.03-4.19-.72.1-1.28-.22-.81-.99.02-.03.06-.04.11-.05.06-.01.12,0,.18,0l.09-.11c-.6-.23-.19-1.1.33-1.02Z"/>
  <path class="st45" d="M13.95,36.77c.59.49.78,1.41.51,2.12.27,1.7.32,3.48.17,5.32-.11,2.03.08,3.98.55,5.85-.43.96-.31,1.87-.14,2.92.38,1.68.49,3.38.45,5.1.1.49.56,4.28-.67,3.34-.23-1.26-.5-2.49-.77-3.74-.23-1.66-.63-3.37-.79-5.01-.39-3.99-.9-8.24-.96-12.29-.08-1.32-.1-2.64-.05-3.96,0-.54.81-.76,1.23-.57.28.13.81.7.48.92Z"/>
  <path class="st20" d="M15.39,37.49c-.23.24-.23.51-.21.82.23.03.75-.09.88.1.22.31-.07,3.63.05,4.28-.05.43-.67.09-.8.54-.24.78.43.88.4,1.21-.03.42-.32.32-.41.53-.26.62.58.17.76.44.03.04.15.88.15.99,0,.25-.11.47-.11.71,0,.38.09,2.25-.1,2.38-.24.16-.45-.18-.52.51-.08.88.42,1.45.42,1.74.02.9-.62,2.03-.29,2.97.06.17.24.23.28.44.14.71-.23,2.27-.05,2.73s.27.41.14,1.08c-.16.92-.09.53,0,1.35.07.6-.05,1.45.13,2.03.08.24.42.33.49.75.05.31.05,2.07-.09,2.25-.06.09-.22.06-.31.13s-.2.42-.42.24c-.03-.02-.21-.58-.22-.66-.04-.33.09-.76.05-1-.03-.19-.26-.39-.33-.58-.11-.32-.03-.93-.44-.95-.33-1.63-.6-3.19-.82-4.84l.44,1.67c.44.54.24.94.27,1.47.04.8.74.48.73-.1-.02-.87-.18-1.9-.21-2.78-.05-1.22.09-2.21-.17-3.43-.22-1.02-.46-2.5-.43-3.58,0-.3.34-.5.29-.91-.03-.26-.25-.68-.3-1.05-.38-2.89-.22-5.99-.21-8.95,0-.37-.22-.79-.21-1.13,0-.25.16-.5.16-.72,0-.07-.41-1.24-.47-1.39.37-.27,1.32.32,1.44.72Z"/>
  <path class="st17" d="M46.09,62.93l.06.29c-1.24,1.99-.42,5.05,1.92,5.82l.18.28c.99.12,1.97-.03,2.95-.45l.24.14c.11.49-.59.93-.99,1.17-.92.54-2.25.74-3.13.07l-.27.06c-.47-.23-.84-.59-1.18-.99-.37.03-.78-.57-.82-.93-.43-.56-.77-1.26-.93-1.96.2-.38.07-.83.13-1.26.17-1.22.82-1.72,1.83-2.24Z"/>
  <path class="st102" d="M45.88,69.32c1.95,1.75,2.34,4.49,1.33,6.88.45.08.92.08,1.42.01l.14.22c.13.17.06.22-.13.24-2.53.29-5.35.48-7.89.47-.12,0-.24-.03-.36-.06s-.25-.08-.37-.13c-.38-.16-.79-.23-1.24-.2l-.1-.21,3.55-.29c.89.07,2.08.04,2.96-.15.56-.12.94-.82,1.42-1.15.35-1.79.21-3.27-.69-4.88-.25-.44-.65-.85-.85-1.22-.09-.17-.15-.27-.01-.45.25.32.59.59.82.93Z"/>
  <path class="st102" d="M12.2,36.15c.1.22.09.93-.1,1.13-.37,2.14-.03,4.24.1,6.44.52,8.46,1.43,16.93,3.89,25.05.54,1.77,1.27,4.26,2.29,5.72.04.05.74.76.79.78.46.26.57-.13,1-.09.23.02.54.25.78.31l-.15.2c-.68-.06-1.36-.03-2.03.09l-.09-.09c-.06.05-.13.11-.2.09-.74-.17-2.51-5.88-2.81-6.89-.6-2.05-1.16-4.21-1.42-6.28-.99-4.84-1.53-9.76-1.96-14.67-.28-3.14-.76-6.86-.62-10,.01-.33.11-1.52.26-1.7.08-.09.23-.08.25-.1Z"/>
  <path class="st128" d="M49.28,46.35c.31,4.06-1.46,7.86-5.25,9.58-2.43,1.11-5.85,1.25-8.5,1.13-3.67-.17-11.37-2.13-13.18,2.27-1.26,3.06.15,6.42,2.32,8.65-.1.03-.22.05-.32,0-.37-.15-1.25-1.37-1.49-1.77-2.15-3.49-1.97-8.8,2.66-9.9,1.27-.3,2.82-.54,4.06-.19l1.08-.11c.36.24.8.32,1.32.22,4.93.52,11.33,1.18,14.93-2.96,2.63-3.03,2.55-7.46.83-10.93v-.43c.86,1.24,1.44,2.9,1.56,4.43Z"/>
  <path class="st149" d="M29.4,76.11c2.24.05,4.54.31,6.8.41.34-.08.69-.09,1.03,0,.47.02.97-.04,1.44,0,.22.02.91.08,1.06.12.14.04.22.17.28.29l-.26.14c-2.17.01-4.35.05-6.54.12l-.52-.15c-.71-.22-1.44-.29-2.2-.21l-.16-.21c-.6.02-1.18-.04-1.75-.21-.02.09-.05.09-.1,0-.32,0-.43-.4-.2-.5l1.13.19Z"/>
  <path class="st149" d="M20.95,75.5c.17,0,.34,0,.52,0,.82-.12,1.57-.05,2.27.21,1.06.07,2.14.12,3.19.21.47-.11,1.3-.17,1.34.42-.69.04-1.37.04-2.06-.01-.09.04-.19.08-.29.11-.4.1-3.3-.1-3.67-.26-.09-.04-.18-.1-.27-.16-.22.34-.58.13-.82-.1-.28-.02-.46,0-.72,0-.6-.02-1.08-.17-1.75,0-.27-.06-.26-.13,0-.21.32-.05.66-.19.98-.2.41-.02.92,0,1.29,0Z"/>
  <path class="st46" d="M14.36,35.64c.17,1.02.51.46,1.08.51.17.02.31.2.37.21-.06.19-.36.32-.4.48-.17.68.56.29.84.46.34.21.18.54-.16.48-.04,0-.57-.24-.69-.29-.49-.21-.92-.57-1.44-.72-.32-.81-1.11-1.34-1.63-.34-.03,1.31-.04,2.63-.02,3.94l-.21-3.09c.06-.33.05-.78.1-1.13.06-.06.02-.24.18-.31.46-.2,1.46-.12,1.98-.21Z"/>
  <path class="st102" d="M29.4,76.11c-.22,0-.45,0-.67,0-.33,0-.64-.23-.26.31-.54.31-1.77.29-2.27-.1h1.85c.32-.28-1.01-.4-1.13-.41.65-.5,1.74.06,2.47.21Z"/>
  <path class="st102" d="M21.47,75.5c.59-.13,1.41-.22,1.98-.07.17.05.34.03.29.28-.74-.05-1.56-.18-2.27-.21Z"/>
  <path class="st142" d="M48.97,52.12c.13.08.05.74-.3.51-.23-.15,0-.71.3-.51Z"/>
  <path class="st102" d="M37.23,76.53c-.33-.01-.69.02-1.03,0,.21-.17.8-.18,1.03,0Z"/>
  <path class="st33" d="M14.46,30.08c-.02-1.33.1-3.04-.1-4.33.06-.2.23-.27.29-.03.08.33.15.98.28,1.27.07.17.43.35.51.52.07.14-.02,1.08-.07,1.26-.05.19-.4.42-.47.66-.08.28.11.96-.44.64Z"/>
  <path class="st74" d="M47.43,26.78c.28.11.19-.25.37-.29.09-.02.23.12.35.04.06-.04.07-.21.12-.24.08-.05,1.73-.06,1.87,0,.21.07.17.31.17.5.33.09.14-.22.22-.29.03-.03.77-.22.86-.23.65-.07.64.26.84.31.15.03.27-.26.5-.3.35-.07,1.56-.06,1.77.24.06.08.01.26.03.27.22.24.2-.28.21-.29.03-.03.69-.11.74-.1.26.06.4.56.59.65.42.21.61-.26.52.67-.59.12-.35-.24-.42-.3-.27-.25-.48.25-.57.28s-.77.23-.81.23c-.06,0-.04-.19-.12-.21-.52-.13-1,.35-.86-.52-.63-.07-.33.09-.4.46-.02.11-.24.02-.3.08-.1.1.16.4-.35.26-.62-.16-.27,0-.74.03-.93.08-4.24.15-5.06,0-.27-.05-.17-.29-.4-.32-.64-.08-2.02-.04-2.69,0-.13,0-.35.12-.36.11-.03-.04.03-.24,0-.34-.04-.13-.47-.19-.21-.34s.7.03.97-.07c.14-.05.13-.27.24-.3.19-.05.46.04.68,0,.07-.02.37-.49.46-.51.4-.11,1.78-.12,1.78.51Z"/>
  <path class="st109" d="M80.18,56.75c.72.8,1.71,1.57,2.37,2.42,2.5,3.23,2.96,8.65,2.04,12.54-1.17,4.95-3.72,8.42-7.39,11.82-.05.3-.27.57-.64.79l.13.14c-.18.23-.48.38-.72.51-.66.38-2.03.99-2.75,1.11-.13.02-.86.1-.91.09-.1-.02-.23-.49-.82-.49-.5,0-.62.46-.98.58-.22.08-.29-.06-.31-.06.22-.78-.16-.99.78-1.12,1.11-.16,2.5-.59,3.51-1.12.56-.29,1.12-.88,1.5-1.13.15-.09.49-.09.79-.29.32-.21,2.16-1.96,2.38-2.26.25-.34.18-.48.59-.87.81-.79,1.41-1.74,1.96-2.75,2.63-4.76,3.71-10.72.69-15.59-1.05-1.7-2.17-3.09-3.94-4.09-.25-.14-.94-.24-1.34-.41-.95-.42-1.34-.95-2.56-.85-.46.04-.76.42-1.07-.05.32-.57.9-.04,1.13-.57,2.32-.08,3.6.49,5.56,1.65Z"/>
  <path class="st119" d="M81.73,60.87c4.63,6.19.84,17.38-5.25,21.32-.26.24-.5.35-.72.31-.06-.12-.05-.25.03-.42-.37-.92.03-1.38.66-1.99,6.74-4.42,9.25-14.61,2-19.86-2.06-1.05.31-1.38,1.02-.44.19.09.98.22.82-.15-.25-.1-.32-.21-.21-.31.64.2,1.26.95,1.65,1.54Z"/>
  <path class="st19" d="M70.91,57.47c.09.03.09.06,0,.1v.12c-.24.04-.45.13-.62.29,0,.31-.4.42-.62.21-.08.14-.17.18-.21,0-3.13,1.32-5.69,4.2-7.44,7.13-.1.02-.19.05-.23.1-2.01,3.23-2.57,8.04-1.7,11.71.45,1.37,1.03,2.76,1.96,3.91l.32.1c.52.7,1.19,1.27,1.92,1.74l.13.32.37-.03c1.21.65,2.55,1.04,3.92,1.14.13.12.28.19.45.22l.34-.21c1.24-.04,2.44-.36,3.6-.79l.39.07c.07-.3.58-.68.82-.41-.02-.31.18-.41.41-.21.03-.09.06-.09.1,0,.29-.51.56-.68.82-.51.03-.09.06-.09.1,0,.16-.1.54-.19.72-.31-.49.52-1.33.92-1.99,1.25-.22.11-.77.24-.9.34s-.08.33-.11.36c-.05.05-.44-.11-.64-.08-.41.06-1.09.42-1.48.49-1.71.33-3.97.08-5.64-.32-.21-.05-2.56-1.3-2.76-1.46-.45-.35-2.2-2.63-2.42-3.15-.06-.14.04-.31,0-.41-.07-.17-.72-.86-.75-1-.05-.18.08-.35.06-.48-.13-.72-.57-1.62-.66-2.39-.15-1.24.01-4.02.3-5.22.2-.81.5-1.24.61-2.06.09-.7,1.2-2.82,1.58-3.58.11-.23.42-.22.54-.34.14-.14.37-.75.5-.89.37-.39.87-.83,1.28-1.3,1.84-2.08,4.16-3.7,6.9-4.48Z"/>
  <path class="st53" d="M81.73,60.87c-.45-.6-1.09-1.09-1.65-1.54-.24.12-.84-.29-.8-.53l-.34-.29c-.16.2-.23.16-.21-.1-.5.03-1.06-.18-1.34-.62-.13.07-.26.07-.4.04-1.97-.43-3.89-.74-5.88-.18l-.21-.06v-.1c3.77-1.07,7.87-.26,10.46,2.78.15.18.32.38.36.62Z"/>
  <path class="st31" d="M85.64,62.62c-.91.04-.09,1.55.03,2.08.31,1.27.33,3.33.27,4.67-.13,3.07-1.47,6.53-3.21,9.05-.11.16-1.65,2.27-1.84,2.03-.09-.55.5-.93.72-1.29,2.44-3.97,4.09-8.49,3.69-13.27-.13-1.49-.63-2.96-1.01-4.39.4.32.89.88,1.34,1.13Z"/>
  <path class="st147" d="M77.2,83.53c-.1.5.26.29.62.21-.37.22-.75.54-1.13.72-.16.08-.51.07-.67.31-.22-.2.09-.19.16-.28.44-.59.57-.53,1.03-.96Z"/>
  <path class="st79" d="M10.55,19.26c.32.09.59.23.82.41-.05.24.1.31.2.46,2.04,2.83,2.72,6.09,2.47,9.58-.11,1.49-.98,4.72-2.01,5.82-.41.44-.78.27-.78.98,0,.29.11.54.12.82.14,8.37,1,16.99,2.67,25.19l.18.42c.71,3.6,1.71,7.17,2.96,10.52-.01.12-.07.21-.15.29-.19-.48-.38-.96-.56-1.44-.06-.16-.06-.34-.26-.41-2.74-8.76-4.33-18.5-4.74-27.7l-.1-1.24s0-.07,0-.1l-.21-3.6s0-.07,0-.1c-.04-1.07.09-2.17-.08-3.23,2.51-2.29,2.94-5.62,2.76-8.87-.03-.51-.1-1.24-.31-1.7,0-.03,0-.07,0-.1-.49-2.2-1.35-4.45-3.38-5.65l-.12-.32c.17,0,.35-.02.52,0Z"/>
  <path class="st121" d="M14.26,62.62c.73,3.6,2.26,9.64,4.1,12.74.11.18.31.31.33.34.02.03-.01.15,0,.21-.17.04-.46.49-.8.18-.18-.82-.54-1.58-.84-2.35-.13-1.02-.65-2.03-.96-3.01-.85-2.7-1.47-5.45-2.03-8.22l.21.1Z"/>
  <path class="st122" d="M12.92,20.09c3.35.67,6.74,1.28,10.19,1.83l.53.23-.21.13c-3.1-.38-6.24-.86-9.33-1.49l-1.48-.49c-.18-.05-.35-.14-.52-.21-.14-.06-.23-.17-.31-.21-.06-.03-.06-.06,0-.1.3.11.77.2,1.13.31Z"/>
  <path class="st24" d="M11.78,19.78v.1c-.15-.07-.27-.13-.41-.21-.25-.13-.6-.2-.82-.41.68.07.8.36,1.24.51Z"/>
  <path class="st145" d="M18.07,77.86c-.65,1.61-1.08,3.14-.93,4.89.18,2.02,1.02,3.58,2.02,5.3-.31.78-1.26-.39-1.5-.77-1.24-1.91-1.5-4.69-1.12-6.89.15-.89.59-2.24,1.53-2.53Z"/>
  <path class="st9" d="M23.01,87.24c.21.32-.13,1.08-.52,1.13-.16.2-.86,1.08-1.13.82-.1-.09.91-2.16,1-2.55.3-1.25.22-3.53-.1-4.78-.24-.95-.71-1.86-1.1-2.76.27-.06.26.05.39.17.73.66,1.19,1.52,1.43,2.49.46,1.81.41,3.66.03,5.48Z"/>
  <path class="st145" d="M18.99,80.03c-.05.6-.41,1.12-.49,1.73s.02,1.46.26,2.06c.13.32.49.56.54.8.02.1.11.97.11,1.03-.07.75-.77-.02-.95-.29-.75-1.13-.84-2.41-.69-3.72.07-.63.43-1.72,1.22-1.61Z"/>
  <path class="st23" d="M20.64,81.26c.07-.07.44.02.57.1.16.1.33.44.4.63.41.95.44,3.24-.03,4.19-.22.44-1.05,1.24-.95.3.03-.33.42-.88.49-1.37.09-.63.04-1.8-.1-2.42-.06-.28-.59-1.22-.39-1.42Z"/>
  <path class="st81" d="M21.47,78.07c-2.31-.63-3.61.98-3.92,3.09-.03.03-.13-.06-.15-.1-.14-.28.19-1.52.31-1.86.54-1.5,2.6-2.71,3.76-1.13Z"/>
  <path class="st54" d="M23.01,87.24c.13-.3.41-.52.31-.93.3-.09.23.27.21.47-.06.51-.42,1.56-.65,2.03-.11.23-.72,1.19-.9,1.27-.09.04-.41-.26-.62-.16-.11-.09.75-.77.87-.94.2-.28.17-.43.27-.61.2-.4.34-.73.52-1.13Z"/>
  <path class="st73" d="M18.79,81.47c-.02-1.18,1.5-2.3,2.37-1.18,0,.18-1.18.24-1.41.34-.4.17-.54.74-.95.85Z"/>
  <path class="st145" d="M19.36,82.09c.37-.11,1.01.91.66,1.29-.03.04-.63.34-.67.33-.42-.03-.3-1.52,0-1.62Z"/>
  <path class="st106" d="M58.14,69.11c-.27.68-.4,2.02-.52,2.78-.15,1.15-.22,2.32-.21,3.5-.11.1-.23.2-.38.24-.77.17-1.89.35-2.61.18-.84.44-1.96.62-2.88.41-.7.09-1.41.16-2.13.23l-.14-.12c-.92.04-.59-.62-.24-1.12.14-1.64-.51-3.52-1.7-4.68l-.02-.28c1.56.52,3.15.09,4.12-1.24-.08-.04-.16-.12-.13-.17.54-1,.72-1.55.47-2.77l.18-.15c.79.18.1.63.21,1.13.93,0,1.05-1.82,1.65-2.11.16-.07.35-.04.51-.11.41-.19.44-.99.42-1.39.75.02,1.3.14,1.49-.72l.36,1.09c.03,1.18.59,2.35.82,3.5.06.28-.04.59.03.89.03.11.52,1.08.69.9Z"/>
  <path class="st34" d="M51.13,64.37l-.16.16c-1.25-.38-1.43.36-1.45,1.41.07.61.17,3.14-.42,3.45-.2.1-.64-.02-.85-.08-1.86-.59-2.76-1.94-2.87-3.87-.06-1,.15-1.69.71-2.51,2.07-1.08,3.79-.39,5.05,1.44Z"/>
  <path class="st108" d="M51.13,64.37c.28.41.7,1.07.82,1.54.16.61.18,1.96-.12,2.51-.02.03-.36.54-.39.58-.99.29-1.63.65-2.72.51-.25-.03-.34-.15-.47-.2.37,0,.71.12.9-.28.12-.26.22-1.28.24-1.62.04-.79-.2-1.73.05-2.42.03-.08.34-.68.38-.7.13-.08,1.11-.04,1.32.09Z"/>
  <path class="st75" d="M11.48,33.47c.65-.04.24.4-.08.48-.19.05-.55.03-.68.12s.01.5-.34.61c-1.79.54-2.92-1.61-3.36-2.99-.64-2.01-.85-6.22.59-7.91.19-.23,1.03-.74.86-.17-.12.4-.58.97-.75,1.52-.76,2.48-.12,8.83,3.55,8.34.04-.28.1-.25.21,0Z"/>
  <path class="st75" d="M12.92,30.8c.16.28-.53,1.57-.76,1.74h-.27c-1.38.58-.52-.25-.29-.74,1.2-2.59,1.16-7.37-1.31-9.24-.29-.22-1.9-.93-.41-.93.92,0,1.95.36,2.4,1.21.94,1.76,1.23,3.98,1.04,5.94-.07.68-.38,1.33-.4,2.02Z"/>
  <path class="st75" d="M7.87,20.91c-.28.79-.86,1.53-1.15,2.3-.34.89-.45,1.95-.5,2.9-.12,2.49.03,5.06,1.14,7.31l-1.08.47c-.22-.03-.81-3.15-.87-3.57-.33-2.33-.42-5.07.53-7.27.34-.78,1-2.1,1.93-2.14Z"/>
  <path class="st75" d="M9.65,30.67c.19.18,1.52.35,1.52.49-.11.23-.58.32-.67.46-.1.16,0,.42-.15.57-.36.32-.92.07-1.24-.2-1.28-1.1-1.52-4.01-.97-5.51.34-.94,1.11-.78.97.14-.08.56-.33,1.21-.3,1.84.02.39.58,1.96.84,2.21Z"/>
  <path class="st75" d="M11.45,24.85c.55.65.65,2.69.53,3.52-.07.45-.63,2.04-1.17,2-.51-.05.05-.85.11-1.1.3-1.22.17-2.91-.63-3.91-.28-.35-1.25-.8-.58-1.11.84-.39.91,0,1.36.44.1.09.31.1.38.18Z"/>
  <path class="st112" d="M11.48,33.47c-.06.01-.14,0-.21,0-.5-.22.47-.61.59-.75.05-.06.01-.16.03-.18.56-.65.62-1.14,1.03-1.75.15-.22.38-.47.4-.06.02.49-.66,2.39-1.13,2.59-.12.05-.53.12-.72.16Z"/>
  <path class="st75" d="M10.03,19.26c2,1.18,3.22,3.72,3.5,5.97-.6-1.76-1.03-3.6-2.53-4.84-.78-.65-1.61-.88-2.62-.93.13-.06.28-.16.41-.21.41,0,.83,0,1.24,0Z"/>
  <path class="st75" d="M9.21,28.02c1.3-.21,1.51.58.87,1.54-.56.84-1.06-1.08-.87-1.54Z"/>
  <path class="st51" d="M56.7,77.56c.15-.35,1.18-.75,1.09-.07l.15.37c.29.79.46,1.64.81,2.44,1.17,2.67,3.16,4.61,5.68,6.01-.72.2-.49,0-.97,0-.84.02-1.08.45-2.14-.04-3.15-1.44-4.09-4.36-4.59-7.57-.06-.38-.13-.77-.03-1.15Z"/>
  <path class="st64" d="M57.93,77.86c-.02-.07-.36-.27-.21-.62-.37.09-.63.27-1.03.31-.13.01-.4.02-.52,0-.01,0-.2-.1-.21-.1-.26.18-.4-.09-.21-.31-.09-.03-.09-.06,0-.1-.09-.41,1.57-.86,1.76-.73.04.03.07.06.09.11.06.45.29.97.31,1.44Z"/>
  <path class="st3" d="M60.82,18.85c.16.13.19.18.31.31-.69.02-1.29-.14-2-.09-1.33.1-2.74.63-4.06.89-5.07,1-10.21,2.26-15.33,3-7.23,1.05-13.25.07-20.31-1.09-2.29-.38-4.74-.47-6.82-1.57,2.21.64,4.66.88,6.94,1.25,1.36.22,2.72.54,4.09.6.67-.18,1.66-.03,2.27.31.72.09,1.41.23,2.06.41.1-.24.2-.24.31,0,1.56.1,3.14.17,4.74.21.17-.2.35-.2.52,0,.49.04.97.07,1.44.1.36-.1.76-.07,1.13,0,.05-.06.09-.11.15-.15.15-.08,2.91-.43,3.36-.47.06,0,.12.04.19.11.92-.29,1.88-.45,2.88-.48l.62-.13c1.06-.42,2.36-.71,3.5-.72l1.13-.21c.48-.37,1.16-.53,1.75-.41l1.13-.31c.03-.08.07-.15.12-.16,2.12-.56,4.45-1.12,6.62-1.46,1.14-.18,2.17-.33,3.25.08Z"/>
  <path class="st8" d="M60.82,18.85c-.4.25-.74-.11-1.18-.11-2.42.03-6.28,1.17-8.81,1.65l-1.13.31c-.59.12-1.17.27-1.75.41l-1.13.21c-1.15.28-2.33.55-3.5.72-1.11.16-2.22.32-3.33.49l-.17.13c-1.18.18-2.56.44-3.71.51-.39-.03-.76-.07-1.13-.1-.48.09-.96.08-1.44,0-.17,0-.34,0-.52,0-.07-.01-.11-.03-.1-.1-.44-.09-.9-.08-1.34,0-1.1.03-2.2,0-3.3-.1-.1,0-.21,0-.31,0-.63-.21-1.32-.34-2.06-.41-.78-.09-1.49-.18-2.27-.31-2.01-.33-4.08-.69-6.1-1.06-1.51-.27-3.15-.55-4.61-1,4.43.72,8.87,1.42,13.31,2.09,2.39.36,4.22.4,6.63.48,1.58.05,2.89.31,4.52.1,4-.54,8.01-1.42,11.94-2.28,2.99-.66,6.71-1.85,9.71-2.03.85-.05,1.15-.11,1.8.41Z"/>
  <path class="st61" d="M21.98,76.01c.21.19.36.47.44.86.97,1.66,1.52,3.61,1.81,5.55.36,2.36.18,4.78-.26,7.02-.1.44.13.56.7.36,1.31-.35,2.67-.62,4.09-.8,5.58-1.4,11.21-2.43,16.9-3.09,2.44.09,4.87.03,7.28-.19,3.16-.34,3.33-5.2,2.43-7.58l.09-.39c-.1-.28.23-.44.41-.21-.03.7.29,1.34.4,2.02.21,1.3.22,3.83-.01,5.11-.03.14-.56,1.05-.62,1.08-.08.06-.31.02-.46.1-2.95,1.53-5.67.57-8.74.63-.95.02-2.47.39-3.49.53-4.83.69-9.18,1.97-13.91,2.99-1.39.3-4.07.97-5.37,1.02-.87.03-.19-1.26-.05-1.86.95-4.01.63-8.91-1.77-12.39-.23-.34-.56-.54-.7-.89.28.02.55.08.82.1Z"/>
  <path class="st41" d="M51.55,76.22c.07.37-.27.48-1.03.33-.74.24-1.39.43-2.2.51l-4.52.32c-1.81.43-.75.42.4.27,3.51.27,7.16-.16,10.65-.63.32,0,.63.04.93.12.07.07.14.26.21.31-.03.04-.06.08-.1.1-.09.04-.39.2-.41.21-.05.38-.62.23-.82,0-.85.34-1.78.5-2.77.47-2.52.08-5.1.3-7.52.55-.19-.13-.39-.12-.61.02l-.79-.1c-2.79.26-5.57.26-8.33.02-.15-.2-.46-.22-.92-.07-.68-.31-1.24-.33-1.99-.34-.34-.07-.99-.38-.75-.76-.25-.45,1.54-.66,1.63-.62.05.02.09.06.13.1,2.34-.27,4.93-.07,7.31-.1,2.93-.04,5.63-.11,8.59-.42.09,0,.15-.09.17-.09-.01-.22.16-.26.52-.1.75-.08,1.58-.02,2.27-.1Z"/>
  <path class="st150" d="M79.77,51.81c.1-.22.6.04.72.19.25.31.19,1.62-.21,1.87,0,.04-.09.11-.1.21l-.21,1.83c-.07.12-.2.1-.3.02-.32-.14-.85-.41-1.13-.51l-.15-.1c-.08-.15.42-2.95.52-3.25.21-.62.34-.55.86-.26Z"/>
  <path class="st15" d="M76.68,50.98c.19.17-.02.11,0,.1.5-.22,2.69.21,2.16,1.24l-.42,2.05c.03.4-.03.72-.18.93-.22-.07-.58-.14-.82-.21l-.17-.18c.16-1.12.35-2.22.57-3.32-.14.03-.24-.04-.29-.21-.08.3-.67.32-.72,0-.22-.03-.4-.18-.62-.21-.12-.35.36-.53.52-.21Z"/>
  <path class="st36" d="M79.36,51.4c-.16,0,0,.1.49.26l-.07.15c-.15-.05-.35-.05-.51-.1l-.16.41-.57,3.29c-.09-.04-.21-.07-.31-.1-.3-.84.58-2.86.4-3.53-.16-.57-1.29-.5-1.78-.59-.22-.04-.36.11-.16-.2.2-.28.56-.34,1.08-.2.47.06,1.4.21,1.6.61Z"/>
  <path class="st13" d="M77.5,51.4l.26.12c.13.25-.56,3.31-.74,3.4l-.34-.02c-.18-.03-.55-.08-.72-.1.17-.1.35-.02.43-.24.12-.33.34-1.58.38-1.98s0-.78.01-1.17c.23.03.49-.02.72,0Z"/>
  <path class="st97" d="M83.58,51.5c.2,0,.2.15,0,.41l-1.34,1.51c-.06.14.15.22.32.14.14-.39.89-1.24,1.34-1.03-.07.33-.51.89-.82,1.03-.61.49-2.27.84-2.58,1.18-.24.26,0,.45,0,.67,0,.34-.19.64,0,.93-.22-.12-.49-.2-.72-.31.1-.21.17-.26.19-.14.08-.48.15-.95.22-1.41,1.42-.65,2.43-1.8,3.4-2.99Z"/>
  <path class="st148" d="M77.4,55.1c-.22-.05-.54-.17-.72-.21.35,0,.41-.72.49-1.01.15-.59.33-1.37.42-1.96.03-.2.04-.36-.08-.54.13.01.3-.03.42.05.34.24-.34,1.87-.41,2.28-.08.44.01.94-.11,1.38Z"/>
  <path class="st50" d="M80.18,54.49c.04.67.07.62-.1,1.29-.06.24.13.29-.31.25-.04-.02-.07-.09-.1-.1.31.06.18-.15.22-.34.1-.5.2-1.01.29-1.51,0,.14,0,.28,0,.41Z"/>
  <path class="st114" d="M83.58,50.88c-.24.11-.19,0-.1-.21l-.08-.29c1.01-2.08,1.45-4.89-.3-6.7l-.04-.31c-.36-.61-1.6-.98-2.47-.93l-.1-.1c-.25-.08-.46-.18-.62-.31.35-.09,1.18-.34,1.49-.31.14.02.24.16.34.18.84.15,1.09.21,1.73.85,2.07,2.1,1.59,5.82.15,8.14Z"/>
  <path class="st10" d="M75.13,44.29c.33-.5,2.34-2.35,2.9-1.87.09.08.1.24.08.35s-1.59,1.38-1.81,1.54c-.03.02-.08,0-.14-.02l-.18-.13c-2.24,2.42-2.98,6.5-.65,9.09-.02.06.02.15,0,.21-.54-.23-.98-.97-1.25-1.48-1.4-2.6-.57-5.43,1.05-7.69Z"/>
  <path class="st60" d="M85.02,49.44c.23.28.05.76-.31.82l-.5.95c-.33.85-.89,1.59-1.69,2.21l.03.13c-.12.08-.7.57-.72.16.41-.62,1.31-1.25,1.65-1.85.09-.16.08-.33.1-.36,1.35-2.32,2.15-4.99,1.05-7.59-.61-1.45-1.61-2.1-3.01-2.71,2.74.51,3.99,3.46,3.8,6.01-.06.75-.34,1.48-.4,2.23Z"/>
  <path class="st21" d="M79.87,42.02c.28.02.62-.1.62.31l-.13.11c-2.33.17-4.12,1.91-5.06,3.95l-.17.06c-.03.07-.06.07-.1,0l-.11-.27c.26-.64.56-1.27.96-1.84l.29-.05c.25-.41,1.55-1.18,1.7-1.44.06-.1.06-.2.05-.31-1.18-.08-1.93,1.1-2.78,1.75,1.23-1.72,2.6-2.43,4.74-2.27Z"/>
  <path class="st95" d="M83.58,50.88c-.81,1.31-1.91,2.31-3.3,2.99.09-.43.24-1.28.08-1.68-.06-.16-.44-.33-.6-.38-.12-.34-.99-.33-.41-.41.38-.26,1.64.16,1.75.62,0,.28-.03.58-.07.89.24-.15.47-.31.69-.47.54-.55,1.04-1.13,1.5-1.77l.25.02.1.21Z"/>
  <path class="st65" d="M75.65,52.12c-.1.37-.22.82-.31,1.13l-.85-1.19c-.15-.22-.14-.37.03-.46.08-.16.09-.35.02-.59l.19-.14c.08.34.35.85.57,1.13.11.14.17.26.35.11Z"/>
  <path class="st75" d="M11.37,42.85l-.2-1.91c-.03-.56.03-1.14,0-1.7l.2,2.01c0,.53,0,1.06,0,1.6Z"/>
  <path class="st75" d="M11.48,44.19c-.19-.31-.1-.85-.1-1.24.2.31.09.84.1,1.24Z"/>
  <path class="st40" d="M57.42,75.39c.03-.09.06-.09.1,0,.02.27.06.76.1,1.03-.25.13-.53.1-.8.18s-.93.43-1.05.44c-.88.18-2.89-.34-1.34-1.24.99-.14,1.98-.35,2.99-.41Z"/>
  <path class="st64" d="M57.52,75.39h-.1c.05-.82-.06-1.71,0-2.53.03-.35.17-.68.21-.97-.06,1.16-.18,2.34-.1,3.5Z"/>
  <path class="st83" d="M85.02,49.44c.32-.94.4-1.31.51-2.32.02-.18-.03-.34.16-.46.25-.05.15.2.15.36.03.72-.06,1.61-.21,2.32-.13.62-.42,1.47-.82,1.96-.03.25-.67.84-.83.6-.1-.15.58-1.39.73-1.63.11-.26.22-.56.31-.82Z"/>
  <path class="st140" d="M84.71,50.26c-.22.52-.52,1.03-.62,1.54.07.09.67-.45.72-.51v.21c-.06.1-.14.21-.21.31-.23.3-.47.54-.72.72-.51.26-.85.72-1.34,1.03-.29.03-.25-.06-.1-.26.41-.54,1.03-1.04,1.44-1.65.29-.43.46-1.02.83-1.39Z"/>
  <path class="st49" d="M83.17,53.66l-.1-.1c.32-.26.6-.76.82-1.03s.42-.54.72-.72c-.49.73-.87,1.21-1.44,1.85Z"/>
  <path class="st113" d="M47.32,41.3c.2.22.26.4.41.62,2.99,5.68,1.31,12.42-5.23,14.29-3.43.98-6.96.59-10.48.23-.34-.03-.72.05-1.04,0-.2-.02-.1-.2-.29-.22-.41-.06-.79.11-1.13.1-.29,0-.64-.19-.94-.19-.92,0-3.35.31-4.14.7-4.31,2.12-3.04,8.64.17,11.14,5.34,4.16,12.15,3.6,17.8.33.43-.15.85.25.55.66s-2.24,1.46-2.79,1.69c-4.74,2.31-10.81,2.74-15.26-.26l-.09-.26c-4.73-2.69-6.86-10.4-2.58-14.42-.06-.22.1-.38.27-.49,1.18-.79,3.14-1.03,4.55-1.07,2.07.03,4.17.27,6.21.53,3.65.31,7.69.23,10.89-1.9l.44-.05c3.68-3.3,3.63-9.97-1.03-12.36-.11.07-.23.1-.36.06-3.28-.86-5.52-.09-8.08,2.1-1.18,1.15-2.27,2.41-3.4,3.6-.16.08-.36-.07-.39-.24-.07-.4,1.87-3.21,2.11-3.5,3.63-4.44,9.85-5.97,13.84-1.1Z"/>
  <path class="st105" d="M29.71,61.49c.14-.09.24-.03.31.16l.53-1.88c.09-.18.2-.36.4-.45.21-.01.33.02.52.1.96,1.21,1.79,2.47,2.49,3.79.65.49.92.75,1.04,1.57,2.19,1.32-.67,1.78-1.77,1.54-.48-.1-.52-.11-.77-.57-.2.31-.47.4-.82.46-1.35.22-3.41.28-4.79.21l-.33-.2c-1.58.46-1.88.06-1.12-1.25.53-1.71,1.08-3.41,1.64-5.1.12-.43.41-.51.81-.55.41.09,1.28,1.54,1.61,1.95.09.11.2.16.25.21Z"/>
  <path class="st100" d="M21.47,51.5c-.84,0-.69-1.07-.51-1.66.15-.47,1.69-3.25,2.02-3.44l.24.05.1.27c-.12.2-2.31,4.08-1.86,4.05.15-.01.52-.29.61-.42.53-1.4,1.2-2.75,2.02-4.04l.26-.06c.41.28,3.96,2.18,4.15,1.87-1.08-.66-2.22-1.25-3.45-1.8-.5-.22-.75-.45-.49-.96.1.04,2.52-4.21,2.06-3.93-.39.23-2.31,3.28-2.37,3.78.26.9-1.22.21-1.68,0l-2.13-1.13c-.94-.5-1.25-.51-.91-.02,1.37.55,2.72,1.15,4.02,1.85.24.15.02.83-.32.54-1.04-.56-2.18-1.06-3.3-1.52-1.24-.35-1.63-1.66-.31-1.88,1.18.32,2.38,1.25,3.5,1.6.15.05.29-.06.31-.06.11-.01.23.05.37.2.47-1.1,1.08-2.31,1.79-3.3.27-.38.63-.88,1.13-.81.96.45.25,1.51-.06,2.15-.45.91-1.11,1.77-1.47,2.73.07.29,3.11,1.39,3.59,1.87.42.43.48,1.33-.19,1.54-1.15.37-3.22-1.34-4.36-1.59-.41.1-1.7,3.44-2.49,4.01-.1.07-.17.07-.26.1Z"/>
  <path class="st91" d="M45.16,50.26c-.84.02-1.57-1.04-2.42-1.03-.78,0-1.41,1.72-2.75,1.53-1.11-.16-1.73-1.62-3-1.1-.36.15-1.16.99-1.45.92-.35-.09.13-.97.25-1.19.62-1.09,1.41-1.44,2.61-.95.48.2,1.41,1.04,1.77,1.01.41-.04.99-.87,1.36-1.12.9-.6,1.96-.39,2.72.34.19.19,1.11,1.41.92,1.6Z"/>
  <path class="st12" d="M41.94,45.55c1-.21,1.67.24,2.29.96.19.22,1.07,1.31.47,1.36-.16.01-1.62-1.11-2.16-1.12-.72,0-1.54,1.72-2.86,1.53-.84-.12-1.55-1.17-2.29-1.22-.82-.06-1.88,1.13-2.06,1.12-.41-.02-.03-.74.07-.95.55-1.17,1.42-1.8,2.72-1.31.53.2,1.42,1.08,1.84,1.04.48-.05,1.24-1.26,1.99-1.42Z"/>
  <path class="st132" d="M42.07,44.39l-.22.02c-1.51,1.35-2.26,1.76-3.91.22-.74-.37-1.53-.15-2.36.68-.16.17-.49.66-.61.24-.14-.48.68-1.6,1.07-1.89.54-.4,1.12-.39,1.76-.21s1.4,1.04,1.85,1.04c.74,0,1.41-1.66,2.88-1.44.62.09,1.28.65,1.65,1.13.14.18.88,1.32.26,1.19-.35-.07-1.11-.73-1.57-.9-.41-.16-.44-.1-.79-.08Z"/>
  <path class="st134" d="M43.61,40.38c3.31,1.6,3.79,5.67,3.24,8.93-.28.29-.41.61-.38.96-.45,1.02-1.07,1.68-1.83,2.47-2.86,2.02-6.38,2.32-9.84,2.17-.44-.02-1.06-.11-1.49-.21.44-.05.89-.05,1.34,0,2.21.01,4.46.01,6.59-.67,9.56-3.07,5.47-17.76-3.88-12.94-.79.41-1.44,1.01-2.2,1.46,2.23-2.19,5.39-3.25,8.45-2.16Z"/>
  <path class="st48" d="M25.59,62.83l.15.21-.69,2.28c-.38,1.35.46,1.17,1.46.9,1.56-.04,3.58-.01,5.09-.22.37-.05.71-.18.68-.61.31.02.57.64.61.67.21.15,2.36.09,2.59-.2.42-.53-.48-.57-.72-1.05-.14-.28-.07-.53-.17-.76-.09-.21-.62-.44-.82-.73-.25-.37-.36-1.02-.58-1.37-.14-.21-.37-.26-.49-.44-.44-.67-.8-1.43-1.25-2.1.49.23.78,1.02,1.09,1.43,1.04,1.4,2.46,2.95,3.39,4.34.64.96.27,1.06-.73,1.22s-2.06.07-3.08.11c-2.06.08-4.66.3-6.7.11-1.18-.11-.88-.61-.72-1.55l.88-2.27Z"/>
  <path class="st144" d="M19.61,43.05c.06.36-.38.15-.52.39s-.09.69.11.9c1.09.64,2.52,1.04,3.59,1.66.15.09.5.24.42.45-.01.03-.31.27-.42.46-.36.63-1.57,2.6-1.7,3.14s-.18,1.16.36,1.44c-.73.26-1.2-.36-1.13-1.07.09-.8,1.98-3.7,1.94-3.91-.04-.25-2.86-1.41-3.32-1.73-1.06-.72-.73-2.11.65-1.73Z"/>
  <path class="st47" d="M20.03,58.09l.18.17c-1.32,3.11-.5,6.78,1.7,9.31l.08.4c.66.75,1.37,1.44,2.14,2.08l.02.19c-1.01-.48-2.05-1.46-2.78-2.32-2.14-2.5-3.77-7.46-1.55-10.35.4-.77.89-.53.34.14l-.13.38Z"/>
  <path class="st80" d="M21.98,67.98h.29c.75.86,1.68,1.56,2.59,2.16.83.29,1.84,1.14,2.66,1.41,4.4,1.47,8.53.87,12.69-.9-4.5,2.61-11.85,2.8-16.07-.41-.81-.61-1.64-1.39-2.16-2.27Z"/>
  <path class="st62" d="M27.85,59.33c-.13.13-.36.13-.46.31-.46.78-.91,2.75-1.24,3.71-.2.58-.38,1.11-.56,1.7-.13.4-.47.73-.42,1.18.45,0,.89.01,1.34,0-.78.5-1.95.62-1.73-.65.13-.72.57-1.99.8-2.75.24-.82.58-2.28.99-2.98.27-.47.76-.64,1.28-.52Z"/>
  <path class="st43" d="M34.65,54.69c-.44,0-.9.01-1.34,0-3.58-.12-7.11-1.18-10.48.6-.22.12-.34.34-.55.43-.7.52-1.28,1.23-1.72,2.06-.15.29-.33.4-.55.31.02-.1-.07-.26-.06-.36.03-.2.31-.32.26-.57-.12.1-.32.3-.41.41,1.56-3.08,5.26-3.63,8.4-3.51l6.43.62Z"/>
  <path class="st30" d="M47.32,41.3c-4.82-5.47-11.72-2.54-14.97,2.9-.15.24-.85,1.45-.87,1.6-.02.17.17.27.29.34-.17.24-.42.01-.5-.18,1.08-2.5,2.81-4.98,5.21-6.4s5.47-1.87,8.1-.62c1.06.5,2.12,1.37,2.74,2.35Z"/>
  <path class="st144" d="M26.72,40.68c-.44.29-.71.56-1.01,1-.49.71-1.07,1.83-1.5,2.62-.12.21-.15.88-.58.67-.18-.09-.19-.36-.21-.37.45-.8,1.77-3.71,2.57-3.97.28-.09.47-.06.73.06Z"/>
  <path class="st5" d="M42.07,44.39c-.85.48-1.47,1.58-2.6,1.42-.8-.12-1.59-1.14-2.2-1.21-.65-.08-1.12.53-1.69.72.45-.46,1.15-1.05,1.83-1.12.51-.05,1.8,1.28,2.24,1.32,1.02.1,1.48-.92,2.12-1.19.22-.09.27.06.3.06Z"/>
  <path class="st6" d="M30.94,59.33c-.26.36-.64,2.44-.83,2.57-.23.17-.38-.37-.41-.41.26-.64.42-2.11,1.24-2.16Z"/>
  <path class="st16" d="M47.32,70.24c1.25.93,2.02,3.27,1.96,4.79-.02.57-.9.94,0,1.29-.14.02-.31.08-.52.1-.33-.08-1.61.24-1.75-.17-.09-.25.2-.51.26-.75.25-1.01.33-2.33.14-3.35-.1-.53-1.19-2.33-1.54-2.84.43.38,1,.6,1.44.93Z"/>
  <path class="st103" d="M26.21,76.32c.8.09,1.46.07,2.27.1.03,0,.07,0,.1,0,.57.16,1.15.23,1.75.21.66,0,1.5-.1,2.1.12.16.06.32.08.27.3-.1.01-.25.17-.38.19-.83.09-.5-.16-1.37.33l-.02.24c-1.11,0-2.21.1-3.32.29-1.1-.23-1.82-.09-2.83.29-.54-.28-.89-.12-1.05.46.23.83.44,1.66.63,2.5.02.08,0,.17-.01.27s-.05.19-.08.28c.07.07.13.14.18.21.45.68.44,3.37.13,4.22.07.06.13.13.11.22-.13.56-.28,1.53.59,1.15,1.16-.36,2.36-.58,3.59-.63,6.61-1.34,13.39-2.14,20.07-2.66.74.02,1.46.15,2.15.38,3.76-.32,5.46-3.26,3.53-6.68l.04-.33c.25-.03.58.04.82,0,.83,2.35.89,4.38-.22,6.63-.6,1.23-1.31,1.41-2.62,1.6-2.67.38-5.36-.07-8.13.22-5.74.61-11.36,2.17-17.02,3.27-.45.09-1.01.07-1.49.16s-1.8.68-2.11.36.21-1.98.27-2.51c.38-3.08.12-6.11-1.1-8.97-.35-.81-1-1.62-1.05-2.5,1.39.09,2.86.15,4.22.31Z"/>
  <path class="st102" d="M30.33,76.63c-.51,0-1.4.16-1.75-.21l1.75.21Z"/>
  <path class="st59" d="M80.29,59.63c.13.14.62.37.46.62-.4-.25-.92-.13-1.29-.25-.26-.08-.22-.32-.58-.44-.16-.05-1.36-.29-1.06.07,2.19,1.07,3.52,2.99,4.45,5.18,2.09,4.93-.18,10.78-4.09,14.18-.57.5-2.25,1.52-2.32,2.32-.05.53.41.78-.09,1.19-.03.01-.08-.01-.1,0-1.27-.58-.64-1.92.25-2.59,2.58-1.73,4.74-4.28,5.83-7.2-.06-.23.1-.8.31-.93l-.04-.27c1.5-3.7-.74-10.06-4.69-11.32-1.87-.6-4.14-.18-5.89.59-1.38.38-1.44-.49-.51-1.32,1.76-1.58,7.56-1.26,9.38.17Z"/>
  <path class="st7" d="M78.64,61.18c-2.1-1.62-5.18-.93-7.44.03-1.45.42-1.81-.7-.81-1.64,1.68-1.57,6.1-1.66,8.2-.87.12,0,.34-.06.36-.2.51.29.69.47,1.13.82.07.09.13.23.21.31-.8-.2-1.53-.61-2.34-.8-1.03-.25-2.53-.43-3.58-.33-.53.05-2.68.58-3.11.8-.39.2-1.09.98-.61,1.37.33.27,1.18-.27,1.58-.39,2.09-.63,3.43-.82,5.54-.04,3.29,1.22,5.07,5.83,4.89,9.12-.04.73-.12,1.9-.62,2.42-.26-.02-.49-.27-.31-.51l-.1-.26c1.05-3.32-.54-7.34-2.97-9.68l-.02-.15Z"/>
  <path class="st18" d="M64.73,72.1l.15-.07c.85.33,1.69.67,2.53,1,.36-.06,2.05.5,2.28.74.06.06.11.12.16.2l-.11,7.26c.16.2.27.39.35.55.53.32.98.19,1.32-.31.49.38,1.03.7,1.61.96.44.23,1.02.82.48,1.21-1.37.53-2.83.95-4.33.93-.32-.04-.45-.15-.39-.31-.45,0-.6-.22-.74-.6-1.04-.75-1.87-1.45-.83-2.66.95-2.48.21-3.54-1.71-5.15-.57-.64-.78-1.15-.96-2-.5-.27-.7-2.22.21-1.75Z"/>
  <path class="st27" d="M60.61,68.49l.5-1.16c.26-1.08.75-.28.67.49l.18.62c.66.82.9,1.66.91,2.73.29.09.25.76.22,1.06-.06.63-.15,1.03-.84,1.21-.08.4-1.01.05-1.17-.26-.05-.25-.22-1.01-.66-.69-.28.21,1.02,3.31,1.89,3.05.29.12.54.28.76.48.06-.16.13-.2.21-.1.42.57.62,1.38.74,2.12l.73,1.84c.45.86.35,1.38-.32,1.56l.64,1.29c.05.35-.34.64-.67.5-.92-.55-1.78-1.29-2.37-2.16-.96-1.27-1.73-2.74-1.96-4.33-.36-1.06-.52-2.42-.31-3.5l.1-1.44c-.17-.13-.08-.6.1-.72.15-.54.29-1.09.41-1.65-.19-.17-.03-.86.21-.93Z"/>
  <path class="st88" d="M80.9,73.02c.61-.13.58.04.44.54-.32,1.15-2.95,3.96-3.93,4.82-.47.18-.82.54-1.04,1.08-1.21.39-1.73,1.27-1.49,2.52.37.5.35.84-.05,1.03-.03.01-.08-.01-.1,0h-.14c-1.52-1.37-1.13-3.45-.74-5.24.19-.7.14-1.29-.14-1.76-.12-.51.16-1.29.62-1.54l.25-.2c1.87-.48,3.82-.95,5.74-1.29.2-.04.41,0,.61.05Z"/>
  <path class="st25" d="M64.53,73.85c.46.29.36.86.68,1.33.53.79,1.83,1.65,2.23,2.41.65,1.24.44,2.25-.05,3.49-.07.18-.25.28-.33.49-.48,1.15.51,1.27,1.14,1.95.12.13.13.36.21.43.2.14.7.04.91.3l-.46.1.31.2c-1.59-.02-3.38-.53-4.74-1.34l.51-.36c-.12-.25-.7-1.25-.69-1.43,0-.4.52-.29.58-.38.18-.25-.84-2.5-.99-2.96-.11-.32-.09-.65-.18-.95-.11-.38-.47-.75-.36-1.23v-.23c.67-.38.99-.96,1.02-1.73l.22-.1Z"/>
  <path class="st120" d="M70.29,57.99c.22-.31,2.49-.76,2.68-.64.25.17.28.49,0,.62-2.15.3-5.4,2.25-4.02,4.76.01.31-.19.6-.6.89-1.05,1.81-2.27,3.69-3.59,5.4-.12.5-.3.64-.55.41-.18-.42-.13-.93.14-1.53-1.61-.41-1.19-2.98-.65-4.13,0-.03,0-.06,0-.08.14-.17.87-1.04.94-1.07.51-.18.87.34.62.8-.98,1.25.42.66.62-.16.2-.83.57-1.53,1.11-2.09-.28-.65-.27-1.12,0-1.42-.02-.18.25-.37.41-.31.78-.38,1.55-.76,2.27-1.24.25-.09.36-.13.62-.21Z"/>
  <path class="st14" d="M69.47,58.19v.14c-.67.4-1.36.76-2.06,1.09-.19.12-.23.17-.41.31-.12.22-.27.41-.45.58.53,1.3-.35,1.77-1.49,2.04l-.36.18c-.33.44-.7.85-1.09,1.22-.51,1.67-.58,3.28.55,4.72.05.17-.02.73-.14.84.22.86-.87,2.59-1.03.93-.19-.19-.32-.47-.4-.83-.84-1.09-1.02-2.14-.71-3.48-.19.46-.42.82-.69,1.1-.14.5-.33.99-.57,1.46-.22.4-.14.57-.21.93-.15.54-.29,1.09-.41,1.65-.03.23-.09.41-.1.72l-.1,1.44c0,1.3-.03,2.23.31,3.5.04.15.04.29,0,.41-2.01-6.94,2.13-15.24,8.38-18.56.31-.16.64-.38,1-.39Z"/>
  <path class="st133" d="M77.4,57.78v.28c-2.67-.12-7.87-.21-8.26,3.28l-.19.15c.15.92,1.19.68,1.85.49l2.97-.95c.22.02.12.3.02.45.17.12.04.47-.21.41l-.18-.08c.04.18-.85.53-1.06.28l-.22.28c-.94.29-1.9.53-2.88.54l-.3-.21c-.87,0-.51-1.79-.28-2.29.28-.61,1.38-1.52,1.98-1.83.5-.27,1.07-.33,1.57-.59.14-.07.13-.24.19-.24.19-.02.38.24.55-.05,0-.23-.15-.25-.34-.25-.57,0-1.74.34-2.33.51-.08-.24.4-.35.62-.41,2.12-.61,4.44-.6,6.49.21Z"/>
  <path class="st96" d="M81.73,72.71c.14.18.09.29.03.48-.58,1.75-2.6,4.33-3.98,5.56-.73.65-2.89,1.73-2.62,2.95.08.34.45.45.49.8-.32.18-.46.34-.82.51.43-.17-.09-.68-.16-1.02-.16-.78.07-1.87.78-2.32.27-.17.51-.12.78-.36s.3-.63.49-.8c.13-.12.4-.16.58-.3.86-.66,3.65-3.87,3.9-4.85.09-.34.05-.37-.29-.34-.03-.29.64-.48.82-.31Z"/>
  <path class="st98" d="M74.72,83.01c-.14.07-.27.14-.41.21l-.28-.05c-.79-1-1.54-1.98-1.62-3.31-.09.33-.25.49-.47.48-.07-.04-.18-.1-.16-.16.09-.32.85-2.6.94-2.71l.35-.12c-.19-.38.22-1.21.62-1.34.35-.21.4.23.42.46.16,1.87-1.05,3.61,0,5.66.19.37.5.51.61.89Z"/>
  <path class="st38" d="M71.94,80.34c.16-.28.25-.57.39-.8.07-.11,0-.18.23-.13.04.41.12.97.23,1.36.28,1.01.96,1.59,1.52,2.45-.28.13-.48.28-.82.41.25-.91-1-1.17-1.54-1.5-.21-.13-.37-.52-.67-.47-.09.02,0,.27-.41.32-.46.06-.49,0-.78-.21l.12-.08c.25.11.54.18.81.08-.06-.22.08-.42.41-.62-.13-.16-.07-.21.1-.1,0-.46.13-.7.41-.72Z"/>
  <path class="st39" d="M62.05,81.06c-.84-.88-1.83-2.7-1.96-3.91-.01-.13,0-.28,0-.41.42,1.55,1.06,3,1.96,4.33Z"/>
  <path class="st139" d="M69.68,58.19c0,.24-.51.51-.69.6-.46.24-1.08.48-1.58.64.55-.36,1.49-1,2.06-1.24.05-.02.15.02.21,0Z"/>
  <path class="st57" d="M78.74,58.4c.35.3.08.39-.28.27-2.18-.91-7.71-.58-8.75,1.77-.44.99.2,1.28,1.04.92l2.41-.85c1.1-.25,2.73-.45,3.83-.11.05.02.08.08.11.16,1.35.47,2.55,1.15,2.37,2.79.35.65.26,1.01-.43,1.28l-.13.48c-.99.73-1.2,1.48-1.42,2.65-.23.55-.83,1.57-1.52,1.25l-.12-.23c.24-1.84.92-3.79,2.53-4.87.3-.28.34-1.34.23-1.72-.39-1.32-3.7-1.84-4.78-1.11-1.25.37-2.5.73-3.76,1.06-.53.07-1.04-.07-1.11-.65-.14-.82.5-1.71,1.14-2.21,1.61-1.23,4.26-1.45,6.23-1.4.37,0,.78.29,1.08-.1.46.18.91.38,1.34.62Z"/>
  <path class="st123" d="M77.09,60.56c-1.33-.26-2.39-.36-3.73.03-.84.24-2.75,1.24-3.53,1.1-.55-.09-.52-.93-.32-1.35,1.03-2.13,5.59-2.4,7.63-2.16.38.04.88.3,1.26.39.2.05.39.12.34-.18.07.04.14.07.21.1l.31.36c-.62.03-1.29-.33-1.93-.44-1.6-.27-3.79-.1-5.35.37-.45.14-1.8.98-1.89,1.41-.23,1.17.53.93,1.36.74.44-.1.81-.35,1.19-.46,1.32-.36,3.6-.56,4.89-.1.25.09,1.06.5,1.11.79l-.13.06c-.45-.27-.93-.49-1.42-.67Z"/>
  <path class="st93" d="M54.43,75.8c-.11.5-.83.59-.02.9.13.05,1.29.34,1.36.34v.1c-1.05.02-2.1.33-3.14.41-1.95.15-3.85.2-5.77.41-.89.1-1.82-.09-2.67-.11-.47,0-.92.14-1.33.1-.19-.02-.5-.08-.32-.3.23-.27.92-.44,1.27-.49,1.72-.21,3.74-.15,5.42-.45.4-.07.89-.33,1.27-.38.41-.06.86.22,1.06-.13.96-.12,1.93-.28,2.88-.41Z"/>
  <path class="st44" d="M46.24,63.55l.44,1.52c-.14.97.28,1.22.63,1.84s.58,1.52,1.25,1.94c-.23.69-1.3-.26-1.6-.56-1.01-1.04-1.42-2.62-1.13-4.03.06-.27.2-.54.42-.71Z"/>
  <path class="st122" d="M43.31,22.04c-.6.3-1.34.23-2,.32-.51.07-1.01.22-1.51.3-.07-.29.32-.24.5-.27,1.02-.2,2.04-.2,3.01-.34Z"/>
  <path class="st122" d="M25.9,22.45c.48.05.98.07,1.46.13.16.02.68,0,.6.28-.67-.05-1.42-.2-2.06-.41Z"/>
  <path class="st117" d="M31.56,22.97c.44-.08.9-.09,1.34,0,.04.02.07.07.1.1-.67,0-1.34,0-2.01,0l-2.73-.21c1.09.06,2.2.07,3.3.1Z"/>
  <path class="st117" d="M34.96,23.07c.09.03.09.06,0,.1-.46,0-1.05.09-1.44-.1.48,0,.96,0,1.44,0Z"/>
  <path class="st117" d="M50.82,20.4c-.25.27-.76.23-1.13.31.25-.27.76-.24,1.13-.31Z"/>
  <path class="st117" d="M47.94,21.12c-.35.09-.7.31-1.13.21.37-.09.74-.24,1.13-.21Z"/>
  <path class="st122" d="M36.09,23.18c-.37.02-.76,0-1.13,0v-.1c.36,0,.86-.09,1.13.1Z"/>
  <path class="st122" d="M32.9,22.97c-.44-.01-.89.01-1.34,0,.29-.17,1.04-.18,1.34,0Z"/>
  <path class="st85" d="M30.94,77.56c.57.85,1.25.49,2,.62.23.04.45.26.75.28.26.02.52-.11.8-.09.19.02.1.2.3.22,2.48.31,5.62-.03,8.14-.09.24,0,.52.13.83.09.2-.02.13-.22.2-.22.15,0,.24.17.41.21.51.1,1.04-.15,1.54-.2,2.87-.27,5.81-.24,8.7-.62,1.03,1.6,1.33,3.54.37,5.26-.5.9-1.53,1.33-2.5,1.62-.12.03-1.26.32-1.33.33-.44.04-.87-.25-1.24-.3-1.74-.25-4.13.21-5.87.4-1.99.22-3.79.26-5.77.61-1.21.22-2.38.36-3.59.53-1.63.22-3.25.5-4.82.85-1.25.28-1.77.27-3,.4-.62.06-1.65.54-2.18.51-.28-.02-.36-.74-.36-.99,0-.3.06-.43.21-.67.19-.81.47-1.57.84-2.27-.09-.68-.32-1.34-.88-1.77-.02-.26-.11-.39-.26-.38-.19-1.01-.47-2.04-.73-3.04,0-.26.41-.84.68-.84.12,0,.26.16.5.16.5,0,.87-.36,1.25-.41.58-.08,1.13.12,1.65.12s1.23-.24,1.77-.28c.43-.03,1.13.22,1.58-.04Z"/>
  <path class="st138" d="M80.49,42.33c.96,0,1.64.14,2.42.72.04.03.37.26.16.31-1.47-1.29-3.6-.94-5.12.08-1.85,1.23-2.88,3.36-3.32,5.48-.05-.03-.1-.05-.14-.09-.16-.19.39-2.13.65-2.38.92-2.17,2.87-4.1,5.36-4.12Z"/>
  <path class="st143" d="M75.34,53.25c-.5-.36-.94-.99-1.18-1.55-1.05-2.4-.17-5.59,1.49-7.47.33-.37.83-.92,1.34-.97-.17.31-.52.5-.73.77-.07.1-.07.22-.1.26-.55.78-.78,1.3-1.13,2.16-.62,1.6-.8,3.28-.43,4.97l-.08.18c.04.13.03.27.11.45.2.45.66.73.71,1.2Z"/>
  <path class="st99" d="M75.13,46.45c-.42,1-.53,1.44-.52,2.47,0,.64-.05,1.33.1,1.96v.82s-.21-.1-.21-.1c-.64-1.95-.23-3.34.52-5.15h.1Z"/>
  <path class="st58" d="M81.11,52.01c.26.13.41.27.62.41.16.37-.95.89-1.03.82.08-.22.17-.45.2-.68.05-.36-.29-.64.21-.55Z"/>
  <path class="st70" d="M22.29,55.72c.05.27-.09.31-.22.45-1.53,1.77-1.99,3.51-1.85,5.89s1.44,5.2,3.19,6.9c.43.42,1.12.63,1.45,1.18-.11-.04-.35.06-.49-.02-.04-.02-.17-.33-.33-.45-.78-.61-1.32-.89-2.07-1.69-2.22-2.41-3.14-5.66-2.32-8.86.09-.36.29-.55.37-1.02.51-.44.7-1.09,1.13-1.6.07-.08.68-.7.72-.72.15-.08.35-.02.41-.05Z"/>
  <path class="st71" d="M44.64,52.73c0-.19.13-.3.25-.42.29-.28,1.18-1.41,1.31-1.77.12-.32.03-.57.1-.83.05-.16.29-.29.35-.48.16-.51.19-2.85.14-3.45-.1-1.24-.88-3.15-1.64-4.12-.33-.42-1.22-.8-1.55-1.28,4.81,1.71,5.09,9.49,1.03,12.36Z"/>
  <path class="st56" d="M23.22,46.45s.33-.16.19-.4c-1.31-.65-2.64-1.27-4-1.82-.18-.14-.28-.45-.16-.67.1-.16.45-.02.59.04,1.01.38,1.95,1.06,2.95,1.48.17.07,1.31.49,1.36.44-.06-.15-.14-.26-.09-.44.06-.22.99-1.8,1.18-2.12.16-.26,1.55-2.66,1.6-1.4.02.38-1.15,2.42-1.43,2.9-.18.32-.85,1.04-.73,1.4,1.24.77,2.71,1.25,3.96,2.03.3.61-.4.44-.83.31-.75-.23-2.23-1.09-3.06-1.47-.18-.08-.31-.35-.53-.28-.34.65-.75,1.26-1.08,1.92-.28.56-.6,1.6-.89,2.09-.08.13-.65.56-.81.51-.34-.1-.19-.59-.11-.81.33-1.01,1.39-2.63,1.9-3.71Z"/>
  <path class="st26" d="M24.25,81.88c.26-.52.35.21.44.28.27.24.45.38.64.85.11.28.32.9.26,1.16-.02.08-.18.06-.2.14-.21.84-.36,1.26-.83,1.99.07-1.54-.02-2.93-.31-4.43Z"/>
  <path class="st90" d="M75.65,61.49l.05,3.36c.09.03.15.07.15.11.04,1.2.06,2.61,0,3.8-.06.07-.06.16,0,.25.16.05.33.05.5.01.76.25,4.96,1.78,5.21,2.04.06.06.11.14.16.21.12.19.27.26.31.51.06.35-.03.7-.31.93-.23.19-.54.23-.82.31-2.12.59-4.45.89-6.59,1.44-.45-.18.05-.74.42-.79.02-.56.3-1.05.83-1.47-.13-.69-.06-1.41.21-2.17-.26-.65-.43-1.29-.49-1.92l.16-.13c-.32-.65-.25-1.74-.14-2.49.2-.29.29-.66.25-1.12l-.2-.16c.05-.85.06-1.71.02-2.56l.19-.16c.03-.09.06-.09.1,0Z"/>
  <path class="st78" d="M78.64,61.18c1.85,1.09,3.35,4.84,3.51,6.95.07.99.05,2.28-.42,3.15-1.89-.8-4.05-1.35-5.87-2.27.03-.09.06-.09.1,0,.43,0,.85-.51,1.07-.83.53-.76.33-1.54.8-2.29.21-.34.74-.61.85-.79.11-.17.06-.42.19-.58s.57-.19.6-.49c.02-.22-.18-.41-.21-.62-.04-.26.03-.53-.03-.8-.01-.06-.35-.88-.38-.93-.25-.38-1.37-.8-1.76-1.1.67.13.93.26,1.55.62Z"/>
  <path class="st63" d="M64.11,69.52l.22.14c-.04.24.06.43.29.58v.26c-.6.41-.59,1,.06,1.35l.04.25c-.36-.13-.41.33-.42.57,0,.41.2.86.21,1.18,0,.07-.13.83-.16.92-.15.45-.65.94-1.08,1.14-.07.03-.14.08-.21.1l-.15-.29c.13-.72.14-1.5-.1-2.18-.29.13-.48.1-.58-.1.85-.61.59-1.35.62-2.27-.13-.42-.09-.73.1-.93.15.07.14.62.36.51s.64-1.19.67-1.44c.12-.01.15.1.1.21Z"/>
  <path class="st35" d="M71.12,72.71c.29.13.6.14.91.12l.12.19c-.18.36-.59.37-1.22.03-.71.65-.77,1.58-.77,2.5.1,1.49,0,2.95-.19,4.42-.08.79-.09,1.57.91,1.6l.14.19c-.33.2-.58.09-.93,0-.76-.56-.41-1.29-.41-2,.02-1.92,0-3.84-.02-5.76-.07-.2-1.72-.71-2.05-.84-.1-.04-.16-.14-.2-.15-.13-.05-.2-.12-.21-.21-.05-.23.06-.29.27-.29.61.24,1.2.37,1.79.37.21-.67.37-1.36.48-2.06l.24-.08.19.19c-.08.71.25,1.22.89,1.51l.05.26Z"/>
  <path class="st141" d="M73.28,62.93l.02.35c-.66,1.91-1.38,3.8-2.15,5.69l.06.14c.05.29-.62,1.05-.93.93-.15-.11-.19-.31-.13-.58l-4.97,1.09c-.51.95-.23,1.33.77,1.62l1.16.42.07.23.21.21c-.8-.31-1.93-.57-2.68-.93-.98-.47-1-1.27-.1-1.85l.2-.22c.65-.1,1.28-.25,1.91-.45l.26.15c.83-.34,1.7-.59,2.62-.73l.94-.26,2.17-5.14c.1-.29.29-.51.55-.67Z"/>
  <path class="st136" d="M63.08,76.01c-.46.16-.32-.09-.64-.23-.2-.09-.44-.03-.57-.1-.54-.29-1.26-1.51-1.45-2.11-.07-.22-.4-1.19-.06-1.27,1.01-.24.66.62.99.91.11.1.71.23.9.23.55-.01.72-.4.88.41.14.74.12,1.44-.06,2.17Z"/>
  <path class="st39" d="M60.61,68.49c.3-.97.67-2.01,1.19-2.89.08-.13-.02-.26.26-.2.13.71-.24,1.6-.16,2.27.09.8,1.13,1.5,1.09,2.57,0,.21-.09.59-.1.93-.24-.59-.28-1.28-.57-1.86-.14-.29-.42-.5-.54-.8-.11-.28-.18-1.42-.24-1.46-.01,0-.3-.01-.31,0-.02.02.03.23-.02.33-.2.39-.4.76-.59,1.11Z"/>
  <path class="st39" d="M59.99,71.07c.05-.42.11-.78.2-1.19.04-.17-.03-.39.21-.46-.07.4-.12.8-.2,1.19-.03.18.03.38-.21.45Z"/>
  <path class="st39" d="M59.79,73.23c0-.45-.09-1.05.1-1.44-.02.46.11,1.05-.1,1.44Z"/>
  <path class="st76" d="M75.44,67.98c.03.99.08.69.38,1.42.42,1-.17,1.41-.18,2.14,0,.25.15.5.11.72-.02.16-.66.66-.78.98-.07.2-.03.55-.07.6-.02.03-.3.04-.46.21s-.09.31-.14.42c-.21.49-.4,1.03-.62,1.54-.19.44-.44.92-.62,1.34-.28.3-.69.29-.81-.16-.05-.18.47-1.85.58-2.14,1.09-2.28,1.88-4.56,2.11-7.09.17-.26.43-.31.49.01Z"/>
  <path class="st115" d="M72.35,62.11c.2.13.21.28.09.48l-.57.85c-.51,1.68-1.41,4.27-2.87,5.32-.4.29-1.36.72-1.82.88l-.19.11c-.77.16-1.58.5-2.37.51-.66.01-.43-.18-.52-.72-.07-.15-.04-.2.1-.1.4-.11.18-.26.41-.57,1.03-1.41,2.11-2.88,3.03-4.38.11-.18.11-.43.22-.6.27-.41.75-.77,1.07-1.14,1.19.04,2.28-.28,3.4-.62Z"/>
  <path class="st139" d="M67,59.74c-.23.42.28,1.09.19,1.47-.03.14-.4.39-.52.62-.36.66-.46,1.51-.96,2.13-.33.41-1.23.64-.93-.21.13-.36.73-.58.1-1.02-.22-.04-.77,1.02-1.17,1.02-.03.09-.06.09-.1,0,.14-.26.7-1.17.89-1.32.71-.59,2.09-.32,2-1.51-.05-.63-.42-.53.26-1.09.09-.08.22-.07.26-.1Z"/>
  <path class="st4" d="M64.22,69.42s-.08.06-.1.1c0-.04-.11-.13-.1-.21.14-1.09-.52-1.23-.77-2.06-.31-1-.11-2.59.36-3.5h.1c-.06.46-.27.94-.3,1.41-.01.15,0,1.07.01,1.19,0,.05.32.96.35,1,.15.26.86.33.87.47,0,.08-.59,1.24-.41,1.6Z"/>
  <path class="st22" d="M68.95,61.49c.37.94,1.42.51,2.18.28,2.15-.66,4.13-1.83,6.49-.77.07.03.97.69,1.01.74.3.39.23,1.6.08,2.04-.14.38-.68.52-.9.77s-1.33,2.05-1.42,2.37c-.17.63-.1,1.45-.44,2.09h-.1s-.19.06-.21-.06v-7.45s.24.28.24.28l.06,2.71c.11.06,1.52-1.72,1.58-1.82.5-.92-1.28-1.62-1.87-1.16h-.1l-.23-.07c-.46-.58-1-.4-1.41.07-.03.09-.07.09-.1,0,.11-.46-.24-.23-.53-.17-.91.19-3.45,1.43-4.16.69-.21-.21-.11-.31-.15-.52Z"/>
  <path class="st94" d="M72.35,62.11c.31-.1.61-.25.95-.34.19-.05.32-.2.29.13.21.21,0,1.06-.31,1.03-.97,1.91-1.65,3.98-2.57,5.93-.27.27-3.11.74-3.71.87.1-.28.46-.19.65-.3.11-.07.17-.32.39-.46.24-.16.62-.23.91-.43.75-.51.98-1.14,1.4-1.89.7-1.24.93-1.86,1.31-3.22.1-.36.71-.78.7-1.31Z"/>
  <path class="st111" d="M74,61.49c.21.39.22.85.03,1.39-.45,1.18-.84,2.42-1.09,3.68-.21,1.08-.24,1.69.41,2.63l-.08.23v.1l-.24.07c-.44-.48-.97-.69-1.61-.48-.03.27-.13.26-.21,0-.17-.02-.39.13-.26-.21.72-2.01,1.64-3.92,2.32-5.97.12-.37.09-.61.31-1.03.04-.08.19-.39.21-.41s.08.02.1,0c.03-.09.06-.09.1,0Z"/>
  <path class="st86" d="M75.44,67.98c-.28-.03-.27-.04-.36.2-.13.33-.19.83-.25,1.2-.17,1.09-.38,2.26-.79,3.33s-1.46,3.11-1.57,4.2c-.02.2-.07.3.13.43h.46c-.02.06-.18.16-.18.28l-.95,2.71c-.14.24-.26.49-.41.72-.36-.22-.47-1.11-.38-1.54.53-1.53.99-3.07,1.36-4.64.39-.7.63-1.42.73-2.17.72-.74,1.03-1.8,1.12-2.8.26-1.56.44-3.13.54-4.7.3-.2.44-.44.42-.72l.22-.11c-.02,1.21-.14,2.39-.1,3.6Z"/>
  <path class="st1" d="M71.43,81.16c-.14.22-.14.46-.41.62-.32.08-.97-.22-1.14-.46-.36-.5.08-2.79.11-3.5.05-1.18-.26-3.26.32-4.31.04-.08.52-.67.56-.68.19-.05.54.41,1.28.2-.06-.3.72-.61.93-.41.22.09.24.37.06.84l-.64,1.47c-.58,2.13-1.19,4.23-1.84,6.29.31-.14.57-.16.77-.05Z"/>
  <path class="st42" d="M75.55,61.49c.11.72.01,2.09,0,2.88l-.1.93-.31-.21c-.05.29-.16.59-.19.89-.22,1.99-.18,4.31-.96,6.14-.08.18-.34.23-.48.45-.23.35-.15.74-.27,1.07-.36,1.02-.54.93-.78,2.2-.21,1.1-1.18,3.29-1.12,4.13.02.36.24.71.21,1.09-.02.04-.08.06-.1.1-1.72.86-.69-.64-.57-1.54.89-1.54,1.01-3.37,1.56-5.03.2-.6.87-1.32.65-1.97l-.03-.25c.44-.44.61-1.07.64-1.67l.21-.14c.17-.18.19-.42.06-.72.66-2.54.66-5.45.42-8.06-.14-.08-.27-.18-.38-.28-.04,0-.08-.01-.1,0,0-.95,1.53-.73,1.65,0Z"/>
  <path class="st111" d="M67.2,72.82c-.29-.04-2.19-.77-2.31-.93-.3-.39-.08-1.14.17-1.51l5.28-1.16c.22-.02.14-.03.11.11-.06.24-.1.51-.16.72.28.17,0,.77-.31.72-.14.44-.37,2.12-.56,2.28-.43.35-1.41-.21-1.89-.3-.17-.03-.31.09-.33.08Z"/>
  <path class="st28" d="M71.43,69.11c1.97-.45,2.15,1.67,1.17,2.89-.02.85-.78,1.05-1.47.72-.9-.44-1.24-.87-1.13-1.96.07-.23.24-.47.31-.72.21-.2.69-.85.93-.93.05-.02.14,0,.21,0Z"/>
  <path class="st52" d="M73.28,69.52c.35.17.53.56.62.93.09.02.09.05,0,.1,0,.71-.25,1.61-.82,2.06-.17.13-.71.35-.93.41-.44.08-.7-.15-1.03-.31.26.15.97-.08,1.14-.25.14-.14.07-.39.16-.56.45-.9.81-.97.41-2.17-.23-.68-.73-.69-1.39-.62.56-.32,1.42.04,1.85.41Z"/>
  <path class="st130" d="M75.65,61.49c-.02-.13.01-.28,0-.41.88,0,2.68.46,2.05,1.69l-1.79,2.12c-.23.04-.14-.1-.15-.25-.08-1.07.05-2.05-.1-3.14Z"/>
  <path class="st37" d="M73.9,70.55s0-.07,0-.1c-.11-.4-.31-.74-.62-1.03-.24-.23-.64-1.16-.7-1.52-.12-.76.68-3.36.93-4.28.05-.19.21-.3.25-.46.14-.55.23-1.11.25-1.68.21-.04.43-.07.57.21.03.06.15,1.13.15,1.29.02,1.55-.07,3.91-.21,5.46-.05.51-.32,1.05-.36,1.48-.03.34.4.64-.26.63Z"/>
  <path class="st86" d="M73.9,70.45c-.18-.31-.34-.69-.62-.93v-.1c.43.42.56.33.62,1.03Z"/>
</svg>