<?xml version="1.0" encoding="UTF-8"?>
<svg id="Layer_1" xmlns="http://www.w3.org/2000/svg" version="1.1" viewBox="0 0 250 250">
  <!-- Generator: Adobe Illustrator 29.6.1, SVG Export Plug-In . SVG Version: 2.1.1 Build 9)  -->
  <defs>
    <style>
      .st0 {
        fill: none;
        stroke: #000;
        stroke-linecap: round;
        stroke-linejoin: round;
        stroke-width: 5px;
      }
    </style>
  </defs>
  <polygon class="st0" points="177.17 130.25 160.83 142.12 167.07 161.34 187.27 161.34 193.52 142.12 177.17 130.25"/>
  <path class="st0" d="M107.4,105.88c-8.29,0-15-6.71-15-15s6.71-15,15-15,15,6.71,15,15h7.5c7.5,0,18.75,7.5,18.75,15,0,0,16.88,0,16.88,7.5s-13.12,13.12-20.62,13.12h-13.17"/>
  <line class="st0" x1="131.73" y1="135.88" x2="154.23" y2="135.88"/>
  <path class="st0" d="M60.48,117.12c0-4.22,3.48-7.63,7.73-7.5,3.99.12,7.27,3.5,7.27,7.5,0,1.36-.37,2.65-1.01,3.75l-8.32,12.46c-1.55,2.29-2.28,5.2-1.76,8.27.8,4.7,4.63,8.44,9.36,9.14,2.76.41,5.36-.19,7.51-1.47"/>
  <path class="st0" d="M97.04,111.5c-6.83,5.13-11.25,13.3-11.25,22.5,0,15.53,12.59,28.12,28.12,28.12,11.54,0,21.45-6.94,25.79-16.88"/>
  <circle cx="137.36" cy="113.38" r="3.5"/>
</svg>