<?xml version="1.0" encoding="UTF-8"?>
<svg id="Layer_1" xmlns="http://www.w3.org/2000/svg" version="1.1" viewBox="0 0 110 110">
  <!-- Generator: Adobe Illustrator 29.6.1, SVG Export Plug-In . SVG Version: 2.1.1 Build 9)  -->
  <defs>
    <style>
      .st0 {
        fill: none;
        stroke: #3a3a3a;
        stroke-dasharray: 6;
        stroke-linecap: round;
        stroke-linejoin: round;
      }
    </style>
  </defs>
  <path class="st0" d="M72.43,16.15c6.19-.63,11.99,5.33,11.15,11.56-.1.75-.87,2.2-.9,2.62-.02.29.28,1.17.31,1.64.16,2.38-.1,4.37-1.56,6.3-1.29,1.71-3.82,4.47-5.37,6s-3.25,2.1-5.27,2.58c-6.15,6.96-12.29,13.96-18.55,20.81-.06.11-.06.23-.05.36.11,2.86.74,5.44.08,8.34-.12.51-.48,1.01-.57,1.39-.16.72-.05,1.62-.14,2.34-.5,4.31-5.47,9.97-9.32,11.75-1.67.77-2.63.77-4.33,1.15-3.17.7-4.7,1.16-8.04.54-6.97-1.29-12.84-6.39-16.33-12.38-2.75-4.72-2.69-7.79-2.25-13.13.31-3.87,2.29-6.6,4.8-9.35,2.17-2.38,3.38-3.29,6.48-4.26,2.34-.73,5.26-1.8,7.67-1.94,1.25-.07,2.72.14,3.93,0,1-.11.99-.65,1.55-1.24,5.6-5.98,10.88-12.26,16.32-18.39.37-.42,1.42-1.22,1.49-1.71.14-.86,0-1.53.29-2.5.85-2.88,3.79-5.34,5.86-7.36,1.81-1.76,2.66-3.18,5.41-3.67.99-.18,2.13.07,3.13-.07,1.23-.18,2.6-1.23,4.19-1.39Z"/>
</svg>