<?xml version="1.0" encoding="UTF-8"?>
<svg id="Layer_1" xmlns="http://www.w3.org/2000/svg" version="1.1" viewBox="0 0 110 110">
  <!-- Generator: Adobe Illustrator 29.6.1, SVG Export Plug-In . SVG Version: 2.1.1 Build 9)  -->
  <defs>
    <style>
      .st0 {
        fill: #e1a612;
      }

      .st1 {
        fill: #f1d082;
      }

      .st2 {
        fill: #edb800;
      }

      .st3 {
        fill: #edb700;
      }

      .st4 {
        fill: #ecca38;
      }

      .st5 {
        fill: #eed384;
      }

      .st6 {
        fill: #f1d88e;
      }

      .st7 {
        fill: #f0d25d;
      }

      .st8 {
        fill: #f0d256;
      }

      .st9 {
        fill: #ecc124;
      }

      .st10 {
        fill: #efce2e;
      }

      .st11 {
        fill: #e9c210;
      }

      .st12 {
        fill: #f0cc6f;
      }

      .st13 {
        fill: #f4deb0;
      }

      .st14 {
        fill: #e9c374;
      }

      .st15 {
        fill: #eac401;
      }

      .st16 {
        fill: #ecc734;
      }

      .st17 {
        fill: #efcb63;
      }

      .st18 {
        fill: #e7b428;
      }

      .st19 {
        fill: #ecc947;
      }

      .st20 {
        fill: #f2da78;
      }

      .st21 {
        fill: #f4dea3;
      }

      .st22 {
        fill: #f1d552;
      }

      .st23 {
        fill: #eec432;
      }

      .st24 {
        fill: #e0a000;
      }

      .st25 {
        fill: #eec125;
      }

      .st26 {
        fill: #efc845;
      }

      .st27 {
        fill: #f2d741;
      }

      .st28 {
        fill: #eed983;
      }

      .st29 {
        fill: #e8ae00;
      }

      .st30 {
        fill: #ebc572;
      }

      .st31 {
        fill: #e6ba2b;
      }

      .st32 {
        fill: #eaca65;
      }

      .st33 {
        fill: #dca800;
      }

      .st34 {
        fill: #efcb70;
      }

      .st35 {
        fill: #efd04d;
      }

      .st36 {
        fill: #eabf4e;
      }

      .st37 {
        fill: #e7bb16;
      }

      .st38 {
        fill: #eecb78;
      }

      .st39 {
        fill: #e9bf6b;
      }

      .st40 {
        fill: #ebc526;
      }

      .st41 {
        fill: #e3ac00;
      }

      .st42 {
        fill: #e8b849;
      }

      .st43 {
        fill: #eed070;
      }

      .st44 {
        fill: #f4d889;
      }

      .st45 {
        fill: #eec96d;
      }

      .st46 {
        fill: #e0ab31;
      }

      .st47 {
        fill: #dc9c00;
      }

      .st48 {
        fill: #ecc733;
      }

      .st49 {
        fill: #e3b400;
      }

      .st50 {
        fill: #ecc760;
      }

      .st51 {
        fill: #f0d47b;
      }

      .st52 {
        fill: #eecd4d;
      }

      .st53 {
        fill: #e8bc55;
      }

      .st54 {
        fill: #f5f1ec;
      }

      .st55 {
        fill: #f1d776;
      }

      .st56 {
        fill: #e7bf24;
      }

      .st57 {
        fill: #f2d67e;
      }

      .st58 {
        fill: #dd9a00;
      }

      .st59 {
        fill: #eed17d;
      }

      .st60 {
        fill: #e8c245;
      }

      .st61 {
        fill: #e8b831;
      }

      .st62 {
        fill: #f4dc8f;
      }

      .st63 {
        fill: #f1d574;
      }

      .st64 {
        fill: #deaf07;
      }

      .st65 {
        fill: #f2da80;
      }

      .st66 {
        fill: #edcd5c;
      }

      .st67 {
        fill: #d58800;
      }

      .st68 {
        fill: #d39a00;
      }

      .st69 {
        fill: #efc52a;
      }

      .st70 {
        fill: #f1d679;
      }

      .st71 {
        fill: #e8b825;
      }

      .st72 {
        fill: #f2d55c;
      }

      .st73 {
        fill: #ecc444;
      }

      .st74 {
        fill: #f1d884;
      }

      .st75 {
        fill: #efc540;
      }

      .st76 {
        fill: #e3bb37;
      }
    </style>
  </defs>
  <path class="st54" d="M13.05,60.92l.08.25-.31,1.68c-.6,7.11-.33,14.3-.04,21.39.09.65.14,1.28.16,1.9-.73-1.56-.56-4.75-.61-6.55l-.11-.25c.08-3.67-.1-7.35,0-11.02,0-.01.1-.12.11-.25.06-1.88-.1-6.09.82-7.58.13.09.1.23-.1.41Z"/>
  <path class="st49" d="M61.55,51.96c.28-.24,1.17.25,1.13.62.35-.02.98.23.82.62.26-.07.33-.06.21.21.5.12.67.29.51.51.29-.13.47.17.31.41.41-.04,1.24,1.6,1.24,1.86l-.11.3c.38.09.59,1.08.31,1.34.31.3.34.54.1.72.28.15.43.36.1.51.27.04.27.14,0,.31.34.14.23.31,0,.51.05,0,.1,0,.14.03.12.06.43,2.33-.36,2.19l-.04.53c-.51.85-.49,1.28.04,1.29.38.33.16.56-.66.67-.04.87-.44,1.32-1.2,1.34.19,1.07-.3,1.36-1.28,1.1.37,1.22-.32,1.49-1.38,1.24.08.01.2.03.21.09.03.19.04,1.83,0,1.97l-.21.15c-.14.54-.55,0-.61-.4-.08-.23-.9.09-.78.33.61.56.42,1.19-.58,1.87.39.1,1.08.33.94.86-.15.58-.79.65-.87.02-.59.06-.8.14-.21.53.61.99-.6.94-1.26.92-.27.35-.6.58-.98.69-.13.81.09.86.68.15,1.32-.68,1.8.99.23,1.08.01.22-.04.36-.16.43l-.27.08c-2.49-1.35-6.8-.82-7.73,2.16,2.07-2.07,4.33-1.41,6.6-.17,1.57.86,2.01,1.26,2.59,3.06.69-.78.51-2.04.3-2.99l.15-.18c1.09-1.02,1.18.73,1.08,1.54,0-.08.02-.2.07-.21.37-.02,3.03-.1,3.16,0l.12.21c.12-.11.23-.1.25.06l.06,1.04,1.91.05c.25.06.26.23.04.5.07.2-.08.35-.44.46-.19.55-.71.74-1.58.57l-.38.47c-1.17.41.27.63.8.35l.81.1c.57-.3.98-.51,1.42.09.47.06.95.02,1.45-.13,5.4.09,10.81-.01,16.21-.31,3.01-.11,6.05-.19,9,.15l.1-.13,1.24.03c-.06-.41.57-.42.41,0,0,.13-.1.23-.31.31-.07.06-.13.15-.21.21h-.1l-.24-.09c-8.09.51-16.23.84-24.43,1.01-16.64.86-33.28,1.4-49.93,1.65-2.21.29-5.53.23-5.02-2.91-.48-1.58-.71-3.31-.7-5.18-.12-4.41-.29-8.76-.53-13.06-.07-1.29-.24-2.49-.71-3.56-.41-.51,1.09-2.87,1.41-2.8.21.05.34.12.32.34l-.08,1.58c.02.56.03.64.41.98,3.02.02,6.08-.14,9.18-.47l.87.04c2.85-.41,5.81-.4,8.67-.38.85-.39,1.63-.39,2.55-.22.72-.25,1.34-.19,2.08-.1,2.25-.23,4.49-.34,6.71-.33l.54-.2c.34.14.57.04.69-.3-.28-.13-.28-.28,0-.41-.29-.1-.3-.42,0-.51-.3-.31-.11-1.28.21-1.54-.06-1,.13-2.23.93-2.88-.28-.2-.08-.34.21-.41-.27-.18-.07-.35.21-.31-.18-.12-.08-.17.1-.21-.23-.32.29-.6.62-.62,0-.07.01-.14.03-.21.12-.4,1.52-1.1,1.97-1.3,2.41-1.07,5.41-1.29,8-.91.54.08,2.31.4,2.65.68.1.08.18.18.21.31Z"/>
  <path class="st33" d="M13.05,62.16c.26.2.5.6.57.92.42,1.93.45,4.9.56,6.95.23,4.17.11,8.53.64,12.64.06.45.34,1,.36,1.29.04.46-.13.9.07,1.47.09.26.9,1.04,1.16,1.1.55.14,2.15.24,2.76.24.29,0,.55-.11.82-.11,19.66-.03,39.46-1.4,59.1-1.96,4.97-.14,10-.27,14.93-.62.16-.01.66-.11.57.21l-1.03.51c-.88.32-1.42.44-2.37.51l-.19-.09c-24.68,1.07-49.36,1.89-74.03,2.46-1.73.07-3.18-1.32-3.37-2.96-.62-5.34-.79-10.84-.78-16.04l-.09-.47-.2-.42c-.04-1.19,0-4.47.36-5.47.02-.07.08-.13.15-.19Z"/>
  <path class="st68" d="M91.2,85.33s-.07,0-.1,0c-.58.08-1.16.11-1.75.1-.52.04-1.03.07-1.54.1-.44.08-.89.11-1.34.1-.68.04-1.36.09-2.06.1-.97-.02-1.93.05-2.88.21-.31,0-.62-.01-.93,0-.82.07-1.64.11-2.47.1-.61.04-1.22.08-1.85.1-.58.08-1.16.11-1.75.1-.81.04-1.64.08-2.47.1-.79.07-1.58.1-2.37.1-.43.03-.88.09-1.34.1-.75.07-1.51.11-2.27.1-.62.03-1.23.08-1.85.1-.75.08-1.51.11-2.27.1-.68.03-1.37.09-2.06.1-.82.06-1.65.1-2.47.1-1.28.12-2.4.13-3.66.2-10.35.59-20.72,1.16-31.1,1.44-2.39.06-6.79.63-8.59-1.23-1.03-.73-1.23-1.96-1.29-3.13-.25-4.88-.42-9.99-.29-14.95,0-.2.04-.39.08-.59s.09-.39.15-.58c.23.29.3,1.11.31,1.49.05,2.32.02,4.66.1,7.01.09,2.59.31,5.24.63,7.81.15,1.21.98,2.56,2.23,2.82,1.71.36,3.6.05,5.32.02,21.88-.33,43.74-1.45,65.59-2.16,1.24-.04,2.65-.16,3.87-.05.16.01.32-.12.41.16Z"/>
  <path class="st76" d="M96.97,61.44l.16.44c.19,4.93.25,9.92.17,14.85-.03,1.5-.06,3-.32,4.45,0,.01-.09-.11.1.03-.16.46-.44,1-.72,1.44-.21.23-.39.24-.44-.11.16-.29.61-1.63.33-1.84-.66.06-1.05-.68-.37-.88.6.31.63-.18.11-1.49l-.03-1.28c-.53-.83-.63-1.78-.32-2.82-.26-.76-.23-1.45.09-2.07-.44-.39-.63-.71-.18-1.19-.41-1.15-.54-2.39-.39-3.73.2-2.6.15-5.18-.15-7.74-1.24-2.75-1.89,1.29-1.63,2.42-.23.59-.23,1.13-.02,1.64-.21.56-.2,1.16.02,1.78.02,3.4-.01,6.82-.23,10.18-.22.29-.19.58.08.88-.02,1.27-.03,2.55-.05,3.86-.22.59-.21.7,0,1.25-1.01,2.25,1.18,1.75,2.49,1.2.76-.03-.03,1-.44,1.08-.08-.22-.3-.02-.41,0-.62.01-1.24-.03-1.85-.1-.06.14-.14.14-.21,0-.53.01-2.31-.41-2.32-.97,0-.18.15-.28.3-.34.4-1.17.53-2.44.38-3.8.42-.72.42-1.22.02-1.97.02-.42.12-.86.3-1.31l-.08-2.4c-.09-.59.07-1.02.45-1.3-.53-.51-.49-.76.01-1.28-.65-.3-.44-.76-.04-1.17.1-.44-.01-.89-.35-1.35.38-.51.43-.61.44-1.28l-.07-2.18c0-.3.14-.55.29-.79-.32-.33-.34-.74-.05-1.23-.39-.61-.23-1.11.08-1.71-.04-1.58,1.27-3.06,2.81-3.26l.81.26c.78-.69,1-.3,1.1.59.12,1.07.21,2.17.14,3.25Z"/>
  <path class="st60" d="M95.22,83.78c.13-.14.77-.77.62-.93-.82.27-2.07.88-2.88.26-.63-.48.02-1.21,0-1.65,0-.23-.2-.35-.21-.51-.01-.17.18-.46.2-.72.06-.79-.02-1.67,0-2.48,0-.38.17-.71.11-1.13-.04-.32-.31-.49-.31-.72,0-.16.15-.29.18-.44.17-1.08.11-2.45.13-3.58.05-2.14.18-4.34.1-6.48-.01-.38-.23-.88-.21-1.24.01-.24.21-.44.19-.6s-.19-.3-.19-.63.19-.7.21-1.04c.04-.64-.08-1.43.03-2.03.03-.14.57-1.37.64-1.42.59-.44,1.27.45,1.37,1.01.63,3.43-.08,7.15.23,10.59.03.39.31.8.31.92,0,.19-.27.35-.27.51,0,.25.43.48.47.63.03.14-.27.51-.3.81-.04.46.19.86.2,1.25.02.81-.4,1.22-.04,2.2.09.24.32.4.36.68.12.97-.2.9.29,2.07.27.66.13,1.3-.64.85-.25.64.31.42.57.57.4.23.02,1.74-.31,2.06l.31.05c-.33.51-.78,1.31-1.44,1.44.07-.06.25-.24.31-.31Z"/>
  <path class="st8" d="M33.02,41.36c.19.03.26.19.21.47.44-.21.85-.3,1.24-.27.02-.32.39-.43.62-.21l-.27.48c-2.94,3.08-5.88,6.17-8.81,9.26-1.4,1.5-3.06,2.73-4.67,3.83l-.13.17c8.8-.26,17.61-.51,26.41-.76l.13.19c-.06.1-.15.29-.21.41-.12.1-.23.23-.31.39-8.94.31-17.88.67-26.83,1.08-1.76-.05-1.62-.84.41-2.37l.05-.12c-.93.91-2.04,1.74-3.28,2.26-.22.42-.67.71-1.13.82-.03.09-.07.09-.1,0-.04-.06-.07-.11-.06-.13.32-.39.8-.87,1.17-1.23,4.1-3.73,8.03-7.6,11.78-11.61.4-.34.81-.65,1.22-.94.67-.29,1.35-.57,2.05-.78.12-.09.43-.78.52-.97Z"/>
  <path class="st15" d="M94.5,52.68c-1.36-5.49-4.97-10.33-8.83-14.38-.09-.21.02-.36.25-.33,1.08,1.02,2.12,2.08,3.12,3.18,2.02,2.11,3.99,4.79,5.46,7.31.15.4.35.79.62,1.13.7,1.37,1.3,2.75,1.75,4.22.09.52-.03.96-.18,1.45.09.78-.12,1.18-.64,1.22.14.35-.33.46-.62.5l-1.02.04c-.71.46-2.64,1.23-2.16-.38.54-.34.77-.53,1.02-1.12,1.4-.44,1.56-1.56,1.23-2.86Z"/>
  <path class="st27" d="M55.99,21.07c1.28.14,3.88,1.18,5.18,1.67,6.14,2.33,12.86,5.95,18.2,9.76l-.04.19c1.36,1.05,2.72,2.12,4.04,3.32.64.4.79.67.43.81l-.26-.07c-.7-.69-1.44-1.32-2.21-1.89l-.31-.11c-7.31-5.96-16.02-10.33-25.03-12.96-.32-.12-.89-.55-.4-.73.09-.11.28-.06.41,0Z"/>
  <path class="st64" d="M97.07,81.21c-.25.18-.23.1-.2-.15.35-3.55.21-7.08.2-10.61,0-3.01.08-6.02-.1-9.01.08-1.48,0-3.06-.49-4.47-.34-.1-.48-.26-.44-.47.02-.02,0-.15.05-.21.08-.1.22,0,.24-.01.16-.14.1-.79.15-1.03.1-.49.33-.93.39-1.42.49,1.61.66,3.2.73,4.89.22,5.84.21,12.6,0,18.44-.05,1.26-.1,2.9-.52,4.06Z"/>
  <path class="st10" d="M79.36,32.5c3.33,2.38,6.65,5.22,9.42,8.24.12.13.26.21.26.41-1.01-1.05-2.16-2-3.14-3.09-.08-.02-.07.11-.05.15.02.05.64.74.77.88.84.99,1.96,2.11,2.73,3.16.99,1.34,2.03,2.97,2.94,4.55s2.15,4.13,2.2,5.88c.35,1.47.15,2.17-1.26,2.83l-.68.77-.22-.1-.07-.22c.39-.63.82-1.2,1.31-1.74v-.25c.87-.35.82-1.31.62-2.12-.47-.54-.72-1.43-.93-2.16-2.07-4.85-5.58-8.99-9.4-12.64l-.07-.23c.08-.34-.06-.25-.2-.36-.91-.72-1.69-1.53-2.59-2.26-.5-.4-1.63-.95-1.9-1.5-.15-.3.08-.2.26-.21Z"/>
  <path class="st4" d="M16.45,57.11c.96-.7,2.08-1.51,1.51.45-1.08.55-3.94,3.09-2.82,4.37.15.05.21.13.19.23.02.09-.05.13-.21.1-.15-.05-.45-.12-.5-.27,0-.83-.15-1.58-.01-2.41-.24-.25-1.02.98-1.13,1.18-.3.55-.3.83-.41,1.39-.39,1.97-.26,4.07-.31,6.08-.12,4.88-.18,10,.11,14.88.1,1.71-.07,3.04,1.23,4.38-.51-.16-.92-.88-1.13-1.34-.39-1.81-.34-3.67-.41-5.51-.2-5.7-.65-14.27.51-19.72.57-1.16,1.33-2.16,2.27-2.99.36-.34.74-.62,1.13-.82Z"/>
  <path class="st5" d="M30.45,43.11c0,.22-.12.28-.27.4-.71.53-1.53,1.45-2.2,2.12-3.4,3.42-6.68,7.13-10.42,10.15l-1.21,1.24c-.29.34-.63.65-1.03.93-.47.49-1.13,1.2-1.49,1.76-.2.31-.28,1.01-.78,1.23.03-.14.07-.27.1-.41.95-1.55,1.65-2.21,2.83-3.5,4.14-4.54,8.62-8.75,12.92-13.13.44-.39,1.03-.55,1.55-.77Z"/>
  <path class="st41" d="M36.42,40.53c0,.24-.2.41-.62.51-.17.3-.4.57-.72.31-.16.07-.42.13-.62.21-.74.04-1.44-.71-.88-1.41l.06-.34c.21-.44.31-.77.62-1.13.36-.55.81-1.03,1.34-1.44.08-.04.2-.21.31-.21.87-.08,1.08,1.78.95,2.46.23.3.08.64-.43,1.04Z"/>
  <path class="st74" d="M55.99,21.07c-.13-.02-.28,0-.41,0-.55.29-1.59.34-2.16.1-1.15.56-2.27,1.23-3.19,2.15-4.65,4.5-9.25,9.01-13.8,13.5l-.31.1c-.05.11-.13.09-.21,0,4.36-4.2,8.48-8.87,12.92-12.98,2.42-2.24,3.13-3.02,6.59-2.99.17,0,.46-.07.56.1Z"/>
  <path class="st46" d="M36.11,36.93c1.11-.47,2.41.56,1.75,1.65.42.32-.27,1.16-.58,1.45-.21.2-.59.49-.87.5,0-.12.36-.42.4-.59.05-.21-.14-.28-.16-.4-.02-.13.09-.3.07-.48-.05-.44-.29-2-.82-2.02v-.1c.07,0,.14,0,.21,0Z"/>
  <path class="st31" d="M33.64,39.81c.18.43-.25.67-.21.87.01.07.85.85,1.03.88-.47.18-.92.47-1.44.51v-.72c.22-.5.37-1.04.62-1.54Z"/>
  <path class="st33" d="M84.41,85.74l-2.88.21c.82-.37,1.96-.19,2.88-.21Z"/>
  <path class="st32" d="M35.6,37.24c-.4.52-.92.95-1.34,1.44.17-.59.83-1.16,1.34-1.44Z"/>
  <path class="st33" d="M59.9,86.97c-.77.24-1.67.04-2.47.1.82-.07,1.62-.08,2.47-.1Z"/>
  <path class="st33" d="M80.6,85.94c-.77.24-1.67.04-2.47.1.81-.06,1.63-.07,2.47-.1Z"/>
  <path class="st33" d="M72.05,86.36c-.73.24-1.6.04-2.37.1.78-.05,1.56-.08,2.37-.1Z"/>
  <path class="st33" d="M64.22,86.77c-.7.24-1.54.04-2.27.1.72-.03,1.51-.08,2.27-.1Z"/>
  <path class="st33" d="M68.34,86.56c-.7.24-1.54.04-2.27.1.72-.03,1.5-.08,2.27-.1Z"/>
  <path class="st56" d="M94.6,84.3h.1c-.43.33-.68.35-1.13.51.27-.25.67-.48,1.03-.51Z"/>
  <path class="st33" d="M91.1,85.33c-.5.23-1.19.04-1.75.1.56-.04,1.17-.06,1.75-.1Z"/>
  <path class="st33" d="M76.27,86.15c-.5.23-1.19.04-1.75.1.55-.02,1.17-.08,1.75-.1Z"/>
  <path class="st28" d="M95.11,49.59c-.32-.25-.55-.73-.62-1.13.23.4.4.72.62,1.13Z"/>
  <path class="st33" d="M87.8,85.53c-.35.23-.91.05-1.34.1.41-.02.9-.07,1.34-.1Z"/>
  <path class="st21" d="M63.19,33.63l-.17-.32c-.57-.5-.67-.93-.3-1.3-1.03-.55-.13-1.22.73-1,.15-.47.57-.76,1.03-.89l1.4-.36c.3-.62.76-.87,1.4-.5.47-.22.89-.21,1.24.04.5-.26.93-.23,1.27.08,8.99,2.71,16.57,9.89,21.21,17.94.12.01.22.06.28.16.32.54,1.97,3.88,1.8,4.28-.07.16-.15.28-.34.29-1.32.12-2.65.12-3.97,0-8.1.32-16.53.71-24.46,1.08-.3.13-.57.15-.8.06-.22-.19-.58-.46-.82-.62.29-.3.69-.44,1.22-.43,3.1-.03,6.21-.15,9.32-.38,5.53.02,11.13-.18,16.59-.52.79.2,1.54.23,2.26.08.25-.2-2.05-4.84-2.78-5.19-.05-.44-.24-.76-.56-.95-1.28-1.88-2.62-3.77-4.31-5.29-.72,0-1.32-.36-1.78-1.1-.45-.13-.78-.48-1.01-1.05h-.19c-.33,1.04-1.05.28-1.21-.32l-.44.44c-.4.11-.7.37-.89.77-1.03.03-1.94.29-2.43,1.21-1.02.02-1.42.14-2.18.81-.46.28-.55.52-.28.7l-.14.22c-2.41.28-6.73,1.13-6.49,4.28l-.16.24c-.17-.01-.35-.11-.53-.3.84.84.62,1.19-.38,1.68.38.4.46.69.23.87-.59.11-.78.19-1.05.73-.37.06-.58.27-.63.64-.72.2-1.49.53-1.85,1.2l-.98.27c-.05.53-.21.79-.47.78-3.62-1.54-9.85-1.3-12.87,1.44-.16.09-.29.14-.47.15-1.97.13-4.1.03-6.03-.12-.6-.33-.38-.95.22-1.07-.03-.85.49-.79,1.11-.5.48-.07.98-.07,1.49-.02-1.12-.34-.65-.96.1-1.39.07-.63.25-1.18.73-1.58.65-.06.54-.34.22-.76.2-.37.32-.77.35-1.21.39-.16.77-.38,1.14-.65l.1-.37c-.19-1.05.13-1.54.96-1.49.49-.63.63-.9.48-1.77-.44-.31-.4-.74.11-1.27.07-.48.16-.82.67-.43.31-.35.68-.34,1.11.03.22-.23.46-.37.72-.43,1.46.13,2.96.14,4.41-.09.08-.06.19-.09.31-.1-.12-.1-.05-.13.21-.1l.16-.23c.66-.1,1.32-.21,1.96-.42.06.13.14.19.25.14l.15-.27c2.5-.77,5.14-2.51,3.97-5.49l.1-.32Z"/>
  <path class="st37" d="M89.86,58.35l.17-.16c.58.2.78.05,1.13-.41.83-.32.92,1.4-.11,1.03-.06.32-.3.38-.57.43-.37.42-.82.64-1.34.66l-1.73-.03c-.11.36-.04.79.42.77,1.75-.23,1.37,1.08,0,1.44-.14.38-.39.61-.76.7.56.67.52,1.16-.14,1.46-.35.43-.41,1.03-.36,1.57.71.24,1.15.47.83,1.3.25.41.27,1.1-.31.93-.3.1-.59-.38-.41-.62-.05-.31-.35-.49-.62-.62-.3.15-.96-.49-.93-.82-.63-.68-1.85-1.25-2.78-1.24-.21.22-.63.11-.62-.21-.4-.28-.88-.38-1.44-.31l-.19.19c-.79-.04-1.59,0-2.38.09l-.21-.18c-1.38-.2-3.26.25-4.21,1.31-.75-.1-.99.13-.75.69-.18.29-.46.5-.8.52-.09.37-.37.59-.74.59-1.15,1.14-1.02-.53-.92-1.33-.21.68-.21,1.43-.07,2.11.5.41.46.93-.26.9.26.22.11.56-.1.78-.52.21-.96.49-1.33.85-.33-.07-.7,0-.19.03.14.07.86,1.17.88,1.27.01.07-.22,1.24-.28,1.35.14.3.28.6.41.89.26.09.46.55.21.72.04.16,0,.38-.2.39-.1,0-1.15-.5-1.01-.74.2-.47-.4.26-.36.33.49-.01.62.21.68.66.67.22.68.5.64,1.15.43.11.78.37,1.05.78.27.01.48.09.63.21,1.43,1.19,2.7,2.11,4.56,2.55,3.06.74,6.56.14,9.17-1.61h.37c.46.38.43,1.02.32,1.59.85.24,1.11.63.08.93.03.21.05.43-.17.54-1.27-.14-1.79.2-2.38,1.27-1.12-.16-1.26.91-.06.14.47-.06.95-.01,1.45.16,2.84-.18,5.74-.12,8.59.3.07,0,.14,0,.21,0,.31-.04.48.02.51.21-1.32.04-2.66-.31-3.96-.1-4.63-.11-9.19.48-13.81.51-2.41.02-4.88-.17-7.31-.06-.47.02-1.04.31-1.62.13-.21-.06-.28-.37-.54-.39-.29-.03-.54.28-.83.31s-.53-.11-.81-.11c-.24,0-.53.18-.72.16-.03,0-.62-.16-.65-.17-.06-.03-.16-.44-.12-.49.02-.02.41-.09.57-.21.18-.13.26-.45.43-.5.32-.11,1.04.1,1.27-.06.1-.07.1-.33.25-.47.11-.1.4-.17.57-.3.04-.22.13-.43.27-.63-1.37-.72.13-1.9.92-.96.02-1,.06-1.85,1.12-2.28-.66-.51-.69-.69-.72-1.5-.56-.22-1.19-.26-1.9-.12-.29-.01-.6-.05-.62-.4l-.02-1.36c-.08-.01-.16.12-.24.4-.27.23-2.69.28-3.02.12-.18-.09-.28-.22-.31-.42.15-.73-.19-.99-1-.77-.94.96-1.64-.4-.23-.7l.18-1.03c-1.04.21-1.28-.48-.19-.79-.03-.99.41-1.19,1.34-.58-.1-.39-.05-2.38.08-2.56l.26-.11c.88.05,1-.24.99-1.03.66-.31.9-.21,1.42.17-.34-.48-.66-1.16-.12-1.57.94.18,1.04-.18,1.05-1.02.01-.08.05-.14.11-.2.17-.18,2.47-.24,2.61-.07.06.07.07.17.07.26-.33.82.13,1.1.2.27-.28-.28-.14-.59.44-.94.07.29-1.67.24-1.76.21-.08-.03-.12-.12-.15-.21-.18.12-.32.04-.44-.24-1.44-.3-.77-1.65.28-.74.37-1.16,1.62-1.29,2.68-1.25l.4-.06c.13-.78.89-.87,1.04-.06h.12c.32-.42.67-.8,1.05-1.13.52-.09,1.07-.09,1.64-.02.76-.72,1.51-.47,2.17.25.19.12.31.05.47-.11.82-1.05,1.5-1.16,1.96.21.07.13.19.2.32.26.28.14,2.1.33,2.06-.24.88-.32,1.62-.61,2.38-1.26.49-.31,1.19-.5,1.68-.11.06-.86-.6-1.1-1.24-.64-.27.06-.65.12-.67-.22.86-.56,1.9-.71,3.14-.43.34,0,2.18-.08,2.28-.13.08-.03.16-.05.24-.06.43-.05.88-.05,1.34,0Z"/>
  <path class="st44" d="M44.25,36.21l.25.12c.51,1.3,1.79,2.06,2.98,2.66l.17.31c.03-.09.07-.09.1,0,.39-.06.56,0,.51.21.37-.03.75.01,1.12.12,1-.18,1.81-.18,2.81.07.94.44,1.86.6,2.87.73.09-.3.16-.25.31,0,.22-.07.52-.1.72,0-.39.4-1.25.16-1.8.21-.34.03-.69.18-1.03.2-.53.04-1.27-.17-1.64-.1-.29.05-.37.39-.63.42-.31.03-.4-.32-.61-.32-.19,0-.35.28-.52.28-.14,0-.27-.23-.46-.17.26.45-.51,1.12-.51,1.18,0,.06.34.26.39.43s.06,1.15,0,1.3-.26.18-.34.28c-.1.13-.12.35-.23.41-.22.14-.7.03-.81.19-.18.25.14,1.24-.24,1.69-.13.16-.35.13-.51.23-.1.06-.12.25-.22.3-.13.08-.38.03-.4.06s.01.48-.02.64c-.04.18-.27.4-.27.43,0,.1.44.23.24.67-.16.35-.52.24-.65.33-.07.05-.06.24-.12.32s-.2.09-.24.2c-.12.31,0,.63-.18.95s-.63.34-.7.54c-.17.51.4.45.6.61.7.57-.94.29-1.18.27-.14,0-.31.1-.5.08-.22-.02-.54-.25-.72-.2-.24.07-.11.46-.21.62-.08.12-.61.12-.52.52.11.53,1.5.28,1.96.3.24.01.47.11.71.11,1.33.01,2.66-.21,3.97,0-.11.1-.55.53-.62.62l-.12.1c-.68.03-1.7.01-2.39,0-.02,0-.05-.04-.07-.1-5.21.12-10.39.2-15.54.23-1.58.02-.7-1,.15-1.37,1.78.01,1.85-1.07,1.65-2.5,0-.78.47-1.38,1.15-1.69-.13-.35-.13-.63,0-.85l1.33-1.12c.16-.65.29-1.3.39-1.95.63-.19.97-.68,1.04-1.47.15-.35.45-.6.91-.77.56-.84,1.16-1.64,1.79-2.41l.53-.19c1.03-1.28,2.27-2.52,3.49-3.67.69-.65,1.32-1.16,1.86-.06Z"/>
  <path class="st13" d="M74.01,41.36c-.16.04-.46-.06-.41-.26.07-.3,1.45-1.35,1.8-1.4.28-.04.66.07.91-.01.22-.07.19-.37.3-.47.04-.04.83-.54.91-.58.4-.22,1.16-.09,1.34-.21.1-.07.1-.35.25-.47.13-.12.4-.13.57-.25.28-.2.44-.62.83-.56-.19.27.38,1.26.62.85.12-.2.09-.55.55-.45.24.05.54.85.61.91.09.09.34.08.49.18.31.22.6.89,1.14,1.03.31.08.42-.16.79.18,1.61,1.5,3,3.41,4.21,5.21.1.14.3.17.36.28.11.18.08.49.21.69s.46.38.69.75c.48.77,1.17,2.05,1.55,2.88.12.25.55,1.27.59,1.48.18.93-2.06.34-2.58.31-1.04-.04-2.05.17-3.09.21-4.17.19-8.49.31-12.66.3-1.71,0-3.44.27-5.15.32-2.05.06-4.13-.21-6.13.3-.28-.18-.83-.49-1.13-.62.22-.22.15-.78.35-.94.17-.13.91-.21,1.07-.32.08-.06.04-.27.2-.4.2-.16.84-.52,1.09-.63.15-.07.42-.06.47-.1.07-.06.03-.36.14-.48.09-.09.36-.08.49-.18.16-.12.15-.37.32-.51.17-.14.79-.23.82-.26.15-.16-.26-.27-.34-.44-.25-.53.44-.56.7-.79.63-.56-.49-.72-.36-1.18s.67.11.72.36l.24.1c.19.58.63,1.03,1.1,1.4v.26c.13.24.37.38.72.41.22-.23.68.13.72.41.1-.06.17-.06.21,0,.19.03.29.1.31.21.37-.11.58-.07.62.1.38.2.79.3,1.24.31.92-.31,2.23-.16,3.19.1.21-.35.91-.3,1.27-.17l.38-.03c.06-.26.17-.35.28-.08l.13-.02c.12-.28.2-.27.31,0,.11-.29.21-.32.31-.1l.34-.31c4.23-1.25,4.72-4.82.46-6.33l-.08-.25c-.19-.25-.5-.36-.93-.31-.13.27-.33.19-.31-.1-.26-.09-.3-.24-.35-.49-.08.62-.91.25-1.31.06l-.7.12c-.22.29-1.12.29-1.34,0Z"/>
  <path class="st56" d="M94.5,52.68c.12.58.38,1.18.29,1.78-.24.22-.43.73-.64.9-.2.16-.6.18-.77.36-.14.15-.13.39-.26.56s-.64.39-.71.52c-.29.53.26.69.71.62.25-.04.95-.52,1.27-.59.64-.14,1.07.18,1.67-.34.17.16.48.18.62.37.02.03.18.64.2.72.15.79.18,1.84.22,2.66.02.35.06.88-.11,1.19-.06-.96-.12-2.07-.22-3.02-.05-.46-.19-.71-.4-1.09-.67,1.02-1,.09-1.78.23-.36.06-.88.66-1.32.74-.1.09-.84,1.36-.87,1.5-.08.3-.01.58-.07.86-.09.41-.4.54-.28,1.15.03.18.21.3.21.52,0,.27-.24.47-.22.72.02.2.28.37.28.52,0,.13-.24.32-.28.61-.12.91.17,2.23,0,3.09-.05.28-.38.4-.4.53-.02.12.52.45.41,1.23-.06.43-.42.44-.43.82,0,.24.36.2.41.42.05.25-.4.5-.4.71,0,.25.39.34.4.6s-.35.27-.4.53c-.17.95.13,2.39,0,3.4-.05.37-.31.53-.32.82-.02.42.43.74.32,1.55-.04.32-.29.46-.31.72-.1,1.13.27,2.87-.41,3.88-.07.1-.31.16-.31.23,0,.1,1.31.79,1.52.85s.5-.05.64.13c-1.89-.05-3.74-.07-5.61-.21-.92-.07-2.09.16-2.99.11-.41-.02-.72-.24-1.13-.22-.51.02-.76.57-1.39.32.06-.44.09-.72.59-.8.15-.02.33.11.44.04s.16-.35.26-.47.58-.6.67-.67c.4-.3,1.48-.08,1.54-.16.04-.04-.06-.4.01-.5.04-.06.63-.13.71-.37-1.24-.2-.69-.46-.73-1.24-.01-.19-.32-.46-.2-.77-.22-.2.08-.49.31-.31.27-.16.58-.23.92-.22l.6-.72c-.1-.24-.06-.47.12-.7v-.37c1.14-1.58,1.72-3.33,1.44-5.3l-.24-.19c-.16-.93-.49-1.82-1.03-2.6l.04-.3c.56-.43.14-.58.1-.88-.02-.21.17-.43.09-.7-.11-.38-.88-.3-.92-.64-.06-.55.02-1.26.38-1.69.15-.18.56-.3.56-.58s-.55-.39-.42-.91c.03-.14.39-.11.52-.22s.11-.34.25-.47c.4-.35,1.33-.23,1.09-1.13-1.08.02-1.71.24-1.55-1.13.07-.07,1.73.03,2.01,0,.71-.06.67-.26,1.14-.61.12-.09.35-.07.42-.14.1-.09.11-.37.13-.39.05-.04.63.28.71-.06,0-.03-.07-.54-.09-.56-.23-.23-.49.44-.69.5-.29.09-.69.03-.96-.08-.04.02-.09.04-.13.05-.03,0-.06,0-.08,0-.18-.1-.92-.13-1.13-.04-.17.55-.44.23-.86.24-.52.02-1.16.14-1.66.15-.62.01-1.4-.17-2.06-.09-.38.05-.63.44-1.08.31-.34.15-.74.16-1.19.05-2.05.06-4.09.12-6.12.18-.63.42-1.39.55-2.27.38-1.65-.17-3.29-.19-4.93-.07-.62.28-1.28.44-1.99.5l-.19-.12c0-.17.01-.34,0-.51l.11-.21c7.39-.41,15.08-.99,22.48-1.61.62-.18,1.23-.23,1.81-.14l.72-.41c-.02-.15.65-.75.8-.83h.23c.35-.19.47-.55.77-.81s.95-.5,1.17-.79c.32-.4.24-1.37.22-1.89Z"/>
  <path class="st11" d="M82.86,58.96c.88.17.68-.18,1.18-.21.96-.06,1.04.94.88,1.66-.24-.08-.15-.36-.38-.5-.33-.2-.96-.05-1.26.14-.42.27-.93.65-1.37.94-.16.11-.84.16-1,.29-.11.09-.09.27-.16.36-.15.2-1.77.13-2.08.02-.75-.24-.57-.88-.99-1.23-.54-.45-1.06.87-1.57.9-.61.03-.75-1.02-1.8-.68-.22.07-.32.32-.56.36-.63.12-1.42-.36-1.8.21.24,0,.76.08.88.31.42.84-1.22,1.43-.88-.1-.53-.05-.51.64-.88.72-.65.14-.13-.68-.81-.52-.12.03-.11.39-.22.52-.22.27-1.69.07-2.11.26-.05.02-.77.55-.8.59-.11.13-.13.55-.29.59-.19.04-.46-.52-.77-.37-.7.35.39.57.54.67.1.07.24.42.33.42h1.9c.05.35-.19.52-.51.52.62.54.23,1.2-.51,1.13l.21-1.13c-.29,0-2.29.02-2.37.1-.18.18.29,1.7-1.34,1.24.03.24-.05.55,0,.78.05.25.5.27.31.77-.49.19-.55-.26-.68-.3-.16-.05-.54.17-.76.09.28.96-.38,1.2-1.24,1.13.08.66-.07,1.37-.08,2.01,0,.14.16.6.08.67-.19.18-.96-.39-1.23-.41-.01.23-.03.75-.16.93-.1.14-.66.2-.67.36-.01.37.8-.08.92-.05.05.05-.14,1.34-.22,1.48-.17.28-.76.22-.81.43-.03.11.18.34.27.35.19.03.32-.32.52-.38.19-.05.8-.05.99,0,.56.16-.01,1.11.54,1.22.3.06,2.28.06,2.57,0,.47-.09-.03-.71.77-.52v1.64c.65.21,1.24-.08,1.9.01,1.09.15.46.84.78,1.38.04.07.16-.03.21.02.08.08.4.41.39.5-.11.31-.53.32-.7.51-.03.03-.37.61-.38.64-.08.27.15,1.58-.33,1.32-.33-.18-.28-.58-.95-.24-.8.42.29.74.33.97.03.17-.36.55-.51.66.01-.36.06-.28-.25-.31s-1.77.08-1.9-.12c-.05-.07,0-1.22-.12-1.22h-3.35c-.4,0,.02-1.64-.51-1.64-.16,0-.38.15-.58.1-.25.11-.28,0-.1-.21.08-.6-.06-.86-.41-.78l-.21-.15c-.1.03-.13,0-.1-.1-.1-.25-.18-.52-.22-.8-.18.18-.34.24-.5.19-.14.15-.2.08-.1-.1-.36-1.04.84-.47.93-.98s-.36-.56-.76-.44c-.26.08-1.01,1.22-1.11.34-.11-1,.09-.66.58-.98.18-.11.32-.44.53-.5.37-.11,1.6.23,1.22-.54-.08-.16-1.02-.55-.05-.87.69-.23.58.33.61.36.19.19.7-.27.21-.68-.27-.22-.71-.05-.74-.4-.04-.46,1.2-.64.92-1.43-.04-.1-.58-.32-.25-.79.02-.04.73-.31.81-.29.5.12.2.87.69.71v-2.21c0-.29,1.03-.02,1.19-.25.07-.11.08-.73.03-.87-.09-.25-1-.17-.14-.89.23.11.23.54.43.6.14.05.76.04.87-.03.22-.15.02-1,.1-1.08.04-.04.84-.1.98-.31.24-.37-.2-1.34,1.08-1.14.08-.36-.33-.11-.52-.35-.31-.38.16-.98.28-1.37.04-.14-.07-.34.06-.58.11-.21.39,0,.48-.45.05-.27-.07-1.29-.08-1.67.39-.31.84-.14,1.26-.23.33-.07.6-.34,1.05-.39,2.01-.22,4.18.18,6.18.11.4-.01.57-.36.93-.41.65-.1,1.57.03,2.26,0,1.81-.08,3.13-.37,4.99,0Z"/>
  <path class="st24" d="M26.33,65.25c.24.13.83.18,1.15.18,3.71-.36,8.3.97,11.11,3.48,1.25,1.11,1.76,2.17,2.25,3.64-.1,1.55-.98,3.46-2.07,4.57-.18.18-1.35,1.19-1.53.99.01-.56-.21-1.26-.22-1.8s.26-1.2.22-1.75c-.01-.22-.65-2.61-.75-2.71-.08-.08-.28-.09-.43-.24-.29-.29-.65-.88-.93-1.13-.79-.69-4.32-1.84-5.35-1.64-.21.04-.32.22-.46.26-.52.13-.89.02-1.29.05-.31.02-1.14.05-1.32.1-.12.03-.11.29-.23.41-.54.55-1.36,1.02-1.8,1.7-.19.29-.17.61-.32.91-.35.69-.86.87-1,1.78-.03.2.04.65-.02.75s-.39-.04-.48.39.04.68.05,1.04c0,.11,0,.33-.13.33-.06,0-.66-.83-.71-.93-1.94-4.32.41-8.3,4.26-10.39Z"/>
  <path class="st52" d="M94.19,51.86c.6,1.98-.75,2.19-2.31,2.34l-.35.77c.33,1.74-2.11,2.1-3.39,2.22-7.24.66-14.69,1.2-21.88,1.64l-.18-.28c-.03-.24-.06-.48-.1-.72h1.13c3.38-.43,6.81-.72,10.3-.84.6.04,2.18-.39,1-.89-.6.17-1.07.29-1.67,0-.74.22-1.5.18-2.26-.13-2.74.27-5.68.43-8.4.4-.12.16-.26.2-.4.13-.22-.66-.72-1.6-1.13-2.16l.17-.15c9.11-.66,18.22-1.09,27.34-1.29.89.24,2.11.11,1.76-1.1-.31-.59-.54-1.23-.67-1.9l.13-.08v-.1c.32.69.71,1.44.93,2.16Z"/>
  <path class="st35" d="M17.58,56.18c.81-.57,1.68-1.14,2.42-1.75.31-.25,1.21-1.15,1.44-1.24.19-.07.19.12.14.24-.09.22-.51.46-.6.74l-1.57,1.42c-.22.42.12.55.49.59,1.01.12,2.64-.05,3.71-.11,6.43-.34,12.96-.52,19.36-.82,1.3-.06,3.01.05,4.23-.09.21-.02.12-.27.35-.21-.16.33-.37.77-.49,1.11-.19.58-.28,1.19-.44,1.77l-.21-.1c-.05-.43-.55-.58-1.51-.43l-3.1.22c-7.89.09-15.67.44-23.36,1.05-1.86-.09-5.05,3.72-1.29,2.86l2.3-.39c9.14-.68,18.08-1.3,26.83-1.87l.14.2c-.01.17,0,.34,0,.51l-.18.14c-1.72.05-3.46.13-5.23.23l-25.65,1.77c-.33-.11-.43-.36-.45-.69-.1-1.63,2.3-3.39,3.53-4.09-.17-.28-.33-.59-.33-.93-.19.03-.4.03-.51-.14Z"/>
  <path class="st43" d="M46.62,57.83c-.01.5-.17,1.02-.21,1.54l-6.74.41c-6.63.75-13.32.8-19.98,1.44-1.11.11-2.6.51-3.61.52-1.25.02-.98-.86-.51-1.65,1.25-2.07,3.88-1.81,5.95-1.98,6.68-.52,13.37-.62,20.1-.81,1.32-.04,2.78-.3,4.12-.21.67.04.89.04.87.72Z"/>
  <path class="st70" d="M35.81,41.05c.02.75-.14,1.39-.99,1.46-1.2,1.28-2.47,2.54-3.8,3.76-.69.65-1.19,1.26-1.43,2.17-.55.32-.91.61-1.08,1.25-.11,1.06-.5,1.94-1.16,2.65-.23.77-.5,1.16-1.33,1.3-.26.38-.65.63-1.19.76,5.4.03,10.91-.02,16.53-.17.06-.15.14-.15.21,0,2.13-.1,4.24-.14,6.32-.12l.07.12c-.04.06-.18.26-.21.31l-26.77.78c-.26-.16.33-.64.49-.78.35-.3,1-.59,1.36-.88,3.54-2.8,6.41-6.43,9.63-9.62.89-.88,1.76-1.78,2.62-2.68.22-.1.54-.21.72-.31Z"/>
  <path class="st67" d="M40.85,72.56c-.55-.05-.43-.69-.57-1.03-1.58-3.88-7.96-6.11-11.84-5.97-.75.03-.73.16-1.55,0-.29-.06-.9.17-.56-.31,5.93-3.22,15.03-.37,14.52,7.31Z"/>
  <path class="st47" d="M57.84,76.99s.06.07.1.1c.27-.25.74.28.72.62.03.04.07.07.1.1.42.01.73.54.62.93.03.06.09.16.1.21.26.7.33,2.18.02,2.85-.04.08-.44.63-.49.65-.18.09-.16-.13-.2-.21-.33-.71-.49-1.63-1.1-2.2-.32-.31-2.75-1.51-3.26-1.68-.76-.26-2.07-.35-2.83-.11-.68.21-1.33,1.07-2.03,1.31-.14-1.87,2.62-3.21,4.18-3.39,1.2-.13,3.02.16,4.06.81Z"/>
  <path class="st66" d="M65.67,56.49c.43-.67.93-.28,1.49-.3,2.09-.06,4.22-.2,6.27-.33.44-.03.85-.16,1.34-.09.31.05.57.3.93.3.3,0,.75-.2,1.04-.19.24.01.41.21.81.2.47-.02.76-.38,1.19-.06.75.56-.08,1.01-.67,1.09-2.94.39-6,.32-8.96.61-1.01.1-1.61.4-2.79.32-.21-.01-.25-.02-.35-.21-.08-.41-.18-.95-.31-1.34Z"/>
  <path class="st9" d="M58.81,57.69c.14.1.66.38.69.42.79.92,1.12,2.78.77,3.95-.08.27-1.09,2.01-1.29,2.11-.15.07-.35.03-.51.11-1.15.6-1.46.68-2.84.56-.95-.08-.67-.24-1.18-.68-.2-.17-.72-.44-.82-.64-.12-.22-.12-.49-.22-.67-.08-.14-.5-.55-.51-.64,0-.22.2-.41.24-.57.25-1.02.59-2.95,1.16-3.8.78-1.16,2.06-1.21,3.29-.84.54.16.82.41,1.22.69Z"/>
  <path class="st7" d="M93.26,49.8c.03.13,0,.33.05.52.25,1.1,1.63,2.66-.42,2.88-.36.04-.6-.1-.91-.1-3.89-.04-7.68.22-11.54.42-4.53.23-9.08.46-13.59.72-.77.04-1.55.02-2.32.1-.09-.13-.21-.3-.31-.41-.12-.28.07-.34.33-.37,7.11-.19,14.24-.51,21.37-.96,2.46.03,4.87,0,7.24-.06.21-.05.37-.23.41-.43.11-.49-1.13-3.37-1.55-3.95-1.65-3.07-3.7-5.9-6.09-8.46l-.09-.29h.1c.22.07.41.17.56.34,2.75,2.91,5.31,6.43,6.75,10.06Z"/>
  <path class="st6" d="M93.26,51.24c.48.47.35,1.24-.41,1.32l-8.81.04c-6.43.41-12.87.71-19.33.9-.39.18-.72.14-1-.1-.07-.07-.15-.16-.21-.21.94-.52,2.11-.25,3.14-.3,7.28-.35,14.54-.85,21.82-1.04,1.46-.04,2.95.26,4.36-.02.17-.15-.1-.83-.18-1.06-.38-1.06-1.14-2.39-1.65-3.44-1.06-1.99-2.39-3.82-3.78-5.59l-.03-.28c.06-.05.16-.11.2-.06,2.61,2.78,4.48,6.3,5.87,9.85Z"/>
  <path class="st16" d="M93.57,54.23c-.53.59-1.01,1.22-1.43,1.9-.74.87-2.01,1.18-3.08,1.39-2.58.27-5.16.49-7.74.65-3.79.22-7.68.51-11.66.87-1.16.09-2.38.15-3.48.03-.02-.19-.08-.35-.1-.51.52.24,1,.01,1.49,0,4.22-.15,8.48-.66,12.67-.92,2.53-.16,5.32-.29,7.81-.63.47-.06,2.45-.46,2.74-.66.03-.02.43-.45.44-.48.12-.32.03-.63.09-.93.06-.27.34-.53.31-.88,1.58-.33,2.92,0,2.56-2.18.18.62.32,1.25.08,1.89-.24.19-.45.28-.7.48Z"/>
  <path class="st19" d="M17.58,56.18c.44.05.66-.31,1.03-.41-.77.51.13,1.49.1,1.59-.03.12-.98.44-1.19.57-.4.26-1.89,1.67-2.15,2.07-.33.49-.72,1.81.1,1.94.68.11,2.25-.24,3.08-.3,8.42-.57,16.82-1.27,25.23-1.75.87-.05,1.75.03,2.62,0,0,.14,0,.27,0,.41-.66.28-1.44.41-2.33.41-8.06.34-16.47.82-24.58,1.46-.99.14-1.93.1-2.85-.12-.37.07-.75.11-1.13.1-.06.12-.14.11-.21,0-.72-.23-.51-1.04-.34-1.63.16-.55.9-1.46,1.32-1.87.24-.23,1.52-1.14,1.58-1.3s.06-.96-.14-.96c-.27.18-.58.44-.85.59-.14.08-.36.08-.44.13-.09-.03-.09-.06,0-.1.38-.28.75-.55,1.13-.82Z"/>
  <path class="st40" d="M46.41,60.3c0,.24,0,.48,0,.72-.27-.03-.34-.24-.67-.22-.22.02-.37.19-.61.22-.8.11-1.95-.05-2.78,0-1.27.07-2.55.25-3.81.32-.44.02-1-.13-1.34-.09-.42.06-.52.27-1.1.16-.3-.06-1.11-.13-1.45-.06-.22.05-.32.26-.64.3-.46.06-1.07-.02-1.55,0-2.02.07-4.94-.05-6.86.34-.84.17-.95-.08-1.68-.04-1.58.07-3.26.33-4.84.47-.69.06-3.39.02-3.96-.15.08.01.18-.1.21-.1.07,0,.14,0,.21,0,.39,0,.76-.04,1.13-.1,3.47-.02,7.13-.42,10.55-.62,4.17-.25,8.4-.53,12.55-.75,1.98-.11,4.26-.05,6.18-.4.18-.03.28-.08.48.02Z"/>
  <path class="st61" d="M33.09,70.43c1.4.96,1.53,3.09.66,4.45-.73,1.14-3.54,1.17-4.53.41-.14-.11-.75-.77-.83-.92-.47-.93-.23-2.41.19-3.32.83-1.78,3.13-1.57,4.52-.61Z"/>
  <path class="st63" d="M64.22,53.92c-.1-.11-.39-.39-.51-.51.36.18.63-.08.98-.1,6.03-.42,12.18-.24,18.22-.83,3.07-.3,6.81.25,9.79-.1.81-.1.68-.51.56-1.14l-1.29-2.99.05-.1c.22.12.39.37.49.59.34.75.65,1.68.93,2.47.16.43.59.72.17,1.26-.38.49-1.18.21-1.64.21-5.85-.06-11.67.46-17.5.73-3.22.15-6.65.36-9.84.35-.2,0-.26.03-.41.16Z"/>
  <path class="st48" d="M93.57,54.23c.03.4-.31.41-.47.61-.35.44-.5.94-.77,1.34-.24.37-.66.59-1.03.82l-.72.41c-3.51.56-6.74.66-10.24.94-4.29.34-8.72.69-13.09.93-.41.02-.65-.22-1.08.09,0-.1,0-.21,0-.31.96-.17,1.96-.04,2.94-.1,3.03-.21,6.04-.6,9.07-.82.34-.02.72.16,1.13.11.19-.03.09-.17.3-.22.55-.12,1.28.07,1.86,0,2.46-.26,5.01-.3,7.51-.63.25-.03,2.13-.65,2.32-.77.77-.48,1.37-1.71,2.27-2.42Z"/>
  <path class="st71" d="M52.98,81.81c.13-.21.03-.69-.18-.85-.5-.39-1.26.24-1.42-.33-.02-.08-.1-.82-.09-.89.02-.11.49-1.13.58-1.23.32-.34.87.21,1.02.5.19.37,0,.73.39.95.47.27.78,0,1.21.02.94.04,1.82.76,2.06,1.66.32,1.23-.76,2.12-1.94,2.04-.32-.02-1.24-.28-1.44-.51-.09-.1-.46-1.18-.42-1.24.04-.06.21-.07.24-.12Z"/>
  <path class="st57" d="M48.06,54.02c-.04.05-.06.15-.1.21-.88-.28-1.86-.01-2.72,0-1.22.03-2.44-.03-3.66,0l.1-.12c1.27-.02,2.54-.05,3.81-.09h2.57Z"/>
  <path class="st56" d="M94.81,83.78c-.43.09-.9.15-1.34.1-.08,0-.42-.14-.51-.21.03,0,.18-.1.34-.09.4,0,1.11.11,1.51.2Z"/>
  <path class="st35" d="M16.45,57.01v.1c-.4.25-.7.65-1.13.82.4-.41.56-.58,1.03-.93.02-.02.08.02.1,0Z"/>
  <path class="st72" d="M55.57,21.07c-.15.3.57.59.75.64,8.15,2.34,18.53,7.55,24.99,13.15,1.51,1.19,2.98,2.5,4.3,3.91.17.18.28.39.34.62h-.1l-.23-.04c-1.18-1.19-2.37-2.35-3.58-3.46-5.85-4.99-12.49-8.64-19.57-11.55-1.98-.81-5.86-2.36-7.9-1.85-.47.12-2.57,2.08-2.95,2.46-3.58,3.67-7.22,7.31-10.9,10.92l-1.95,2.17c-.26.35-.56.53-.9.53.06-.56-.05-1.04-.51-1.39s-.69-.26-1.24-.26c.05-.14.2-.1.31-.1.23-.2.49-.36.76-.49,3.83-3.89,7.89-7.9,11.85-11.8,1.35-1.33,2.72-2.62,4.38-3.36.69-.1,1.47-.14,2.16-.1Z"/>
  <path class="st22" d="M83.79,36.82c1.58,1.32,3.25,3.16,4.53,4.71,1.43,1.74,4.51,6.09,4.94,8.16,0,.03,0,.07,0,.1-.41-.32-.48-.95-.7-1.41-1.7-3.41-4.02-6.22-6.61-8.99-1.49-1.59-2.96-3.07-4.63-4.53.53.21.96.66,1.39,1.03.36.31.71.62,1.08.93Z"/>
  <path class="st57" d="M37.45,40.12c.23.69-.75,1.04-1.34,1.04.05,1.09-.33,1.64-1.14,1.67-.67.49-1.01,1.05-1.28,1.82l-.26.16c-.51-.12-1.28,1.09-1.38,1.47.07,1.07,0,1.44-.98,1.94-.2.6-.33,1.22-.39,1.87-1.01.75-1.05,1.4-1.06,2.58-.05.35-.19.69-.55.8-.08,0-2.17.41-1.9.64,1.24-.02,2.49.04,3.74.16,3.46-.08,6.95-.15,10.38-.16l.07.1c-4.72.1-9.44.29-14.16.33-.39,0-2.35.23-2.52-.02-.27-.42.7-.52.86-.63s.2-.35.38-.45c.24-.14.61-.09.87-.37.2-.22.23-.61.38-.85s.54-.58.65-.8c.37-.73.23-1.79.98-2.73.15-.19.47-.22.63-.4.18-.22.14-.54.26-.77.54-1.04,3.1-3.19,4.05-4.08.25-.23.56-.78.81-.97.46-.36.83-.06,1.11-.82.07-.2.04-.43.15-.62.22-.12.43-.37.62-.51.31-.09.61-.25.89-.49l.14.08Z"/>
  <path class="st51" d="M53.41,21.17c-.03.27-.57.47-.79.6-.94.54-1.1.83-1.89,1.51-4.33,3.78-8.37,8.22-12.45,12.26-.57.56-1,1.23-1.86,1.28.12-.38.53-.78.83-1.07,3.81-3.76,7.63-7.63,11.53-11.33,1.22-1.16,2.92-3.01,4.63-3.25Z"/>
  <path class="st20" d="M37.86,38.58c1.11-.86,1.94-2.06,2.93-3.09,3.06-3.18,6.51-6.21,9.43-9.42.94-1.03,1.77-1.75,2.83-2.63.71-.59.85-1.11,1.96-1.24,2.11-.24,5.91,1.31,7.95,2.15,5.71,2.34,14.8,7.2,19.08,11.55.25.19.42.4.51.62l-.2.1c-1.83-1.54-3.75-2.97-5.75-4.31l-.12-.33c-4.97-3.42-10.76-6.29-16.54-8.09-1.25-.39-2.5-.72-3.81-.54-.72.1-2.54,1.33-3.06,1.85-1.85,2.03-3.79,3.93-5.84,5.7-.14.28-.27.53-.4.78l-.04.26c-.88.42-1.56,1.04-2.07,1.87l-.25.04c-.2.02-.38.11-.56.24-1.93,1.71-3.99,3.58-5.82,5.32.03.27-.32.78-.62.72-.16.09-1.02.74-1.03.41.64-.5,1.34-1.03,1.44-1.96Z"/>
  <path class="st62" d="M76.48,31.98c.63.41,1.23.89,1.9,1.24l4.17,3.29c1.65,1.26,3.14,2.84,4.48,4.45.12.14.16.31.15.49,1.42,1.98,2.74,3.64,3.81,5.87-1.48-2.52-3.22-4.85-5.2-7-3.95-4.3-10.4-9.41-16.04-10.73-.16-.04-.28-.24-.46-.27-.27-.04-.58.19-.81.18-.15-.01-.26-.17-.41-.2-.29-.04-.58.18-.82.16-.13,0-.26-.15-.42-.16-.71-.07-.56.49-.89.65-.37.18-1.19.27-1.55.41-.45.18-.79.49-.8,1.01-.23-.23-.91-.26-1.09,0-.29.41.42.35.47.57.04.18-.33.27-.31.61.02.29.36.55.46.79.05.12.03.24.06.3-.54-.1-1.26-.93-1.44-1.44.23-.28-.15-.28-.31-.21h-.39c-2.6-1.46-5.69-1.8-8.63-1.67l-.35-.18c-.53.07-.68.06-.75-.5-.12-.93.48-1.11,1.26-1.27-.13-.93.36-1.12,1.17-1.3.11-.72.53-.94,1.22-.98.4-.32.72-.57,1.25-.65.24-.66.64-.95,1.19-.86l1.14-.31c.55-.48.9-.22,1.37.22.49-.16.86-.13,1.27.2,1.39.08,2.62.46,3.7,1.14,4.08,1.42,7.98,3.76,11.59,6.18Z"/>
  <path class="st3" d="M61.44,31.98c.22-.16.38-.07.31.21.54.41.97.96,1.44,1.44,1.39,3.48-1.3,5.12-4.22,6.08l-.37.05c-.16-.89-.25-1.79-.28-2.7-.5-.98-.86-2.03-1.08-3.16-1.06-2.48-3.17-2.9-4.89-.65-.39.52-.82,1.12-.93,1.73-.37.61-.96,1.01-1.77,1.2-.46.82-1.02,1.58-1.66,2.28-.12.3-.23.58-.35.84-1.28-.6-3.02-1.62-3.4-3.09-.5-.49-.43-1.75.1-2.16-.2-.11-.12-.21.1-.21.18-.37.92-1.27,1.27-1.51.23-.16.84-.51,1.1-.65l.19-.33c.97-.48,2-.83,3.05-1.08.18.13.41.16.68.07l.49-.1c.04-.29.24-.32.61-.08-.02-.29.08-.26.24-.02,2.9-.24,6.9.23,9.37,1.85Z"/>
  <path class="st2" d="M75.34,41.36c.5-.14,1.02-.09,1.56.15.33-.17.6-.23.81.16.06.01.19.07.31.1.46-.05.77.05.93.31,1.95.74,4.26,2.32,2.86,4.66-.71,1.2-2.3,1.85-3.58,2.23-.09-.27,0-.58.27-.94.35-.69.4-1.14-.08-1.75l-.34-1.18c-.29-3.79-4.09-4.13-5.06-.5-.3.52-.62.98-1.22,1.14-.32.53-.68,1.02-1.08,1.47-.02.44-.22.85-.43,1.23.01.12-.09.19-.31.21-.25-.05-.51-.29-.72-.41-.51.03-.75-.11-.72-.41-.58-.42-1.18-1.03-1.34-1.75-.74-3.34,4.41-4.59,6.8-4.74.41-.03.93-.03,1.34,0Z"/>
  <path class="st75" d="M47.75,39.3c.21-.22.22-.34.23-.66.58-.94,1.59-1.68,2.72-1.83.66-.54,1-1.18.99-2.03,1.13-4.41,5.94-3.75,5.73.98-.04.93-.15,2.28-1.13,2.65l.07.31c.45.48.79.98.2,1.31l.05.2s-.11.09-.21.1l-1.03.1c-.1,0-.21,0-.31,0l-.37-.04c-1.18-1.36-4.67-2.54-5.93-.84l-.5-.05c-.24-.09-.3-.11-.51-.21Z"/>
  <path class="st25" d="M47.65,39.3c-.12-.28-.05-.54.08-.79.28-.52.81-.98,1.15-1.42.13-.17.54-.98.64-1.06.26-.21,1.08-.28,1.52-.8.32-.37.21-.65.34-.95.01-.03.15-.06.21-.16.68-1.2,1.34-2.29,2.8-2.54.81-.14,1.88.5,2.42,1.07.63.66.99,2.65,1.28,3.56.09.27.37.57.43.79.18.67-.05,1.5.22,2.38.05.18-.07.39.23.33-.96.31-1.41.36-2.37.51-.55.01.13-.55.09-.76-.03-.17-.74-.61-.59-1.13.05-.19.41-.22.55-.38.67-.77.73-3.43.3-4.31-.6-1.24-1.77-1.91-3.13-1.51-.85.25-1.8,1.96-1.95,2.79-.16.89.15.51-.42,1.33-.74,1.08-.68.62-1.75,1.03-.25.1-1.41,1.08-1.49,1.29-.13.31.11.78-.46.72-.03-.01-.07.01-.1,0Z"/>
  <path class="st12" d="M56.4,40.33s-.14.08-.31.1c-.23.03-.49-.02-.72,0,.24-.22.71-.06,1.03-.1Z"/>
  <path class="st29" d="M88.32,71.12c.38,2.13-.31,3.88-1.44,5.66-.03.29-.11.45-.26.48-.39.56-.85.95-1.39,1.17-.11.1-.25.27-.31.31-3.83,2.88-10.99,3.1-14.11-.93-.33,0-.5-.22-.31-.51.36.03.71.23,1.07.62.35.15.57.36.68.62l-.21-.21v-1.96l.21-.15c-.24-.2-.21-.55.11-1.04.53-.91.99-1.73,1.06-2.8l.57-1.47c-.08-.35-.01-.52.22-.51l.25.04c.4.69,1.32.82,1.93.33.81-.06.47,1.68.18,2.1l.21.08c.05.51.14,1.01.28,1.5l.46.12c2.5,2.51,6.4-.44,4.24-3.39l.06-.25c-.89-.81-1.85-1.38-3.09-1.17-.15-.08-.27-.21-.35-.38-.55.17-1.29-.46-.57-.51.13-.23.5-.3.76-.31,1.95-.11,4.2.77,5.97,1.53.58.05,1,.4,1.25,1.05.69,1.02,1.05,1.8.82,3.05.23.35.38.76.45,1.2.97-1.09,1.09-2.64,1.05-4.03l.2-.23Z"/>
  <path class="st58" d="M80.29,64.22c.57-.07,1.05.03,1.44.31.27.06.4.14.62.21.94-.02,2.15.57,2.78,1.24.25.17.69.6.93.82.27.11.59.32.62.62.17.2.27.42.41.62.74,1.06,1.01,1.8,1.24,3.09.07,1.42-.06,3.16-1.01,4.3-.5.6-.51-.34-.64-.75-.05-.16-.23-.31-.26-.44-.08-.36.16-1.04,0-1.56-.05-.16-1.19-2.13-1.29-2.21-.25-.18-.5-.11-.72-.21-.55-.26-1.13-.52-1.76-.71-1.38-.43-2.51-.78-3.96-.78-.29,0-.58.16-.88.11-.37-.27-.78-.44-1.23-.6-.48-.82-1.67-.23-1.76.56l-.55.83c.04.32.02.57-.07.76-.12.12.03.33-.01.54-.07.33-.45,1.09-.57,1.49-.11.37-.09.72-.18,1.05-.23.82-1.19,1.95-1.19,2.73v2.32c-.68-.27-1.21-.78-1.75-1.24-.39-.17-.69-.53-.88-1.09-.3-.44-.38-.83-.25-1.18-.1-.31-.16-.27-.21-.72-.47-.88-.2-2.34.08-3.31.21-.72.54-1.63,1.08-2.12-.04-.09-.07-.16-.04-.21.53-.86,1.25-1.68,2.1-2.13.02-.12.05-.24.15-.32.48-.4,1.08-.75,1.64-1.04.96-.49,2.28-1.08,3.34-.86.78-.12,2-.17,2.78-.1Z"/>
  <path class="st11" d="M69.17,74.31c-.65-.13-.28-.21-.36-.42-.06-.16-.25-.29-.25-.45s.16-.29.18-.44c.02-.16-.09-.31-.07-.47.02-.14.2-.27.17-.42-.01-.06-.35-.44-.44-.59-.07-.12-.14-.47-.18-.49-.23-.16-.64.31-.5-.53.15-.07.58.11.6.09.03-.03.03-.19.12-.24.28-.16.36-.22.59-.37.16-.1.78-.26.71-.52-.06-.22-.4-.35-.37-.61,1.68.25.5-.21.41-.67-.08-.42-.2-2.56.51-2.42.08.65-.2,1.23,0,1.85.33.1.43-.27.62-.36.17-.08.41-.03.52-.1.14-.09.05-.38.11-.45.13-.15.66.03.76-.12.13-.21-.08-.49-.04-.75.09-.59.6-.31.94-.38.08-.02.19-.34.39-.46.08-.05,1.61-.74,1.7-.75.64-.07.46.03,1.17-.19.54-.17.63.06,1.03.26-4.95.76-8.86,4.83-8.34,9.99Z"/>
  <path class="st11" d="M70.81,77.81c-.94.22-.85-.3-1.28-.62-.17-.12-.47-.14-.55-.23-.19-.21.05-.65-.11-.86-.12-.14-.42-.15-.54-.29s-.07-.45-.19-.53c-.14-.1-.49-.01-.52-.04-.22-.21.35-.93.56-.93.42,0,.13.47.16.51.04.05.71.15.72.47l.31-.26c.29.9.62,1.48,1.13,2.27.1.15.16.33.31.51Z"/>
  <path class="st11" d="M86.88,59.28s-.14.49-.15.51c-.14.19-.91.11-1.11,0-.28-.16-.18-.85.09-.91.11-.02,1.14.35,1.17.4Z"/>
  <path class="st11" d="M85.13,65.97c-.81-.55-1.85-.95-2.78-1.24.76-.4,1.18.1,1.72.39.43.23.94.16,1.06.85Z"/>
  <path class="st11" d="M63.9,72.57c.41.66-.85.72-1,.48-.04-.06-.04-.46,0-.49.05-.06.91-.15,1.01,0Z"/>
  <path class="st11" d="M89.86,58.35c-.41.37-.89.22-1.34,0,0-.01-.19-.13.07-.19.2-.05.92-.05,1.1,0,.13.04.16.18.17.19Z"/>
  <path class="st56" d="M82.96,61.02c.08.05.15.98.1,1.03-.78.15-.6-1.35-.1-1.03Z"/>
  <path class="st56" d="M83.69,60.31c.55-.32.96.27.51.67-.24.11-.6-.43-.51-.67Z"/>
  <path class="st56" d="M85.92,60.31c.38-.1.62.48.16.6-.38.1-.62-.48-.16-.6Z"/>
  <path class="st11" d="M81.73,64.53c-.41-.1-1.06-.27-1.44-.31.57.01,1.11-.38,1.44.31Z"/>
  <rect class="st11" x="63.5" y="68.33" width=".52" height=".52"/>
  <rect class="st11" x="64.94" y="71.53" width=".52" height=".52"/>
  <rect class="st11" x="61.86" y="71.63" width=".52" height=".52"/>
  <path class="st11" d="M63.92,70.91h-.52s0-.51,0-.51c.43-.05.57.09.51.51Z"/>
  <path class="st11" d="M64.12,71.22c.05.43-.09.57-.51.51v-.52s.51,0,.51,0Z"/>
  <path class="st11" d="M67.11,72.25h-.52s0-.51,0-.51c.43-.05.57.09.51.51Z"/>
  <path class="st11" d="M67.67,67.82c.47-.13.47.65,0,.51-.21-.06-.21-.45,0-.51Z"/>
  <path class="st11" d="M67.06,75.13c.47-.13.47.65,0,.51-.21-.06-.21-.45,0-.51Z"/>
  <path class="st11" d="M61.39,72.87c.47-.13.47.65,0,.51-.21-.06-.21-.45,0-.51Z"/>
  <path class="st11" d="M67.37,66.69c.47-.13.47.65,0,.51-.21-.06-.21-.45,0-.51Z"/>
  <path class="st11" d="M65.31,68.44c.47-.13.47.65,0,.51-.21-.06-.21-.45,0-.51Z"/>
  <path class="st11" d="M76.27,61.85c-.11-.02-.49.03-.51,0-.25-.26.6-.73.51,0Z"/>
  <path class="st56" d="M77.67,63.71c.41-.12.73.2.4.29-.41.12-.73-.2-.4-.29Z"/>
  <path class="st11" d="M86.67,67.41c-.12-.14-.46-.47-.62-.62.28-.04.82.36.62.62Z"/>
  <path class="st65" d="M44.35,34.04c-.24.68-.28,1.45-.1,2.16-.23-.03-.61-.5-.77-.49-.08,0-1.18.87-1.33,1.01-.82.82-1.69,1.71-2.49,2.56-.19.2-.24.48-.45.68-.29.26-.62.19-.84.4-.54.52-1.22,1.98-1.79,2.43-.16.13-.47.14-.55.23-.26.31-.36,1.12-.49,1.42-.14.33-.71.36-.76.43-.05.08,0,.53-.04.74-.05.24-.2.38-.26.56-.06.21.01.43-.08.64-.1.23-1.17.89-1.4,1.21-.16.24.07.34.1.51.07.46-.52.48-.71.69-.03.03-.37.61-.38.64-.26.89.42,2.11-.49,2.81-.65.5-1.14.26-1.59.47-.05.02-.72.67-.72.72,0,.23.79.35.97.36,1.36.12,2.78-.07,4.12-.11,2.37-.06,4.75-.11,7.1-.11,1.36,0,2.72,0,4.07,0-1.25.3-2.65-.1-3.91.21-.07,0-.14,0-.21,0l-14.42.1c-.09-1.06,1.89-.76,2.27-1.18.35-.39.18-1.54.32-2.04s.86-.9.96-1.1c.22-.48-.05-1.41.52-2.05.16-.18.57-.14.71-.42.23-.45.03-1.07.15-1.39.05-.14.88-1.37.96-1.41.2-.09.48-.04.65-.17s.24-.63.37-.87c.11-.21.78-.88.95-1,.24-.17.52-.01.73-.2.36-.31.29-1.29.4-1.45.1-.14.73-.11.98-.26.18-.11.42-.52.52-.66.3-.43.17-.37.62-.72l.22-.31c1.91-1.6,3.77-3.28,5.6-5.02.17-.16.47-.31.46-.02Z"/>
  <path class="st12" d="M55.06,40.43c-.06,0-.2.1-.36.1-1.81.05-2.29-.98-4.23-.82-1.33.11-.88.28-2.21-.21.46.04.66-.52.98-.72,1.05-.67,3.91.07,4.89.78.32.23.58.64.93.87Z"/>
  <path class="st21" d="M43.84,49.8c-.07-.07.04-.46.26-.41.38.08-.06.61-.26.41Z"/>
  <path class="st21" d="M44.76,48.05v.41c-.41,0-.4-.41,0-.41Z"/>
  <path class="st26" d="M70.2,48.67c.46-.33.82-.8,1.08-1.39l.42-.17c1.51.02,2.04-.54,1.6-1.69.33-5.16,5.93-3.33,4.12,1.19-1,.53-.94,1.16.19,1.89v.57c-.13.03-.23.07-.4.1-.48.12-.76,0-1.11-.31-1.4-.62-3.9-1.57-4.99-.06l-.6.07c-.14-.04-.26-.02-.31-.21Z"/>
  <path class="st69" d="M70.3,48.46l.26-1.34c.48-.38.69-1.06,1.11-1.52.11-.12.38-.13.51-.24,1.16-.98,1.26-3.29,3.12-3.4.18-.01.34.08.51.09s.33-.11.51-.09c.15.02.91.67,1.04.82.7.83.94,2.61,1.36,3.69.05.12.21.11.23.2.19.82-.35,1.63-.72,2.3-.1.03-.21.08-.31.1l-.17-.16c-.16-.83-.22-1.67-.18-2.52,1.3-3.65-3.03-6.17-4.13-1.86l-.36,1.59c-.51.29-1.04.57-1.57.84-.33.53-.68,1.04-1.05,1.53l-.16-.04Z"/>
  <path class="st23" d="M77.92,49.08c-.08.02-.22-.02-.31,0-.4.06-.06-.2-.15-.41-.13-.28-.95-.75-.99-1.09-.07-.75.75-.92.9-1.26.45-.98.34-2.74-.52-3.49-.52-.46-1.47-.54-2.1-.27-.08.03-.83.79-.87.88-.12.27-.39,1.49-.39,1.78,0,.45.37.99.01,1.55s-1.62.35-2.11.67c-.44.29-.36,1.22-1.19,1.23-.07,0-.15.01-.21,0,.09-.08.22-.13.31-.21.59-.56.71-1.28,1.02-1.6s1.51-.69,1.6-.87c.22-1,.49-2.45,1.23-3.2.09-.09.56-.46.64-.49.11-.03,1.07-.11,1.22-.11.26,0,.89.45,1.08.65,1.29,1.38.61,2.97.61,4.54,0,.51.42,1.08.21,1.7Z"/>
  <path class="st17" d="M77.2,49.18c-.65.12-.96.18-1.65.21-1.18-.48-2.34-.9-3.61-.42h-.51c-.04.23-.17.14-.31,0-.22-.04-.35-.02-.62-.1.59-.08.71-.69,1.14-.86,1.25-.51,3.48.08,4.62.72.3.17.4.61.94.45Z"/>
  <path class="st1" d="M75.55,49.39c-1.08.04-2.12-.07-3.19-.1-.46.03-.77-.07-.93-.31,1.18-.67,3.12-.55,4.12.41Z"/>
  <path class="st21" d="M75.34,41.36c.26-.02.41-.29.67-.3.4-.02.4.59,1.02.41.17-.05,0-.7.47-.52l.21.72c-.71-.15-1.67-.27-2.37-.31Z"/>
  <path class="st21" d="M69.27,48.26c-.25-.15-.87.46-1.03.31-.27-.27.58-.45.31-.72.08.06.57.33.72.41Z"/>
  <path class="st21" d="M71.43,48.98c.22.04.68.24.93.31-.47-.02-.91.32-1.24-.31.09.02.21-.02.31,0Z"/>
  <path class="st21" d="M78.95,42.08c-.26-.1-.67-.25-.93-.31.43,0,.96-.36.93.31Z"/>
  <path class="st37" d="M85.23,78.43c.43-.38.82-.9,1.23-1.3.19-.18.13.1.41-.35-.08.23.11.59.08.76,0,.05-.65.81-.7.83-.23.14-.75,0-1.03.05Z"/>
  <path class="st10" d="M91.3,57.01c-.31.2-.26.34-.72.41.21-.18.41-.44.72-.41Z"/>
  <path class="st49" d="M57.94,77.09c.64-.86.92-.11.72.62-.07-.08-.64-.56-.72-.62Z"/>
  <path class="st49" d="M58.77,77.81c.8-.21,1.03.25.62.93-.08-.16-.5-.8-.62-.93Z"/>
  <path class="st59" d="M41.26,58.35c.33.29-1.16.42-1.28.42-1.14,0-2.22-.04-3.37.12-.46.07-.87.33-1.37.38-.89.09-1.77.08-2.7.18-4.74.49-10.03.47-14.67,1.29-.54.1-2.89,1-1.98-.44,1.06-1.67,3.52-1.41,5.25-1.44,1.83-.03,3.7-.03,5.55-.11,2.08-.09,4.75-.51,6.8-.31.27.03.48.23.71.21.18-.01.36-.18.62-.21,2.06-.2,4.37.23,6.44-.1Z"/>
  <path class="st73" d="M55.19,63.26c-.07-.06-.12-.23-.23-.33-.55-.51-.69-.47-.8-1.36-.15-1.17.22-2.59,1-3.48.88-1,2.48-.8,3.45-.05s1.33,1.76,1.3,2.94c-.04,1.33-.83,1.63-1.63,2.49-.81.15-2.41.33-3.08-.21Z"/>
  <path class="st55" d="M85.85,39.4c2.43,2.58,4.77,5.51,6.18,8.75.34.79,1.1,2.35,1.24,3.09-.59-.88-.86-1.91-1.32-2.85-.99-2.01-2.26-3.88-3.58-5.69l-1.18-1.24c-1.32-1.84-3.03-3.34-4.63-4.94-.17-.17-.35-.45-.51-.62l1.9,1.55c.59.69,1.29,1.3,1.91,1.96Z"/>
  <path class="st4" d="M16.65,62.05c-.31.33-.77.1-1.13.1.27-.19.78-.1,1.13-.1Z"/>
  <path class="st53" d="M33.4,71.77c.3.35.33,1.61.19,2.03-.18.57-1.46,1.44-2.07,1.44-.72,0-2.06-.57-2.37-1.25-.39-.87.08-2.84.98-3.23.6-.26,1.87-.25,2.41.15.09.07.75.75.84.86Z"/>
  <path class="st36" d="M54.63,80.51c.99-.07,2.05,1.09,1.55,2.07-.71,1.37-3.36,1.02-2.74-1.09.18-.61.56-.93,1.19-.98Z"/>
  <path class="st65" d="M76.48,31.98c-3.21-2.08-6.66-3.91-10.09-5.51-.51-.24-1.17-.29-1.65-.51-.36-.17-.58-.51-1.02-.63-.89-.24-1.67-.3-2.53-.46-.23-.04-.37-.27-.63-.3s-.52.13-.69.09c-.15-.03-.48-.47-.76-.48-.17,0-.32.22-.52.27-.53.12-.69.18-1.13.31-.2.06-.49-.04-.63.04-.1.05-.27.65-.49.79-.18.12-.45.09-.63.19-.22.12-.44.4-.65.48-.25.09-.52.02-.76.17-.3.18-.32.74-.39.8s-.81.15-1.01.38c-.22.25,0,.67-.15.88-.12.17-1.04.14-1.17.58-.11.36-.1,1.27.49,1.06-.32.03-1,.14-1.34.21-.1-.22.05-.26.23-.31-.09-.5-.93.26-.39.12l.15.19c-1.28.23-2.77.72-3.91,1.34-.24-.89.71-1.19,1.18-1.65.95-.93,2.01-1.96,2.95-2.92.6-.62,1.18-1.24,1.75-1.85.4-.42,2.44-1.83,2.95-1.99,1.72-.55,4.12.36,5.82.93,4.72,1.6,10.16,4.46,14.34,7.18.26.17.51.34.67.62Z"/>
  <path class="st57" d="M44.45,33.84c-.03.06-.09.16-.1.21-.2-.27-.41.29-.57.41-1.13.91-2.16,1.78-3.18,2.79-.91.9-1.51,1.36-2.53,2.15.01-.55.5-.57.77-.82,1.4-1.28,2.76-2.69,4.16-3.97.33-.3,1.01-.99,1.45-.77Z"/>
  <path class="st21" d="M61.44,31.98c-.13-.34.53-.26.62-.05.11.27-.07.29-.31.26-.1-.07-.21-.14-.31-.21Z"/>
  <path class="st45" d="M56.17,35.56c-.08.08-.27.09-.38.18-.2.17-.11.32-.48.45-.96.34-2.17.07-2.3-1.08-.03-.23.07-1.31.15-1.48.03-.06.69-.61.78-.66.77-.42,1.95,0,2.25.82.12.33.21,1.54-.02,1.77Z"/>
  <path class="st0" d="M77.82,68.85s-.11.08-.1.14c.07.26.55.12.75.18.16.05.17.32.34.38.2.07.54-.01.8.03.87.13,1.67.66,2.23,1.33l-.2.14c-1.68-1.56-4.22-1.4-4.48,1.24-.11.51-.3.7-.58.58,0-.53.4-1.56-.1-1.91-.11-.08-.24.21-.47.26-.79.15-1.45-.1-1.8-.82-.42-.87.03-.96.43-1.68.08-.14.06-.35.14-.48.09-.15.8-.53.97-.57.65-.17.56.18.94.41s1.06.2,1.13.78Z"/>
  <path class="st18" d="M81.83,70.91c.31.37.59.74.67,1.23.2,1.15.1,1.95-.78,2.74-.98.88-1.78,1.03-3.03.66-.74-.22-.85-.56-1.26-.79-.14-.08-.48-.09-.53-.14-.1-.11-.33-1.48-.33-1.73.46-.33.42-1.06.59-1.53.54-1.49,2.09-1.8,3.45-1.23.39.16.79.66,1.21.8Z"/>
  <path class="st34" d="M75.21,42.92c1.22-.36,1.88.69,1.79,1.79-.12,1.5-2.39,1.46-2.66.28-.14-.64.19-1.87.87-2.07Z"/>
  <path class="st50" d="M55.44,61.77c-.13-.16-.3-.08-.42-.46-.39-1.23.51-3.3,1.93-3.27s2.47,1.27,2.33,2.62c-.07.67-.84,1.74-1.52,1.88-.47.1-1.63-.03-2.03-.3-.2-.13-.18-.33-.3-.48Z"/>
  <path class="st14" d="M30.83,71.55c.93-.21,2.15.26,2.07,1.34-.11,1.43-1.91,2.06-2.76.85-.44-.62-.06-2.02.69-2.19Z"/>
  <path class="st30" d="M54.52,81.13c.22-.05,1,.1,1.11.29.15.25.1.98-.16,1.18-1.22.96-2.24-1.16-.95-1.47Z"/>
  <path class="st62" d="M50.74,30.34c-.47.06-.94.03-.4-.46.49-.45.79-.26.92.35-.2-.09-.42.09-.51.1Z"/>
  <path class="st42" d="M77.95,74.48c-.07-.06-.48-.61-.5-.68-.31-.98.5-3.19,1.66-3.3.15-.01,1.23.09,1.41.13,1.26.26,2.05,2.17,1.4,3.31-.25.43-1.16,1.3-1.67,1.3-.65,0-1.8-.31-2.3-.75Z"/>
  <path class="st38" d="M56.01,61.41c-.44-.48-.37-2.28.55-2.44,1.32-.22,2.26.52,2,1.9-.17.87-2.08,1.04-2.55.54Z"/>
  <path class="st39" d="M78.56,73.97c-.31-.32-.26-1.45-.1-1.85s.95-.79,1.36-.8c2.09-.03,2.33,3.41-.21,3.09-.18-.02-.96-.34-1.05-.44Z"/>
</svg>