<?xml version="1.0" encoding="UTF-8"?>
<svg id="Layer_1" xmlns="http://www.w3.org/2000/svg" version="1.1" viewBox="0 0 250 250">
  <!-- Generator: Adobe Illustrator 29.6.1, SVG Export Plug-In . SVG Version: 2.1.1 Build 9)  -->
  <defs>
    <style>
      .st0 {
        fill: none;
        stroke: #000;
        stroke-linecap: round;
        stroke-linejoin: round;
        stroke-width: 5px;
      }
    </style>
  </defs>
  <line class="st0" x1="116.84" y1="182.95" x2="122.41" y2="161.15"/>
  <line class="st0" x1="125.92" y1="185.27" x2="131.5" y2="163.48"/>
  <line class="st0" x1="107.75" y1="180.62" x2="113.33" y2="158.82"/>
  <path class="st0" d="M135,187.6c6.02,1.54,9.64,7.67,8.11,13.69-1.54,6.02-7.66,9.65-13.69,8.11-3.14-.8-5.62-2.86-7.07-5.5-2.6,3.75-7.34,5.68-12.03,4.48-4.67-1.2-7.91-5.17-8.39-9.7-2.54,1.62-5.7,2.22-8.84,1.42-6.02-1.54-9.64-7.67-8.11-13.69s7.67-9.65,13.69-8.11"/>
  <path class="st0" d="M116.04,85.88c-1.35,1.01-2.6,2.15-3.75,3.38h0c-4.66,5.02-7.5,11.74-7.5,19.12,0,10.79,6.08,20.17,15,24.88"/>
  <path class="st0" d="M126.4,80.25c-8.29,0-15-6.71-15-15s6.71-15,15-15,15,6.71,15,15h7.5c7.5,0,18.75,7.5,18.75,15,0,0,16.88,0,16.88,7.5s-13.12,13.12-20.62,13.12h-13.17"/>
  <line class="st0" x1="150.73" y1="110.25" x2="173.23" y2="110.25"/>
  <line class="st0" x1="125.21" y1="150.73" x2="131.04" y2="129"/>
  <line class="st0" x1="131.03" y1="129" x2="125.21" y2="150.74"/>
  <path class="st0" d="M138.54,135.94c9.06-1.84,16.55-8.04,20.16-16.31"/>
  <path class="st0" d="M79.48,91.5c0-4.22,3.48-7.63,7.73-7.5,3.99.12,7.27,3.5,7.27,7.5,0,1.36-.37,2.65-1,3.75l-8.32,12.46c-1.55,2.29-2.28,5.2-1.75,8.27.8,4.7,4.64,8.44,9.36,9.14,2.76.41,5.36-.19,7.51-1.47"/>
  <circle cx="156.35" cy="84" r="3.5"/>
</svg>