<?xml version="1.0" encoding="UTF-8"?>
<svg id="Layer_1" xmlns="http://www.w3.org/2000/svg" version="1.1" viewBox="0 0 110 110">
  <!-- Generator: Adobe Illustrator 29.6.1, SVG Export Plug-In . SVG Version: 2.1.1 Build 9)  -->
  <defs>
    <style>
      .st0 {
        fill: #0197ec;
      }

      .st1 {
        fill: #49507d;
      }

      .st2 {
        fill: #0048a8;
      }

      .st3 {
        fill: #004db0;
      }

      .st4 {
        fill: #505060;
      }

      .st5 {
        fill: #005bbb;
      }

      .st6 {
        fill: #d28009;
      }

      .st7 {
        fill: #0071d7;
      }

      .st8 {
        fill: #7c1200;
      }

      .st9 {
        fill: #e0912e;
      }

      .st10 {
        fill: #eda728;
      }

      .st11 {
        fill: #0048ae;
      }

      .st12 {
        fill: #019bec;
      }

      .st13 {
        fill: #6f7995;
      }

      .st14 {
        fill: #3f1c08;
      }

      .st15 {
        fill: #d58610;
      }

      .st16 {
        fill: #e39925;
      }

      .st17 {
        fill: #023da7;
      }

      .st18 {
        fill: #124584;
      }

      .st19 {
        fill: #91939d;
      }

      .st20 {
        fill: #3396e7;
      }

      .st21 {
        fill: #16407b;
      }

      .st22 {
        fill: #0056c8;
      }

      .st23 {
        fill: #339fec;
      }

      .st24 {
        fill: #295494;
      }

      .st25 {
        fill: #092663;
      }

      .st26 {
        fill: #2ca1ec;
      }

      .st27 {
        fill: #2b5590;
      }

      .st28 {
        fill: #012b83;
      }

      .st29 {
        fill: #697080;
      }

      .st30 {
        fill: #004abf;
      }

      .st31 {
        fill: #2b51ad;
      }

      .st32 {
        fill: #f0af36;
      }

      .st33 {
        fill: #882600;
      }

      .st34 {
        fill: #d48723;
      }

      .st35 {
        fill: #232f50;
      }

      .st36 {
        fill: #e6a046;
      }

      .st37 {
        fill: #1d7cda;
      }

      .st38 {
        fill: #e69f45;
      }

      .st39 {
        fill: #0e1f41;
      }

      .st40 {
        fill: #0079d9;
      }

      .st41 {
        fill: #4a9ee9;
      }

      .st42 {
        fill: #4a5060;
      }

      .st43 {
        fill: #1c4e90;
      }

      .st44 {
        fill: #ee9c04;
      }

      .st45 {
        fill: #0b0e1c;
      }

      .st46 {
        fill: #254d88;
      }

      .st47 {
        fill: #f0ac34;
      }

      .st48 {
        fill: #3498e7;
      }

      .st49 {
        fill: #0f52aa;
      }

      .st50 {
        fill: #223168;
      }

      .st51 {
        fill: #019deb;
      }

      .st52 {
        fill: #4d98e2;
      }

      .st53 {
        fill: #004fb0;
      }

      .st54 {
        fill: #f0ad50;
      }

      .st55 {
        fill: #211f4d;
      }

      .st56 {
        fill: #6b5770;
      }

      .st57 {
        fill: #050b32;
      }

      .st58 {
        fill: #de8e03;
      }

      .st59 {
        fill: #0e1e3f;
      }

      .st60 {
        fill: #ea3;
      }

      .st61 {
        fill: #005dbf;
      }

      .st62 {
        fill: #040711;
      }

      .st63 {
        fill: #0083df;
      }

      .st64 {
        fill: #04124d;
      }

      .st65 {
        fill: #7399d9;
      }

      .st66 {
        fill: #1d3c70;
      }

      .st67 {
        fill: #efad37;
      }

      .st68 {
        fill: #472e4c;
      }

      .st69 {
        fill: #029beb;
      }

      .st70 {
        fill: #321a18;
      }

      .st71 {
        fill: #1b3c70;
      }

      .st72 {
        fill: #38588d;
      }

      .st73 {
        fill: #b25901;
      }

      .st74 {
        fill: #e79e1c;
      }

      .st75 {
        fill: #f0ad38;
      }

      .st76 {
        fill: #e9a753;
      }

      .st77 {
        fill: #024196;
      }

      .st78 {
        fill: #004aad;
      }

      .st79 {
        fill: #008ce5;
      }

      .st80 {
        fill: #e17601;
      }

      .st81 {
        fill: #293551;
      }

      .st82 {
        fill: #7d7d85;
      }

      .st83 {
        fill: #3c4055;
      }

      .st84 {
        fill: #2290e6;
      }

      .st85 {
        fill: #422a63;
      }

      .st86 {
        fill: #0066ca;
      }

      .st87 {
        fill: #0d478a;
      }

      .st88 {
        fill: #eaa116;
      }

      .st89 {
        fill: #d5860d;
      }

      .st90 {
        fill: #24213c;
      }

      .st91 {
        fill: #d59c72;
      }

      .st92 {
        fill: #111c38;
      }

      .st93 {
        fill: #38a1ed;
      }

      .st94 {
        fill: #4c4542;
      }

      .st95 {
        fill: #abb4c7;
      }

      .st96 {
        fill: #707480;
      }

      .st97 {
        fill: #af5504;
      }

      .st98 {
        fill: #54709e;
      }

      .st99 {
        fill: #0d1d3f;
      }

      .st100 {
        fill: #007ad9;
      }

      .st101 {
        fill: #1c2545;
      }

      .st102 {
        fill: #151b36;
      }

      .st103 {
        fill: #18325d;
      }

      .st104 {
        fill: #0078d8;
      }

      .st105 {
        fill: #02287b;
      }

      .st106 {
        fill: #0097ea;
      }

      .st107 {
        fill: #a14f09;
      }

      .st108 {
        fill: #e1ae8b;
      }

      .st109 {
        fill: #0029a0;
      }

      .st110 {
        fill: #2895e6;
      }

      .st111 {
        fill: #120d12;
      }

      .st112 {
        fill: #265493;
      }

      .st113 {
        fill: #9f440c;
      }

      .st114 {
        fill: #010817;
      }

      .st115 {
        fill: #234f8b;
      }

      .st116 {
        fill: #0a2e7e;
      }

      .st117 {
        fill: #2498e9;
      }

      .st118 {
        fill: #546a94;
      }

      .st119 {
        fill: #60425b;
      }

      .st120 {
        fill: #0d1632;
      }

      .st121 {
        fill: #3b4665;
      }

      .st122 {
        fill: #2655b4;
      }

      .st123 {
        fill: #5c406d;
      }

      .st124 {
        fill: #154485;
      }

      .st125 {
        fill: #265593;
      }

      .st126 {
        fill: #026ecb;
      }

      .st127 {
        fill: #2e4d9b;
      }

      .st128 {
        fill: #022e7e;
      }

      .st129 {
        fill: #0081e0;
      }

      .st130 {
        fill: #984915;
      }

      .st131 {
        fill: #003c9c;
      }

      .st132 {
        fill: #2c9bea;
      }

      .st133 {
        fill: #657496;
      }

      .st134 {
        fill: #0096eb;
      }

      .st135 {
        fill: #3a5d93;
      }

      .st136 {
        fill: #dc8b56;
      }

      .st137 {
        fill: #17407e;
      }

      .st138 {
        fill: #12376c;
      }

      .st139 {
        fill: #a54f07;
      }

      .st140 {
        fill: #eaa014;
      }

      .st141 {
        fill: #046acb;
      }

      .st142 {
        fill: #293771;
      }

      .st143 {
        fill: #831e00;
      }

      .st144 {
        fill: #499fea;
      }

      .st145 {
        fill: #3a0100;
      }

      .st146 {
        fill: #0183df;
      }

      .st147 {
        fill: #4ba3ec;
      }

      .st148 {
        fill: #0b2e6c;
      }

      .st149 {
        fill: #c2651a;
      }

      .st150 {
        fill: #0067ca;
      }

      .st151 {
        fill: #f0ae36;
      }

      .st152 {
        fill: #114a8c;
      }

      .st153 {
        fill: #0085e1;
      }

      .st154 {
        fill: #05102f;
      }

      .st155 {
        fill: #04112b;
      }

      .st156 {
        fill: #dd9545;
      }

      .st157 {
        fill: #3091e3;
      }

      .st158 {
        fill: #353c52;
      }

      .st159 {
        fill: #083470;
      }

      .st160 {
        fill: #5d739a;
      }

      .st161 {
        fill: #3ba1ed;
      }

      .st162 {
        fill: #e6a96e;
      }

      .st163 {
        fill: #710900;
      }

      .st164 {
        fill: #d5b0a1;
      }

      .st165 {
        fill: #eaa427;
      }

      .st166 {
        fill: #8a2500;
      }

      .st167 {
        fill: #4e0400;
      }

      .st168 {
        fill: #2d3b5b;
      }

      .st169 {
        fill: #092255;
      }

      .st170 {
        fill: #a22e08;
      }

      .st171 {
        fill: #019aec;
      }

      .st172 {
        fill: #006fcf;
      }

      .st173 {
        fill: #003083;
      }

      .st174 {
        fill: #35a0ee;
      }

      .st175 {
        fill: #5d6171;
      }

      .st176 {
        fill: #17437e;
      }

      .st177 {
        fill: #285cb3;
      }

      .st178 {
        fill: #0083e0;
      }

      .st179 {
        fill: #0173d5;
      }

      .st180 {
        fill: #da890f;
      }

      .st181 {
        fill: #002779;
      }

      .st182 {
        fill: #003c99;
      }

      .st183 {
        fill: #2a9bea;
      }

      .st184 {
        fill: #3b5d91;
      }

      .st185 {
        fill: #df911a;
      }

      .st186 {
        fill: #041045;
      }

      .st187 {
        fill: #8f909f;
      }

      .st188 {
        fill: #2398e8;
      }

      .st189 {
        fill: #94959c;
      }

      .st190 {
        fill: #006fd1;
      }

      .st191 {
        fill: #152c5e;
      }

      .st192 {
        fill: #de8e09;
      }

      .st193 {
        fill: #0188e1;
      }

      .st194 {
        fill: #2d3b6f;
      }

      .st195 {
        fill: #dc7d2f;
      }

      .st196 {
        fill: #7786a2;
      }

      .st197 {
        fill: #3a9dea;
      }

      .st198 {
        fill: #0089e2;
      }

      .st199 {
        fill: #06081e;
      }

      .st200 {
        fill: #12203f;
      }

      .st201 {
        fill: #bc4a00;
      }

      .st202 {
        fill: #4e91dd;
      }

      .st203 {
        fill: #995d3c;
      }

      .st204 {
        fill: #349feb;
      }

      .st205 {
        fill: #0277d5;
      }

      .st206 {
        fill: #a94d05;
      }

      .st207 {
        fill: #5a0700;
      }

      .st208 {
        fill: #253558;
      }

      .st209 {
        fill: #0069cc;
      }

      .st210 {
        fill: #234d88;
      }

      .st211 {
        fill: #efae39;
      }

      .st212 {
        fill: #0c2551;
      }

      .st213 {
        fill: #e27601;
      }

      .st214 {
        fill: #453560;
      }

      .st215 {
        fill: #009aed;
      }

      .st216 {
        fill: #0c1837;
      }

      .st217 {
        fill: #030510;
      }

      .st218 {
        fill: #007ada;
      }

      .st219 {
        fill: #112246;
      }

      .st220 {
        fill: #edab3c;
      }

      .st221 {
        fill: #213361;
      }

      .st222 {
        fill: #0072d1;
      }

      .st223 {
        fill: #0b1734;
      }

      .st224 {
        fill: #070812;
      }

      .st225 {
        fill: #444d61;
      }

      .st226 {
        fill: #8f2e00;
      }
    </style>
  </defs>
  <path class="st215" d="M88.28,75.21c.15.7.2,1.45.16,2.23.27.61.53,1.23.78,1.86.38.11.5.31.64.65.4.14.7.48.89,1.03.06.22.19.64.21.82l-.08.24c-.43.07-.86.1-1.3.09-7.07,1.84-14.34,3.86-21.45,5.85-1.08.3-1.14,0-1.17-1l-.17-.45c-2.31-2.61-3.56-5.56-4.67-8.88-.18-.52-1.09-3.37-.93-3.9.11-.36.43-.99.83-.7l.2.16c.16,1.47.51,2.9,1.01,4.31-.09.67.1,1.19.55,1.55.07,1.02,2.1,4.49,2.99,4.65.28.05-.77-3.34-.86-3.52-.38-1.73-.58-3.49-.61-5.26l-.82-1.66.12-.21.22-.21c3.79.63,7.89.42,11.52-.92l.2-.18c2.03-.52,3.99-1.25,5.88-2.19l.22-.34c.88-.44,1.77-.89,2.57-1.47l.4-.05.87,2.17c.21,1.46,1.73,4.04,1.81,5.35Z"/>
  <path class="st125" d="M88.49,64.09c.22.9.01.99-.62,1.6-.6.57-1.64,1.51-2.27,2.01-.97.77-2.1,1.3-3.19,1.85-1.77.87-3.59,1.56-5.45,2.07l-.11-.12c-.39.03-.79.06-1.18.09-.11-.57-.13-1.19-.06-1.84-.29-.14-.5-.36-.7-.6-.69.32-1.36.39-2,.21-.75.72-1.83.74-1.58-.46l-.14-.19.12-.26c.82-.14,1.27-.5,1.33-1.08l-2.19-5.45c-.21-.05-.31-.15-.3-.32,0-.34.73-.43.82-.1h.1c.3.18.68.16,1.14-.04l.3.04.26-.14c1.44.36,2.64,0,3.87-.71.38-.13.85-.2,1.14.15l.81,1.63h.14s.83,2.28.83,2.28c.62,1.32,1.01,1.44,2.43,1.12.03-.15.17-.22.41-.21l.13-.21c.55-.07,2.12-.38,2.28-.96.06-.22,0-.45-.07-.67-.66-1.71-1.37-3.41-2.12-5.12-.22-.03-.36-.12-.43-.25,0-.25.29-.38.87-.39.34-.08.32-.46-.07-1.15l.13-.21c.16-.3.83.22.98.39,1.87,2.18,3.15,4.46,4.37,7.02Z"/>
  <path class="st134" d="M86.43,89.84c-.08-.14-.2-.05-.37.27-2.64,1.27-5.49,2.17-8.55,2.71-6.33,1.95-12.67,3.57-19.02,4.83-.7.09-1.42-.03-1.86-.64-.05-.07-.33-1.51-.3-1.59.04-.1.13-.13.24-.13l.24-.02c1.29,3.12,2.78.49,2.75-1.69l.2-.15.05-.13c7.79-1.84,16.53-4.11,24.42-6.35l.66-.42c.37-.43.99-.64,1.54-.52-.06,1.27.3,2.56,0,3.81Z"/>
  <path class="st7" d="M47.71,57.9c.22.25-.01.48-.69.68.41,1.15.53,2.38.36,3.71.19.37.31.76.35,1.17-.11.88-.06,1.49.3,2.29l-.04,2.41c.47,1.29.64,2.82.43,4.2l.31,1.27c.26,5.94.89,11.81,1.91,17.61.89.99.61,1.34-.56,1.79l-.22.17c.91,1.14,1.61,2.39,2.09,3.75.25.43.62.68,1.09.85,1.4.49,3.12.61,4.58.66l.07.14c-.29.17-.7.23-1.03.31-1.96.12-4.11.06-6.05-.47-.79-.22-1.55-.62-1.9-1.39-.3-1.07-.7-2.12-1.18-3.13-.04-.16.21-.93.48-.89-.07-.21.11-.33.55-.38l.27-.14c-.19-.2-.26-.54-.2-1-.73-5.58-1.48-11.18-2.24-16.79-.12-.35-.17-.67-.13-.96-.26.02-.43-.01-.51-.1.06-.14.3-.21.41-.1.71-.25.38-1.15,0-1.56-.54-1.26-.69-2.47-.78-3.88-.16-3.12-.45-6.2-.86-9.23-.35-.14-.76-.4-.36-.71l1.47-.18c.67-.12,1.38-.16,2.06-.1Z"/>
  <path class="st73" d="M32.67,20.2c2.66.88,4.15,3.59,5.05,6.08.07.04.13.09.15.14.81,2.94.68,6.17-1.31,8.63l.03.19c0,.35-.97.63-1.13.31-.46.4-1.31.36-1.9.25-.52-.09-1.47-.35-1.61-.87-.38.18-1.2-.41-1.13-.82-.33.13-.89-.51-.72-.82-.3.13-.7-.45-.51-.72-1.94-3.22-2.32-9.53,2.37-10.4,2.19-.24,3.72,1.74,4.47,3.59.95,2.32,1.07,6.33-1.49,7.64-.07.22-.22.21-.31,0-.33.1-.77.1-1.13,0-.03.09-.06.09-.1,0-.49.33-1.23-.25-1.65-.62-.44-.38-1.14-1.28-1.41-1.8l.07-.27c-1.13-1.32-1.07-4.17,0-5.52.28-.35.92-.94,1.32-.72,3.3-1.17,5.17,5.38,2.65,6.75s-4.44-3.6-2.25-4.66c.41-.2,1-.3.64.23.17.21.18.81,0,1.03l.1.17c-.82.59.46,2.43,1.16,1.29l.29-.12c-.15-.11-.18-.31-.1-.61-.11-.33-.08-.54.1-.63-.21-.11-.35-.34-.41-.72-.21-.27-.28-.51-.21-.73l-.39-.11c-1.07-.96-2.07.07-2.32,1.21-.77,3.44,4.37,6.36,4.84,1.92.2-1.89-.53-3.94-2.07-5.11l-.07-.29c-.5,0-.81-.14-.93-.41-.95.01-1.8.24-2.4,1.03h-.28c-2.67,3.51.74,10.21,5.25,9.27.07-.1.2-.17.41-.21v-.23c.3-.26.61-.49.93-.69l-.02-.35c1.1-1.73.89-3.74.54-5.66l.1-.17c-.04-.16-.11-.28-.3-.28-.58-1.63-1.57-3.49-3.19-4.22l-.12-.23c-.56-.1-1.05-.14-1.65-.1-.1-.23.01-.29.23-.31-1.11.08-2.21.22-3.32.42-.34-.08-.53-.82-.51-1.13.35-.33,1.05-.49,1.54-.52.75-.22,1.78-.31,2.58-.23.04,0,.07.06.1.13Z"/>
  <path class="st129" d="M49.77,57.7l.08.13c-.54.24-.99.51-1.34.84.32.76.44,1.58.34,2.44.35,1.1.45,2.27.29,3.53.38.97.34,1.81.19,2.85-.07.57.04.98.33,1.46-.01.85.13,1.69.43,2.53l.07,2.52c.43,3.54.86,7.07,1.28,10.6l-.11,1.49c.31.37.41.78.3,1.2.3.49.4,1.06.33,1.71.31.38.35.83.1,1.35.53.6.79,1.22.77,1.86-.53.31-1.06.61-1.6.91,1.08,1.09,2.01,2.48,2.35,3.98,1.73,1.32,3.72,1.26,5.77.99-.03.21-.27.34-.72.41-.33.03-.56.1-.93.1-1.23,0-4.1-.21-5.14-.78s-1.08-1.67-1.55-2.57c-.35-.68-.91-1.34-1.33-1.98-.08-.52,1.33-.62,1.33-1.11,0-.16-.47-.61-.57-.87-.18-.49-.09-1.01-.18-1.47-.59-2.99-.78-5.53-1.2-8.48-.37-2.54-.41-5.07-.52-7.61-.02-.45-.29-.94-.31-1.35-.03-.35.13-.63.11-.92-.03-.69-.18-1.57-.22-2.37-.01-.25-.27-.4-.31-.72-.11-.84.13-1.96,0-2.78-.04-.27-.26-.4-.3-.63-.11-.56.11-1.37-.03-1.93-.05-.2-.24-.32-.28-.54-.15-.78.09-1.93-.01-2.77-.03-.27-.4-1.07-.39-1.13.06-.37.91-.31.92-.68.12-.06.26-.1.41-.1.28-.35,1.31-.38,1.65-.1Z"/>
  <path class="st63" d="M62.43,72.33c.05.28-.14.64-.41.72-1.24.6-.38,1.97-.15,2.88.89,3.5,1.82,5.9,3.86,8.91.37.55,1.08,1.08,1.36,1.83.38,1.01-.48,1.57,1.44.97,5.64-1.74,11.43-3.16,17.18-4.66,1.22-.32,2.53-.86,3.78-1.06.49-.08.99.06,1.47-.13.05.67-.37,1.44-.72,1.96-.14-.09-.18-.25-.1-.49-.15-.14-2.93.48-3.16.54-6.89,1.86-13.84,3.77-20.66,5.65-.65.11-1.01-.3-1.09-1.24l-.38-.79c-3.01-3.58-5.36-9.02-5.87-13.71-.13-1.23-.07-2.96,1.62-2.15.55.43,1.14.64,1.76.62l.07.14Z"/>
  <path class="st220" d="M57.9,21.03c.11-.17.21-.16.32,0l.37.91c.19-.23.43-.41.7-.53,2.44-.88,4.99-1.82,7.2-3.18,1.27-.19,2.47-.64,3.66-1.15.37-.21,2.76-.66,3.02-.54s.52,1.25.51,1.62c.19-.18.21-.53.07-1.03l.21-.12c.41,1.44.68,3.06.31,4.53-.13-.41-.27-.54-.43-.4-.34-.07-.66-.18-.97-.32l-.29.18c-.6.78-1.23,1-1.88.65-.27.28-.59.49-.94.64-1.83.41-3.63.83-5.33,1.56-.27.03-.53,0-.8-.08-.63.47-1.09.77-1.92.67-.77.27-1.54.47-2.32.58-.14.25-.29.4-.45.44.07.58.08,1.08-.16,1.67l-.25.09c-.08-.02-.14-.03-.13-.04.03-.28.19-.75.34-.94-.06-.67-.13-1.56-.1-2.3,0-.02.04-.05.1-.07-.28-.75-.52-1.52-.72-2.32-.11-.2-.14-.37-.1-.52Z"/>
  <path class="st99" d="M27.63,37.82c-.18.21-.3.18-.31-.1-.26.06-.53-.11-.81-.52-.27-.14-.42-.31-.43-.51-7.1-3.34-6.96,7.36-6.11,11.72,1.24,6.51,2.46,13.06,3.66,19.66.51,4.56.82,9.12.93,13.67.33,2.82.88,6.26,2.94,8.29-.38-1.63-.28-3.9,1.8-4.22.44-.36.96-.74,1.51-.41.23.39.15.85-.21,1.13-.18.15-.45.22-.79.2-3.1,1.42-.9,5.48,1.72,6.2.06.23-.06.39-.24.52,1.25.55,2.6.58,3.95.6.03-.09.06-.09.1,0l.22.09c.09.36.22,1.31,0,1.56-1.79-.13-3.74-.3-5.39-1.04-1.57-.7-2.93-2.09-3.88-3.49-.18-.36-.14-.67.21-.31.17-.22.42.06.57.23.16.31.44.78.77.64-1.44-1.48-2.42-3.19-2.97-5.12l.09-.18c-.32-.35-.44-.67-.51-1.15-.2-1.53-.43-3.05-.68-4.58-.01.26-.11.51-.36.27-.11-.55-.11-1.09,0-1.6-.14-.32-.2-.75-.21-1.29-.01-.48,0-.96,0-1.44.04-1.26-.03-2.46-.21-3.61,0-.21,0-.41,0-.62.02-.67-.05-1.32-.21-1.96,0-.1.01-.21,0-.31-.08-.36.2-.29.38-.03l-.41-3.97c-1.14-5.23-2.15-10.48-3.12-15.68-.58-3.13-.74-6.36-.5-9.49-.35.16-.44-.11-.26-.8,0-.03,0-.07,0-.1.05-.47.21-.68.47-.64.09-.44.18-.88.25-1.31-.03-.19.06-.47.21-.62.02-.23.21-.6.41-.72.32-.16.6-.4.82-.72-.17-.11.26-.53.41-.41.37-.03.73-.13,1.07-.31,1.49-.45,3.29.37,4.45,1.3.21.17.84.94.65,1.17Z"/>
  <path class="st131" d="M44.62,93.03c.4.02.87.04,1.24.21.19.37-.2.5-.53.57-1.82.12-3.53.54-3.16,2.78.25,1.52,1.58,1.71,2.91,1.88,2.95.1,5.89.35,8.82.75-1.31.18-2.64.07-3.97.1-3.99.1-8.08.3-11.94-.92-.61-.19-1.62-.49-1.93-1.07-.13-.24-.43-1.33-.49-1.62-.08-.41-.17-1.21-.21-1.65-.3-.07-.29-.34,0-.41-.22-.44-.22-.75,0-.93.38-.59,1.06.11,1.36.52.04.04.11.1.16.1,2.2-.04,4.55-.13,6.74-.3-.5-.11-.71-.32-.63-.63.56.12,1.1.33,1.65.62Z"/>
  <path class="st190" d="M63.16,72.02c-.08.05-.18.05-.31,0-.11.22-.3.22-.41,0-.18.06-.35.04-.53,0-2.42-.68-2.98-4.07-3.29-6.21-.11-.78-.37-1.46-.81-2.04l.4,3.07c.13,5.98.71,12.05,3.47,17.53,1.14,1.89,2.17,3.77,3.08,5.66,1.03.04,2.08-.12,3.15-.46,6.83-1.81,13.6-3.61,20.33-5.4.35-.05,1.56-.2,1.19.33.05.03.05.07,0,.1-.23.18-.47.37-.72.52-7.13,1.8-14.7,3.84-21.82,5.79-1.26.44-2.39.43-3.39-.05-3.01-5.93-5.66-12.36-5.95-19.17.09-3.1-.25-6.05-1.02-8.85.91-1.57,2.32,1.25,2.57,2.14.39,1.34.75,2.69,1.08,4.04.69,2.21.88,2.32,2.94,2.8.07.02.08.12.06.21Z"/>
  <path class="st86" d="M57.59,62.33c1.18.94,1.67,2.44,2.12,3.83.27,1.16.54,2.32.93,3.45.22.64.46,1.19,1.05,1.56.7.43,3.82.96,4.62,1.07.66.09,1.32.16,1.99.18.06-.2.15-.2.21,0l1.13.1c.37-.2.76-.2,1.13,0-2.52.54-5.2.16-7.62-.52-.52-.31-1.21-.24-1.74-.58-1.73-1.07-1.79-5.99-3.08-7.94-.13-.19-.74-.88-.92-.94-.31-.09-.68-.04-.71.34-.02.3.58,2,.66,2.59.37,2.62.21,5.48.53,8.12.73,6.12,2.46,10.37,5.14,15.77.35.71.2,1.45,1.3,1.59,1.55.19,4.32-.83,5.88-1.23,5.57-1.43,11.14-2.96,16.73-4.38.48-.12,1.26-.65,1.75-.26-.72.4-1.49.66-2.27.93-.51.18-1.02.36-1.54.52l-.56.31c-6.17,1.92-12.47,3.51-18.77,4.93h-.64s-.34-.05-.34-.05c-.96.19-1.81-.17-2.35-.97-.98-1.44-2.31-5.13-2.8-6.81-1.74-6.03-2.59-12.09-2.65-18.31l-.15-.94c-.44-1.12-1.11-3.84.98-2.37Z"/>
  <path class="st27" d="M75.2,38.13c-.08-.62.45-.45.52.11.6-.14,1.83-.31,2.03.43,2.08-.22,3.36,1.35,4.35,2.96-.03,1.43-2.06,2.74-3.07,3.55.46,1.29,1.18,2.8,1.42,4.14.03.17-.1.31-.1.35,0,.05-.02.11-.04.14-.04.06-1.2-.18-1.3-.35-1.09-3.13-2.14-6.26-3.17-9.38-.29-.64-.5-1.29-.64-1.95Z"/>
  <path class="st165" d="M71.81,13.2c.9,1.03,1.59,2.2,2.06,3.5.03.1.08.23.1.31-.05.32.29,1.19-.16,1.33s-.3-.46-.36-.65c-.09-.32-.32-.56-.2-.98-.6.16-1.28.11-1.88.23-1.07.21-2.27.84-3.35,1.18-.49.16-1.12.18-1.52.33-.49.18-1.31.84-1.9,1.09-1.19.51-2.4.92-3.58,1.47-.87.41-2.01.42-2.45,1.36-.11,0-.4-1.01-.49-1.17-.06-.12-.18-.16-.18-.17-.34-.45-.69-.9-1.05-1.36l.02-.19c-.33-.39-.31-.6.09-.92.62-.51,1.61-1.01,2.39-1.14.18.22.04.48-.39.78-.5.36-1,.77-.84,1.47,0,.04.55.53.59.53.53-.01,2.44-.71,3-.97,1.32-.84,2.7-1.46,4.11-1.86.82-.73,1.81-1.26,2.97-1.6,1.12-.31,1.57-.81,1.33-1.49.69-.63.79-.89.29-.77-.33.57-1.22.76-1.66.21-1.04.44-2.39.68-3.53.83l-.41-.11.12-.24c1.12-.39,2.23-.81,3.33-1.27,1.07-.35,2.9-.91,3.55.28Z"/>
  <path class="st88" d="M74.28,21.54c-.09,1.07-.46,1.83-1.03,2.68-.23-.19-.42-.16-.56.08-.41.06-.82.07-1.24.03-.5.38-.95.53-1.6.31-.64.08-1.27.26-1.89.56-.74.34-1.45.43-2.15.26-.96.32-1.91.47-2.84.46-.25-.41-.68-.5-1.31-.27-.88.33-1.83.57-2.74.41l.02-.6c.21-.91.54-.58,1.16-.74.52-.14,1.02-.37,1.58-.48.28-.05.6.03.89-.03.36-.08.68-.55,1.02-.63.27-.07.42.13.63.11.43-.04,1.6-.63,2.1-.77,1.07-.31,2.25-.5,3.32-.8.47-.13.84-.62,1-.66.21-.05.4.17.61.19.66.08,1.16-1.11,1.73-1.03.27.04.56.4.93.31.28-.07-.04-.4-.04-.65,0-.31.2-1,.35-1.3.04.84.12,1.73.05,2.57Z"/>
  <path class="st218" d="M62.43,72.02c.14,0,.28,0,.41,0,.4.02.64.12.72.31-.18.29-1,.34-1.13,0-.25-.02-.69-.09-.93-.15-.55-.14-1.65-.94-2.11-.46-.12.12-.26,1.07-.26,1.29,0,1.09.47,2.97.77,4.07.38,1.37.91,3.09,1.51,4.36s1.5,3.22,2.31,4.29c.64.84,1.17,1.17,1.64,2.27.43,1-.05,1.52,1.31,1.2,1.52-.36,3.25-.94,4.82-1.36,5.39-1.43,11.05-3.26,16.45-4.45.3-.07,1.95-.37,2.13-.34.41.07.24.44.16.72-.32.48-.42.51-.82.82v-.1c-.02-.2.09-.41.33-.65-1.28.11-2.54.35-3.78.74-6.45,1.84-13.16,3.63-19.65,5.31-1.07.21-1.43.2-1.65-.97l-.48-.97c-3.32-4.31-5.2-9.79-5.69-15.21-.22-2.37.39-3.41,2.26-1.4.47.39,1.04.85,1.68.7Z"/>
  <path class="st79" d="M86.43,89.84c-.08.55-.59,1.11-1.03,1.44-.11.03-.21.01-.32-.04-6.19,1.8-13.26,3.68-19.82,5.27-.32.08-.65.11-.98.13-2.16.68-4.33,1.15-6.52,1.42-2.08.33-3.15-1.35-3.54-3.09l-1.49-1.55c-.16-.18-.39-.51-.25-.73.04-.07,1.24-.7,1.4-.75.51-.14,1.52-.26,2.04-.23l.22.18c.22-.43.85-.24.79.33.4.22.61.45.66.7l-.17.18c-.68-.2-1.31-.2-1.77.43.15.2,1.01,1.54.98,1.63-.01.05-.04.09-.08.12-.13.41.12.72.17,1,.02.11-.07.24-.05.37.09.4.67.77,1.07.79,1.28.08,2.97-.45,4.2-.73,3.2-.73,6.46-1.54,9.62-2.43,1.69-.47,3.38-.94,5.05-1.44,1.38-.42,2.75-.69,4.12-1.03,1.14-.28,2.54-.68,3.63-1.11.18-.07,1.52-.72,1.59-.78.28-.24.14-.67.42-.92.07.22.08.6.05.82Z"/>
  <path class="st61" d="M45.54,93.03c.74.09,1.52.11,2.27,0,.04-.28.1-.25.21,0l-.29.86c.25.42.49.96.65,1.41.35,1,.35,1.98,1.36,2.56,1.41.8,4.78,1.12,6.38.96.17-.02.45-.08.55.09-.84.19-1.56.29-2.27.21-2.69-.17-5.36-.45-8-.84-4.33-.53-2.95-4.11.34-4.83-.44.09-.73.02-.89-.2-.49-.03-.76-.07-1.24-.21-.09-.03-.09-.06,0-.1.14-.28.85-.21.93.1Z"/>
  <path class="st59" d="M18.87,40.19c0,.24,0,.48,0,.72l.51-.31c-.09.27,0,.58-.02.85-.57,5.16.78,10.53,1.75,15.61.57,3.01,1.18,6.12,1.85,9.07.33,2.52.53,5.11.65,7.64-.14-.02-.18-.14-.2-.26-.15-.91.05-2.34-.35-3.15-.02-.04-.21-.41-.27-.19-.89-8.23-3.87-16.81-4.22-25.03-.04-1.01-.06-2.29,0-3.3.03-.53.18-1.13.31-1.65Z"/>
  <path class="st156" d="M70.98,12.17c.38.25.74.68,1.03,1.03.14.34-.16.34-.21,0-.14-.09-.25-.23-.38-.29-1.92-.86-4.71,1.1-6.62,1.52l-.1.24c-1.61.93-3.29,1.84-5.03,2.72l-.33.03c-.65.38-1.32.73-1.95,1.09-.33.19-.8.55-.52.97-.24.1-.96-.51-.82-.82-.37-.32-.4-.56-.08-.71,3.56-2.35,7.34-4.8,11.38-6.12,1.42-.46,2.43-.77,3.64.34Z"/>
  <path class="st184" d="M73.66,34.83l.23-.21c2.32-.08,5.03.61,6.22,2.79l1.18,2.06c.3.29.83,1.72.82,2.16-.77-.44-1.15-1.47-1.8-1.96-.14-.11-1.18-.7-1.32-.75-.24-.09-.92.12-1.34-.08-.16-.08-.1-.28-.2-.39-.08-.08-1-.14-1.16-.13-.68.06-.65.54-.88-.46l-.21.26c-.08-.03-.14-.06-.17-.12-.21-.4-1.4-2.8-1.41-2.96,0-.07.01-.14.04-.22Z"/>
  <path class="st118" d="M71.7,32.05c.06-.25.35-.32.84-.21.84-.34,2.02-.34,2.91-.1.77.2,1.68.99,2.02,1.65l.1-.04c.33.48.67.94,1.03,1.38.99,1.52,1.96,3.06,2.68,4.74-.72-.7-1.12-2.07-2.01-2.89-1.27-1.18-2.7-1.61-4.43-1.75-.38-.03-.81-.02-1.18,0-.07,0-.13-.02-.19-.05-.13-.07-1.58-2.1-1.75-2.38l-.02-.35Z"/>
  <path class="st91" d="M69.75,11.24c.43.23.96.52,1.24.93-.18-.12-1.32-.62-1.49-.62-.73,0-2.73.66-3.48.96-2.55,1.02-5.51,2.8-7.84,4.21-.78.47-1.53,1.03-2.29,1.53l.16.41c-.25.21-1-.31-.93-.62-.68-.32-.53-.65.47-1,3.56-2.39,7.26-4.47,11.09-6.25,1.08-.13,2.06.07,3.07.45Z"/>
  <path class="st53" d="M45.85,93.24c.47.03.97-.07,1.44.05-.49.52-1.32.57-1.89.89-.16.09-1.06.79-1.14.92-.46.67-.54,1.71.12,2.24,1,.81,2.84.76,4.08.97,2.06.35,3.9.55,5.95.8-.17-.07-.43.1-.51.1-1.36-.03-2.81-.23-4.17-.31-1.68-.09-5.66.03-6.94-.88-.77-.55-.95-1.55-.81-2.44.23-1.45,1.29-1.63,2.52-1.9.44-.1,1.11.06,1.36-.44Z"/>
  <path class="st164" d="M69.75,11.24c-.46.11-.8-.26-1.18-.31-.28-.04-1.61-.04-1.84.03-.13.04-.22.21-.35.26-4.02,1.57-7.07,3.85-10.68,6-.25.15-.6.28-.88.41l.31.41c-.26.21-1.32-.1-1.44-.41-.3.04-.34-.14-.1-.31,1.46-.56,3.31-2.19,4.71-3.07,3.12-1.95,7.8-4.95,11.46-3.01Z"/>
  <path class="st58" d="M72.94,24.53c-.15.19-.18.45-.46.72-1.07,1.03-3.62,1.34-5.08,1.62-.84.16-3.14.7-3.83.65l-.17.19-1.82-.39-3.07.68-.19-.17c-.19-.11-.11-.33.1-.31.21-.16.5-.24.87-.24l10.8-2.56c.61-.07,1.19-.2,1.74-.4.2-.04,1.3-.15,1.12.21Z"/>
  <path class="st69" d="M80.77,50.69c.23.53.65,2.92.62,3.5v.1c.03.24,0,.37-.1.41-.5-.9-.72-1.95-.65-3.17l-.07-.13c.12.41.31,1.28,0,1.55-.09.07-.19-.07-.31-.41-.29-.08-.47-.38-.54-.89.1.61.14,1.22.12,1.83-.12.51-2,1.09-1.74.29-.2-.8-.31-1.62-.32-2.46-.1.06-.24.09-.4.09.12.15.07.21-.1.1l-.03.23c-.53.04-.73.39-.61,1.05.06.38.04.71-.08.98.21.27.4,1.08.1,1.34.12.51.22.99.31,1.44-.1.54-.98.14-.62-.31l.06-.15c-.3-1.5-.53-3.07-.22-4.6l-.14-.1c-.65-.13.11-.93.51-1.13,0-.06,0-.11.03-.12,1.2-.47,3.75-1.18,4.19.53Z"/>
  <path class="st108" d="M47.4,19.79c1.03,1.05-1.44,1.46-2.17,1.47-3.25.04-7.19.02-10.38-.57-.46-.08-.92-.23-1.35-.39-.17.13-.44.1-.82-.1-.8-.05-1.9-.04-2.68.1-.09-.03-.09-.06,0-.1.42-.08.92-.18,1.34-.21,3.74-.26,7.48-.26,11.23,0,.68,0,1.38.01,2.06,0,.62,0,1.21-.07,1.75-.21.42-.21.64-.14,1.03,0Z"/>
  <path class="st180" d="M66.55,28.65c.68.18.21.5-.23.68-.16.02-1.48.33-1.32.5,1.29.71,2.55,1.59,3.44,2.8.59,1.25,1.23,2.47,1.92,3.64l.27.27c1.02,2.37,1.89,4.78,2.61,7.25l.23.26c.65,2.12,1.38,4.15,2.19,6.11l-.05.22c.37.24-.53.73-.51.1-.91-2.15-1.68-4.36-2.29-6.64-1.44-4.2-3.05-8.72-6.33-11.74l-.13-.37c-.82-.71-1.77-1.24-2.72-1.75l-.16-.31c-.32-.45.5-.88.91-.99.5-.09.98-.21,1.46-.35.29.08.5.25.72.31Z"/>
  <path class="st44" d="M73.25,24.22c-.12.17-.24.22-.31.31-.58-.28-1.16.07-1.73.18-3.64.7-7.15,1.6-10.74,2.44-.64.15-1.33.51-2.05.37-.18-.1-.1-.32.1-.31.27-.74.25-1.05.41-1.75l.1.51c.42-.16.85-.06,1.26-.13.66-.11,1.14-.46,1.98-.5s.57.26.8.4c.37.22,2.28-.49,2.82-.5.35,0,.48.26.79.2.88-.18,2.01-.88,2.92-1.01.47-.07.77.21,1.1.18.41-.04.2-.61,1.15-.49.17.02.33.19.48.16.35-.07.65-.95.92-.06Z"/>
  <path class="st213" d="M63.57,27.52l-.15.3c.78-.09,1.65.31,2.42.52.01.31-.15.26-.35.32-.77.23-1.65.14-2.02,1.02l-.2.13c-1.61-.69-3.27-1.11-4.98-1.27-.27-.03-.32-.2-.17-.41-.1-.13.01-.44.21-.31l3.26-.71c.6.05,1.44.36,2,.4Z"/>
  <path class="st178" d="M50.39,57.6c.26.08.24.22.03.38l-1.14.52c.38.51.57,1.12.54,1.83l.04,2.04c.48,2.4.74,4.76.64,7.19.33.84.43,1.67.3,2.48.42,1.45.6,2.95.53,4.52.28,1.04.37,2.21.23,3.27l-.21.38c.24.36.33.78.29,1.26.37.4.33.69,0,1.09.28,1.12.47,2.26.5,3.47.32.46.52.77.05,1.21.75.45.64,1.11.4,1.84.62.43.51.63.19,1.21.45.56.69,1.14.73,1.71-.41.39-.85.71-1.31.94,1,1.33,1.79,2.75,2.37,4.24,1.7,1.21,3.78.99,5.73.48l4-1.02c6.34-1.54,12.65-3.33,18.95-4.99.48-.13,1.2-.48,1.62-.55.22-.03.45-.08.54.19-.06.04-.14.06-.21.1l-1.13.43c-8.2,2.36-16.35,4.48-24.45,6.36l-.27-.1c-1.46.2-3.26.42-4.66-.12-.2-.08-1.24-.65-1.29-.77-.06-.14-.02-.34-.1-.52-.27-.6-.82-1.7-1.17-2.23-.17-.25-1.1-1.18-1.11-1.26-.08-.44,1.21-.67,1.47-.87.62-.47-.54-1.54-.64-1.92-.08-.33.22-.51.19-.79-.02-.19-.24-.34-.29-.54-.09-.37.04-.82-.04-1.19-.05-.21-.25-.33-.29-.54s.08-.41.05-.57c-.04-.19-.34-.37-.36-.66-.03-.41.17-1.01.1-1.54-.06-.47-.15-.96-.21-1.43-.4-2.84-.5-5.82-1-8.68-.18-1.05-.01-2.08-.14-3.06-.05-.42-.33-.93-.39-1.36-.05-.33.05-.71-.01-1.02-.04-.23-.25-.35-.3-.63-.13-.81.1-1.8.1-2.57,0-.36-.27-.66-.31-1.03-.11-.94.16-1.88-.02-2.86-.05-.27-.24-.5-.28-.75-.07-.48.06-1.06-.01-1.53-.05-.34-.56-.89-.2-1.25.23-.23,1.12-.3,1.34-.67.07-.3.46-.38.62-.1Z"/>
  <path class="st13" d="M71.7,29.27c.14.1.35.18.62.24.09.5.66.64,1.1.68,1.11-.09,1.81.42,2.6,1.14.35.53.72,1.05,1.24,1.44.1.13.21.28.31.41.06.17.1.27-.1.21-.16-.18-.98-.97-1.14-1.08-.8-.52-2.21-.59-3.14-.47-.26.03-.41.17-.62.2-.32.05-.62-.13-.87,0-.31.12-.86-.53-.72-.82l-.15-.33c.31-.4.46-.79.46-1.17-.39-.09-.73-.51-.21-.56.21.03.41.06.62.1Z"/>
  <path class="st166" d="M37.31,26.69c-.15.08-.17.29-.04.62l-.17.15c.08,0,.2.03.21.09.06.45.07,2.22,0,2.64l-.21.15c.08.03.19.09.18.15-.25,1.02-.66,2.28-1.72,2.68.02.31-.45.48-.62.21l.88-.82c2.45-2.75.52-9.39-3.03-10.26-.28-.07-.62.03-.83-.15.57-.11,1.17-.14,1.75-.21.4.07.43.09.82.37,1.31.95,2.37,2.82,2.79,4.37Z"/>
  <path class="st205" d="M85.19,91.38c-1.28.77-3.53,1.21-5.02,1.62-6.24,1.72-12.85,3.63-19.13,5.07-.83.19-1.56.33-2.41.42l.72-.41c2.28-.31,4.27-1.03,6.48-1.6,6.08-1.57,12.23-3.01,18.21-4.75.39-.11.76-.28,1.16-.35Z"/>
  <path class="st59" d="M23.2,78.1c.21.23.07.67.1.98.01.13.11.27.11.31v1.6c.16.02.13-.19.15-.31.11-.46.18-.88.05-1.34l.18.18c.1.85.33,1.7.44,2.55.21,1.66.21,2.69.72,4.38l-.13.09c.4,1.43.99,2.83,1.76,4.1l-.08.24c-.28-.05-.21.07-.21.31-.45-.66-.7-1.13-1.03-1.85-.28-.75-.55-1.51-.82-2.27-.08-.21-.14-.41-.21-.62,0-.31-.07-.59-.21-.82-.61-2.49-.76-4.96-.82-7.52Z"/>
  <path class="st19" d="M30.1,33.28c0,.31-.25.49-.76.56-1.67.28-3.39.47-5.1.56-.69.1-1.53.33-2.08.74-.19.17-.43.31-.72.41.09.03.09.06,0,.1-.12,0-.35.29-.41.41-.14.22-.28.29-.41.21h-.1c1.9-2.15,5.76-3.3,8.61-3.5.19-.01.39.02.46-.21.12.2.36.53.51.72Z"/>
  <path class="st9" d="M67.27,28.75c.36.08.56.22.62.41.51.4.54.49-.02.86-1.43.29-1.27.84.48,1.66l.06.27.35.44c.51,1.23,1.06,2.44,1.64,3.65l-.04.24c-.65-.51-.83-1.45-1.22-2.13-.73-1.31-1.42-2.32-2.66-3.21-.25-.18-1.64-.89-1.67-1.01-.18-.61,1.13-.64,1.52-.82.19-.09.63-.31.22-.45.23.06.48.07.72.1Z"/>
  <path class="st26" d="M90.76,80.98c-.34,0-.25-.46-.52-.66-.14-.1-.38-.09-.51-.21-.23-.22-.07-.59-.67-.56-.07-.68-.75-1.56-.83-2.17-.1-.71.1-1.52.06-2.17.2.07.2.25.26.41.64,1.72,1.76,3.68,2.21,5.36Z"/>
  <path class="st119" d="M70.36,29.06c.48.1.08,1.34-.31,1.34l-.3.04c-.62-.28-1.43-.8-1.87-1.27-.2-.11-.49-.23-.62-.41,1.01.14,2.05.18,3.09.31Z"/>
  <path class="st187" d="M76.03,31.33c-.05-.05-1.11-.75-1.18-.78-.68-.26-1.97.1-2.59-.66-.12-.14-.13-.38-.16-.41-.11-.1-.48.15-.4-.22,2.11.39,2.78.54,4.33,2.06Z"/>
  <path class="st98" d="M85.4,58.42c.78,1.02,2.8,4.52,3.09,5.67-.87-1.17-1.41-2.6-2.16-3.86-.65-1.1-1.41-2.14-2.26-3.09l-.93-.46c-.36.1-.82-.75-.41-.93.03-.04.06-.08.1-.09.22-.05,2.43,2.3,2.58,2.77Z"/>
  <path class="st56" d="M71.09,29.16c-.26.34.32.24.4.48.24.66-.5.97-.5,1.58-.29.14-1.04-.53-.93-.82.15-.47.41-.81.31-1.34.24.03.48.07.72.1Z"/>
  <path class="st170" d="M28.96,21.95c1.08-.25,2.31-.76,3.44-.61.43.06.83.38,1.3.3.02.18-.23.1-.36.1-.34.01-.7-.03-1.04,0-.13,0-.23.11-.25.11-1.02.08-2.06.11-3.09.1Z"/>
  <path class="st52" d="M79.02,49.46c.62-.03.87.28,1.34.21.01.23.56.65.41,1.03-.21-.48-.77-.86-1.28-.93-.72-.1-2.21.29-2.94.52-.24.31-.45.38-.62.21-.09-.03-.09-.06,0-.1-.13-.15-.07-.21.1-.1.01-.25.24-.41.7-.5.43-.23.78-.27,1.05-.12l.97-.24c.06-.24.15-.18.26.03Z"/>
  <path class="st95" d="M85.4,58.42c-.49-.65-1.49-1.75-2.11-2.27-.16-.13-.39-.33-.57-.41-.15.25-.35.15-.41-.1l-.04-.13c-.55-.22-1.04-.55-.89-1.21,0-.03,0-.07,0-.1,1.35,1.38,3.16,2.42,4.02,4.22Z"/>
  <path class="st220" d="M72.01,13.2c.92,1.1,1.42,2.14,1.85,3.5l-.51-.1c-.1-.26.34-.29.31-.36-.03-.07-.19-.14-.25-.27-.22-.46-.59-1.45-.88-1.8-.24-.29-.85-.4-.73-.98.05.03.1.06.15.1l.05-.1Z"/>
  <path class="st59" d="M19.59,38.13c-.15.64.11.5.11.87,0,.26-.24.5-.22.77l-.41-.21-.21.52c.07-.7.38-1.31.62-1.96.03-.09.06-.09.1,0Z"/>
  <path class="st59" d="M23.2,76.65c-.21-.89-.07-1.91-.1-2.84,0-.26-.1-.49-.11-.77.24.07.2.27.21.46.06,1.01-.02,2.12,0,3.15Z"/>
  <path class="st196" d="M77.26,32.77c-.3-.09-.69-.48-.88-.72-.14-.18-.3-.67-.36-.73.55.54.77.84,1.24,1.44Z"/>
  <path class="st196" d="M78.6,34.73c-.36-.05-.33-.35-.51-.57s-.48-.62-.62-.77l.1-.21c.38.52.68,1.01,1.03,1.55Z"/>
  <path class="st96" d="M20.62,36.27c.17.27-.15.47-.41.52-.08.12-.35.59-.41.72-.03.07-.06.07-.1,0,.31-.7.34-.68.82-1.24h.1Z"/>
  <path class="st59" d="M22.99,72.43l-.21-1.96c.37.49.18,1.34.21,1.96Z"/>
  <path class="st200" d="M25.26,89.32c-.33-.73-.72-1.46-.82-2.27.19.51.52,1.14.73,1.69.08.2.14.35.1.57Z"/>
  <path class="st200" d="M24.23,86.44c-.1-.31-.13-.53-.21-.82.32.12.19.54.21.82Z"/>
  <path class="st42" d="M19.8,37.51c-.08.17-.16.44-.21.62h-.1c.08-.21.08-.33.21-.62h.1Z"/>
  <path class="st183" d="M63.57,72.33c.03-.09.07-.09.1,0,.61.13.92.37.93.72.06.08.88,1.73.9,1.83.17.92-.06,2.02.15,2.83.25.96.26,1.06.39,2.08.08.61.41,1.35.56,1.91.19.71.47,1.36.36,2.12-.02.13.05.19-.16.15-.11-.02-.83-.55-.94-.66-.5-.49-1.84-2.75-2.14-3.47-.09-.22-.04-.47-.13-.69-.08-.18-.4-.26-.48-.54-.11-.37-.01-.7-.08-1.05-.16-.77-.54-1.37-.63-2.07-.07-.55-.43-1.99-.37-2.44.04-.27.18-.58.41-.72.36.03.77-.04,1.13,0Z"/>
  <path class="st77" d="M59.86,66.15l.28.19.95,3.1c.33,1.18,2.66,2.09,3.71,2.04.41-.17.79-.23,1.24-.17l.33-.11,1.8.38.24.25.29-.14c.73.14,1.47.23,2.22.25l.27.19c.72-.09,1.44-.12,2.16-.1l.18-.19c.53,0,1.05-.07,1.57-.19l.21.18.15-.23c.46,0,.92-.03,1.39-.08.34-.08.71-.1,1.07-.21,1.53-.47,2.96-1.28,4.49-1.74-1.91.97-3.96,1.93-6.08,2.37-1.07.47-2.48.75-3.6.52-.67.09-1.32.13-1.96.1-.38,0-.76,0-1.13,0l-1.13-.1c-.07,0-.14,0-.21,0-1.99-.14-4.15-.46-6.07-1.02-.41-.12-.72-.32-1.01-.63-.49-.55-.85-1.9-1.03-2.61-.15-.59-.3-1.18-.43-1.78l.09-.25Z"/>
  <path class="st100" d="M76.34,71.91c-.12.2-.44.36-.65.43-2.28.82-6.04,1.17-8.47,1.01-.88-.06-1.74-.37-2.63-.31-.2-.26-.7-.47-.93-.72l.18-.11c2.95.8,5.88.57,8.88.21,1.18-.17,2.44-.27,3.6-.52Z"/>
  <path class="st23" d="M69.93,85.94c.07.04.16.46.12.5-.51-.16-1.92,1.41-2.32.83-.14-.2-.07-1.5.18-1.64.09-.05,1.94.26,2.02.31Z"/>
  <path class="st43" d="M65.73,64.09c.14,0,.24.09.29.3l1.32,3.28c.59,1.28.96,1.76,2.4,1.46-.04-.17.1-.24.41-.21-.03-.34.86-.44,1.03-.21.82-.09.17.3.22.55.02.08.38.45.46.46.24.05.68-.54,1.03-.57.22-.02.46.16.69.15.27-.01,1.35-.45,1.49-.37.03.02.08.22.16.3.28.26.57.48.99.41.06.38-.2.11-.41.1l-.06,1.65c.22.29.79-.16,1.09.1-.56.13-.94.22-1.54.31-.11-.38-2.11-.2-2.18-.11.17.06.26.12.22.32-.66.16-1.51.35-2.16.1l.04-.14c.75-.2.56-.22-.55-.05-.51.03-.85-.03-1.02-.55-.43.1-.85.25-1.25.43-.83-.14-1.54-.24-2.37-.52-.6.11-.95-.02-1.03-.41-.18.18-.29.05-.31-.41l-.25-.02c-.11-.11-.65-1.49-.37-1.62-.56-1.2-1.09-2.41-1.59-3.64l.04-.17c-.27-.39-.64-1.27.09-1.21.77.4,1.34.42,1.95-.25.42-.33,1.05.04,1.15.53Z"/>
  <path class="st32" d="M70.16,61.61l.44.13,2.22,5.5c.23,1.03-.91,1.23-1.64,1.48-.36.12-.76.12-1.03.21-.46.16-.71-.03-.91-.47-.8-1.77-1.55-3.57-2.24-5.4l-.25-.31c-.08-.03-.08-.06,0-.1-.18-.14-.11-.21.21-.21l.05-.24c.98-.31,1.97-.56,2.97-.76l.17.17Z"/>
  <path class="st151" d="M82.21,58.42c.22-.02.49-.05.61.16.54,1.44,1.28,2.82,1.81,4.27.45,1.24.92,1.88-.64,2.44-.38.13-1.18.33-1.57.34-.34.11-.7.14-.9-.22-.85-1.87-1.64-3.78-2.38-5.7l-.22-.26.02-.19.81-.22c-.02-.09-.02-.21.05-.23.73-.24,1.49-.41,2.25-.57l.18.19Z"/>
  <path class="st51" d="M70.36,58.73c.32.03.87.88.62,1.13.55.32,1,1.66,0,1.65-.37.01-.49.03-.82.1-.8.17-2.49.54-3.19.82-.32.2-.4.18-.61-.1-.15-.19-.78-1.93-.76-2.17,0-.07.07-.1.14-.1-.13-.09-.06-.16.21-.21.04-.07.08-.13.13-.18.2-.22,2.4-.77,2.87-.85l.4.11c0-.33.86-.43,1.03-.21Z"/>
  <path class="st12" d="M82.31,55.64c.18,0,.26.04.41.1-.05.37.29.66.41.93.1.23.46,1.1.4,1.27-.13.41-1.04.31-1.33.48-.41.03-2.02.47-2.47.62-.49.25-.89.28-1.18.1-.18-.19-.9-1.94-.77-2.26-.05-.04-.02-.07.1-.1-.07-.28,0-.3.21-.1l.1-.26c.67-.21,1.35-.38,2.04-.52l.23.16.99-.28c-.03-.31.74-.44.87-.14Z"/>
  <path class="st152" d="M75.93,58.52c.06-.05.13-.02.21.1.04-.03.08-.06.13-.07.17-.03.88,1.17.8,1.41.23.01.46.05.68.1.27.21.85,1.85.96,2.27,0,.02-.04.06-.1.1-.42-.27-.76-1.57-1.19-1.65-.81-.15-1.57.68-2.38.82s-1.74.15-2.51-.09c-.19.08-.38.05-.58-.1-.24.3-.55.38-.86.1-.03,0-.07,0-.1,0,.13-.16.4-.23.42-.47,0-.06-.36-1.04-.42-1.18.12-.24.45-.21.98.1.24-.53,3.65-1.73,3.82-1.61.06.05.11.1.15.17Z"/>
  <path class="st138" d="M77.37,59.76c.19-.09.47,0,.51.21.17-.12.3-.03.39.28l1.49,4.03c.18.83.54,1.21,1.09,1.13l.23.23c.09-.16.23-.09.41.21.06-.3.41-.27.51,0-.39.19-.84.39-1.29.36-1.05-.06-1.79-2.9-2.11-3.76-.17-.45-.67-2.14-1.03-2.31-.16-.08-.31-.04-.51-.16.07-.14.17-.21.31-.21Z"/>
  <path class="st89" d="M82.41,65.63c-.14.07-.27.14-.41.21-.16-.02-.37.03-.51,0l-.3-.32-2.4-5.88.12-.18c.31.08.45.35.55.63.53,1.38,1.18,3.45,1.88,4.71.29.52.47.85,1.07.84Z"/>
  <path class="st46" d="M72.53,61.51c-.22.29-1.33.43-1.44,0,.09,0,.23.11.35.08.19-.05.29-.39.53-.39.18,0,.41.26.57.31Z"/>
  <path class="st179" d="M57.59,92.41c.18.04.25.11.21.21.41.23,1.01.28,1.44.1l.33-.21c.98,0,1.95-.15,2.91-.34l.37.14c.5-.45,1.41-.64,2.06-.52,6.52-1.55,13.57-3.34,19.98-5.25-.22.68-1.12.81-1.75.98-6.32,1.72-12.72,3.34-19.06,4.94-.9.23-3.54,1.08-4.32.98-.12.19-.33.22-.63.09-.44-.08-1.35-.25-1.54-.6-.36-.29-1.11-.46-.82-1.03-.2.01-.42-.02-.62,0l-.2-.32c.18-1.09.15-2.13-.1-3.12l.19-.16-.16-.36.16-2.37.21-.36h.14c.33,2.25.65,4.5.96,6.74.22.14.3.3.24.47Z"/>
  <path class="st48" d="M57.59,92.93c.61.11,1.54.44,2.16.52,0,.22.02.43-.02.65-.12.66-.21,1.4-.54,2.03-.18.36-.79.9-1.21.81-.91-.19-.97-1.03-1.41-1.63-.41-.56-.36-.41-.7-1.1-.27-.55-.78-.55.03-1.16.56-.42,1.04-.22,1.7-.1Z"/>
  <path class="st53" d="M46.27,72.33c.38.08.52,1.19-.1,1.24-.18.04-.24.05-.41.1-.01.26-.15.32-.31.1-.68.47-1.36,1.48-1.78,2.22-.32.57-.51,1.07-.62,1.76-.38,2.02-.69,4.06-.93,6.1-.22,2.08-.93,4.02-1.69,5.89,0,.65.39,1.2,1.2,1.65l.24-.09c.85.54,1.74,1.01,2.66,1.4l.08.24v.1c-.54-.15-1.14-.38-1.65-.62l-.29.09c-1.79-1.1-3.58-1.64-5.75-1.59-1.99-.06-3.98-.14-5.95-.28-1.03.09-1.32-.02-1.09-1-.22-.61.08-1.68.51-2.16-.23-.33-.14-.72.21-.93.08-.38.14-.75.21-1.13l-.18-.17c.23-1.05.36-2.12.4-3.19l.19-.14c-.03-.46.34-.52.31-.1l.18.1c-.15,1.1.77,1.67,1.88,1.45l2.7.38c2.59.23,5.15.3,5.5-2.81.15-1.13.37-2.24.65-3.34l-.17-.18c.64-1.86,1.55-3.96,3.76-4.19-.06-.46.01-.76.22-.88Z"/>
  <path class="st150" d="M45.65,58.01c-.43.21-.93,0-1.37.31-.32.22.36.28.44.49.13.36.06.94.11,1.3.24,1.48.52,3.46.59,4.95.09,2,.18,4.08.58,6.03.1.49,1.13,1.97.63,2.37-.17.14-.32.06-.47.09.35-.15.25-.98.1-1.24-.1.11-.21.04-.31-.21-.99.16-2.03.23-3.12.2l-.18-.2c-.12.04-.24.05-.37.06-.29.01-1.59.03-1.73-.05-.15-.09-.57-1.85-.59-2.12,0-3.83-.32-7.84-1.11-11.55.08-.25.28-.36.62-.33,2.05-.07,4.12-.14,6.16-.11Z"/>
  <path class="st0" d="M46.27,73.77c.23.2.32.89.38,1.21.64,3.49.94,7.24,1.38,10.77.23,1.84.67,3.85.81,5.68.02.24.05.88,0,1.08-.77.54-4,.41-4.55-.22-.07-.08-.08-.19-.08-.3l.06-.13c.74.05,1.59.08,1.51-.93l-.14-1.21c.3-2.98.54-6,.61-9-.19-.3-.22-.69-.07-1.18-.07-1.35-.19-2.76-.31-4.11-.02-.25-.1-.75-.32-.85-.46-.41.2-.99.72-.82Z"/>
  <path class="st193" d="M45.75,73.67c.22-.01.35-.05.51.1-.43.05-.74.39-.72.82l.05.22c-.36.27-.59.68-.67,1.22.09.02.09.05,0,.1v.1c-.1.93-.2,1.86-.31,2.78.22.03.21.23,0,.31-.05,3.6-.46,7.38-2.14,10.58-.22.51-.4,1.08.19,1.37l.13-.07c.39.29.83.5,1.31.57l.11.22c1.32.89,3.12.64,4.63.52-.02.09-.12.2-.21.25-.06.03-.58.26-.61.26-.06.01-.14,0-.21,0-.75.11-1.52.09-2.27,0-.24-.03-.75-.05-.93-.1-.84-.25-2.2-1.08-2.99-1.55-.61-.39-.86-.59-.79-1.34,1.18-3.02,1.72-6.41,2.12-9.72.2-1.23.43-2.47.79-3.65.31-1.03.76-2.33,1.69-2.9.1-.04.2-.07.31-.1Z"/>
  <path class="st2" d="M39.06,58.01c.33-.09.66-.18,1-.19,1.49-.04,2.99-.07,4.48-.08.34,0,.68.08,1,.16.53-.35,1.52-.43,2.06-.1.18-.18.36-.2.51,0-.06,0-.21.09-.41.1-.68.06-1.37.07-2.06.1-1.95.1-4.13-.02-6.03.2-.18.02-.5.08-.55.28-.03.11.35,1.45.39,1.75.34,2.34.56,5.23.73,7.61.05.73-.08,1.54,0,2.26.03.24.47,2,.57,2.02h1.89c.15.19-.05.3-.25.3-1.43.05-2.86-.11-4.28-.31l-.26.16c-1.15-.34-2.31-.59-3.49-.76-.26.13-.45.12-.58-.02-.04.31-.32.27-.41,0-.06-.09-.12-.19-.16-.29s-.08-.2-.09-.3c-.31-3.82-.61-7.66-.87-11.49.02-.24.09-.47.19-.69l-.06-.67c-.03-.84,0-.95.77-.62l-.1-.26.22-.1c1.81.44,3.63.68,5.47.71l.28.21Z"/>
  <path class="st192" d="M38.44,28.44l.22.11c.09.23.18,1.55-.12,1.64.32.13.33.81,0,.93l.18.15c-.69,1.8-.5,2.32.58,1.56,1.64-.47,3.21-1.08,4.8-1.72,2.05-.79,4.14-1.27,6.25-1.44.36-.43.61-.49.75-.2.14.45-.75,1.26-1.24,1.03-.05.08-.12.13-.21.13-1.19-.04-2.05.37-3.12.89h-.48c-.34.63-1.27,1-1.96,1.04l-.09.23-.94.18-.09.22c-.83.34-1.66.58-2.49.7-.07.2-.28.27-.62.21-.14.14-.35.21-.62.21-.02.2-.19.27-.51.21-.09.21-.36.32-.82.31-.13.27-1.12.67-1.34.41l-.41-.05c2.23-2.61,2.27-5.7,1.54-8.91v-.1s.07-.09.11-.1c.23-.06.58,2.16.61,2.37Z"/>
  <path class="st143" d="M32.77,23.7c-.11.18-.3.32-.56.43.51-.14,1.01-.14,1.49-.01,1.9,1.2,2.86,4.2,2.14,6.31-.27.79-.67,1.42-1.57,1.52-2.55.28-4.48-3.24-3.08-5.35.69-1.04,1.71-1.08,2.51-.11-.09.24-.68.39-.93.31.06-.48-.69.03-.77.1-1.17,1.01-.43,3.55.91,4.14,1.59.7,2.36-.88,2.44-2.23.12-2-1.56-5.22-3.94-4.15-1.95.87-1.94,4.44-1.01,6.05-.18.55-.65-.34-.82-.7-.76-1.64-.57-3.82.51-5.28.83-.93,1.37-1.32,2.68-1.03Z"/>
  <path class="st42" d="M24.02,34.62c2.31-.04,4.6.13,6.86.51.37.01.73-.08,1.07-.2,1.3.76,2.01.83,3.5.62.22.18-.02.46-.21.59-.26.19-2.13.96-2.46,1.03-.03,0-.07-.03-.11-.08-.16.06-.3,0-.43-.19-1.57-.23-3.13-.7-4.67-1.41-1.68-.53-3.5-.79-5.2-.25-.08.29-.67.52-.93.31.12-.27.47-.3.72-.41.48-.33,1.36-.77,1.85-.52Z"/>
  <path class="st189" d="M37.92,34.83c.44-.2,1.03-.07,1.28.36.89,1.5-3.03,1.63-3.71,1.58-.66.02-1.26.13-1.79.33-.04.3-.74.42-.93.21-.18.09-.21.07-.1-.1-.09-.03-.09-.07,0-.1l2.51-1.15.27-.4c.49-.07.73-.19,1.13-.31s.93-.41,1.34-.41Z"/>
  <path class="st226" d="M30.1,24.73c-1.08,1.84-1.14,4.13.1,5.9.07.1.2.06.21.07.75,1.08,1.49,2.42,2.99,2.68l.09.22c.64.15,1.26.28,1.87.4-1.19.48-1.78.33-2.91-.24-2.98-1.48-4.7-6.4-2.35-9.04Z"/>
  <path class="st96" d="M30.82,34.11c.36.57-1.02.67-1.44.68-1.81-.11-3.59-.16-5.36-.16-.68.03-1.25.24-1.85.52.06-.19.21-.23.36-.31,1.33-.75,3.89-.71,5.49-1,.67-.12,1.54-.1,2.08-.54.18.23.51.63.72.82Z"/>
  <path class="st8" d="M37.31,26.69c.57,2.11.66,4.33-.62,6.18-.19.16-.49.32-.92.46l-.21-.16c.51-.39.95-1.06,1.18-1.65.06-.16.36-1.1.36-1.18v-2.88c0-.23-.2-.62,0-.98h.1s.1.21.1.21Z"/>
  <path class="st175" d="M31.95,34.93c.01.3-.15.26-.35.32-.76.22-1.4-.02-2.08-.1-1.85-.21-3.66-.6-5.5-.52.11-.17.39-.1.56-.1,1.77-.02,3.62.22,5.36,0,.17-.02.93-.13.87-.41.36.35.7.57,1.13.82Z"/>
  <path class="st6" d="M33.5,20.31c.29.07.46.17.51.31.42.16.83.39,1.13.72.03-.09.06-.09.1,0,.53.4.92.74,1.03,1.43l.83,1.34-.11.22c.22.15.36.34.31.62.31.09.56.98.41,1.24,0,.03,0,.07,0,.1-.41-.68-.62-1.44-1.01-2.13-.92-1.64-2.41-3.04-4.04-3.95.32.02.53.06.82.1Z"/>
  <path class="st145" d="M33.7,26.49c.39.47.51.86.62,1.44-.08.35-1.15.39-1.34.1-.24.17-.3.1-.21-.21-.12-.26-.17-.79,0-1.03.15-.21.66-.36.93-.31Z"/>
  <path class="st163" d="M34.32,27.93c.09.5.19.68,0,1.24-.63.65-2.6-.56-1.34-1.13.06-.03,1.14-.07,1.34-.1Z"/>
  <path class="st33" d="M32.98,28.03s-.28.44-.28.46c-.06.36,1.28.83,1.62.67-.16.47-.71.91-1.19.62s-.84-1.04-.65-1.59c.05-.16.36-.12.29-.37.03.07.15.14.21.21Z"/>
  <path class="st167" d="M36.69,32.87c-.35.51-.36.58-.93.93-.36.18-1.54.21-1.13-.31-.09-.03-.09-.06,0-.1.1,0,.21.01.31,0,.12-.02.44-.16.62-.21.39-.11.73-.19,1.08-.41l.05.1Z"/>
  <path class="st8" d="M33.39,33.39s.07,0,.1,0c.38.05.76.09,1.13.1.04.38.83.37,1.13.31-.19.11-.21.12-.41.21-.8,0-1.55.13-2.22-.41l.26-.21Z"/>
  <path class="st207" d="M32.77,23.7c.46.1.54.17.93.41l-2.06.31c-.16-.14.91-.85,1.13-.72Z"/>
  <path class="st226" d="M34.63,33.39v.1c-.36-.05-.85.12-1.13-.1.3.04.83.03,1.13,0Z"/>
  <path class="st176" d="M51.62,51.62l-.02.26c-.33.23-.6.54-.62.96.14,1.4.31,2.81.51,4.22.21-.07,1.14-.21,1.11.08,0,.05-.02.1-.05.15-.03.09-.07.09-.1,0l-1.24.25c-.36.22-.64.24-.82.06-.2.03-.4.08-.62.1-.49.06-1.11.05-1.65.1-.17,0-.34,0-.51,0-.15-.63-.12-1.21.09-1.74-.72-.7-.68-3.06-.01-3.74.51-.52,2.93-.83,3.72-.88l.22.18Z"/>
  <path class="st202" d="M58.01,21.54c.26.51.72,1.78.72,2.32v2.37c0,.2-.23.71-.21.98-.04.1-.07.24-.1.31-.06.13-.07.25-.1.31-.04.08-.19.18-.21.31-.03.09-.06.09-.1,0-.3-.09-.25-.15,0-.31l-.15-.2c.72-1.39.64-2.94.33-4.42l.13-.22c-.24-.37-.41-.73-.52-1.09-1.78-2.8-3.8-2.81-6.96-2.72l-1.26-.11c-.2.28-.52.28-.72,0-.29.31-1.18.42-1.54.21.11-.3.27-.26.51-.31,3.5-.98,8.69-1.78,10.2,2.58Z"/>
  <path class="st65" d="M55.12,18.04c.11.05.81.53.93.62.15.12.68.66.82.82.42.47.73,1,1.03,1.55l.1.52c-.4-.8-.92-1.59-1.65-2.11-.82-.58-1.6-.91-2.62-.98-1.41-.11-4.5.22-5.92.51l1.21-.59c.37.1,1.46-.44,1.62-.44h1.65c.07,0,1.06-.31,1.39-.31.19,0,1.25.32,1.44.41Z"/>
  <path class="st57" d="M26.08,36.68l-.22.13c-2.97-1.31-4.53.49-4.91,3.32l-.32.6c.26.44.2.89-.2,1.35.08,1.89.29,3.83.57,5.73.45.7.68,1.42.7,2.15.5,1.28,1.7,3.52,1.36.32.05-.33.33-.5.84-.52.08-.44.31-.67.68-.69.25-.61.76-.99,1.11-.2l.23-.35.45-2.66.23-.11c.22-.12.29,0,.31.23-.17,7.05,1.44,13.76,3.5,20.31l.07,1.05c.6.94.85,2.02.75,3.25l.21.5c.09.02.09.05,0,.1l.08,1.53.18.1c-.57.83-1.13,1.66-1.7,2.5.24.32-.12.95-.41,1.13-.06.14-.02.26.1.37-.4.98-.63,1.96-.7,2.94.48.57,1.11,1.01,1.89,1.33.5.26.62.53.36.83.1.82-.26,2.63-.41,3.5-.22.16-.52.06-.75.13-.16.05-.43.35-.67.47-.25.12-.54.12-.78.25-.17.09-.77.64-.83.82-.05.14-.27,1.6-.27,1.8,0,.5.29.88.21,1.39-.52.08-.87-.51-1.11-.9-2.85-4.56-2.29-10.49-2.6-15.64-.37-6.13-1.73-12.1-2.91-18.11-.95-4.85-3.11-13.51-.49-17.95,1.2-2.03,3.63-2.44,5.46-.98Z"/>
  <path class="st199" d="M26.08,36.68c.66.3.78.63,1.24,1.03-.08.86-.35,1.78-.41,2.63s.06,1.77,0,2.63c0,.84-.02,1.67-.1,2.51l-.21.27-.49,2.86c-.1.1-.29.52-.38.54-.23.06-.23-.3-.31-.41-.34-.44-.55.37-.69.48-.12.09-.38.06-.46.16s-.03.4-.23.54c-.15.11-.67.12-.71.17-.17.2.33,2.24-.45,2.04-.46-.12-1.27-1.69-1.35-2.14-.04-.2.06-.39-.02-.71-.11-.46-.48-.79-.62-1.23-.33-1.01-.34-2.78-.45-3.88-.06-.67-.33-1.24-.19-2.06.05-.33.4-.57.4-.83,0-.2-.23-.35-.18-.59.03-.13.26-.37.32-.61.39-1.4.32-2.14,1.46-3.28.92-.92,2.77-.6,3.86-.1Z"/>
  <path class="st59" d="M22.37,35.24c3.3-1,6.74.66,9.06,2.91.12-.25.29-.37.52-.34.27-.27.55-.45.82-.52.27-.13.63-.16.93-.21.29-.22.94-.3,1.24-.1,1.8-.1,3.65-.14,5.46-.08,1.54.05,2.71.29,4.13.77l.19.24c1.05.2,1.51.76,1.96,1.65l.33.21c.47.72,2.02,3.23,2.08,3.89,0,.07-.02.15-.05.23.75,1.77,1.38,3.56,1.88,5.36.16.38.44.7.79.92.2-.2.23-.17.21.1.33.14.35.27.07.4-.16.13-3.12-.13-3.53-.24-1.53-.4-2.1-1.63-2.5-3.04-.19-1.57-.62-3.02-1.3-4.34-1.51-.63-3.13-.96-4.86-1l-.14-.22-.36.1c-2.07-.22-4.1-.33-6.09-.32l-.14-.19c-.04-.11-.02-.19.06-.25,2.15-.18,4.51-.1,6.69.05.69.05,1.38.1,2.07.17.91.1,1.88.21,2.76.45,1.36.36,1.98.8,1.7,2.29.09.92.71,4.31,1.4,4.86.28.22,2.35.88,2.56.76l-.43-.46c-.68-2.43-1.43-4.95-2.78-7.17l-.05-.49c-.36,0-.85-.8-.72-1.13l-.28-.03c-.63-.92-1.36-1.26-2.43-1.42-2.98-.44-6.17-.57-9.17-.24l-.27-.16c-.61.21-1.19.55-1.5,1.13-.38.82-.84,1.6-1.36,2.32l-.22.05c-.22-.22-.62-.45-.75-.75s-.01-.56-.18-.85c-.26-.47-2.09-2.28-2.58-2.72l-.78-1.02c-1.3-.82-2.2-1.45-3.8-1.46-.42,0-.84.36-1.25.41-.21.02-.32-.1-.34-.1v-.1c.36.03.61-.24.93-.31Z"/>
  <path class="st101" d="M30.41,87.47c-.15.72-.38,1.45-.51,2.16-.15.45-.05.84.3,1.18l-.09.27c.32.6.68.8,1.25,1.06.94.44,1.85.57,2.88.67.77-.01,1.14.27,1.12.85,0,.14-.01.28,0,.41h-.1c-.95,0-1.9-.07-2.84-.21-.24-.13-.52-.42-.27-.65-1.96-.52-5-3.06-3.17-5.23.29-.35,1.12-.96,1.44-.5Z"/>
  <path class="st59" d="M30.61,86.54c-.06.31-.14.62-.21.93-.97.03-1.69.85-1.75,1.8-.13,2.03,1.74,3.24,3.49,3.71.32.09.84-.09.83.35h-.82s.41.45.41.45c.88.03,1.83.15,2.68.27-.36.25-.74,0-1.09,0-.19,0-.37.1-.51.09-.55-.04-1.93-.23-2.39-.47-.63-.33.3-.38.06-.73-.03-.05-.9-.44-1.11-.59-1.2-.84-1.91-1.66-2.07-3.18s.93-2.96,2.47-2.63Z"/>
  <path class="st200" d="M24.95,86.44c.42,1.4.86,2.39,1.71,3.54.2.27,1.32,1.58,1.35,1.68.19.55-.46.32-.74.12-.2-.14-.22-.38-.37-.56-.11-.13-.36-.29-.41-.36-.68-.95-1.65-3.24-1.85-4.39-.02-.12,0-.24,0-.35l.31.31Z"/>
  <path class="st59" d="M23.81,78.3c-.26.02-.18.02-.2-.15-.05-.35-.11-.75,0-1.08.39.23.14.86.2,1.24Z"/>
  <path class="st59" d="M21.03,36.07c-.22.39-.1.85-.82.72.1-.14.3-.42.41-.52s.26-.18.41-.21Z"/>
  <path class="st59" d="M23.61,75.11c-.18.02-.1-.23-.1-.36-.01-.22,0-.45,0-.67.18-.02.1.23.1.36.01.22,0,.45,0,.67Z"/>
  <path class="st173" d="M29.89,89.63v.82c1.03-.11,2.1.05,3.14.11,1.94.1,4.15.07,6.07.32,1.8.23,2.37.84,3.88,1.53.22.35.69.36,1,.59.09.07.18,0,.13.24-2.42.04-4.83.27-7.26.31-.35-.05-.62-.65-.88-.77-.23-.1-.42-.02-.62-.05l-.24.17c-1.64-.07-4.07-.34-5.01-1.82-.25-.51-.37-.51-.31-1.19.01-.14.1-.21.11-.25Z"/>
  <path class="st168" d="M35.35,92.72c0,.31,0,.62,0,.93-.17-.12,0-.34-.23-.45-.2-.09-1.44-.27-1.81-.35-.21-.04-.89-.03-.93-.05-.04-.03-.04-.2-.19-.26-.38-.16-1.35-.43-1.62-.65-.16-.14-.37-.6-.47-.81,1.41,1.63,3.35,1.36,5.25,1.65Z"/>
  <path class="st40" d="M89.42,84.48c-.09-.3-.25-.15-.41-.16-1.44-.06-3.03.66-4.43,1.03-4.78,1.26-9.56,2.58-14.33,3.79-1.41.36-3.19.9-4.59,1.07s-1.1-.18-1.53-1.1c-.78-1.65-1.93-3.2-2.74-4.88-2.37-4.91-3.06-10-3.28-15.36-.07-1.71-.09-2.45-.4-4.13-.02-.12-.15-1.13-.11-1.18.32-.33.81.73.87.93.7,2,.44,3.68,1.58,5.73.49.88,1.35,1.72,2.39,1.79-.02,0-.15.12-.35.11-.92-.04-2.18-1.65-2.79-1.66s-.65.69-.67,1.18c-.18,3.63,1.99,10.11,3.79,13.31.78,1.39,1.94,2.46,2.5,3.99.28.78-.08.87,1.06.76.49-.05.87-.28,1.28-.37,5.32-1.17,10.6-2.8,15.88-4.2,1.85-.49,4.79-1.48,6.62-1.53.63-.02-.07.68-.33.86Z"/>
  <path class="st40" d="M63.16,72.02c1.15.06,2.44.54,3.66.62,1.3.09,2.69-.01,3.96-.1.65-.05,1.3-.12,1.96-.1-1.99.29-3.82.59-5.92.41-1.06-.09-2.08-.41-3.14-.51-.03,0-.07,0-.1,0l-.72-.31c.1,0,.21,0,.31,0Z"/>
  <path class="st22" d="M56.67,61.61c.63.09.94.3.93.62v.1c-2.18-1.04-.99,1.34-.77,2.37.31,1.48.17,2.72.25,4.17.35,5.84,1.25,11.8,3.32,17.28.43,1.14,1.4,3.5,1.99,4.5.29.5.88.84,1.45.92.35.05.88-.14,1.07.22-.68.16-1.37.38-2.06.52-.08-.11-.15-.24-.2-.39-1.42-.74-2.03-2.46-2.54-3.92-2.05-5.82-3.83-12.3-4.02-18.44-.17-.45-.28-.88-.33-1.3.29-.5.36-.64.15-1.21.04-.41-.02-.71-.17-.9-.09-.37-.09-.75,0-1.13-.29-.14-.23-1.74-.14-1.9.05-.09.15-.13.24-.16,0-.58.12-1.48.51-1.85.29-.14.41.28.31.52Z"/>
  <path class="st5" d="M59.86,66.15c.21,1.02.45,2.09.79,3.07.45,1.29.58,1.74,1.97,2.15,1.53.46,4.12.91,5.69,1.06-1.49.05-2.92-.23-4.37-.52-.16-.03-.27-.16-.43-.19-.46-.1-1.01-.04-1.53-.22-.57-.2-1.05-.76-1.27-1.31-1.07-2.61-1.02-5.77-3.11-7.86v-.1l.34.02c1.06.94,1.59,2.27,2.03,3.58l-.11.32Z"/>
  <path class="st5" d="M69.64,72.53c-.36,0-.86.09-1.13-.1.36.03.85-.11,1.13.1Z"/>
  <path class="st38" d="M70.06,30.4c.18.14.75.65.93.82.13.13.55.63.72.82.69.8,1.44,1.86,1.96,2.78.56,1,1.11,2.24,1.54,3.3.55,1.33,1,2.78,1.47,4.14.83,2.38,1.52,4.81,2.34,7.19-.27.01-.95.14-1.24.21.01-.23.27-.38.78-.45-1.05-3.6-2.28-7.51-3.75-10.92-.45-1.04-.95-2.07-1.54-3.04-.37-.6-1.9-2.91-2.67-2.66-.69.68-1.8.11-2.19-.64-.5-.29-1.76-.82-1.75-1.5,0-.41,1.76-.53,1.39-1.08-.06-.09-.43-.09-.16-.2.67.36,1.57.77,2.16,1.24Z"/>
  <path class="st74" d="M64.8,14.43c1.03-.26,2.17-.39,3.21-.65.36-.09.58-.14.75-.49.19.63.73.65,1.26.34.16-.09.18-.29.3-.33.25-.08.58.04.76.24,0,.08-.7.62-.78.77s.26.39,0,.82c-.09.15-1.07.64-1.31.75-.78.36-1.68.64-2.43,1.07-.31.18-.47.49-.65.58-.36.18-1.02.23-1.49.47-.75.38-1.47.82-2.21,1.19-1.08.56-2.44.88-3.61,1.23-.1.03-.44.33-.33-.03,0-.03.1-.08.11-.15.03-.29-.4-.31-.46-.54-.01-.05.09-.92.11-.99.04-.1,1.24-.94,1.32-1.31,1.23-.7,2.46-1.3,3.64-1.97.67-.38.85-.77,1.82-1.02Z"/>
  <path class="st198" d="M52.44,57.29l-.02.24c-1.55.19-2.48.86-2.03,2.55.23.73.27,1.52.11,2.35.41.67.54,1.47.4,2.39l.3.74c.27,4.34.61,8.67,1.02,13,.53,2.52.77,5.04.75,7.55.35,1.2.67,2.41.81,3.65l.45,1.17c-.05.48.2.6.75.35-.15-.86.13-2.1.42-2.95l.23-.14c.09-.29.41-.19.41.1-.02.16.19.68.21.97.05.88-.09,1.75-.11,2.63-.81.09-1.78.06-2.5.34-.31.12-.71.39-1.01.55-.08.53,1.74,1.69,1.92,2.4.06.24,0,.52.1.73.05.12.85,1.25.98,1.39.94,1.1,3.61.51,4.86.23s2.56-.6,3.79-.9c-2.49.53-5.91,2.06-8.45,1.4-.24-.06-1.34-.58-1.44-.75-.09-.16-.09-.43-.18-.62-.58-1.23-.94-1.74-1.71-2.82-1.11-1.56-.24-.92.61-1.64.7-.59-.49-1.35-.55-1.92-.02-.23.31-.51.28-.69-.03-.17-.29-.21-.37-.3-.25-.28.03-.55.06-.85.13-.99-.5-.81-.56-1.16-.05-.31.24-.31.26-.39.1-.46-.25-.52-.31-.81-.14-.68-.09-1.21-.11-1.84-.02-.58-.52-1.22-.38-1.74.05-.17.29-.31.27-.53-.02-.16-.22-.3-.27-.45-.07-.25,0-.52-.05-.78-.04-.19-.25-.39-.25-.54,0-.16.25-.39.27-.63.03-.28-.06-1.83-.1-2.16-.07-.58-.23-.41-.21-1.23.02-.9-.1-2.27-.23-3.17-.05-.34-.27-.66-.29-.96-.02-.32.15-.6.11-.92-.05-.39-.36-1.17-.41-1.56-.09-.88.05-1.88,0-2.78-.08-1.44-.43-2.9-.63-4.32-.16-1.13.15-2.45-.33-3.59-.08-.2-.36-.3-.28-.59.38-.08.7-.29,1.05-.45.15-.07.35,0,.29-.27.64-.09,1.41-.19,2.06-.31Z"/>
  <path class="st7" d="M47.81,93.03c-.54.15-1.35.15-1.92.11-.19-.01-.3-.1-.35-.11.72-.06,1.56.08,2.27,0Z"/>
  <path class="st67" d="M78.09,53.78c.11.14.09.22.35.21.15,0,1.08-.31,1.15-.41.23-.39-.22-1.92-.05-2.47.23-.04.16.01.23.13.2.37.26.88.49,1.31.44.59.72,1.42.94,2.18.02.06,0,.12-.01.19.28-.19.55.72.5.77l-1.22.37c-.71.16-1.72.36-2.37.62-.33-.06-.57-.3-.72-.72-.36-.78-.63-1.5-.82-2.16,0-.02-.1-.11-.11-.25-.02-.33-.05-1.26.03-1.53.12-.43.6-.38.8-.48l.14.06c.09.39.18.79.27,1.18h.15c.08.35.16.69.26,1.03Z"/>
  <path class="st17" d="M76.96,56.57c-.13-.47-.38-.93-.31-1.44.08-.04.15-.04.22,0l.51,1.53c.29-.11.46-.07.51.11-.03.02-.08.07-.1.1.04.73.29,1.47.76,2.21.04.38-.15.54-.5.64l-.06.14c.15.13.09.2-.1.1-.12-.07-.26.15-.51-.21h-.24c-.18-.16-.84-1.54-.58-1.75-.09.02-.21.01-.24-.06-.24-.65-.36-.82-.86-1.35-.22-.33-.23-.58-.04-.75-.24-.25-.46-.5-.16-.79l-.05-.34c-.19-.03-.18-.11,0-.21l-.21-.13c-.01-.67-.08-1.33-.21-1.99-.67-.44-.32-1.39.21-.87.01-.33.35-.92.72-.82l.15.19c-.61,1.44-.32,3.39.02,4.88.13.57.46,1.51,1.06.8Z"/>
  <path class="st146" d="M76.54,50.28c-.07.3-.37.45-.49.7s-.01.39-.02.44c.09.03.14.08.13.16-.18,1.57-.14,3.04.26,4.58l-.08.1c.15.34.2.44.62.31.03.11.2.25,0,.36-.38.23-.88-.02-1.06-.39-.34-.71-.61-3.39-.6-4.25,0-.5.29-1.11.42-1.6-.09-.15.04-.36.21-.21.07-.03.49-.17.62-.21Z"/>
  <path class="st34" d="M78.09,56.67c-.1.04-.12.05-.21.1-.22-.01-.52.21-.67,0-.05-.07-.53-1.5-.57-1.65-.09-.4-.07-.93-.1-1.34.33,0,.25.16.31.36.27.88.66,1.8,1.24,2.52Z"/>
  <path class="st161" d="M76.03,51.41l.41-.21c-.59,1.53-.11,3.18.03,4.76.02.18.22.33-.13.29-.44-1.02-.56-3.76-.31-4.84Z"/>
  <path class="st174" d="M81.28,54.71c.32.07.2.35-.1.21-.32-.78-.69-1.56-.93-2.37.06.11.23.22.21.41h.1s0-1.54,0-1.54c.15-.02.15.18.18.29.24.97.04,2.14.54,3.01Z"/>
  <path class="st133" d="M81.38,54.3c-.03.33.34.64.57.82.16.13.86.28.36.52-.38,0-1.39.3-1.85.41l1.03-.31c-.02-.3-.2-.55-.31-.82.11-.02.09-.12.1-.21.02-.15.1-.39.1-.41Z"/>
  <path class="st122" d="M78.09,53.78c-.24-.3-.28-.69-.41-1.03l-.31-1.34c.06-.04.44-.65.6-.14s0,1.89.12,2.51Z"/>
  <path class="st14" d="M77.37,51.41s.19-.02.21,0c.04.05.06,1.14.1,1.34-.15-.4-.4-.79-.41-1.24.03-.01.06-.07.1-.1Z"/>
  <path class="st162" d="M48.02,20c-.08.28-.23.01-.12.08.56.33.37,1.22-.1,1.62-.99.83-5.24.71-6.52.59-2.09-.18-4.31-.38-6.23-1.15-.32-.17-.67-.34-1.03-.52-.17-.1-.39-.14-.51-.31,3.2.45,6.51.73,9.73.73.75,0,1.65.06,2.38,0,.34-.03,1.83-.38,1.89-.69.03-.17-.27-.35-.09-.55.2-.05.54.03.62.21Z"/>
  <path class="st127" d="M47.09,19.38l.09.12c1.28.06,2.52.48,3.42,1.43l.16-.05c.55.66,1.01,1.4,1.38,2.21.57.53.71,1.71.79,2.51.18,1.76-.14,3.68-1.21,5.1.18.06.25.12.22.32-.07.11-.29.07-.41,0-.12.28-.43.19-.41-.1l-.18-.15c1.2-1.66,1.66-3.53,1.32-5.62-.37-.35-.58-.86-.62-1.55l-.3-.17c-.58-1.27-1.45-2.33-2.68-3l-.31-.33c-.21.18-.28.23-.31-.1-.2-.06-.36-.17-.62-.21-.32-.04-.7.03-1.03,0,.3-.19.3-.26.72-.41Z"/>
  <path class="st47" d="M68.41,31.95c.51.3.94.83,1.69.72.25-.03.29-.33.61-.31.65.03.78.39,1.14.72,1.76,1.65,3.22,5.14,4.08,7.46,1.06,2.89,1.88,5.91,2.88,8.81l-1.03.31c-.36.09-1.44.45-1.75.62l-.26-.02c-.79-3.25-1.93-6.64-3.23-9.73l.74,2.62c.03.21.03.43-.02.64-.3-.62-.53-1.32-.75-1.98-.64-1.9-1.31-3.7-2.13-5.54-.41-.92-.95-1.79-1.36-2.71-.21-.48-.44-1.11-.6-1.62Z"/>
  <path class="st206" d="M66.35,31.74c1.65,1.27,2.98,3.37,3.9,5.22,2.13,4.3,3.25,9.03,4.86,13.53l-.25.06c-.94-2.31-1.75-4.69-2.46-7.13-.99-2.84-2.09-5.67-3.79-8.18-.24.08-.66-.53-.51-.72-1.46-2.11-3.66-3.27-5.94-4.28-.4-.19-.66-.45-.75-.77l.38-.08c1.66.53,3.24,1.18,4.56,2.35Z"/>
  <path class="st54" d="M76.03,50.28s-.06.09-.1.1c-.11.11-.21.11-.31,0-.2,0-.67-1.39-.77-1.65-.58-1.59-1.09-3.32-1.6-4.94-.45-1.44-.8-2.94-1.26-4.35-.06-.18-.51-.61-.13-.59.11.06,1.02,1.89,1.13,2.16,1.08,2.62,2.03,5.83,2.89,8.54.08.25-.03.55.15.72Z"/>
  <path class="st130" d="M68.61,35.24c1.68,2.06,2.84,5.23,3.76,7.72.77,2.08,1.31,4.67,2.24,6.82.09.2.29.59.48.7.21.12.59.23.51-.1.08,0,.15-.18.31,0v.1c-.14.07-.15.16-.21.21-.38.32-.42.79-.72.82-.24-.07-.31-.28-.21-.62-.57-.89-.99-1.88-1.26-2.98-1.19-4.36-2.84-8.5-4.94-12.41l.02-.27Z"/>
  <path class="st149" d="M58.11,28.13c-.09.63,1.07.37,1.57.44.9.13,2.95.72,3.78,1.11,1.03.49,2.06,1.28,2.88,2.06-1.39-1.07-3.3-1.68-4.94-2.27l-.21.14c-.94-.5-1.97-.77-3.09-.82l-.2-.24c-.27-.11-.19-.4.1-.41h.1Z"/>
  <path class="st49" d="M48.84,19.07c.63.44,1.22.95,1.75,1.53v.32c-.9-.68-2.33-1.18-3.45-1.24-.31-.02-.13-.17-.05-.31.05-.02.1-.07.21-.1.47-.13,1.05-.2,1.54-.21Z"/>
  <path class="st147" d="M65.52,80.98c-.67.11-1.01-.75-1.25-1.27-.66-1.38-1.55-4.2-1.72-5.69-.09-.78.12-1.14.95-.95.55.13.91.94,1.03,1.44.33,1.34.72,3.41.88,4.78.07.54.09,1.14.11,1.69Z"/>
  <path class="st181" d="M57.49,61.72c.25-.27,1.22.26,1.13.62,1.39,1.12,2.34,2.59,2.96,4.26l1.1,3.22c.38.99,1.23,1.85,2.2.99l.12.09c.2.17.76.32,1.03.41l-1.26.4c-1.13-.39-3.19-.65-3.73-1.84-.47-1.04-.77-2.55-1.19-3.71-.57-1.57-.96-2.82-2.27-3.91-.39-.33-.61-.38-.93-.62.11-.35.8-.26.82.1Z"/>
  <path class="st125" d="M68.41,71.81c.21-.36.98-.72,1.37-.62.14.03.1.42.34.5.55.19,1.47-.29,2.09.02-.07.12-.49.36-.59.39-.16.05-.29.01-.43.02-.94.07-1.86-.16-2.78-.31Z"/>
  <path class="st125" d="M73.35,72.02c-.16-.02-.48-.27-.72-.26.11-.13.19-.22.36-.25.55-.12,1.59-.15,2.16-.11.29.02.11.26.15.41-.62.09-1.33.29-1.96.21Z"/>
  <path class="st159" d="M59.14,58.63c1.78.59,3.29,1.52,4.53,2.78l.23-.03c.33.55.69,1.09,1.08,1.6l.13-.03c.23-.12.52-.04.62.21.73,1.62,1.45,3.26,2.14,4.93.17.46.43.66.77.61l.28.23c.11-.21.28-.14.51.21.09-.28.21-.28.31,0-.81.23-1.06.61-1.75-.16-1.01-1.13-1.31-3.61-2.27-4.89-.11-.42-.43-.65-.86-.63-.51-.36-.96-.81-1.34-1.35-.94-1.23-3.61-2.12-2.2.39.57.81.88,1.6,1.21,2.51.38,1.18,1.08,2.59,1.54,3.81-.35-.12-.6-.44-.74-.95-.69-2.04-1.71-3.85-3.05-5.45l-.02-.29c-.45-.44-1.07-.98-1.59-1.35-.72-.51-1.24-.8-2.17-.64l-.15-.17c-.42-.2.19-1.04.51-.72-.12-.33.95-.7,1.13-.41.06-.29.22-.27.31,0,.06-.31.22-.34.41-.1.15-.29.29-.32.41-.1Z"/>
  <path class="st169" d="M60.27,62.13c1.07.88,1.96,2.72,2.56,3.98.43.9.69,1.89,1.25,2.72.18.47.38,1.24.62,1.65.44.62-.88.94-1.27.43-.14-.63-.38-1.21-.7-1.73-.83-2.63-1.87-5.08-4.11-6.83-.33-.21-.77-.51-1.13-.62-.38-.76.69-.4,1.11-.2.75-.08,1.22-.11,1.67.61Z"/>
  <path class="st87" d="M65.73,64.09c-.87-1.17-1.13.07-1.91.2-.62.1-1.23-.32-1.33-.3-.32.07-.02.82.05,1.03-.34-.22-.38-.69-.56-1.03-.36-.69-2.14-2.93-.78-3.25.95-.22,1.79.58,2.43,1.19.38.36.75.98,1.13,1.24.42.29,1.01.23.98.93Z"/>
  <path class="st25" d="M58.62,62.33c2.66,1.67,3.27,3.89,4.27,6.7.11.29.34.51.44.79.14.38.07,1.11.59,1.16.23.02,1.09-.09.77-.51.01.02.29.4.31.41l-.87.51c-1.01-.24-1.42-.82-1.73-1.76-.77-2.36-1.35-4.46-3.01-6.36-.26-.3-.49-.64-.77-.93Z"/>
  <path class="st15" d="M70.16,68.93s-.14.13-.41.21c-.1-.01-.22.02-.31,0-1.13-1.6-1.9-3.64-2.57-5.5-.05-.14-.07-.28-.09-.43s-.02-.3-.02-.45c.21.01.3.1.39.28.73,1.65,1.28,3.44,2.04,5.06.23.49.43.7.97.83Z"/>
  <path class="st107" d="M66.76,62.75c.77,2.17,1.7,4.3,2.68,6.39-.15-.03-.3-.16-.51-.21l-.29-.11c-1.01-1.8-1.9-3.83-2.45-5.79l.16-.17c.04-.25.19-.32.41-.21v.1Z"/>
  <path class="st222" d="M65.73,60.07c-.13.16-.01.27.05.41.18.42.53,1.46.73,1.75.13.18.24.23.46.21-.06.02-.14.17-.21.21-.14.07-.28.14-.41.21-.03.23-.1.27-.21.1-.34.21-.4.01-.17-.6l-.65-1.64c-.09-.31-.06-.45.2-.65,0-.19.15-.16.21,0Z"/>
  <path class="st141" d="M79.74,59.04c-.26.09-.58.3-.82.41.09.27-.08.37-.31.21.08.32-.42.44-.62.21l-.2-.15c1.28-.37-.03-1.45-.19-2.19-.09-.42-.03-.4.18-.65.21.33.79,2.03.97,2.17.3.23.66-.04.99,0Z"/>
  <path class="st211" d="M68.1,55.84c.06.25.17.41.36.49l.47,1.46c.08.13.15.3.21.52.3-.02.47.43.21.62-1.08.28-2.35.6-3.4.93-.65.43-1.02-.6-1.2-1.13l-.45-1.85c-.45-.47-.23-2.63.72-2.16h.22s.29,1.34.29,1.34l.15.03c.05.34.14.68.26,1l.16-.14c.4.04.83-.05,1.16-.26l-.12-2.16c.39-1.01,1.2.89.96,1.33Z"/>
  <path class="st46" d="M73.35,56.46c1.07-.03,2.01.9,2.64,1.72-.06.11-.08.22-.07.34-.27-.04-2.36.73-2.75.91-.2.09-.47.18-.64.28s-.32.39-.5.44c-.32.09-.69-.36-1.06-.3-.15-.34-.48-.74-.62-1.13-.32.11-.36-.29-.28-.53.18-.52,2.57-2.33,3.26-1.74Z"/>
  <path class="st137" d="M71.6,55.23c.11.18.21.35.31.52.47.09.93.2,1.37.39l.07.23c.09.03.09.06,0,.1-.08,0-.82.12-.92.16-.12.04-1.34.85-1.5.97-.07.06-.64.64-.66.69-.06.19.04.3.09.45-.32.13-.73.13-1.03.21-.02-.22-.18-.4-.21-.62-.13-.54-.41-2.16-.14-2.54.08-.12,1.27-.57,1.38-.24.16-.35.52-.43.82-.21.12-.28.25-.32.41-.1Z"/>
  <path class="st203" d="M65.94,59.86c-.06.02-.15.19-.21.21s-.15-.02-.21,0c-.38.78-.75.25-.72-.41-.06-.03-.09-.1-.1-.21-.08-.01-.15-.03-.16-.07-.18-.6-.36-1.76-.38-2.39,0-.04.05-.08.13-.12.35.7.48,1.51.82,2.22.17.35.34.89.83.77Z"/>
  <path class="st83" d="M73.35,56.36c.11-.18.35-.23.71-.13l.76-.61c.38-.24.44-.25.58.22.24,1.12.62.9.97,1.55.1.19.09.44.16.61l.05.13c-.21.13-.37.29-.46.49-.03-.03-.17-.1-.21-.1-.16-.68-2.01-2.02-2.57-2.06v-.1Z"/>
  <path class="st216" d="M76.54,58.01c.22.5.53,1.34.82,1.75.05.28-.07.21-.31.21-.34-.21-.62-1.1-.93-1.34l-.2-.36.62-.26Z"/>
  <path class="st111" d="M78.6,59.66c.08-.03.18-.04.2.02.8,1.93,1.6,3.9,2.37,5.84l-.1.12c-.67-.13-.77.25-1.22-.58-.35-.66-1.74-4.95-1.98-5.08.04-.02.07-.09.1-.1.17-.08.46-.12.62-.21Z"/>
  <path class="st139" d="M78.91,59.45l2.57,6.39c-.13-.03-.29-.18-.41-.21l-2.47-5.97c.06-.03.12-.12.31-.21Z"/>
  <path class="st30" d="M62.85,92.31c-1.27.26-2.29.43-3.6.41-.44.18-1.03.12-1.44-.1-.11-.08-.14-.14-.21-.21.07-.22,0-.5-.2-.83-1.14-6.08-1.71-12.6-1.86-18.84-.08-.58-.09-1.17,0-1.75-.2-.24-.2-.49,0-.72l.1-1.44c-.2-.2-.2-.42,0-.62.04-.53.07-1.04.1-1.55-.08-.17-.08-.35,0-.52.28-.09.15-.22.14-.39-.02-.56-.06-1.11-.04-1.67.14-.03.17.19.18.28.08.81-.07,1.78.02,2.55.03.27.22.49.22.72,0,.35-.43.51-.42.83,0,.18.22.28.28.43.33.74.15,1.96.23,2.76.15,1.59.43,3.15.75,4.71.65,3.27,1.5,6.46,2.56,9.6.53,1.59,1.22,4.2,2.46,5.37.31.29,1.02.36.73.97Z"/>
  <path class="st109" d="M55.53,72.74c.37,1.25.14,2.58.2,3.87.17,3.28.6,6.82,1.05,10.08.17,1.26.46,4.32.99,5.29.11.2.28.34.43.49l-.62-.05c-.12-.11-.32-.2-.41-.36-.33-.55-.23-1.99-.31-2.68l-.62-4.17-.21-.29c-.09-1.1-.22-2.2-.38-3.29l.18-.33-.21-2.47c-.26-.14-.26-.27,0-.41l-.1-1.34c-.24-.14-.23-.58,0-.72-.07-1.22-.07-2.42,0-3.61Z"/>
  <path class="st37" d="M55.43,74.08c.07.75.11,1.51.1,2.27,0,.24-.01.48,0,.72l.1,1.34c0,.14,0,.28,0,.41l.21,2.47c.1,1.27.43,2.68.41,3.91-.01,1.02-.08,2.14-.21,3.09l-.41-.1c-.09-.03-.09-.06,0-.1-.08-.37-.11-.86-.13-1.27-.07-1.68-.16-3.35-.35-5.03-.2-2.03-.17-4.05.07-6.06-.31-.4-.24-1.28.1-1.65.03-.09.06-.09.1,0Z"/>
  <path class="st86" d="M59.24,92.72c-.14.36-1.01.18-1.27.08-.14-.06-.15-.16-.18-.18.48.09.95.1,1.44.1Z"/>
  <path class="st219" d="M41.63,77.37c-.02.52-.13,1.03-.31,1.55.3.19.07,1.36-.31,1.34-.04.11,0,.2.09.29-.69,1.36-2.05,1.84-3.49,1.98l-.28.23c-1.98.29-3.79.08-5.62-.69l-.17-.26c-.18-.05-.14-.21-.31.1-.02-.19.01-.25-.15-.42-.45-.45-2.15-.98-2.3-1.72-.07-.31.05-.67.11-.98.16-.78.45-1.6.69-2.35.12.02.09.12.09.11-.2-.37.81-1.12,1.29-1.2,2.12-.38,6-.05,8.17.3.98.16,2.42.58,2.5,1.72Z"/>
  <path class="st182" d="M31.54,81.8c.92.23,1.89.71,2.84.81,1.02.11,2.21-.02,3.23-.09,1.09-.14,2.14-.43,3.14-.86.23-.2,1-.96.43-.96l-.07-.24c0-.16.11-.27.33-.32.28-.76.49-1.55.63-2.37.07-.2.18-.31.38-.19-.22.94-.23,2.17-.44,3.22s-.45,2.31-1.55,2.78c-2.08.9-4.69.26-6.83,0-.69-.09-1.19.23-1.69-.37-.08-.09-.45-.69-.48-.77-.07-.26.24-.39.06-.62Z"/>
  <path class="st209" d="M45.44,73.77c-.98,1.22-1.47,2.69-1.83,4.2-.78,3.34-.84,6.81-1.85,10.1-.35,1.15-1.39,2.32-.13,3.32-.5-.3-1.29-.53-1.42-1.21s.55-1.72.78-2.37c1.28-3.67,1.09-7.65,2.15-11.24.17-.57.85-1.38,1.21-1.88.1-.14.1-.36.22-.5.19-.22.62-.33.87-.41Z"/>
  <path class="st24" d="M46.27,72.33c-.04.2.06.94-.01,1.02-.05.06-1.21.32-1.52.49-.96.52-2.03,2.7-2.28,3.75-.33.32-.23.73-.32,1.07-.04.16-.15.28-.19.43-.18.67.03,1.27-.83,1.38-.16.12-.2.05-.1-.21.15-.35.22-.95.31-1.34l.64-2.65c.27-.95.78-1.72,1.36-2.5h.26c.22-.85,1.52-1.55,2.38-1.54.01,0-.2.08-.01-.1.2.03.21.04.31.21Z"/>
  <path class="st148" d="M42.66,72.12c.92-.01,2.45-.13,3.3,0,.22.34.01.14-.16.2-.84.31-1.63.77-2.21,1.45l-.19-.13c.05-.52-.5-.6-.91-.63-1.31-.04-2.69-.27-3.99-.6-.07-.02-.13-.06-.19-.11s-.12-.11-.18-.17c1.39.06,2.78.12,4.18.11.19,0,.33-.11.35-.11Z"/>
  <path class="st132" d="M45.54,74.59c.13-.08.26-.12.41-.1-.08.37.09.75.1,1.08.05,1.33.2,2.62.31,3.91.03.35-.13.64-.12.93,0,.2.23.1.23.3-.04,1.8-.23,3.78-.32,5.57-.06,1.2-.21,2.27-.31,3.4-.04.48.22,1.17.11,1.76-.02.12-.5.58-.61.62-.25.08-.86,0-1.14-.06-.74-.14-.97-.37-1.54-.72-.59-.28-.4-.89-.17-1.42,1.68-3.2,2.07-6.99,2.12-10.53,0-.1,0-.21,0-.31.12-.91.22-1.84.31-2.78v-.1c.05.07.1.15.14.23s.07.16.07.23c.11,4.43-.12,9.59-2.1,13.54-.85,1.07,1.98,1.89,1.7.64,1.21-4.42.97-9.04.7-13.56.01-.21.08-2.11-.04-1.84-.03.72-.19.94-.48.67,0-.46.23-1.19.62-1.44Z"/>
  <path class="st41" d="M44.93,76.14s0-.07,0-.1c.38.02.12-.44.3-.78.08-.15.33-.35.4-.08.13.47-.02,1.57.01,2.15.25,4.53.51,8.98-.7,13.42-.07.27.08.55-.19.74-.42.3-1.63-.03-1.94-.41-.46-.56.42-1.64.61-2.16,1.4-3.75,1.57-8.81,1.49-12.77Z"/>
  <path class="st110" d="M42.66,91.28c-.14-.09-.47.07-.48-.54-.02-.8.45-1.33.71-1.96,1.19-2.9,1.45-6.29,1.73-9.44.17.11.11.4.11.57-.09,2.27-.24,4.86-.88,7.05-.35,1.2-1.04,2.4-1.47,3.58-.08.31.14.51.29.75Z"/>
  <path class="st110" d="M44.62,79.02c.08-.89-.02-1.95.31-2.78-.1.75-.03,1.58-.1,2.32-.02.18-.03.35-.21.46Z"/>
  <path class="st103" d="M39.67,41.83c1.05.1,4.51.39,5.15,1.08.78.83,1.08,3.38,1.37,4.5.31,1.21,1.04,2.63,2.41,2.84.83.13,2.34.27,3.17.23.25-.01.34.07.15-.21.44-.16,1.44.05,1.75.41.99.39.2.47-.53.4-1.68.29-3.36.42-5.05.39-.89-.25-1.79-.42-2.7-.52-.12.05-.37,2.19-.4,2.52-.1,1.15-.1,2.21.53,3.21-.05.42-.04.82,0,1.21-2.16.1-4.33.15-6.49.1l-.22-.24.05-2.01c-.46-4.09-.95-8.14-1.48-12.14-.24-.07-.41-.18-.52-.34l.05-.29c.79-.42,1.64-.71,2.53-.88,0-.14.05-.23.2-.28Z"/>
  <path class="st71" d="M58.42,50.9c-.03.34-.53.36-.72.1l-.11.19c1.07,1.21,1.18,2.97.94,4.49l-.32.16-.21.1c.09.24.02.28-.21.1.06.29-.11.32-.31.1l-.14-.19c.44-1.45.63-4.59-1.68-4.14-1.34-.46-2.63-.47-3.88-.02l-.16-.18c-.83.14-3.54.32-3.96,1.03-.34.57-.35,2.34-.08,2.95.08.17.33.31.31.47-.01.12-.17.29-.19.53-.05.44.27,1-.1,1.19-.68,0-1.38.07-2.06.1-.5-.41-.14-.68-.21-1.18-.04-.31-.33-.48-.39-.75-.48-2.06,0-2.86.18-4.72,0-.1.06-.41.12-.45.43-.27,2.52.51,3.23.51.59,0,1.44-.07,2.06-.11,1.2-.08,2.32-.38,3.55-.21l-.41-.31.47-.14c1.35.1,2.7.17,4.04.21l.23.14Z"/>
  <path class="st60" d="M48.84,21.03c.08-.04.18-.07.23-.01.2.24.91,2.86.88,3.22-.02.21-.1.36-.2.53.89.32,1.9.16,1.72-1.01l.16-.16c.23.52.47.99.62,1.55.11.86.15,1.73,0,2.59-.02.11-.09.17-.21.19-.09.12-.27.03-.28-.14.32-1.04.17-1.84-.9-1.04-.75.2-1.05-.19-1.03-.89-.47-.09-.61-.01-.89.36-.25.24-.57.41-.79.06-.13-.66-.59-.64-1.38.07-1.07-.22-1.85.05-2.34.79-.7-.03-1.39-.02-2.08.04-.03.67-.56.66-1.09.64-.18.37-.45.48-.84.53.01.8-.32,1.01-1.03,1.22l-.23.6c-.18.34-.55.46-.61.02,0-.5-.03-1.28-.1-1.75-.19-1.2-.5-2.36-.94-3.48.1-1.2-.59-1.98-1.41-2.76-.09-.12-.2-.31-.22-.46l.16-.18c.85.62,1.76,1.12,2.73,1.48,1.86.21,3.69.52,5.49.95.9-.31,1.83-.54,2.81-.69.16-.05.3-.11.45-.17,1.08-.46,1.14-.87,1.11-1.95l.23-.16Z"/>
  <path class="st10" d="M38.54,30.19c.54.32.41-.52.71-.78.23-.2.58-.13.78-.35.24-.27.07-.74.26-.88.11-.08.39-.05.56-.16.14-.09.18-.34.33-.39.28-.09.73.13.91-.23.06-.12.02-.34.07-.39.07-.08,1.94-.14,2.19-.02.38-.91,1.03-.81,1.89-.89.17-.02.33.09.47.06.26-.06.66-.91,1.45-.4.26.17-.01.84.58.36.44-.35.21-.57,1.09-.47.51.06-.19,1.08.9.91.28-.04.23-.27.43-.3,1.3-.15.94.6.8,1.5-.01.07.09.14.08.15.31.18-.09.96-.41.82-.19-.03-.22-.19-.09-.5l-1.39.39c-.26-.05-.48-.2-.68-.45-.44.24-.93.32-1.48.25-.55.45-1.56,1.15-1.86.16-.94.81-2.13,1.15-3.56,1.02.2.33.26.61-.18.73-1.21.02-2.16.49-3.18,1.08-.34.11-.74.11-.68-.32.04-.23,0-.66,0-.93Z"/>
  <path class="st140" d="M38.54,31.12c.32.35.72.1,1.06-.1,1.03-.6,1.36-.72,2.59-.83.84-.08-.08-.43.17-.71.08-.08,1.08-.09,1.28-.11.39-.04.49-.07.93-.09.6-.02,1.09-.58,1.55-.94.51.25-.07.66.83.52.45-.07.69-.56,1.03-.62.28-.05.62.04.92,0,.22-.03.53-.28.63-.27.15.01.36.48.61.49l1.7-.51-.21.82c.18.31-.16.79-.51.72-.35-.08-.47.33-.69.39-.28.08-.62-.03-.9.03-2.16.41-4.4.99-6.41,1.83-1.49.62-2.22.83-3.74,1.31-.38.12-1.13.83-1.24-.11-.07-.62.33-1.32.41-1.79Z"/>
  <path class="st45" d="M43.07,32.98l.99-.2c1.21.2,2.43.33,3.64.4l.29-.19c1.37.21,2.8.77,4.06,1.35l.18.28c.92.33,1.71.86,2.42,1.53.66.62,1.57,1.51,1.7,2.38.91,1.66,1.64,3.4,2.17,5.23l-.21.13c-.41-.4-.76-1.18-.82-1.75-1.32-2.76-3.08-5.73-6.07-6.77l-.11-.23c-2.98-.68-6.03-.98-9.17-.91-.13,0-1.64-.1-1.69-.18-.02-.02,0-.08.05-.15.7-.25,1.9-.85,2.57-.93Z"/>
  <path class="st68" d="M39.88,34.11c.86-.08,1.67,0,2.44.24l.1.18c-.11,1.02.21,1.34.98.98,1.97-.84,4-1.15,6.11-.48l.15.22c.09.03.09.06,0,.1l-.12.21c-1.28.58-2.61,1.08-3.98,1.5-.42.17-.77.45-.84.87-.61-.06-1.49-.44-2.14-.59-2.23-.52-5.32-.44-7.64-.34-.08-.18.07-.21.21-.1,1.85.02,3.67-.08,5.46-.32.29-.07.5-.26.68-.48.96-1.18-.03-1.74-1.21-1.62-.39.07-.66.02-.81-.16.2-.07.41-.13.62-.21Z"/>
  <path class="st80" d="M49.87,30.5c.37,0,1.14.03,1.24.41.14.03.27.08.41.1.08.01.12.05.1.1.45.12.49.43.1.91.41.75,1.07,1.34,1.96,1.77.91.55,1.56,1.25,1.94,2.1l-.19.17h-.3c-.88-.7-1.75-1.42-2.59-2.16l-.48-.03c-1.91-.83-3.85-1.55-5.84-2.14l-.17-.2c.77-.38,3.03-1.53,3.81-1.03Z"/>
  <path class="st90" d="M40.5,33.9c.11.17.39.1.56.1,1.45.02,2.89.06,4.31.14,1.98.11,4.15.07,5.94.99-.3.33-1.22.3-1.65.1-.3.01-.51-.17-.78-.2-1.04-.11-2.13-.29-3.16-.09-.63.12-2.53.95-2.99.88-.71-.1-.38-.83-.51-1.25-.16-.56-1.9-.23-2.35-.48.21-.07.41-.13.62-.21Z"/>
  <path class="st201" d="M52.55,33.9l.69.65c.06.24-.04.47-.28.4l-.72-.33c-1.49-.48-2.87-1.37-4.53-1.44-1.07-.07-2.14-.18-3.2-.33l-.41-.28c.69-.27,1.3-.7,1.96-1.03,2.2.71,4.44,1.21,6.49,2.37Z"/>
  <path class="st82" d="M38.75,34.52l.59-.05c2.78-.37,1.57,2.25-.23,2.31-1.32,0-2.64.03-3.96.1-.06.03-.16.02-.21.1-.43.02-.81.04-1.24.1-.08-.28.42-.28.58-.3.93-.13,2.01,0,2.85-.14.2-.03,1.52-.49,1.65-.59.85-.64-.08-1.24-.85-1.24.22-.23.57-.22.82-.31Z"/>
  <path class="st4" d="M35.14,36.89c.59-.27,3.1-.08,4.06-.21.66-.09,1.93-1.12,1.49-1.78-.36-.55-1.43-.06-1.95-.37.17-.06.34-.15.51-.21h1.48c1.85-.1,1.03,2.31-.19,2.48-.44.06-1.27.08-1.75.1-1.21.05-2.45-.05-3.66,0Z"/>
  <path class="st142" d="M51.11,30.92c-.6-.12-.81-.14-1.24-.41.53-.16.9-.63,1.24-1.03.19-.22.37-.47.51-.72s.36-.52.41-.82c.29-.9.2-1.85.21-2.78.34,1.25.27,3.36-.37,4.52-.2.36-.73.79-.76,1.24Z"/>
  <path class="st16" d="M35.86,21.75c.51.42,1.55,1.44,1.7,2.06.11.46.04.96.16,1.49.14.57.48,1.26.6,1.88.08.42.13.85.11,1.28-.07-.47-.34-.95-.41-1.29s.16-.79-.31-.97c-.11-.47-.22-.8-.41-1.24.02-.29-.08-.44-.31-.62-.25-.5-.77-1.16-.95-1.57-.1-.23-.06-.48-.19-.73s-.48-.41-.61-.68c.21-.17.76.07.62.41Z"/>
  <path class="st94" d="M44.1,32.56c.59-.15.34.06.48.1.93.25,2.19.07,3.12.52-.48-.02-.89.11-1.29.11-1.01,0-2.28-.45-3.35-.32.3-.17.7-.33,1.03-.41Z"/>
  <path class="st158" d="M32.67,37.1s-.01.07,0,.1c-.2.23-.46.44-.72.62-.31.37-.61.83-.88,1.24-.04.06-.08.38-.25.2-.06-.06.5-.83.5-.88,0-.06-.6-.62-.71-.71-2.23-1.84-5.32-3.11-8.23-2.43,1.15-.49,2.63-.49,3.85-.3,1.73.28,3.24,1.18,4.88,1.61.64.17,1.08-.25,1.57.54Z"/>
  <path class="st29" d="M32.67,37.2s.06.08.1.1c-.17.08-.51.51-.82.52.2-.24.39-.57.72-.62Z"/>
  <path class="st76" d="M48.02,20c.12.04.18.05.31.1l.04.18c.3,0,.67.45.48.74-.08.38-.02,1.17-.12,1.48-.02.06-.56.49-.67.57-.96.64-2.07.63-3.15.87-.23.05-.41.26-.64.27-.75.03-1.82-.51-2.59-.59-1.85-.2-3.06-.08-4.71-1.16-.35-.23-.64-.65-1.1-.7-.28-.23-.29-.24-.62-.41-.03-.01-.08.01-.1,0-.11-.07-.14-.14-.1-.21.21-.01.41-.01.62.05,2.23.65,5.53.99,7.88.99.89,0,2.82-.13,3.64-.38.68-.21.94-.73.82-1.41-.04-.22-.61-.42.02-.38Z"/>
  <path class="st16" d="M35.04,21.13s.06.15.1.21c-.4-.22-.75-.49-1.13-.72.32,0,.81.29,1.03.52Z"/>
  <path class="st192" d="M37.31,24.94c-.07-.18-.21-.43-.31-.62.37.13.48.24.31.62Z"/>
  <path class="st79" d="M57.39,56.26l.25-.02c.3.2.51,2.02.48,2.41,0,.08-.06.14-.12.19-.23.07-.95.32-1.13.41l-.28-.09c0-.63.09-1.24.26-1.83-.43.06-.71.05-1.11-.03-.09.31-.19.31-.41.1l-.17.24-1.73.32-.26-.14c-.14.25-.28.29-.41.1l-.43.32c.25,1.62.43,3.26.43,4.94.03.39.14.64.38.94-.06,1.69.06,3.37.36,5.03l-.03,1.55c.14.21.26.45.35.69l.28,4.82c.29.96.42,1.97.39,3.04l-.17.2.24.16.13,1.46c.29.57.31,1.08.05,1.54.04.74.26,1.46.66,2.15l-.15.2c.08,0,.18.03.21.09.06.16.07,1.73-.21,1.76.48-.08.43.69.28,1.02.08.04.12.13.13.27,0,.03,0,.07,0,.1-.08.69-.42,1.65-.51,2.33s.5,1.02-.69,1.07c-.47.02-.28-.36-.43-.69-.59-1.3-.43-1.19-.65-2.54-.12-.7-.5-1.66-.6-2.28-.09-.56.07-1.26.04-1.81-.12-1.98-.6-4.32-.86-6.33-.28-2.16-.21-4.35-.53-6.58-.28-1.99-.24-3.83-.41-5.77-.02-.25-.26-.46-.3-.74-.08-.53.09-1.21-.03-1.72-.06-.25-.34-.44-.37-.66-.05-.35.15-1.21.09-1.73-.03-.26-.18-.42-.2-.62-.04-.36-.17-1.42-.01-1.65.03-.05.73-.7.79-.75.46-.32,1.01-.17,1.48-.43.03,0,.07,0,.1,0,.14-.29.28-.32.51-.1l1.96-.41c-.09-.14-.04-.18.1-.1.42-.13.84-.29,1.27-.47l.17.17c.23-.15.58-.18.82-.1Z"/>
  <path class="st72" d="M57.49,56.15c-.03.09-.07.09-.1,0-.27.04-.54.11-.82.21-.47.12-.89.42-1.44.31-.54.06-.09-.36.33-.4.18-.28-.62-3.25-.81-3.72-.16-.41-1.96-.55-2.11.07l.42,4.13c.32.01.66-.02,1-.09l.13.22c-.26.18-.6.28-1.03.31-.17.03-.34.07-.51.1-.19-.3-1.18.05-1.23,0-.33-.9-.23-1.88-.32-2.82-.11-1.15-.71-2.01.63-2.84.51-.08,1.3-.41,1.79-.4.61,0,1.61.31,2.28.4.47.06.83-.12,1.28.16,1.06.66,1,3.34.52,4.37Z"/>
  <path class="st106" d="M54.71,19.89c.41-.3,1.41.19,1.79.52.79.73,1.33,1.66,1.81,2.57.28.52.35,2.69.24,3.28-.08.45-.41,1.11-.55,1.56-.15.36-.55.44-1.18.24-.8.29-2.75.89-3.41.18-.28-.3-.6-1.67-.04-1.76.06-.19.24-.19.51,0,.14-.37.35-.72.64-1.06.3-.63-.61-2.64-1.44-1.97l-.22-.06c-.65-.35-.69-1.74-.03-2.2l.81-.47c.3-.57.42-.76,1.07-.84Z"/>
  <path class="st153" d="M54.71,19.89c.05.33-.29.15-.53.35-.17.15-.19.41-.35.58-.44.48-1.23.32-1.28,1.4-.02.43.23.86.3,1.18.4.37.81,2.52.64,2.9-.03.07-.07.13-.12.19,0,.09-.1.28-.09.45.07,1.39.35,1.45,1.69,1.4.72-.03,1.52-.47,1.87-.48.32-.01.72.26,1.17-.03-.03.08.02.23,0,.31-.04.12-.05.32-.1.41.26.22-.32.93-.62.82.16.3-.34.67-.62.52-.09.4-.26.51-.51.31-.1.07-.14.18-.14.31-.99.46-2.01.74-3.05.83-.27.19-.61.08-1.03-.31-.9-.39-.41-.27-.12-.79,1.29-2.3,1.16-4.71.32-7.14-.4-.82-.87-1.59-1.41-2.32-.24-.46-.35-1.15.07-1.49,1.02-.14,2.71-.03,3.71.34l.21.27Z"/>
  <path class="st157" d="M49.56,19.07c2.16.13,4.91-.6,6.75.82.25.19,1.59,1.7,1.67,1.93.05.14,0,.33.05.47.08.22.39.34.29.69-.21-.38-.61-.6-.67-.72-.24-.51.01-.22-.42-.71-.3-.34-.56-.75-.92-1.04-.53-.4-.99-.43-1.59-.62-1.14-.35-2.73-.48-3.91-.62-.14.33-1.1.09-1.24-.21Z"/>
  <path class="st126" d="M49.56,19.07c.3.02.87.17,1.24.21.08.42-.19.5-.03,1.01.27.89,1.02,1.77,1.37,2.8-.55-.7-.81-1.61-1.54-2.16-.27-.34-.6-.69-.93-.98-.3-.27-.86-.39-.83-.87.24,0,.48-.01.72,0Z"/>
  <path class="st102" d="M31.44,71.09c-.62-.16-.35-1.12-.42-1.59-.04-.31-.15-.92-.22-1.22s-.44-.52-.53-.92c-.07-.32-.01-.84-.09-1.24-.27-1.34-.92-2.57-1.19-3.96-.21-1.1-.51-1.62-.75-2.64-.18-.75-.31-1.53-.45-2.31-.21-1.24-.52-2.47-.67-3.78-.27-2.37-.39-5.01-.41-7.42,0-.13-.11-.24-.11-.25,0-1,.24-1.86.31-2.78l.32,3.34c.98,8.16,3.95,16.57,4.21,24.78Z"/>
  <path class="st121" d="M31.44,71.19l.1,1.54c.53.04.62-.41.87-.62.05-.04.93-.59.98-.62.09-.04.31.03.41,0,.2,0,.37.13.51.37.87.52,1.9.74,3.08.66,1.77.32,3.52.59,5.26.8.69.41.13,1.57-.51,1.67-.2.38-.49.38-.89.36-1.94-.37-3.93-.57-5.96-.48-1.57-.18-3.18-.25-4.73.09-.17.29-.36.41-.57.34.2-.49.33-.89.64-1.37.17-.27.78-.91.85-1.1.03-.08-.04-1.4-.04-1.65Z"/>
  <path class="st208" d="M42.15,75l.11.28c-.19.72-.39,1.42-.63,2.09-.6-1.07-1.58-1.39-2.73-1.54-2.08-.27-5.67-.53-7.71-.3-.96.11-.89.35-1.4.96-.14.16-.23.28-.2-.05.13-.41.24-.73.41-1.13l.46-.52c1.54-.37,3.29-.29,4.86-.11,1.19,0,2.6,0,3.8.11.98.1,2.16.62,3.04.2Z"/>
  <path class="st39" d="M31.74,42.86l.14-.16c1.61.46,3.11.77,4.8.38l.21.2c.36,0,.73.07.81.49.03.17-.06.33-.05.47.46,3.55.94,7.11,1.4,10.63.13.97-.08,2.15,0,3.14-.56-.01-1.13.03-1.69-.01-1.44-.12-2.87-.55-4.29-.81-.32.15-.55.04-.62-.31,0-.09-.19-.29-.2-.47-.2-3.43-.6-6.87-.73-10.29-.05-1.22.04-2.45,0-3.66.15-.11.22.03.21.41Z"/>
  <path class="st223" d="M47.09,41.63c1.17,1.92,1.86,3.71,2.55,5.85.15.48.22,1.22.42,1.64.14.28,1.14.84.28.83-.53,0-2.19-.46-2.62-.76-.61-.42-.72-1.28-.9-1.98-.21-.82-.54-2.17-.63-2.98-.07-.6.32-1.32-.42-1.73-2.55-1.4-9.01-1.31-12-1.29-.23,0-.5.04-.67.21-.17.23-.41.44-.71.64-.19.33-.4.6-.62.8-.12-.08-.09-.27-.21-.41-.03-.03-.07-.07-.1-.1.31-1.17,1.17-1.49,2.31-1.66,4.27.02,8.55.36,12.83,1.04.19-.19.36-.23.51-.1Z"/>
  <path class="st155" d="M34.22,38.64l-.04.25c-.62.34-1.19.88-1.29,1.61,1.31-.4,2.53-.71,3.94-.45,2.28.41,4.55.53,6.8.34.95.13,1.87.17,2.74.11.3.4.46.71.72,1.13l-.46.32c-3.38-.64-6.68-.9-10.09-.93-.92,0-2.16-.15-2.99-.11-.2.01-1.07.31-1.24.41-.44.27-.39.92-.87,1.03-.03-.03-.15-.05-.31-.21.08-.46.51-.77.74-1.17.7-1.23.7-2.01,2.35-2.34Z"/>
  <path class="st177" d="M33.08,57.18c.94.46,2.02.6,3.05.81.12.02.44-.06.35.17s-.25.1-.39.09c-1.16-.06-2.55-.45-3.63-.86,0,.45,0,.89,0,1.34-.2-.44-.09-1.02-.11-1.51,0-.19.11-.33.11-.35.21.1.41.21.62.31Z"/>
  <path class="st135" d="M60.07,49.66c.07-.02.13-.03.14-.02.21.48.49,1.13-.24,1.15-.49.09-1.07.18-1.54.1-1.58,0-3.17.04-4.74-.21-.56-.09-1.23-.21-1.75-.41-.09-.03-.14-.07-.21-.1-.68-.4-1.1-1.35-1.03-2.06l-.44-1.88c.21-.44.69-.64,1.45-.61.43-.28.87-.41,1.35-.4.14-.68.48-.83,1.14-.87.87-.94,3.31-1.51,3.89.06.76,1.72,1.42,3.47,1.99,5.24Z"/>
  <path class="st18" d="M56.15,39.88c.1.29.23.56.4.82l-.09.11c-.22-.01-.47-.1-.73-.26-1.34.1-2.62.61-3.82,1.21-1.12.1-1.95.49-2.5,1.17.02.73.19,1.47.53,2.22.02.09-.04.16-.18.21-.28-.43-.52-.91-.72-1.44-.66-1.63-1.7-2.89-2.37-4.33-.87-1-.06-1.29.91-1.24,1.27-.5,2.53-1.06,3.77-1.67l.27.13c0-.33.75-.39,1.05-.37,1.48.1,2.86,2.15,3.55,3.34.01.02-.02.07-.06.12Z"/>
  <path class="st114" d="M46.37,40.5l-.25.32-2.47-.22c-2.79.49-5.73-.45-8.45-.42-.77,0-1.76.45-2.52.63-.04-1.02.7-1.74,1.54-2.16,2.2-.44,6.59-.17,8.9.12,1.7.21,2.25.38,3.26,1.74Z"/>
  <path class="st81" d="M33.08,41.42c.5-.06,1.49-.04,2.01,0,1.49.11,3.07.27,4.58.41l.04.42c-.92.26-2.07.44-2.82,1.02-.79,0-1.53.27-2.42.2-.27-.02-2.62-.53-2.73-.62.04-.62.73-1.36,1.34-1.44Z"/>
  <path class="st194" d="M50.08,35.55l.2-.13c.5.4.99.78,1.49,1.14l-.15.22c-1.12.32-2.59,1.34-3.81,1.7-.64.19-1.77-.28-1.14,1.08-.4-.28-.59-.72-.98-1.03-.26-.21-.84-.41-.98-.62l.23-.19c1.52-.11,4.26-.55,4.91-2.07l.21-.11Z"/>
  <path class="st103" d="M49.77,45.34c.38.3.57.75.57,1.35l.36,1.44c.29.82.29,1.46,1.03,2.06-1.13-.52-1.07-1.59-1.39-2.57-.41-1.22-.8-2.52-1.29-3.71.22.42.56,1.02.72,1.44Z"/>
  <path class="st20" d="M55.74,57.29c.53-.07.6,0,.63.52-.15,1.74-.33,3.45-.53,5.15-.15.63-.09,1.41-.1,2.06-.04.56-.08,1.11-.1,1.65.09.51.08,1.03,0,1.55,0,.21,0,.41,0,.62l-.1,1.44c0,.24,0,.48,0,.72-.04.53-.08,1.04-.1,1.55-.04.53-.08,1.04-.1,1.55-.03.52-.09,1.08-.1,1.65-.08.53-.14,1.06-.18,1.6l-.23-.05c-.38.07-.49-.23-.32-.9l-.32-.69c-.28-2.74-.51-5.49-.67-8.25-.31-1.41-.42-2.82-.33-4.22l-.62-4.1c-.28-.49-.5-.94.2-1.21.16-.06.28-.06.41-.1.2.08.19.26,0,.56.65,2.46.93,4.99.86,7.58.45,1.58.78,3.01.59,4.63.09,1.2.22.56.32-.17l.42-9.86c.33-.99.42-1.96-.08-2.9l.06-.25c.11-.02.22-.08.41-.1Z"/>
  <path class="st25" d="M60.27,62.13c-.99-.81-.72-.32-1.7-.41-.35-.03-1-.61-1.08,0-.27-.08-.54-.13-.82-.1-.24-.18-.15-.29-.31-.52-.3-.16-.34-1.01,0-1.13.45-.15,1.31-.03,1.74.17s1.56,1.19,1.92,1.58c.12.13.26.21.26.41Z"/>
  <path class="st117" d="M55.74,57.29c.26-.04,1.71-.48,1.26.2-.18.28,0,.19-.03.46-.06.5-.4.85-.09,1.3-.31.16-.48.38-.51.72-.04.36.03.77,0,1.13-.07.85-.35,1.17-.51,1.85-.24-.55-.03-1.06,0-1.6.06-.86.15-1.69.19-2.58.02-.39.41-1.55-.3-1.49Z"/>
  <path class="st117" d="M55.74,66.15c0,.17,0,.34,0,.52-.03.09-.06.09-.1,0,0-.52-.09-1.19.1-1.65,0,.38,0,.76,0,1.13Z"/>
  <path class="st64" d="M70.98,48.53l.28.1c.32,1.02.55,2.06.69,3.14.16.22,2.14-.36,2.49-.53.02-.31.13-.43.35-.34.08.2.15.41.21.62-.29.03-.48-.13-.41.26.05.27.31.32.39.54.14.41.21,1.69.23,2.19-.26.13-.59.19-.99.18l-1.96.52c.48.11.67.29.58.53-.26.16-.57.16-.93,0-.13-.06-.4,0-.51-.26.08-.08.14-.16.2-.26-.13-.15-.07-.2.1-.1v-1.36c.26-.72.16-1.23-.31-1.53l-.2-.31c.06-1.1-.08-2.15-.44-3.18-.03-.15.08-.2.23-.22Z"/>
  <path class="st120" d="M75.2,54.51c0,.07,0,.14,0,.21.07.16.09.43,0,.58-.05.07-1.49.64-1.6.66-.23.04-.74.07-.76-.21-.25-.34-.92-.18-.82-.72,1.06-.07,2.16-.83,3.19-.52Z"/>
  <path class="st35" d="M75.41,55.84c-.12-.15-.06-.28-.31-.16s-.9.73-1,.76c-.04,0-.66-.07-.75-.09-.43-.1-1.03-.42-1.44-.62.31,0,.62,0,.93,0s.74.05,1.04-.05c.31-.1.83-.61,1.32-.59.04-.13,0-.27.01-.4l.08.07c.01.36.05.71.12,1.06Z"/>
  <path class="st10" d="M51.62,23.6c.16.21-.09,1.21-.2,1.29-.05.03-1,.24-1.1.24-.3,0-.56-.21-.86-.2.02-.28.3-.44.28-.76-.03-.48-.65-2.78-.9-3.16-.16-.25-.24-.36-.41-.65-.06-.1-.29-.02-.21-.22l.1-.05c1.66.67,2.58,1.92,3.3,3.5Z"/>
  <path class="st136" d="M51.93,31.02c.37.16.67.19,1.03.31.73-.13,3.56.94,3.83,1.44.04.07.06.14.08.21.33-.05.44-.06.31.31-.14.16-.38.11-.74-.15-.8.77-2.4.83-3.28.15-.27.18-.94-.39-.94-.74.16-.67.01-1.1-.44-1.28l-.17-.14s-.07-.07-.1-.1c.13.02.28-.01.41,0Z"/>
  <path class="st224" d="M68.1,34.52c.19.32.28.43.51.72.48.97,1.06,1.87,1.53,2.85,1.97,4.09,3.06,8.57,4.65,12.81-.14.12-.09.34-.2.47-.16.21-2.6.81-2.78.65-.37-1.13-.25-2.45-.83-3.49-.09-.03-.09-.06,0-.1.15-.35.6-.5.93-.31.68-.12,1.02-.34,1-.66-.7-2.47-1.45-5.01-2.55-7.35l.1-.23c-.41-.71-.79-1.43-1.13-2.24-.58-1.2-1.21-2.39-2.11-3.39l-.06-.35c-.79-.83-1.73-1.5-2.81-2.01l-.07-.25c-2.43-.86-5.1-1.53-7.68-1.36-.26-.11-.12-.24.05-.39.13-.09.52-.41.62-.52l.23-.13c3.97.48,8.11,1.9,10.58,5.28Z"/>
  <path class="st113" d="M61.4,29.47c.44.26.82.6,1.27.84,2.21,1.21,4.06,1.94,5.43,4.2-.49-.45-.89-.99-1.39-1.44-2.11-1.94-4.77-2.86-7.55-3.36-.63-.11-1.29-.08-1.87-.34.05-.05.59-.78.62-.82.76.14,1.67.19,2.41.42.33.1.73.38,1.09.51Z"/>
  <path class="st186" d="M59.96,50.8c.17-.09.3-.09.41,0l-.05.24-1.65.19c.51,1.27.74,2.63.95,3.98.78-.11,1.55-.33,2.32-.66l.18.16c.03-.09.06-.09.1,0,.11.18.11.25-.05.37.37.33.6.73.67,1.18.28.3.32.89.1,1.24l-.2.27c-.21,0-2.9.72-2.76.81.75.03,3.86,2.17,3.75,2.68-.01.05-.04.1-.06.15-.33-.2-.53-.54-.83-.77-1.11-.85-2.26-1.06-3.39-1.65-.17-.09-.32-.11-.31-.36-.13-.14-.07-.2.1-.1v-1.31c.36-1.06.13-1.59-.7-1.58.21-1.48.13-3.25-.95-4.41l.1-.23c.29-.02.53-.09.72-.1.49-.04,1.06-.1,1.54-.1Z"/>
  <path class="st154" d="M62.95,57.49c.09.01.17.05.18.13-.03,1.33.37,2.26,1.22,2.79.21.78.48,1.58.88,2.33l-.12.21c.02.29-.06.25-.26.1-.37-.28-.89-1.22-1.18-1.65-.62-.93-2.13-1.95-3.17-2.44-.36-.17-.73-.19-1.05-.39,1.08-.62,2.32-.75,3.5-1.08Z"/>
  <path class="st11" d="M63.98,53.58c-.01.27-.14.55-.38.85-.47,1.06-.14,3.5.15,4.62.16.63.63,1.58,1.06.6.06.15.19.51.31.57.15.03.28-.11.41-.16-.22.77.56,1.59.67,2.36.04.29-.51.56-.05.52.16.3-.24.52-.41.21-.21.01-.48-.03-.62-.21-.11-.13-.69-1.5-.77-1.75-.07-.2,0-.48-.07-.6-.02-.04-.5-.35-.65-.53-.5-.64-.59-1.8-.67-2.58-.04-.41-.06-.82-.1-1.24l-.23-.72c-.5-.37-.56-.65-.18-.83-.1-.3.18-.4.31-.1.19-.44.47-.71.82-.82,0-.07.06-.14.21-.21.04-.28.12-.26.21,0Z"/>
  <path class="st62" d="M68.92,68.93c-.56-.12-.6.22-1.05-.44-.62-.91-1.57-3.71-2.1-4.91-.06-.14-.18-.25-.05-.41.26-.02.29-.16.41-.21.07-.03.14-.07.21-.1-.04.21.05.37.12.55.44,1.28,1.14,2.82,1.69,4.08.22.5.45,1,.77,1.44Z"/>
  <path class="st172" d="M58.01,55.95c.46-.14.73-.15.9.35.03.1.15,2.02.12,2.13-.05.18-.11.23-.3.31-.14.04-.28.06-.41.1l-.14-.08c0-.89-.13-1.71-.39-2.45l.02-.25s.11-.08.21-.1Z"/>
  <path class="st3" d="M59.24,58.52s-.09.09-.1.1c-.09.05-.29.07-.41.1.25-.36.02-.73,0-1.08-.03-.66.28-1.87-.72-1.7.03,0,.1-.08.21-.1.24-.46,1.2-.17,1.15.4-.1.76-.14,1.52-.12,2.28Z"/>
  <path class="st198" d="M58.32,58.83c-.08.02-.23-.02-.31,0-.42-.89.1-1.82-.62-2.58-.09-.03-.09-.06,0-.1.03,0,.07,0,.1,0,.12-.03.22-.08.31-.1.22.12.37.44.41.68.09.61.06,1.47.11,2.11Z"/>
  <path class="st171" d="M69.23,52.86c.19-.09.69-.25.88-.19.51.14.52,2.2.46,2.73l-.21.15c-.26.07-1.26.29-1.32.48.06.72,0,1.61.09,2.3-.21-.13-.16-.33-.21-.52-.19-.47-.36-.95-.41-1.46-.18.03-.32-.13-.41-.5-.27-.51-.33-1.13-.72-1.55-.15.46.19,2.2.05,2.47-.13.25-1.26.52-1.5.31-.23-.8-.34-1.62-.34-2.47-.02-.07-.15-.07-.38,0,.08.27,0,.29-.21.1-.15.1-.36.1-.52.25-.5.46-.25,1.33-.2,1.91.07.79.17,1.83.41,2.58.31.82-.74.83-.51.1l.11-.07c-.56-1.84-.61-3.49-.15-4.96l-.16-.12c-.37-.81.83-1.14,1.44-1.31l1.13-.23c.29-.22.57-.36.97-.21.55.37.91.26,1.52.04l.19.17Z"/>
  <path class="st204" d="M68.1,55.84c.05.1.21.39.31.41.1-.53-.17-1.09-.1-1.6.02-.19-.03-.17.21-.15.2,1.07.17,2.27.41,3.3-.36-.58-.67-1.29-.82-1.96Z"/>
  <path class="st31" d="M65.94,57.08c-.19-.17-.36-.77-.41-1.03l-.28-1.28c.11.05.1,0-.03-.17.08-.06.16-.35.36-.31.44.1.18,2.31.36,2.78Z"/>
  <path class="st70" d="M65.22,54.61c.06,0,.19-.02.21,0,.04.06.05,1.17.1,1.44l-.51-1.34c.06-.04.14-.06.21-.1Z"/>
  <path class="st104" d="M70.98,52.45l.25.06c.11.87.19,1.75.23,2.63l-.28.19c-.27.08-.55.13-.82.21v-1.9c-.06-.13-.28-.84-.32-.87-.04-.04-.68.07-.81.09-.04-.3.05-.35.31-.21.57-.36,1.05-.42,1.44-.21Z"/>
  <path class="st78" d="M71.7,55.12s-.08.06-.1.1c-.14.04-.28.07-.41.1.24-.33.01-.66,0-.98-.03-.64.11-1.31-.21-1.9-.09-.03-.09-.06,0-.1.03-.09.06-.09.1,0,.75-.17.75.37.62.93v1.85Z"/>
  <path class="st63" d="M66.25,52.86c.13-.05.24-.05.31,0-.35.07-1.71.47-1.97.62-.38.22-.46.59-.6.92l.11.18c-.38,1.55-.32,3.17.19,4.86l-.1.11c.23.51.61.47.51-.1.01.04.07.13.1.21.15.8-.6.75-.98.21-.44-.63-.74-3.86-.65-4.68.06-.58.36-1.23.81-1.61-.05-.08-.07-.21,0-.25.65-.34,1.35-.55,2.07-.66l.21.19Z"/>
  <path class="st22" d="M55.53,72.74v3.61c-.03-.72-.09-1.5-.1-2.27-.09-.51-.08-1.03,0-1.55,0-.49-.09-1.12.1-1.55,0,.58,0,1.17,0,1.75Z"/>
  <path class="st22" d="M55.64,68.21c0-.51,0-1.03,0-1.55h.1c0,.49.09,1.12-.1,1.55Z"/>
  <path class="st22" d="M55.53,70.27c0-.45-.09-1.05.1-1.44,0,.45.09,1.05-.1,1.44Z"/>
  <path class="st22" d="M55.64,78.4c-.2-.35-.08-.91-.1-1.34.19.34.1.92.1,1.34Z"/>
  <path class="st22" d="M55.84,81.29c-.17-.79-.18-1.67-.21-2.47.23.78.14,1.68.21,2.47Z"/>
  <path class="st84" d="M55.64,88.09c-.57-.28-.12-.42-.11-.67.01-.21-.31-.54-.31-.62v-1.85c0-.13-.85-1.6-.72-2.36.03-.21.22-.3.21-.62s-.24-.67-.27-.98c-.05-.55-.04-.96-.15-1.55.11-.12.19-.24.22-.36l.07-1.66.22-.14s.16-.13.19-.27c.07-.41-.05-.91.23-1.27-.02,1.72.01,3.66.1,5.41.12,2.33.57,4.61.31,6.95Z"/>
  <path class="st84" d="M55.43,74.08h-.1c.02-.5-.1-1.11.1-1.55,0,.51,0,1.03,0,1.55Z"/>
  <path class="st221" d="M38.13,72.12c1,.2,2.11.45,3.15.61.83.13,2.51-.17,2.31,1.04-.34.39-.96,1.38-1.18,1.86-.5,1.04-.68,2.22-1.08,3.29.11-.5.21-1.04.31-1.55.16-.83.17-1.54.51-2.37.11-.27.53-.57.6-.9.19-.87-.66-.57-1.16-.66-1.38-.23-2.76-.5-4.14-.7s-2.94.16-3.64-1.25c.27-.08.37-.22.74-.19,1.03.09,2.51.59,3.58.8Z"/>
  <path class="st128" d="M41.12,80.46c.15.08.52.06.52.36,0,.15-.53.87-.69.97-.91.59-2.29.66-3.33.73,1.37-.32,2.81-.89,3.4-2.27,0,.1,0,.15.1.21Z"/>
  <path class="st159" d="M57.7,51c.23.45.63.83.78,1.33.12.39.35,1.92.36,2.33,0,.34-.14.63-.11.97,1.37-.18.69.75.62,1.49-.04.41.12,1.1-.1,1.39-.26-.72.06-1.87-.12-2.5-.11-.38-.6-.25-.91-.18.11-.18.19-.34.21-.56.14-1.37.08-2.73-.82-3.82-.2-.24-.52-.2-.72-.41.24-.11.56-.04.82-.05Z"/>
  <path class="st60" d="M43.07,27.82c-.25.03-.54,0-.51-.31.25-.03.54,0,.51.31Z"/>
  <path class="st217" d="M61.3,50.49c.27,1.35.61,2.69,1.01,4.03l-.19.19c-.41.11-2.4.93-2.67.71-.23-1.44-.44-2.92-1.04-4.26.05-.28,1.64-.17,1.96-.36.02-.1.05-.21.07-.34-.6-2.15-1.31-4.31-2.2-6.38l.07-.18c.02-.24-.02-.45-.1-.68-.44-1.28-1.13-2.51-1.48-3.79-.06-.2-.63-.61-.38-.89.41.24.72.61.92,1.1,1.8,3.22,2.93,6.75,4.04,10.25.03.09.03.19.02.29s-.02.21-.04.31Z"/>
  <path class="st97" d="M52.55,33.9c.92.52,2.14,1.42,2.88,2.16.08,0,.16.02.23.04,1.1.35,3.09,4.82,3.53,6.03,1.28,3.58,2.5,7.18,3.65,10.8.14.44.26.75.72.85-.29.31-.43.6-.62.98-.1.14-.16-.14-.21-.16-.08-.09-.16-.18-.23-.28s-.13-.19-.17-.3c-.44-1.13-.88-2.37-1.04-3.55-1.39-4.08-2.53-8.33-4.94-11.95-.61-.92-1.27-1.75-2.11-2.47-.63-.54-1.35-.95-2.01-1.44.21.07.58.12.82.21.08-.44-.48-.52-.51-.93Z"/>
  <path class="st191" d="M51.31,35.14c.35.04,1.15.45,1.47.64,2.22,1.32,3.75,4.03,4.71,6.37-.08-.01-.15-.03-.18-.08-.43-.68-.82-1.46-1.16-2.19-.7-1.11-2.12-3.25-3.57-3.26-.15,0-.8.12-.96.17-.06-.41-.42-.29-.67-.51-.37-.31-.27-.44-.87-.72-.2.21-.37.03-.41-.21v-.1c.43-.02,1.17-.16,1.65-.1Z"/>
  <path class="st66" d="M57.49,42.14c.28.56.58,1.17.82,1.75.71,1.68,1.66,4.24,2.09,6,.08.34.29.72-.03.91-.14,0-.27,0-.41,0,.07-.1.4-.16.41-.26,0-.05-.25-.67-.31-.88-.95-2.98-2.18-5.94-3.67-8.6l.07-.26c-.04-.35-.39-.55-.31-.93.46.73.97,1.53,1.34,2.27Z"/>
  <path class="st214" d="M49.66,35.35c.25,0,.29.15.41.21,0,.71-.55,1.03-1.11,1.31-1.19.61-2.91,1.18-4.25,1.06-.09-.15-.16-.35-.06-.52.03-.04.73-.5.81-.54.65-.3,1.65-.49,2.34-.75.57-.22,1.17-.78,1.86-.77Z"/>
  <path class="st185" d="M55.64,35.04c.71.37,1.16.73,1.51,1.48,2.52,5.37,4.28,10.77,6.03,16.26.08.4.28.67.6.8-.03.12-.15.15-.21.21-.45,0-.58-.04-.74-.44-1.98-4.99-3.55-13.46-7.39-17.28-.06-.96-1.3-1.46-1.75-2.27h.1c.6.02,1.67.65,1.85,1.24Z"/>
  <path class="st195" d="M51.62,31.12c1.35.06.61,1.1.88,1.65.03.06.52.39.67.51.37.14.57.31.62.52h-.1c-.61-.08-2.26-1.15-2.16-1.79.06-.4.52-.36.1-.88Z"/>
  <path class="st144" d="M55.33,57.39c.35.3.55,1.44.52,1.91-.03.44-.24.89-.3,1.35-.36,2.83-.04,5.7-.31,8.44-.03.33-.07,2.41-.47,2.41-.58,0-.28-2.25-.3-2.61-.05-1.1-.67-2.33-.69-3.32-.03-1.4-.03-2.91-.2-4.32-.12-.94-.38-1.98-.62-2.9l.21-.56c.82-.24,1.37-.28,2.16-.41Z"/>
  <path class="st160" d="M54.09,56.87c-.3-.1-1.2.33-1.32-.07l-.43-4.21c.08-.82,2.21-.76,2.5-.13.23,1.08.72,2.11.8,3.22.05.74.13.78-.62.88.01.05.11.09.1.1-.01.1-.08.08-.1.1-.35.15-.66.18-.93.1Z"/>
  <path class="st188" d="M52.75,57.9c-.63.6-.05.8,0,1.19.15,1.29.41,2.66.61,4.02.08.58-.15,1.14-.1,1.75.06.69.33,1.53.41,2.27.28,2.75.18,5.59.65,8.32.07.41.32.67.37.88.07.3-.26.64.12.95-.08.55,0,1.36-.1,1.91-.05.26-.19.27-.41.26-.19-1.01-.03-1.33-.12-2.2-.04-.38-.29-.79-.3-1.04-.06-1-.04-2.06-.09-3.09-.03-.56.05-1.51-.2-1.94-.07-.12-.27-.08-.32-.33-.09-.5.08-1.24,0-1.76-.08-.57-.28-1.19-.32-1.84-.05-.86.15-2.23,0-2.99-.04-.22-.24-.28-.28-.44-.36-1.28-.12-2.35-.23-3.57-.05-.52-.54-1.71-.26-2.12.09-.13.42-.15.57-.2Z"/>
  <path class="st198" d="M55.02,56.77c-.35.29-1.47.37-1.96.41.29-.06.73-.25,1.03-.31s.63-.09.93-.1Z"/>
  <path class="st172" d="M57.39,56.15v.1c-.25.04-.6.04-.82.1.19-.3.56-.16.82-.21Z"/>
  <path class="st197" d="M52.86,23.4c.9-1.14,2.1,1.06,1.93,1.88-.11.53-.5.73-.64,1.01-.07.14-.04.39-.05.41-.11.12-.57-.18-.72-.21-.08-1-.3-2.11-.51-3.09Z"/>
  <path class="st116" d="M56.15,30.19c.29.28-.02.19.07.09.03-.03.82.17.65.43.41-.21,1,1.08.62,1.34.44.16-.15,1.42-.62.93-1.2-.78-2.57-1.22-3.91-1.65,1.07-.46,2.16-.55,3.19-1.13Z"/>
  <path class="st55" d="M56.67,29.89c-.18.3-.11.18.13.17,2.46-.04,5.31.43,7.49,1.58l-.34.1c-.83-.2-1.64-.44-2.44-.72l-.33.14c-1.49-.49-2.92-.64-4.3-.45-.06-.04-.77-.25-.82-.31l.1-.2c.11-.06.44-.25.51-.31Z"/>
  <path class="st115" d="M49.77,45.34c-.13-1.16-1.31-2.25,0-3.14.65-.44,1.57-.37,2.4-.79.91-.46,1.29-.63,2.33-.86.8-.18,1.4-.49,1.96.26.31.41.98,1.8,1.22,2.33.91,1.99,1.82,4.42,2.38,6.53-.42-.46-.43-1.1-.64-1.67-.33-.91-.79-2.16-1.22-3-.55-1.08-.87-1.5-2.2-1.29-.1.02-1.17.37-1.33.42-.17.06-.2.33-.4.42-.24.11-.54.01-.76.17s-.22.6-.35.68c-.15.1-.45.01-.65.07-.27.08-.49.29-.77.36-.3.08-.94.04-1.2.22-.4.28.22,1.64.14,2.07-.32-.91-.59-1.9-.93-2.78Z"/>
  <path class="st225" d="M32.85,41.65c.27-.08,1.09-.04,1.42-.02.4.02,2.51.33,2.72.47.73.48-.82.64-1.18.66-.61.04-2.93-.14-3.3-.61-.13-.17.2-.46.33-.5Z"/>
  <path class="st212" d="M70.98,48.43v.1c-.13.27.19.78.26,1.13.18.87.17,1.69.15,2.58-.06.05-.16.08-.31.1h-.1c-.12.14-.41.11-.4-.13.21-1.22.08-2.41-.35-3.55l.24-.14c.02-.31.38-.37.51-.1Z"/>
  <path class="st28" d="M71.39,52.24c1.05,0,.51,1.12.41,1.8-.06.41.09.67-.1,1.08-.06-.57-.18-1.24-.21-1.8-.02-.37.35-.97-.41-.98.05-.13.2-.1.31-.1Z"/>
  <path class="st1" d="M58.01,32.05c.27.06.52.3.74.71.53.44,3.11-.36,3.74-.7h.46c.08-.18.26-.15.51.09.21-.28.87.23.72.52,1.61,1.59-.8,2.06-2.06,2.05-.81.22-1.6.5-2.37.83h-.28c-.66-.76-1.38-1.47-2.23-1.99l-.06-.27c-.07-.12-.19-.23-.31-.31.37.16.62-.7.62-.93,0-.31.46-.28.51,0Z"/>
  <path class="st36" d="M57.18,33.28c.89.48,1.93,1.49,2.57,2.27.08.02.17.05.24.08.81.4,2.83,4.75,3.26,5.83-.06.16-.06.32,0,.47.3,0,.55.95.31,1.13h-.23s-1.99-4.39-1.99-4.39c-.51-.79-1.09-1.53-1.68-2.26-.55-.68-.88-.88-1.7-.47-.94,0-1.6-.41-2.33-.91-.62-.5-1.23-.79-1.85-1.24-.22-.15-.42-.35-.62-.52.7.35,1.95.29,2.68.06.23-.07.47-.44.56-.45.04,0,.66.33.77.39Z"/>
  <path class="st210" d="M64.19,32.67c.09-.52.81.3.82.62.61.4.88,1.48.72,2.19.02.32.15.62.28.91.17.38.74,1.64,1.16,1.48,1.29-1.39,2.41-.12,2.76,1.24.24.14.43.4.54.78.66,1.03,2.38,6.22,2.57,7.48.1.7-.56.59-1.12.76,0-.3.23-.48.68-.56-.41-1.09-.76-2.2-1.07-3.32-.08-.37-.25-.6-.51-.7-.51.12-1.93.32-2.38.08-.18-.1-.26-.26-.3-.45-.92.08-1.21-.39-1.2-1.24-.61.06-1.02.07-1.2-.59-.3,0-.6-.02-.89-.09-.43-.69-.76-.83-.95.11-.36.12-.64.32-.83.59-1.03-2.19-1.94-4.5-3.5-6.39.02-.2-.26-.26.05-.31.78-.11,1.31-.55,2.08-.7.42-.08,1.01-.05,1.41-.13.1-.02,1-.36,1.04-.4.37-.3.05-1.01-.16-1.35Z"/>
  <path class="st112" d="M63.26,41.94c-.03-.8.49-.49.67-.72s-.04-.85.69-.71c.43.08.32.41.45.51.24.18.74,0,.97.14.15.09.15.48.37.55.23.08.71-.05.84.03.15.09.05.74.21.97.25.37.94.19,1.02.26.05.04,0,.34.22.45.2.1,1.2.07,1.5.05.58-.03.91-.42,1.27.17.31.5.59,1.8.78,2.41.15.48.45,1.12.57,1.6.01.05,0,.1,0,.15-.42-.14-.68.21-.93.31-.3.12-.62.23-.93.31-.16.04-.34.06-.51.1l-.14.24c-1.48.3-2.95.67-4.39,1.1l-.33-.51c-.74-2.05-1.45-4.06-2.15-6.03l.11-.26c-.08-.26-.3-.91-.31-1.13Z"/>
  <path class="st124" d="M67.17,33.9c1.29,1.26,2.27,3.41,3,5.08.12.28.26.58.29.89,0-.01-.13-.08-.19-.17s-.08-.3-.13-.33c-.1-.06-.34.03-.39-.02-.02-.02-.03-.41-.1-.57-.16-.37-.69-1.17-1.07-1.31-.93-.34-1.09,1.09-1.97.44-.34-.83-1.01-1.5-1.08-2.43-.02-.23.1-.4.06-.66-.06-.4-.41-1.14-.58-1.54.09-.13.25-.18.5-.14.6-.33,1.16-.08,1.66.76Z"/>
  <path class="st50" d="M64.29,31.64c.85.32,2,1.19,2.63,1.85.12.13.26.21.26.41-.16-.16-.77-.74-.92-.78-.34-.09-.54.43-1.24.17-.33-.13-.51-.49-.65-.59-.07-.05-.16-.02-.17-.03-.22-.15-.45-.4-.72-.52-.64-.32-1.3-.62-1.97-.89l.02-.24c.93.19,1.88.27,2.78.62Z"/>
  <path class="st92" d="M62.74,54.61c-.09-.04-.25.1-.31.1-.03.27-.1.27-.21,0-.03,0-.07,0-.1,0-.02-.63-.35-1.21-.51-1.81-.07-.24-.05-.61-.12-.91-.12-.49-.52-.87-.19-1.5.47,1.38,1.01,2.73,1.44,4.12Z"/>
  <path class="st105" d="M62.43,54.71c-.28.37.31.52.39.79.07.24,0,.51.02.75-.11-.38-.93-.96-.93-1.29,0-.08.3-.09.31-.26.06-.01.14,0,.21,0Z"/>
  <path class="st75" d="M55.64,35.04c.33-.05.45.26.72.36.11.04,1.42.36,1.5.36.23,0,.62-.37,1.22-.19.05.02.71.65.8.75.62.69,1.14,1.51,1.66,2.25l2.04,4.5c.06.19.23.43.31.67.68,2.05,1.34,4.1,2.06,6.13.09.01.09.05,0,.1.23.16.37.43.44.82l.66,1.67c-.08.24-.34.37-.79.4-.52.03-1.89.41-2.27.72-.07,0-.14-.01-.21,0-.11.02-.33.13-.4.09-.37-.22-2.38-7.06-2.73-8.04-.99-2.86-2.2-5.8-3.44-8.5-.51-1.11-.59-1.3-1.57-2.09Z"/>
  <path class="st112" d="M69.54,52.65c-.11.06-.21.13-.31.21-.28.05-.91.28-1.08.26-.57-.07-.49-.49-1.59-.26-.1,0-.21,0-.31,0l.61-.26c-.25-.79-.82-1.84-.92-2.63.69-.28,1.48-.47,2.36-.56,2.1-.95,2.09.36,1.97,2.05.15.78.08,1.02-.72,1.19Z"/>
  <path class="st93" d="M63.98,54.4c.16-.15.29-.08.29.13,0,.31-.26.83-.29,1.26-.08,1.08.24,2.43.41,3.51.03.17.1.49-.2.26-.29-.65-.61-3.74-.49-4.46.04-.25.19-.47.28-.69Z"/>
  <path class="st21" d="M70.47,48.53c-.17.42.25.68.31,1.18.05.43.09,1.09.11,1.54.01.28-.14,1.04-.1,1.08.03.03.17-.01.2,0,.02.01-.01.07,0,.1l-1.44.21c.26-.16.53-.25.6-.59-.21-.72.02-1.52-.09-2.24-.16-.99-1.17-.33-1.74-.21-.63.14-1.27.25-1.9.37-.17.03-.31.12-.47-.01,0-.03,0-.07,0-.1,0-.1,0-.21,0-.31,1.1-.09,2.2-.52,3.27-.79.4-.1.88-.14,1.26-.24Z"/>
  <path class="st85" d="M61.51,31.02c.6.49,1.56.45,1.96,1.13-.11-.05-.35-.04-.51-.1l-.48.04c-.66-.26-3.77-1.27-4.22-.76-.03.34-.11.57-.24.71h-.51s-.15-.62-.18-.69c-.05-.13-.34-.58-.44-.64,0-.47.87-.32,1.18-.31,1.1.05,2.36.4,3.45.62Z"/>
  <path class="st123" d="M62.95,32.05c-.84.52-3.49,1.37-4.32.87-.07-.04-.6-.76-.62-.87-.11-.59-.06-.98.56-1.04,1.16-.11,3.28.63,4.38,1.04Z"/>
  <path class="st112" d="M68.89,41.75c.13-.04,1.09-.05,1.21,0,.19.07.14.35.27.45.11.08.58.03.51.31-.14.65-1.05-.48-1.13-.51-.55-.26-.75.56-.87.57-.16,0-.29-.71.01-.81Z"/>
  <path class="st112" d="M68.51,41.11c.18.52-.81.54-.93.26-.19-.44.66-.2.93-.26Z"/>
</svg>